<?xml version="1.0" encoding="utf-8" standalone="no"?>
<!DOCTYPE svg PUBLIC "-//W3C//DTD SVG 1.1//EN"
  "http://www.w3.org/Graphics/SVG/1.1/DTD/svg11.dtd">
<!-- Created with matplotlib (https://matplotlib.org/) -->
<svg height="247.2775pt" version="1.1" viewBox="0 0 371.2 247.2775" width="371.2pt" xmlns="http://www.w3.org/2000/svg" xmlns:xlink="http://www.w3.org/1999/xlink">
 <defs>
  <style type="text/css">
*{stroke-linecap:butt;stroke-linejoin:round;}
  </style>
 </defs>
 <g id="figure_1">
  <g id="patch_1">
   <path d="M 0 247.2775 
L 371.2 247.2775 
L 371.2 0 
L 0 0 
z
" style="fill:none;"/>
  </g>
  <g id="axes_1">
   <g id="patch_2">
    <path d="M 29.2 224.64 
L 364 224.64 
L 364 7.2 
L 29.2 7.2 
z
" style="fill:#ffffff;"/>
   </g>
   <g id="PathCollection_1">
    <defs>
     <path d="M -0 3 
L 3 -3 
L -3 -3 
z
" id="me3f58fb6f6" style="stroke:#1f77b4;"/>
    </defs>
    <g clip-path="url(#p2a181f417b)">
     <use style="fill:#1f77b4;stroke:#1f77b4;" x="212.919604" xlink:href="#me3f58fb6f6" y="214.460598"/>
     <use style="fill:#1f77b4;stroke:#1f77b4;" x="234.042514" xlink:href="#me3f58fb6f6" y="141.336759"/>
     <use style="fill:#1f77b4;stroke:#1f77b4;" x="182.871815" xlink:href="#me3f58fb6f6" y="119.25171"/>
     <use style="fill:#1f77b4;stroke:#1f77b4;" x="106.540851" xlink:href="#me3f58fb6f6" y="123.499296"/>
     <use style="fill:#1f77b4;stroke:#1f77b4;" x="179.769326" xlink:href="#me3f58fb6f6" y="213.46045"/>
     <use style="fill:#1f77b4;stroke:#1f77b4;" x="182.052038" xlink:href="#me3f58fb6f6" y="83.736202"/>
     <use style="fill:#1f77b4;stroke:#1f77b4;" x="333.341076" xlink:href="#me3f58fb6f6" y="152.917866"/>
     <use style="fill:#1f77b4;stroke:#1f77b4;" x="294.884342" xlink:href="#me3f58fb6f6" y="17.379402"/>
     <use style="fill:#1f77b4;stroke:#1f77b4;" x="288.749419" xlink:href="#me3f58fb6f6" y="52.67509"/>
     <use style="fill:#1f77b4;stroke:#1f77b4;" x="348.496992" xlink:href="#me3f58fb6f6" y="153.721227"/>
    </g>
   </g>
   <g id="PathCollection_2">
    <defs>
     <path d="M 0 3 
C 0.795609 3 1.55874 2.683901 2.12132 2.12132 
C 2.683901 1.55874 3 0.795609 3 0 
C 3 -0.795609 2.683901 -1.55874 2.12132 -2.12132 
C 1.55874 -2.683901 0.795609 -3 0 -3 
C -0.795609 -3 -1.55874 -2.683901 -2.12132 -2.12132 
C -2.683901 -1.55874 -3 -0.795609 -3 0 
C -3 0.795609 -2.683901 1.55874 -2.12132 2.12132 
C -1.55874 2.683901 -0.795609 3 0 3 
z
" id="m2809c61108" style="stroke:#ff7f0e;"/>
    </defs>
    <g clip-path="url(#p2a181f417b)">
     <use style="fill:#ff7f0e;stroke:#ff7f0e;" x="47.514657" xlink:href="#m2809c61108" y="130.334293"/>
     <use style="fill:#ff7f0e;stroke:#ff7f0e;" x="63.460517" xlink:href="#m2809c61108" y="186.520507"/>
     <use style="fill:#ff7f0e;stroke:#ff7f0e;" x="132.530976" xlink:href="#m2809c61108" y="196.779545"/>
     <use style="fill:#ff7f0e;stroke:#ff7f0e;" x="174.95402" xlink:href="#m2809c61108" y="179.48877"/>
     <use style="fill:#ff7f0e;stroke:#ff7f0e;" x="139.898516" xlink:href="#m2809c61108" y="173.166128"/>
     <use style="fill:#ff7f0e;stroke:#ff7f0e;" x="160.54995" xlink:href="#m2809c61108" y="156.721321"/>
     <use style="fill:#ff7f0e;stroke:#ff7f0e;" x="122.985701" xlink:href="#m2809c61108" y="76.861548"/>
     <use style="fill:#ff7f0e;stroke:#ff7f0e;" x="268.836819" xlink:href="#m2809c61108" y="136.482331"/>
     <use style="fill:#ff7f0e;stroke:#ff7f0e;" x="139.667825" xlink:href="#m2809c61108" y="182.99341"/>
     <use style="fill:#ff7f0e;stroke:#ff7f0e;" x="46.808669" xlink:href="#m2809c61108" y="208.105764"/>
    </g>
   </g>
   <g id="matplotlib.axis_1">
    <g id="xtick_1">
     <g id="line2d_1">
      <defs>
       <path d="M 0 0 
L 0 3.5 
" id="m7054b07843" style="stroke:#000000;stroke-width:0.8;"/>
      </defs>
      <g>
       <use style="stroke:#000000;stroke-width:0.8;" x="55.897262" xlink:href="#m7054b07843" y="224.64"/>
      </g>
     </g>
     <g id="text_1">
      <!-- −4 -->
      <defs>
       <path id="SimSun-8722"/>
       <path d="M 35.9375 8.984375 
Q 35.9375 6.25 37.5 5.078125 
Q 39.0625 3.90625 41.796875 3.90625 
L 45.3125 3.90625 
L 45.3125 1.5625 
L 19.53125 1.5625 
L 19.53125 3.90625 
L 23.828125 3.90625 
Q 26.953125 3.90625 28.3125 5.078125 
Q 29.6875 6.25 29.6875 8.984375 
L 29.6875 21.875 
L 3.515625 21.875 
L 3.515625 23.828125 
L 32.03125 69.140625 
L 35.9375 69.140625 
L 35.9375 24.21875 
L 46.484375 24.21875 
L 46.484375 21.875 
L 35.9375 21.875 
z
M 29.296875 59.375 
L 7.03125 24.21875 
L 29.6875 24.21875 
L 29.6875 59.375 
z
" id="SimSun-52"/>
      </defs>
      <g transform="translate(48.397262 238.788437)scale(0.1 -0.1)">
       <use xlink:href="#SimSun-8722"/>
       <use x="100" xlink:href="#SimSun-52"/>
      </g>
     </g>
    </g>
    <g id="xtick_2">
     <g id="line2d_2">
      <g>
       <use style="stroke:#000000;stroke-width:0.8;" x="119.470521" xlink:href="#m7054b07843" y="224.64"/>
      </g>
     </g>
     <g id="text_2">
      <!-- −2 -->
      <defs>
       <path d="M 36.328125 51.953125 
Q 36.328125 58.984375 33.203125 62.6875 
Q 30.078125 66.40625 23.828125 66.40625 
Q 19.140625 66.40625 15.8125 63.859375 
Q 12.5 61.328125 12.5 57.421875 
Q 12.5 55.078125 14.0625 53.515625 
Q 15.234375 51.953125 15.234375 50.390625 
Q 15.234375 48.4375 14.25 47.453125 
Q 13.28125 46.484375 11.328125 46.484375 
Q 8.984375 46.484375 7.609375 47.84375 
Q 6.25 49.21875 6.25 52.34375 
Q 6.25 60.546875 12.109375 64.84375 
Q 17.96875 69.140625 24.609375 69.140625 
Q 33.984375 69.140625 38.46875 64.453125 
Q 42.96875 59.765625 42.96875 52.734375 
Q 42.96875 48.046875 40.8125 43.359375 
Q 38.671875 38.671875 33.984375 34.375 
Q 22.65625 23.4375 16.59375 16.59375 
Q 10.546875 9.765625 9.375 7.421875 
L 32.421875 7.421875 
Q 35.9375 7.421875 38.28125 10.15625 
Q 40.625 12.890625 41.40625 18.359375 
L 43.75 18.359375 
L 41.40625 1.5625 
L 5.078125 1.5625 
L 5.078125 6.640625 
Q 7.03125 10.15625 11.515625 15.625 
Q 16.015625 21.09375 23.4375 28.515625 
Q 30.078125 35.15625 33.203125 41.015625 
Q 36.328125 46.875 36.328125 51.953125 
z
" id="SimSun-50"/>
      </defs>
      <g transform="translate(111.970521 238.788437)scale(0.1 -0.1)">
       <use xlink:href="#SimSun-8722"/>
       <use x="100" xlink:href="#SimSun-50"/>
      </g>
     </g>
    </g>
    <g id="xtick_3">
     <g id="line2d_3">
      <g>
       <use style="stroke:#000000;stroke-width:0.8;" x="183.043781" xlink:href="#m7054b07843" y="224.64"/>
      </g>
     </g>
     <g id="text_3">
      <!-- 0 -->
      <defs>
       <path d="M 25 66.015625 
Q 19.53125 66.015625 15.8125 57.609375 
Q 12.109375 49.21875 12.109375 35.15625 
Q 12.109375 20.3125 15.8125 12.109375 
Q 19.53125 3.90625 25 3.90625 
Q 30.859375 3.90625 34.171875 12.109375 
Q 37.5 20.3125 37.5 35.15625 
Q 37.5 49.21875 34.375 57.609375 
Q 31.25 66.015625 25 66.015625 
z
M 25 0.78125 
Q 16.40625 0.78125 10.546875 9.765625 
Q 4.6875 18.75 4.6875 35.15625 
Q 4.6875 50.390625 10.34375 59.765625 
Q 16.015625 69.140625 25 69.140625 
Q 33.59375 69.140625 39.25 60.15625 
Q 44.921875 51.171875 44.921875 35.15625 
Q 44.921875 19.140625 39.25 9.953125 
Q 33.59375 0.78125 25 0.78125 
z
" id="SimSun-48"/>
      </defs>
      <g transform="translate(180.543781 238.788437)scale(0.1 -0.1)">
       <use xlink:href="#SimSun-48"/>
      </g>
     </g>
    </g>
    <g id="xtick_4">
     <g id="line2d_4">
      <g>
       <use style="stroke:#000000;stroke-width:0.8;" x="246.617041" xlink:href="#m7054b07843" y="224.64"/>
      </g>
     </g>
     <g id="text_4">
      <!-- 2 -->
      <g transform="translate(244.117041 238.788437)scale(0.1 -0.1)">
       <use xlink:href="#SimSun-50"/>
      </g>
     </g>
    </g>
    <g id="xtick_5">
     <g id="line2d_5">
      <g>
       <use style="stroke:#000000;stroke-width:0.8;" x="310.190301" xlink:href="#m7054b07843" y="224.64"/>
      </g>
     </g>
     <g id="text_5">
      <!-- 4 -->
      <g transform="translate(307.690301 238.788437)scale(0.1 -0.1)">
       <use xlink:href="#SimSun-52"/>
      </g>
     </g>
    </g>
   </g>
   <g id="matplotlib.axis_2">
    <g id="ytick_1">
     <g id="line2d_6">
      <defs>
       <path d="M 0 0 
L -3.5 0 
" id="m3583691c08" style="stroke:#000000;stroke-width:0.8;"/>
      </defs>
      <g>
       <use style="stroke:#000000;stroke-width:0.8;" x="29.2" xlink:href="#m3583691c08" y="187.868793"/>
      </g>
     </g>
     <g id="text_6">
      <!-- −2 -->
      <g transform="translate(7.2 191.443012)scale(0.1 -0.1)">
       <use xlink:href="#SimSun-8722"/>
       <use x="100" xlink:href="#SimSun-50"/>
      </g>
     </g>
    </g>
    <g id="ytick_2">
     <g id="line2d_7">
      <g>
       <use style="stroke:#000000;stroke-width:0.8;" x="29.2" xlink:href="#m3583691c08" y="144.994611"/>
      </g>
     </g>
     <g id="text_7">
      <!-- 0 -->
      <g transform="translate(17.2 148.56883)scale(0.1 -0.1)">
       <use xlink:href="#SimSun-48"/>
      </g>
     </g>
    </g>
    <g id="ytick_3">
     <g id="line2d_8">
      <g>
       <use style="stroke:#000000;stroke-width:0.8;" x="29.2" xlink:href="#m3583691c08" y="102.120428"/>
      </g>
     </g>
     <g id="text_8">
      <!-- 2 -->
      <g transform="translate(17.2 105.694647)scale(0.1 -0.1)">
       <use xlink:href="#SimSun-50"/>
      </g>
     </g>
    </g>
    <g id="ytick_4">
     <g id="line2d_9">
      <g>
       <use style="stroke:#000000;stroke-width:0.8;" x="29.2" xlink:href="#m3583691c08" y="59.246246"/>
      </g>
     </g>
     <g id="text_9">
      <!-- 4 -->
      <g transform="translate(17.2 62.820465)scale(0.1 -0.1)">
       <use xlink:href="#SimSun-52"/>
      </g>
     </g>
    </g>
    <g id="ytick_5">
     <g id="line2d_10">
      <g>
       <use style="stroke:#000000;stroke-width:0.8;" x="29.2" xlink:href="#m3583691c08" y="16.372064"/>
      </g>
     </g>
     <g id="text_10">
      <!-- 6 -->
      <defs>
       <path d="M 12.109375 28.125 
Q 12.109375 16.40625 16.203125 9.953125 
Q 20.3125 3.515625 26.171875 3.515625 
Q 32.03125 3.515625 35.15625 7.8125 
Q 38.28125 12.109375 38.28125 23.828125 
Q 38.28125 31.640625 34.953125 35.9375 
Q 31.640625 40.234375 26.953125 40.234375 
Q 22.65625 40.234375 18.9375 37.6875 
Q 15.234375 35.15625 12.109375 28.125 
z
M 27.34375 44.140625 
Q 36.71875 44.140625 40.8125 37.890625 
Q 44.921875 31.640625 44.921875 23.828125 
Q 44.921875 12.109375 39.25 6.4375 
Q 33.59375 0.78125 26.171875 0.78125 
Q 15.625 0.78125 10.15625 8.78125 
Q 4.6875 16.796875 4.6875 32.03125 
Q 4.6875 50 11.328125 59.5625 
Q 17.96875 69.140625 29.296875 69.140625 
Q 34.765625 69.140625 38.078125 66.015625 
Q 41.40625 62.890625 41.40625 60.546875 
Q 41.40625 58.203125 40.421875 57.03125 
Q 39.453125 55.859375 37.109375 55.859375 
Q 35.15625 55.859375 34.171875 56.828125 
Q 33.203125 57.8125 33.203125 59.765625 
Q 33.203125 60.546875 33.59375 61.328125 
Q 33.59375 62.109375 33.59375 62.890625 
Q 33.59375 64.453125 32.421875 65.421875 
Q 31.25 66.40625 28.125 66.40625 
Q 21.484375 66.40625 16.796875 60.34375 
Q 12.109375 54.296875 12.109375 33.984375 
Q 14.453125 39.0625 18.546875 41.59375 
Q 22.65625 44.140625 27.34375 44.140625 
z
" id="SimSun-54"/>
      </defs>
      <g transform="translate(17.2 19.946282)scale(0.1 -0.1)">
       <use xlink:href="#SimSun-54"/>
      </g>
     </g>
    </g>
   </g>
   <g id="line2d_11">
    <path clip-path="url(#p2a181f417b)" d="M 105.784446 -1 
L 237.70037 248.2775 
" style="fill:none;stroke:#0000ff;stroke-linecap:square;stroke-width:1.5;"/>
   </g>
   <g id="patch_3">
    <path d="M 29.2 224.64 
L 29.2 7.2 
" style="fill:none;stroke:#000000;stroke-linecap:square;stroke-linejoin:miter;stroke-width:0.8;"/>
   </g>
   <g id="patch_4">
    <path d="M 364 224.64 
L 364 7.2 
" style="fill:none;stroke:#000000;stroke-linecap:square;stroke-linejoin:miter;stroke-width:0.8;"/>
   </g>
   <g id="patch_5">
    <path d="M 29.2 224.64 
L 364 224.64 
" style="fill:none;stroke:#000000;stroke-linecap:square;stroke-linejoin:miter;stroke-width:0.8;"/>
   </g>
   <g id="patch_6">
    <path d="M 29.2 7.2 
L 364 7.2 
" style="fill:none;stroke:#000000;stroke-linecap:square;stroke-linejoin:miter;stroke-width:0.8;"/>
   </g>
   <g id="legend_1">
    <g id="patch_7">
     <path d="M 315 42.075 
L 357 42.075 
Q 359 42.075 359 40.075 
L 359 14.2 
Q 359 12.2 357 12.2 
L 315 12.2 
Q 313 12.2 313 14.2 
L 313 40.075 
Q 313 42.075 315 42.075 
z
" style="fill:#ffffff;opacity:0.8;stroke:#cccccc;stroke-linejoin:miter;"/>
    </g>
    <g id="PathCollection_3">
     <g>
      <use style="fill:#1f77b4;stroke:#1f77b4;" x="327" xlink:href="#me3f58fb6f6" y="20.723437"/>
     </g>
    </g>
    <g id="text_11">
     <!-- +1 -->
     <defs>
      <path d="M 23.828125 38.28125 
L 23.828125 60.546875 
L 27.34375 60.546875 
L 27.34375 38.28125 
L 46.875 38.28125 
L 46.875 34.765625 
L 27.34375 34.765625 
L 27.34375 12.5 
L 23.828125 12.5 
L 23.828125 34.765625 
L 4.296875 34.765625 
L 4.296875 38.28125 
z
" id="SimSun-43"/>
      <path d="M 28.515625 69.53125 
L 28.515625 10.15625 
Q 28.515625 7.03125 30.46875 5.46875 
Q 32.421875 3.90625 35.9375 3.90625 
L 39.84375 3.90625 
L 39.84375 1.5625 
L 11.328125 1.5625 
L 11.328125 3.90625 
L 14.84375 3.90625 
Q 18.75 3.90625 20.5 5.46875 
Q 22.265625 7.03125 22.265625 10.15625 
L 22.265625 57.421875 
Q 22.265625 58.984375 21.28125 59.953125 
Q 20.3125 60.9375 18.359375 60.9375 
L 11.328125 60.9375 
L 11.328125 63.28125 
L 14.84375 63.28125 
Q 19.53125 63.28125 22.453125 64.84375 
Q 25.390625 66.40625 26.953125 69.53125 
z
" id="SimSun-49"/>
     </defs>
     <g transform="translate(345 23.348437)scale(0.1 -0.1)">
      <use xlink:href="#SimSun-43"/>
      <use x="50" xlink:href="#SimSun-49"/>
     </g>
    </g>
    <g id="PathCollection_4">
     <g>
      <use style="fill:#ff7f0e;stroke:#ff7f0e;" x="327" xlink:href="#m2809c61108" y="34.160937"/>
     </g>
    </g>
    <g id="text_12">
     <!-- -1 -->
     <defs>
      <path d="M 3.125 34.765625 
L 3.125 38.28125 
L 46.484375 38.28125 
L 46.484375 34.765625 
z
" id="SimSun-45"/>
     </defs>
     <g transform="translate(345 36.785937)scale(0.1 -0.1)">
      <use xlink:href="#SimSun-45"/>
      <use x="50" xlink:href="#SimSun-49"/>
     </g>
    </g>
   </g>
  </g>
 </g>
 <defs>
  <clipPath id="p2a181f417b">
   <rect height="217.44" width="334.8" x="29.2" y="7.2"/>
  </clipPath>
 </defs>
</svg>
