<?xml version="1.0" encoding="utf-8" standalone="no"?>
<!DOCTYPE svg PUBLIC "-//W3C//DTD SVG 1.1//EN"
  "http://www.w3.org/Graphics/SVG/1.1/DTD/svg11.dtd">
<!-- Created with matplotlib (https://matplotlib.org/) -->
<svg height="247.2775pt" version="1.1" viewBox="0 0 371.2 247.2775" width="371.2pt" xmlns="http://www.w3.org/2000/svg" xmlns:xlink="http://www.w3.org/1999/xlink">
 <defs>
  <style type="text/css">
*{stroke-linecap:butt;stroke-linejoin:round;}
  </style>
 </defs>
 <g id="figure_1">
  <g id="patch_1">
   <path d="M 0 247.2775 
L 371.2 247.2775 
L 371.2 0 
L 0 0 
z
" style="fill:none;"/>
  </g>
  <g id="axes_1">
   <g id="patch_2">
    <path d="M 29.2 224.64 
L 364 224.64 
L 364 7.2 
L 29.2 7.2 
z
" style="fill:#ffffff;"/>
   </g>
   <g id="PathCollection_1">
    <defs>
     <path d="M 0 -3 
L -0.673542 -0.927051 
L -2.85317 -0.927051 
L -1.089814 0.354102 
L -1.763356 2.427051 
L -0 1.145898 
L 1.763356 2.427051 
L 1.089814 0.354102 
L 2.85317 -0.927051 
L 0.673542 -0.927051 
z
" id="m7cff1f6694" style="stroke:#1f77b4;"/>
    </defs>
    <g clip-path="url(#p8c0af4b327)">
     <use style="fill:#1f77b4;stroke:#1f77b4;" x="278.4622" xlink:href="#m7cff1f6694" y="18.865155"/>
     <use style="fill:#1f77b4;stroke:#1f77b4;" x="208.802186" xlink:href="#m7cff1f6694" y="96.339819"/>
     <use style="fill:#1f77b4;stroke:#1f77b4;" x="270.722199" xlink:href="#m7cff1f6694" y="70.514931"/>
     <use style="fill:#1f77b4;stroke:#1f77b4;" x="247.502194" xlink:href="#m7cff1f6694" y="109.252263"/>
     <use style="fill:#1f77b4;stroke:#1f77b4;" x="262.982197" xlink:href="#m7cff1f6694" y="57.602487"/>
     <use style="fill:#1f77b4;stroke:#1f77b4;" x="324.90221" xlink:href="#m7cff1f6694" y="70.514931"/>
     <use style="fill:#1f77b4;stroke:#1f77b4;" x="162.362177" xlink:href="#m7cff1f6694" y="122.164707"/>
     <use style="fill:#1f77b4;stroke:#1f77b4;" x="301.682205" xlink:href="#m7cff1f6694" y="109.252263"/>
     <use style="fill:#1f77b4;stroke:#1f77b4;" x="262.982197" xlink:href="#m7cff1f6694" y="109.252263"/>
     <use style="fill:#1f77b4;stroke:#1f77b4;" x="286.202202" xlink:href="#m7cff1f6694" y="18.865155"/>
     <use style="fill:#1f77b4;stroke:#1f77b4;" x="208.802186" xlink:href="#m7cff1f6694" y="83.427375"/>
     <use style="fill:#1f77b4;stroke:#1f77b4;" x="224.282189" xlink:href="#m7cff1f6694" y="96.339819"/>
     <use style="fill:#1f77b4;stroke:#1f77b4;" x="239.762192" xlink:href="#m7cff1f6694" y="70.514931"/>
     <use style="fill:#1f77b4;stroke:#1f77b4;" x="201.062184" xlink:href="#m7cff1f6694" y="83.427375"/>
     <use style="fill:#1f77b4;stroke:#1f77b4;" x="208.802186" xlink:href="#m7cff1f6694" y="31.777599"/>
     <use style="fill:#1f77b4;stroke:#1f77b4;" x="224.282189" xlink:href="#m7cff1f6694" y="44.690043"/>
     <use style="fill:#1f77b4;stroke:#1f77b4;" x="239.762192" xlink:href="#m7cff1f6694" y="109.252263"/>
     <use style="fill:#1f77b4;stroke:#1f77b4;" x="332.642211" xlink:href="#m7cff1f6694" y="57.602487"/>
     <use style="fill:#1f77b4;stroke:#1f77b4;" x="348.122214" xlink:href="#m7cff1f6694" y="44.690043"/>
     <use style="fill:#1f77b4;stroke:#1f77b4;" x="201.062184" xlink:href="#m7cff1f6694" y="147.989595"/>
     <use style="fill:#1f77b4;stroke:#1f77b4;" x="255.242195" xlink:href="#m7cff1f6694" y="44.690043"/>
     <use style="fill:#1f77b4;stroke:#1f77b4;" x="193.322183" xlink:href="#m7cff1f6694" y="83.427375"/>
     <use style="fill:#1f77b4;stroke:#1f77b4;" x="332.642211" xlink:href="#m7cff1f6694" y="83.427375"/>
     <use style="fill:#1f77b4;stroke:#1f77b4;" x="193.322183" xlink:href="#m7cff1f6694" y="109.252263"/>
     <use style="fill:#1f77b4;stroke:#1f77b4;" x="255.242195" xlink:href="#m7cff1f6694" y="70.514931"/>
     <use style="fill:#1f77b4;stroke:#1f77b4;" x="278.4622" xlink:href="#m7cff1f6694" y="109.252263"/>
     <use style="fill:#1f77b4;stroke:#1f77b4;" x="185.582181" xlink:href="#m7cff1f6694" y="109.252263"/>
     <use style="fill:#1f77b4;stroke:#1f77b4;" x="193.322183" xlink:href="#m7cff1f6694" y="109.252263"/>
     <use style="fill:#1f77b4;stroke:#1f77b4;" x="247.502194" xlink:href="#m7cff1f6694" y="70.514931"/>
     <use style="fill:#1f77b4;stroke:#1f77b4;" x="262.982197" xlink:href="#m7cff1f6694" y="135.077151"/>
     <use style="fill:#1f77b4;stroke:#1f77b4;" x="286.202202" xlink:href="#m7cff1f6694" y="96.339819"/>
     <use style="fill:#1f77b4;stroke:#1f77b4;" x="309.422206" xlink:href="#m7cff1f6694" y="83.427375"/>
     <use style="fill:#1f77b4;stroke:#1f77b4;" x="247.502194" xlink:href="#m7cff1f6694" y="57.602487"/>
     <use style="fill:#1f77b4;stroke:#1f77b4;" x="208.802186" xlink:href="#m7cff1f6694" y="147.989595"/>
     <use style="fill:#1f77b4;stroke:#1f77b4;" x="247.502194" xlink:href="#m7cff1f6694" y="160.902039"/>
     <use style="fill:#1f77b4;stroke:#1f77b4;" x="286.202202" xlink:href="#m7cff1f6694" y="44.690043"/>
     <use style="fill:#1f77b4;stroke:#1f77b4;" x="247.502194" xlink:href="#m7cff1f6694" y="31.777599"/>
     <use style="fill:#1f77b4;stroke:#1f77b4;" x="239.762192" xlink:href="#m7cff1f6694" y="109.252263"/>
     <use style="fill:#1f77b4;stroke:#1f77b4;" x="185.582181" xlink:href="#m7cff1f6694" y="109.252263"/>
     <use style="fill:#1f77b4;stroke:#1f77b4;" x="232.022191" xlink:href="#m7cff1f6694" y="70.514931"/>
     <use style="fill:#1f77b4;stroke:#1f77b4;" x="247.502194" xlink:href="#m7cff1f6694" y="31.777599"/>
     <use style="fill:#1f77b4;stroke:#1f77b4;" x="208.802186" xlink:href="#m7cff1f6694" y="44.690043"/>
     <use style="fill:#1f77b4;stroke:#1f77b4;" x="208.802186" xlink:href="#m7cff1f6694" y="96.339819"/>
     <use style="fill:#1f77b4;stroke:#1f77b4;" x="270.722199" xlink:href="#m7cff1f6694" y="44.690043"/>
     <use style="fill:#1f77b4;stroke:#1f77b4;" x="255.242195" xlink:href="#m7cff1f6694" y="18.865155"/>
     <use style="fill:#1f77b4;stroke:#1f77b4;" x="216.542188" xlink:href="#m7cff1f6694" y="44.690043"/>
     <use style="fill:#1f77b4;stroke:#1f77b4;" x="201.062184" xlink:href="#m7cff1f6694" y="96.339819"/>
     <use style="fill:#1f77b4;stroke:#1f77b4;" x="216.542188" xlink:href="#m7cff1f6694" y="83.427375"/>
     <use style="fill:#1f77b4;stroke:#1f77b4;" x="232.022191" xlink:href="#m7cff1f6694" y="44.690043"/>
     <use style="fill:#1f77b4;stroke:#1f77b4;" x="208.802186" xlink:href="#m7cff1f6694" y="109.252263"/>
    </g>
   </g>
   <g id="PathCollection_2">
    <defs>
     <path d="M -0 3 
L 3 -3 
L -3 -3 
z
" id="m669227e114" style="stroke:#ff7f0e;"/>
    </defs>
    <g clip-path="url(#p8c0af4b327)">
     <use style="fill:#ff7f0e;stroke:#ff7f0e;" x="177.84218" xlink:href="#m669227e114" y="160.902039"/>
     <use style="fill:#ff7f0e;stroke:#ff7f0e;" x="162.362177" xlink:href="#m669227e114" y="147.989595"/>
     <use style="fill:#ff7f0e;stroke:#ff7f0e;" x="193.322183" xlink:href="#m669227e114" y="147.989595"/>
     <use style="fill:#ff7f0e;stroke:#ff7f0e;" x="123.662169" xlink:href="#m669227e114" y="173.814483"/>
     <use style="fill:#ff7f0e;stroke:#ff7f0e;" x="170.102178" xlink:href="#m669227e114" y="147.989595"/>
     <use style="fill:#ff7f0e;stroke:#ff7f0e;" x="162.362177" xlink:href="#m669227e114" y="173.814483"/>
     <use style="fill:#ff7f0e;stroke:#ff7f0e;" x="177.84218" xlink:href="#m669227e114" y="135.077151"/>
     <use style="fill:#ff7f0e;stroke:#ff7f0e;" x="69.482158" xlink:href="#m669227e114" y="212.551815"/>
     <use style="fill:#ff7f0e;stroke:#ff7f0e;" x="170.102178" xlink:href="#m669227e114" y="173.814483"/>
     <use style="fill:#ff7f0e;stroke:#ff7f0e;" x="115.922167" xlink:href="#m669227e114" y="160.902039"/>
     <use style="fill:#ff7f0e;stroke:#ff7f0e;" x="84.962161" xlink:href="#m669227e114" y="212.551815"/>
     <use style="fill:#ff7f0e;stroke:#ff7f0e;" x="139.142172" xlink:href="#m669227e114" y="147.989595"/>
     <use style="fill:#ff7f0e;stroke:#ff7f0e;" x="123.662169" xlink:href="#m669227e114" y="212.551815"/>
     <use style="fill:#ff7f0e;stroke:#ff7f0e;" x="177.84218" xlink:href="#m669227e114" y="160.902039"/>
     <use style="fill:#ff7f0e;stroke:#ff7f0e;" x="92.702162" xlink:href="#m669227e114" y="173.814483"/>
     <use style="fill:#ff7f0e;stroke:#ff7f0e;" x="154.622175" xlink:href="#m669227e114" y="160.902039"/>
     <use style="fill:#ff7f0e;stroke:#ff7f0e;" x="162.362177" xlink:href="#m669227e114" y="147.989595"/>
     <use style="fill:#ff7f0e;stroke:#ff7f0e;" x="131.40217" xlink:href="#m669227e114" y="212.551815"/>
     <use style="fill:#ff7f0e;stroke:#ff7f0e;" x="162.362177" xlink:href="#m669227e114" y="147.989595"/>
     <use style="fill:#ff7f0e;stroke:#ff7f0e;" x="115.922167" xlink:href="#m669227e114" y="199.639371"/>
     <use style="fill:#ff7f0e;stroke:#ff7f0e;" x="185.582181" xlink:href="#m669227e114" y="109.252263"/>
     <use style="fill:#ff7f0e;stroke:#ff7f0e;" x="123.662169" xlink:href="#m669227e114" y="173.814483"/>
     <use style="fill:#ff7f0e;stroke:#ff7f0e;" x="193.322183" xlink:href="#m669227e114" y="147.989595"/>
     <use style="fill:#ff7f0e;stroke:#ff7f0e;" x="177.84218" xlink:href="#m669227e114" y="186.726927"/>
     <use style="fill:#ff7f0e;stroke:#ff7f0e;" x="146.882173" xlink:href="#m669227e114" y="173.814483"/>
     <use style="fill:#ff7f0e;stroke:#ff7f0e;" x="154.622175" xlink:href="#m669227e114" y="160.902039"/>
     <use style="fill:#ff7f0e;stroke:#ff7f0e;" x="185.582181" xlink:href="#m669227e114" y="160.902039"/>
     <use style="fill:#ff7f0e;stroke:#ff7f0e;" x="201.062184" xlink:href="#m669227e114" y="122.164707"/>
     <use style="fill:#ff7f0e;stroke:#ff7f0e;" x="162.362177" xlink:href="#m669227e114" y="147.989595"/>
     <use style="fill:#ff7f0e;stroke:#ff7f0e;" x="84.962161" xlink:href="#m669227e114" y="212.551815"/>
     <use style="fill:#ff7f0e;stroke:#ff7f0e;" x="108.182165" xlink:href="#m669227e114" y="199.639371"/>
     <use style="fill:#ff7f0e;stroke:#ff7f0e;" x="100.442164" xlink:href="#m669227e114" y="212.551815"/>
     <use style="fill:#ff7f0e;stroke:#ff7f0e;" x="115.922167" xlink:href="#m669227e114" y="186.726927"/>
     <use style="fill:#ff7f0e;stroke:#ff7f0e;" x="208.802186" xlink:href="#m669227e114" y="135.077151"/>
     <use style="fill:#ff7f0e;stroke:#ff7f0e;" x="162.362177" xlink:href="#m669227e114" y="147.989595"/>
     <use style="fill:#ff7f0e;stroke:#ff7f0e;" x="162.362177" xlink:href="#m669227e114" y="135.077151"/>
     <use style="fill:#ff7f0e;stroke:#ff7f0e;" x="177.84218" xlink:href="#m669227e114" y="147.989595"/>
     <use style="fill:#ff7f0e;stroke:#ff7f0e;" x="154.622175" xlink:href="#m669227e114" y="173.814483"/>
     <use style="fill:#ff7f0e;stroke:#ff7f0e;" x="131.40217" xlink:href="#m669227e114" y="173.814483"/>
     <use style="fill:#ff7f0e;stroke:#ff7f0e;" x="123.662169" xlink:href="#m669227e114" y="173.814483"/>
     <use style="fill:#ff7f0e;stroke:#ff7f0e;" x="154.622175" xlink:href="#m669227e114" y="186.726927"/>
     <use style="fill:#ff7f0e;stroke:#ff7f0e;" x="170.102178" xlink:href="#m669227e114" y="160.902039"/>
     <use style="fill:#ff7f0e;stroke:#ff7f0e;" x="123.662169" xlink:href="#m669227e114" y="186.726927"/>
     <use style="fill:#ff7f0e;stroke:#ff7f0e;" x="69.482158" xlink:href="#m669227e114" y="212.551815"/>
     <use style="fill:#ff7f0e;stroke:#ff7f0e;" x="139.142172" xlink:href="#m669227e114" y="173.814483"/>
     <use style="fill:#ff7f0e;stroke:#ff7f0e;" x="139.142172" xlink:href="#m669227e114" y="186.726927"/>
     <use style="fill:#ff7f0e;stroke:#ff7f0e;" x="139.142172" xlink:href="#m669227e114" y="173.814483"/>
     <use style="fill:#ff7f0e;stroke:#ff7f0e;" x="146.882173" xlink:href="#m669227e114" y="173.814483"/>
     <use style="fill:#ff7f0e;stroke:#ff7f0e;" x="46.262153" xlink:href="#m669227e114" y="199.639371"/>
     <use style="fill:#ff7f0e;stroke:#ff7f0e;" x="131.40217" xlink:href="#m669227e114" y="173.814483"/>
    </g>
   </g>
   <g id="matplotlib.axis_1">
    <g id="xtick_1">
     <g id="line2d_1">
      <defs>
       <path d="M 0 0 
L 0 3.5 
" id="med32eb1fa9" style="stroke:#000000;stroke-width:0.8;"/>
      </defs>
      <g>
       <use style="stroke:#000000;stroke-width:0.8;" x="46.262153" xlink:href="#med32eb1fa9" y="224.64"/>
      </g>
     </g>
     <g id="text_1">
      <!-- 3.0 -->
      <defs>
       <path d="M 43.75 19.53125 
Q 43.75 12.109375 38.28125 6.4375 
Q 32.8125 0.78125 23.046875 0.78125 
Q 16.015625 0.78125 10.9375 4.6875 
Q 5.859375 8.59375 5.859375 13.671875 
Q 5.859375 16.015625 7.421875 17.765625 
Q 8.984375 19.53125 10.546875 19.53125 
Q 12.890625 19.53125 13.859375 17.765625 
Q 14.84375 16.015625 14.84375 14.84375 
Q 14.84375 12.890625 14.0625 11.71875 
Q 13.28125 10.15625 13.28125 8.984375 
Q 13.28125 6.640625 16.203125 5.078125 
Q 19.140625 3.515625 22.65625 3.515625 
Q 29.6875 3.515625 33.203125 7.609375 
Q 36.71875 11.71875 36.71875 20.3125 
Q 36.71875 27.34375 33 31.640625 
Q 29.296875 35.9375 19.140625 35.9375 
L 19.140625 38.671875 
Q 26.953125 38.671875 30.65625 42.375 
Q 34.375 46.09375 34.375 52.734375 
Q 34.375 58.203125 31.4375 62.296875 
Q 28.515625 66.40625 22.265625 66.40625 
Q 19.53125 66.40625 16.40625 65.03125 
Q 13.28125 63.671875 13.28125 60.546875 
Q 13.28125 57.421875 14.0625 56.640625 
Q 14.84375 55.859375 14.84375 54.6875 
Q 14.84375 52.734375 14.0625 51.5625 
Q 13.28125 50.390625 11.328125 50.390625 
Q 9.765625 50.390625 8.390625 51.5625 
Q 7.03125 52.734375 7.03125 55.859375 
Q 7.03125 61.71875 12.109375 65.421875 
Q 17.1875 69.140625 23.828125 69.140625 
Q 31.640625 69.140625 36.328125 64.25 
Q 41.015625 59.375 41.015625 53.90625 
Q 41.015625 48.046875 38.078125 43.9375 
Q 35.15625 39.84375 28.90625 37.890625 
Q 37.5 34.765625 40.625 29.6875 
Q 43.75 24.609375 43.75 19.53125 
z
" id="SimSun-51"/>
       <path d="M 12.5 0.390625 
Q 10.15625 0.390625 8.390625 1.953125 
Q 6.640625 3.515625 6.640625 6.25 
Q 6.640625 8.984375 8.390625 10.546875 
Q 10.15625 12.109375 12.5 12.109375 
Q 14.84375 12.109375 16.59375 10.34375 
Q 18.359375 8.59375 18.359375 6.25 
Q 18.359375 3.515625 16.59375 1.953125 
Q 14.84375 0.390625 12.5 0.390625 
z
" id="SimSun-46"/>
       <path d="M 25 66.015625 
Q 19.53125 66.015625 15.8125 57.609375 
Q 12.109375 49.21875 12.109375 35.15625 
Q 12.109375 20.3125 15.8125 12.109375 
Q 19.53125 3.90625 25 3.90625 
Q 30.859375 3.90625 34.171875 12.109375 
Q 37.5 20.3125 37.5 35.15625 
Q 37.5 49.21875 34.375 57.609375 
Q 31.25 66.015625 25 66.015625 
z
M 25 0.78125 
Q 16.40625 0.78125 10.546875 9.765625 
Q 4.6875 18.75 4.6875 35.15625 
Q 4.6875 50.390625 10.34375 59.765625 
Q 16.015625 69.140625 25 69.140625 
Q 33.59375 69.140625 39.25 60.15625 
Q 44.921875 51.171875 44.921875 35.15625 
Q 44.921875 19.140625 39.25 9.953125 
Q 33.59375 0.78125 25 0.78125 
z
" id="SimSun-48"/>
      </defs>
      <g transform="translate(38.762153 238.788437)scale(0.1 -0.1)">
       <use xlink:href="#SimSun-51"/>
       <use x="50" xlink:href="#SimSun-46"/>
       <use x="100" xlink:href="#SimSun-48"/>
      </g>
     </g>
    </g>
    <g id="xtick_2">
     <g id="line2d_2">
      <g>
       <use style="stroke:#000000;stroke-width:0.8;" x="84.962161" xlink:href="#med32eb1fa9" y="224.64"/>
      </g>
     </g>
     <g id="text_2">
      <!-- 3.5 -->
      <defs>
       <path d="M 26.953125 44.53125 
Q 34.375 44.53125 39.0625 38.859375 
Q 43.75 33.203125 43.75 23.828125 
Q 43.75 13.28125 38.859375 7.03125 
Q 33.984375 0.78125 23.828125 0.78125 
Q 16.796875 0.78125 11.328125 4.875 
Q 5.859375 8.984375 5.859375 14.84375 
Q 5.859375 17.1875 7.21875 18.9375 
Q 8.59375 20.703125 10.9375 20.703125 
Q 13.28125 20.703125 14.0625 19.140625 
Q 14.84375 17.578125 14.84375 16.40625 
Q 14.84375 14.0625 13.671875 12.890625 
Q 12.5 11.328125 12.5 9.765625 
Q 12.5 6.640625 16.203125 5.078125 
Q 19.921875 3.515625 24.21875 3.515625 
Q 30.46875 3.515625 33.78125 8.59375 
Q 37.109375 13.671875 37.109375 23.046875 
Q 37.109375 30.859375 34.171875 35.734375 
Q 31.25 40.625 25.390625 40.625 
Q 21.09375 40.625 17.96875 39.0625 
Q 14.84375 37.5 12.109375 32.421875 
L 8.59375 32.8125 
L 10.546875 68.359375 
L 42.578125 68.359375 
L 41.40625 62.5 
L 13.28125 62.5 
L 11.71875 36.71875 
Q 15.625 42.1875 19.328125 43.359375 
Q 23.046875 44.53125 26.953125 44.53125 
z
" id="SimSun-53"/>
      </defs>
      <g transform="translate(77.462161 238.788437)scale(0.1 -0.1)">
       <use xlink:href="#SimSun-51"/>
       <use x="50" xlink:href="#SimSun-46"/>
       <use x="100" xlink:href="#SimSun-53"/>
      </g>
     </g>
    </g>
    <g id="xtick_3">
     <g id="line2d_3">
      <g>
       <use style="stroke:#000000;stroke-width:0.8;" x="123.662169" xlink:href="#med32eb1fa9" y="224.64"/>
      </g>
     </g>
     <g id="text_3">
      <!-- 4.0 -->
      <defs>
       <path d="M 35.9375 8.984375 
Q 35.9375 6.25 37.5 5.078125 
Q 39.0625 3.90625 41.796875 3.90625 
L 45.3125 3.90625 
L 45.3125 1.5625 
L 19.53125 1.5625 
L 19.53125 3.90625 
L 23.828125 3.90625 
Q 26.953125 3.90625 28.3125 5.078125 
Q 29.6875 6.25 29.6875 8.984375 
L 29.6875 21.875 
L 3.515625 21.875 
L 3.515625 23.828125 
L 32.03125 69.140625 
L 35.9375 69.140625 
L 35.9375 24.21875 
L 46.484375 24.21875 
L 46.484375 21.875 
L 35.9375 21.875 
z
M 29.296875 59.375 
L 7.03125 24.21875 
L 29.6875 24.21875 
L 29.6875 59.375 
z
" id="SimSun-52"/>
      </defs>
      <g transform="translate(116.162169 238.788437)scale(0.1 -0.1)">
       <use xlink:href="#SimSun-52"/>
       <use x="50" xlink:href="#SimSun-46"/>
       <use x="100" xlink:href="#SimSun-48"/>
      </g>
     </g>
    </g>
    <g id="xtick_4">
     <g id="line2d_4">
      <g>
       <use style="stroke:#000000;stroke-width:0.8;" x="162.362177" xlink:href="#med32eb1fa9" y="224.64"/>
      </g>
     </g>
     <g id="text_4">
      <!-- 4.5 -->
      <g transform="translate(154.862177 238.788437)scale(0.1 -0.1)">
       <use xlink:href="#SimSun-52"/>
       <use x="50" xlink:href="#SimSun-46"/>
       <use x="100" xlink:href="#SimSun-53"/>
      </g>
     </g>
    </g>
    <g id="xtick_5">
     <g id="line2d_5">
      <g>
       <use style="stroke:#000000;stroke-width:0.8;" x="201.062184" xlink:href="#med32eb1fa9" y="224.64"/>
      </g>
     </g>
     <g id="text_5">
      <!-- 5.0 -->
      <g transform="translate(193.562184 238.788437)scale(0.1 -0.1)">
       <use xlink:href="#SimSun-53"/>
       <use x="50" xlink:href="#SimSun-46"/>
       <use x="100" xlink:href="#SimSun-48"/>
      </g>
     </g>
    </g>
    <g id="xtick_6">
     <g id="line2d_6">
      <g>
       <use style="stroke:#000000;stroke-width:0.8;" x="239.762192" xlink:href="#med32eb1fa9" y="224.64"/>
      </g>
     </g>
     <g id="text_6">
      <!-- 5.5 -->
      <g transform="translate(232.262192 238.788437)scale(0.1 -0.1)">
       <use xlink:href="#SimSun-53"/>
       <use x="50" xlink:href="#SimSun-46"/>
       <use x="100" xlink:href="#SimSun-53"/>
      </g>
     </g>
    </g>
    <g id="xtick_7">
     <g id="line2d_7">
      <g>
       <use style="stroke:#000000;stroke-width:0.8;" x="278.4622" xlink:href="#med32eb1fa9" y="224.64"/>
      </g>
     </g>
     <g id="text_7">
      <!-- 6.0 -->
      <defs>
       <path d="M 12.109375 28.125 
Q 12.109375 16.40625 16.203125 9.953125 
Q 20.3125 3.515625 26.171875 3.515625 
Q 32.03125 3.515625 35.15625 7.8125 
Q 38.28125 12.109375 38.28125 23.828125 
Q 38.28125 31.640625 34.953125 35.9375 
Q 31.640625 40.234375 26.953125 40.234375 
Q 22.65625 40.234375 18.9375 37.6875 
Q 15.234375 35.15625 12.109375 28.125 
z
M 27.34375 44.140625 
Q 36.71875 44.140625 40.8125 37.890625 
Q 44.921875 31.640625 44.921875 23.828125 
Q 44.921875 12.109375 39.25 6.4375 
Q 33.59375 0.78125 26.171875 0.78125 
Q 15.625 0.78125 10.15625 8.78125 
Q 4.6875 16.796875 4.6875 32.03125 
Q 4.6875 50 11.328125 59.5625 
Q 17.96875 69.140625 29.296875 69.140625 
Q 34.765625 69.140625 38.078125 66.015625 
Q 41.40625 62.890625 41.40625 60.546875 
Q 41.40625 58.203125 40.421875 57.03125 
Q 39.453125 55.859375 37.109375 55.859375 
Q 35.15625 55.859375 34.171875 56.828125 
Q 33.203125 57.8125 33.203125 59.765625 
Q 33.203125 60.546875 33.59375 61.328125 
Q 33.59375 62.109375 33.59375 62.890625 
Q 33.59375 64.453125 32.421875 65.421875 
Q 31.25 66.40625 28.125 66.40625 
Q 21.484375 66.40625 16.796875 60.34375 
Q 12.109375 54.296875 12.109375 33.984375 
Q 14.453125 39.0625 18.546875 41.59375 
Q 22.65625 44.140625 27.34375 44.140625 
z
" id="SimSun-54"/>
      </defs>
      <g transform="translate(270.9622 238.788437)scale(0.1 -0.1)">
       <use xlink:href="#SimSun-54"/>
       <use x="50" xlink:href="#SimSun-46"/>
       <use x="100" xlink:href="#SimSun-48"/>
      </g>
     </g>
    </g>
    <g id="xtick_8">
     <g id="line2d_8">
      <g>
       <use style="stroke:#000000;stroke-width:0.8;" x="317.162208" xlink:href="#med32eb1fa9" y="224.64"/>
      </g>
     </g>
     <g id="text_8">
      <!-- 6.5 -->
      <g transform="translate(309.662208 238.788437)scale(0.1 -0.1)">
       <use xlink:href="#SimSun-54"/>
       <use x="50" xlink:href="#SimSun-46"/>
       <use x="100" xlink:href="#SimSun-53"/>
      </g>
     </g>
    </g>
    <g id="xtick_9">
     <g id="line2d_9">
      <g>
       <use style="stroke:#000000;stroke-width:0.8;" x="355.862216" xlink:href="#med32eb1fa9" y="224.64"/>
      </g>
     </g>
     <g id="text_9">
      <!-- 7.0 -->
      <defs>
       <path d="M 44.140625 65.625 
Q 35.9375 52.34375 31.046875 39.640625 
Q 26.171875 26.953125 26.171875 17.578125 
Q 26.171875 16.015625 26.5625 13.28125 
Q 26.5625 10.15625 26.5625 6.25 
Q 26.5625 3.125 25.578125 1.953125 
Q 24.609375 0.78125 22.265625 0.78125 
Q 20.3125 0.78125 18.9375 2.140625 
Q 17.578125 3.515625 17.578125 7.03125 
Q 17.578125 14.453125 20.890625 25.390625 
Q 24.21875 36.328125 38.671875 62.5 
L 19.140625 62.5 
Q 14.84375 62.5 12.296875 59.765625 
Q 9.765625 57.03125 8.59375 51.5625 
L 6.25 51.953125 
L 8.984375 68.359375 
L 44.140625 68.359375 
z
" id="SimSun-55"/>
      </defs>
      <g transform="translate(348.362216 238.788437)scale(0.1 -0.1)">
       <use xlink:href="#SimSun-55"/>
       <use x="50" xlink:href="#SimSun-46"/>
       <use x="100" xlink:href="#SimSun-48"/>
      </g>
     </g>
    </g>
   </g>
   <g id="matplotlib.axis_2">
    <g id="ytick_1">
     <g id="line2d_10">
      <defs>
       <path d="M 0 0 
L -3.5 0 
" id="m614fafe60f" style="stroke:#000000;stroke-width:0.8;"/>
      </defs>
      <g>
       <use style="stroke:#000000;stroke-width:0.8;" x="29.2" xlink:href="#m614fafe60f" y="212.551815"/>
      </g>
     </g>
     <g id="text_10">
      <!-- 1.0 -->
      <defs>
       <path d="M 28.515625 69.53125 
L 28.515625 10.15625 
Q 28.515625 7.03125 30.46875 5.46875 
Q 32.421875 3.90625 35.9375 3.90625 
L 39.84375 3.90625 
L 39.84375 1.5625 
L 11.328125 1.5625 
L 11.328125 3.90625 
L 14.84375 3.90625 
Q 18.75 3.90625 20.5 5.46875 
Q 22.265625 7.03125 22.265625 10.15625 
L 22.265625 57.421875 
Q 22.265625 58.984375 21.28125 59.953125 
Q 20.3125 60.9375 18.359375 60.9375 
L 11.328125 60.9375 
L 11.328125 63.28125 
L 14.84375 63.28125 
Q 19.53125 63.28125 22.453125 64.84375 
Q 25.390625 66.40625 26.953125 69.53125 
z
" id="SimSun-49"/>
      </defs>
      <g transform="translate(7.2 216.126034)scale(0.1 -0.1)">
       <use xlink:href="#SimSun-49"/>
       <use x="50" xlink:href="#SimSun-46"/>
       <use x="100" xlink:href="#SimSun-48"/>
      </g>
     </g>
    </g>
    <g id="ytick_2">
     <g id="line2d_11">
      <g>
       <use style="stroke:#000000;stroke-width:0.8;" x="29.2" xlink:href="#m614fafe60f" y="186.726927"/>
      </g>
     </g>
     <g id="text_11">
      <!-- 1.2 -->
      <defs>
       <path d="M 36.328125 51.953125 
Q 36.328125 58.984375 33.203125 62.6875 
Q 30.078125 66.40625 23.828125 66.40625 
Q 19.140625 66.40625 15.8125 63.859375 
Q 12.5 61.328125 12.5 57.421875 
Q 12.5 55.078125 14.0625 53.515625 
Q 15.234375 51.953125 15.234375 50.390625 
Q 15.234375 48.4375 14.25 47.453125 
Q 13.28125 46.484375 11.328125 46.484375 
Q 8.984375 46.484375 7.609375 47.84375 
Q 6.25 49.21875 6.25 52.34375 
Q 6.25 60.546875 12.109375 64.84375 
Q 17.96875 69.140625 24.609375 69.140625 
Q 33.984375 69.140625 38.46875 64.453125 
Q 42.96875 59.765625 42.96875 52.734375 
Q 42.96875 48.046875 40.8125 43.359375 
Q 38.671875 38.671875 33.984375 34.375 
Q 22.65625 23.4375 16.59375 16.59375 
Q 10.546875 9.765625 9.375 7.421875 
L 32.421875 7.421875 
Q 35.9375 7.421875 38.28125 10.15625 
Q 40.625 12.890625 41.40625 18.359375 
L 43.75 18.359375 
L 41.40625 1.5625 
L 5.078125 1.5625 
L 5.078125 6.640625 
Q 7.03125 10.15625 11.515625 15.625 
Q 16.015625 21.09375 23.4375 28.515625 
Q 30.078125 35.15625 33.203125 41.015625 
Q 36.328125 46.875 36.328125 51.953125 
z
" id="SimSun-50"/>
      </defs>
      <g transform="translate(7.2 190.301146)scale(0.1 -0.1)">
       <use xlink:href="#SimSun-49"/>
       <use x="50" xlink:href="#SimSun-46"/>
       <use x="100" xlink:href="#SimSun-50"/>
      </g>
     </g>
    </g>
    <g id="ytick_3">
     <g id="line2d_12">
      <g>
       <use style="stroke:#000000;stroke-width:0.8;" x="29.2" xlink:href="#m614fafe60f" y="160.902039"/>
      </g>
     </g>
     <g id="text_12">
      <!-- 1.4 -->
      <g transform="translate(7.2 164.476258)scale(0.1 -0.1)">
       <use xlink:href="#SimSun-49"/>
       <use x="50" xlink:href="#SimSun-46"/>
       <use x="100" xlink:href="#SimSun-52"/>
      </g>
     </g>
    </g>
    <g id="ytick_4">
     <g id="line2d_13">
      <g>
       <use style="stroke:#000000;stroke-width:0.8;" x="29.2" xlink:href="#m614fafe60f" y="135.077151"/>
      </g>
     </g>
     <g id="text_13">
      <!-- 1.6 -->
      <g transform="translate(7.2 138.65137)scale(0.1 -0.1)">
       <use xlink:href="#SimSun-49"/>
       <use x="50" xlink:href="#SimSun-46"/>
       <use x="100" xlink:href="#SimSun-54"/>
      </g>
     </g>
    </g>
    <g id="ytick_5">
     <g id="line2d_14">
      <g>
       <use style="stroke:#000000;stroke-width:0.8;" x="29.2" xlink:href="#m614fafe60f" y="109.252263"/>
      </g>
     </g>
     <g id="text_14">
      <!-- 1.8 -->
      <defs>
       <path d="M 9.765625 17.578125 
Q 9.765625 11.328125 13.859375 7.421875 
Q 17.96875 3.515625 24.21875 3.515625 
Q 31.640625 3.515625 34.953125 7.421875 
Q 38.28125 11.328125 38.28125 17.1875 
Q 38.28125 22.265625 33.59375 26.953125 
Q 28.90625 31.640625 19.53125 35.546875 
Q 14.84375 32.421875 12.296875 27.734375 
Q 9.765625 23.046875 9.765625 17.578125 
z
M 44.140625 18.359375 
Q 44.140625 10.9375 38.671875 5.859375 
Q 33.203125 0.78125 24.21875 0.78125 
Q 16.015625 0.78125 10.15625 5.859375 
Q 4.296875 10.9375 4.296875 17.578125 
Q 4.296875 24.21875 7.609375 28.90625 
Q 10.9375 33.59375 17.1875 37.109375 
Q 11.71875 39.84375 8.78125 43.9375 
Q 5.859375 48.046875 5.859375 53.125 
Q 5.859375 59.765625 10.9375 64.453125 
Q 16.015625 69.140625 25 69.140625 
Q 33.203125 69.140625 38.28125 64.453125 
Q 43.359375 59.765625 43.359375 53.125 
Q 43.359375 48.4375 40.421875 44.328125 
Q 37.5 40.234375 31.25 37.109375 
Q 37.890625 33.203125 41.015625 28.515625 
Q 44.140625 23.828125 44.140625 18.359375 
z
M 37.890625 52.734375 
Q 37.890625 58.203125 34.765625 62.296875 
Q 31.640625 66.40625 25 66.40625 
Q 17.578125 66.40625 14.453125 62.5 
Q 11.328125 58.59375 11.328125 54.296875 
Q 11.328125 50 15.8125 45.890625 
Q 20.3125 41.796875 28.515625 38.671875 
Q 33.203125 41.015625 35.546875 44.53125 
Q 37.890625 48.046875 37.890625 52.734375 
z
" id="SimSun-56"/>
      </defs>
      <g transform="translate(7.2 112.826482)scale(0.1 -0.1)">
       <use xlink:href="#SimSun-49"/>
       <use x="50" xlink:href="#SimSun-46"/>
       <use x="100" xlink:href="#SimSun-56"/>
      </g>
     </g>
    </g>
    <g id="ytick_6">
     <g id="line2d_15">
      <g>
       <use style="stroke:#000000;stroke-width:0.8;" x="29.2" xlink:href="#m614fafe60f" y="83.427375"/>
      </g>
     </g>
     <g id="text_15">
      <!-- 2.0 -->
      <g transform="translate(7.2 87.001594)scale(0.1 -0.1)">
       <use xlink:href="#SimSun-50"/>
       <use x="50" xlink:href="#SimSun-46"/>
       <use x="100" xlink:href="#SimSun-48"/>
      </g>
     </g>
    </g>
    <g id="ytick_7">
     <g id="line2d_16">
      <g>
       <use style="stroke:#000000;stroke-width:0.8;" x="29.2" xlink:href="#m614fafe60f" y="57.602487"/>
      </g>
     </g>
     <g id="text_16">
      <!-- 2.2 -->
      <g transform="translate(7.2 61.176706)scale(0.1 -0.1)">
       <use xlink:href="#SimSun-50"/>
       <use x="50" xlink:href="#SimSun-46"/>
       <use x="100" xlink:href="#SimSun-50"/>
      </g>
     </g>
    </g>
    <g id="ytick_8">
     <g id="line2d_17">
      <g>
       <use style="stroke:#000000;stroke-width:0.8;" x="29.2" xlink:href="#m614fafe60f" y="31.777599"/>
      </g>
     </g>
     <g id="text_17">
      <!-- 2.4 -->
      <g transform="translate(7.2 35.351817)scale(0.1 -0.1)">
       <use xlink:href="#SimSun-50"/>
       <use x="50" xlink:href="#SimSun-46"/>
       <use x="100" xlink:href="#SimSun-52"/>
      </g>
     </g>
    </g>
   </g>
   <g id="patch_3">
    <path d="M 29.2 224.64 
L 29.2 7.2 
" style="fill:none;stroke:#000000;stroke-linecap:square;stroke-linejoin:miter;stroke-width:0.8;"/>
   </g>
   <g id="patch_4">
    <path d="M 364 224.64 
L 364 7.2 
" style="fill:none;stroke:#000000;stroke-linecap:square;stroke-linejoin:miter;stroke-width:0.8;"/>
   </g>
   <g id="patch_5">
    <path d="M 29.2 224.64 
L 364 224.64 
" style="fill:none;stroke:#000000;stroke-linecap:square;stroke-linejoin:miter;stroke-width:0.8;"/>
   </g>
   <g id="patch_6">
    <path d="M 29.2 7.2 
L 364 7.2 
" style="fill:none;stroke:#000000;stroke-linecap:square;stroke-linejoin:miter;stroke-width:0.8;"/>
   </g>
   <g id="legend_1">
    <g id="patch_7">
     <path d="M 315 42.075 
L 357 42.075 
Q 359 42.075 359 40.075 
L 359 14.2 
Q 359 12.2 357 12.2 
L 315 12.2 
Q 313 12.2 313 14.2 
L 313 40.075 
Q 313 42.075 315 42.075 
z
" style="fill:#ffffff;opacity:0.8;stroke:#cccccc;stroke-linejoin:miter;"/>
    </g>
    <g id="PathCollection_3">
     <g>
      <use style="fill:#1f77b4;stroke:#1f77b4;" x="327" xlink:href="#m7cff1f6694" y="20.723437"/>
     </g>
    </g>
    <g id="text_18">
     <!-- 1 -->
     <g transform="translate(345 23.348437)scale(0.1 -0.1)">
      <use xlink:href="#SimSun-49"/>
     </g>
    </g>
    <g id="PathCollection_4">
     <g>
      <use style="fill:#ff7f0e;stroke:#ff7f0e;" x="327" xlink:href="#m669227e114" y="34.160937"/>
     </g>
    </g>
    <g id="text_19">
     <!-- -1 -->
     <defs>
      <path d="M 3.125 34.765625 
L 3.125 38.28125 
L 46.484375 38.28125 
L 46.484375 34.765625 
z
" id="SimSun-45"/>
     </defs>
     <g transform="translate(345 36.785937)scale(0.1 -0.1)">
      <use xlink:href="#SimSun-45"/>
      <use x="50" xlink:href="#SimSun-49"/>
     </g>
    </g>
   </g>
  </g>
 </g>
 <defs>
  <clipPath id="p8c0af4b327">
   <rect height="217.44" width="334.8" x="29.2" y="7.2"/>
  </clipPath>
 </defs>
</svg>
