<?xml version="1.0" encoding="utf-8" standalone="no"?>
<!DOCTYPE svg PUBLIC "-//W3C//DTD SVG 1.1//EN"
  "http://www.w3.org/Graphics/SVG/1.1/DTD/svg11.dtd">
<!-- Created with matplotlib (https://matplotlib.org/) -->
<svg height="247.2775pt" version="1.1" viewBox="0 0 376.2 247.2775" width="376.2pt" xmlns="http://www.w3.org/2000/svg" xmlns:xlink="http://www.w3.org/1999/xlink">
 <defs>
  <style type="text/css">
*{stroke-linecap:butt;stroke-linejoin:round;}
  </style>
 </defs>
 <g id="figure_1">
  <g id="patch_1">
   <path d="M 0 247.2775 
L 376.2 247.2775 
L 376.2 0 
L 0 0 
z
" style="fill:none;"/>
  </g>
  <g id="axes_1">
   <g id="patch_2">
    <path d="M 34.2 224.64 
L 369 224.64 
L 369 7.2 
L 34.2 7.2 
z
" style="fill:#ffffff;"/>
   </g>
   <g id="PathCollection_1">
    <defs>
     <path d="M 0 -3 
L -0.673542 -0.927051 
L -2.85317 -0.927051 
L -1.089814 0.354102 
L -1.763356 2.427051 
L -0 1.145898 
L 1.763356 2.427051 
L 1.089814 0.354102 
L 2.85317 -0.927051 
L 0.673542 -0.927051 
z
" id="m1c9408c12a" style="stroke:#1f77b4;"/>
    </defs>
    <g clip-path="url(#p5917bb605c)">
     <use style="fill:#1f77b4;stroke:#1f77b4;" x="323.671008" xlink:href="#m1c9408c12a" y="64.465644"/>
     <use style="fill:#1f77b4;stroke:#1f77b4;" x="308.929668" xlink:href="#m1c9408c12a" y="53.015097"/>
     <use style="fill:#1f77b4;stroke:#1f77b4;" x="338.412349" xlink:href="#m1c9408c12a" y="53.015097"/>
     <use style="fill:#1f77b4;stroke:#1f77b4;" x="272.076317" xlink:href="#m1c9408c12a" y="75.91619"/>
     <use style="fill:#1f77b4;stroke:#1f77b4;" x="316.300338" xlink:href="#m1c9408c12a" y="53.015097"/>
     <use style="fill:#1f77b4;stroke:#1f77b4;" x="308.929668" xlink:href="#m1c9408c12a" y="75.91619"/>
     <use style="fill:#1f77b4;stroke:#1f77b4;" x="323.671008" xlink:href="#m1c9408c12a" y="41.564551"/>
     <use style="fill:#1f77b4;stroke:#1f77b4;" x="220.481627" xlink:href="#m1c9408c12a" y="110.267829"/>
     <use style="fill:#1f77b4;stroke:#1f77b4;" x="316.300338" xlink:href="#m1c9408c12a" y="75.91619"/>
     <use style="fill:#1f77b4;stroke:#1f77b4;" x="264.705647" xlink:href="#m1c9408c12a" y="64.465644"/>
     <use style="fill:#1f77b4;stroke:#1f77b4;" x="235.222967" xlink:href="#m1c9408c12a" y="110.267829"/>
     <use style="fill:#1f77b4;stroke:#1f77b4;" x="286.817658" xlink:href="#m1c9408c12a" y="53.015097"/>
     <use style="fill:#1f77b4;stroke:#1f77b4;" x="272.076317" xlink:href="#m1c9408c12a" y="110.267829"/>
     <use style="fill:#1f77b4;stroke:#1f77b4;" x="323.671008" xlink:href="#m1c9408c12a" y="64.465644"/>
     <use style="fill:#1f77b4;stroke:#1f77b4;" x="242.593637" xlink:href="#m1c9408c12a" y="75.91619"/>
     <use style="fill:#1f77b4;stroke:#1f77b4;" x="301.558998" xlink:href="#m1c9408c12a" y="64.465644"/>
     <use style="fill:#1f77b4;stroke:#1f77b4;" x="308.929668" xlink:href="#m1c9408c12a" y="53.015097"/>
     <use style="fill:#1f77b4;stroke:#1f77b4;" x="279.446988" xlink:href="#m1c9408c12a" y="110.267829"/>
     <use style="fill:#1f77b4;stroke:#1f77b4;" x="308.929668" xlink:href="#m1c9408c12a" y="53.015097"/>
     <use style="fill:#1f77b4;stroke:#1f77b4;" x="264.705647" xlink:href="#m1c9408c12a" y="98.817283"/>
     <use style="fill:#1f77b4;stroke:#1f77b4;" x="331.041678" xlink:href="#m1c9408c12a" y="18.663458"/>
     <use style="fill:#1f77b4;stroke:#1f77b4;" x="272.076317" xlink:href="#m1c9408c12a" y="75.91619"/>
     <use style="fill:#1f77b4;stroke:#1f77b4;" x="338.412349" xlink:href="#m1c9408c12a" y="53.015097"/>
     <use style="fill:#1f77b4;stroke:#1f77b4;" x="323.671008" xlink:href="#m1c9408c12a" y="87.366736"/>
     <use style="fill:#1f77b4;stroke:#1f77b4;" x="294.188328" xlink:href="#m1c9408c12a" y="75.91619"/>
     <use style="fill:#1f77b4;stroke:#1f77b4;" x="301.558998" xlink:href="#m1c9408c12a" y="64.465644"/>
     <use style="fill:#1f77b4;stroke:#1f77b4;" x="331.041678" xlink:href="#m1c9408c12a" y="64.465644"/>
     <use style="fill:#1f77b4;stroke:#1f77b4;" x="345.783019" xlink:href="#m1c9408c12a" y="30.114004"/>
     <use style="fill:#1f77b4;stroke:#1f77b4;" x="308.929668" xlink:href="#m1c9408c12a" y="53.015097"/>
     <use style="fill:#1f77b4;stroke:#1f77b4;" x="235.222967" xlink:href="#m1c9408c12a" y="110.267829"/>
     <use style="fill:#1f77b4;stroke:#1f77b4;" x="257.334977" xlink:href="#m1c9408c12a" y="98.817283"/>
     <use style="fill:#1f77b4;stroke:#1f77b4;" x="249.964307" xlink:href="#m1c9408c12a" y="110.267829"/>
     <use style="fill:#1f77b4;stroke:#1f77b4;" x="264.705647" xlink:href="#m1c9408c12a" y="87.366736"/>
     <use style="fill:#1f77b4;stroke:#1f77b4;" x="353.153689" xlink:href="#m1c9408c12a" y="41.564551"/>
     <use style="fill:#1f77b4;stroke:#1f77b4;" x="308.929668" xlink:href="#m1c9408c12a" y="53.015097"/>
     <use style="fill:#1f77b4;stroke:#1f77b4;" x="308.929668" xlink:href="#m1c9408c12a" y="41.564551"/>
     <use style="fill:#1f77b4;stroke:#1f77b4;" x="323.671008" xlink:href="#m1c9408c12a" y="53.015097"/>
     <use style="fill:#1f77b4;stroke:#1f77b4;" x="301.558998" xlink:href="#m1c9408c12a" y="75.91619"/>
     <use style="fill:#1f77b4;stroke:#1f77b4;" x="279.446988" xlink:href="#m1c9408c12a" y="75.91619"/>
     <use style="fill:#1f77b4;stroke:#1f77b4;" x="272.076317" xlink:href="#m1c9408c12a" y="75.91619"/>
     <use style="fill:#1f77b4;stroke:#1f77b4;" x="301.558998" xlink:href="#m1c9408c12a" y="87.366736"/>
     <use style="fill:#1f77b4;stroke:#1f77b4;" x="316.300338" xlink:href="#m1c9408c12a" y="64.465644"/>
     <use style="fill:#1f77b4;stroke:#1f77b4;" x="272.076317" xlink:href="#m1c9408c12a" y="87.366736"/>
     <use style="fill:#1f77b4;stroke:#1f77b4;" x="220.481627" xlink:href="#m1c9408c12a" y="110.267829"/>
     <use style="fill:#1f77b4;stroke:#1f77b4;" x="286.817658" xlink:href="#m1c9408c12a" y="75.91619"/>
     <use style="fill:#1f77b4;stroke:#1f77b4;" x="286.817658" xlink:href="#m1c9408c12a" y="87.366736"/>
     <use style="fill:#1f77b4;stroke:#1f77b4;" x="286.817658" xlink:href="#m1c9408c12a" y="75.91619"/>
     <use style="fill:#1f77b4;stroke:#1f77b4;" x="294.188328" xlink:href="#m1c9408c12a" y="75.91619"/>
     <use style="fill:#1f77b4;stroke:#1f77b4;" x="198.369616" xlink:href="#m1c9408c12a" y="98.817283"/>
     <use style="fill:#1f77b4;stroke:#1f77b4;" x="279.446988" xlink:href="#m1c9408c12a" y="75.91619"/>
    </g>
   </g>
   <g id="PathCollection_2">
    <defs>
     <path d="M -0 3 
L 3 -3 
L -3 -3 
z
" id="m59db1732e1" style="stroke:#ff7f0e;"/>
    </defs>
    <g clip-path="url(#p5917bb605c)">
     <use style="fill:#ff7f0e;stroke:#ff7f0e;" x="80.438894" xlink:href="#m59db1732e1" y="201.872201"/>
     <use style="fill:#ff7f0e;stroke:#ff7f0e;" x="80.438894" xlink:href="#m59db1732e1" y="201.872201"/>
     <use style="fill:#ff7f0e;stroke:#ff7f0e;" x="73.068224" xlink:href="#m59db1732e1" y="201.872201"/>
     <use style="fill:#ff7f0e;stroke:#ff7f0e;" x="87.809564" xlink:href="#m59db1732e1" y="201.872201"/>
     <use style="fill:#ff7f0e;stroke:#ff7f0e;" x="80.438894" xlink:href="#m59db1732e1" y="201.872201"/>
     <use style="fill:#ff7f0e;stroke:#ff7f0e;" x="102.550905" xlink:href="#m59db1732e1" y="178.971108"/>
     <use style="fill:#ff7f0e;stroke:#ff7f0e;" x="80.438894" xlink:href="#m59db1732e1" y="190.421654"/>
     <use style="fill:#ff7f0e;stroke:#ff7f0e;" x="87.809564" xlink:href="#m59db1732e1" y="201.872201"/>
     <use style="fill:#ff7f0e;stroke:#ff7f0e;" x="80.438894" xlink:href="#m59db1732e1" y="201.872201"/>
     <use style="fill:#ff7f0e;stroke:#ff7f0e;" x="87.809564" xlink:href="#m59db1732e1" y="213.322747"/>
     <use style="fill:#ff7f0e;stroke:#ff7f0e;" x="87.809564" xlink:href="#m59db1732e1" y="201.872201"/>
     <use style="fill:#ff7f0e;stroke:#ff7f0e;" x="95.180234" xlink:href="#m59db1732e1" y="201.872201"/>
     <use style="fill:#ff7f0e;stroke:#ff7f0e;" x="80.438894" xlink:href="#m59db1732e1" y="213.322747"/>
     <use style="fill:#ff7f0e;stroke:#ff7f0e;" x="58.326884" xlink:href="#m59db1732e1" y="213.322747"/>
     <use style="fill:#ff7f0e;stroke:#ff7f0e;" x="65.697554" xlink:href="#m59db1732e1" y="201.872201"/>
     <use style="fill:#ff7f0e;stroke:#ff7f0e;" x="87.809564" xlink:href="#m59db1732e1" y="178.971108"/>
     <use style="fill:#ff7f0e;stroke:#ff7f0e;" x="73.068224" xlink:href="#m59db1732e1" y="178.971108"/>
     <use style="fill:#ff7f0e;stroke:#ff7f0e;" x="80.438894" xlink:href="#m59db1732e1" y="190.421654"/>
     <use style="fill:#ff7f0e;stroke:#ff7f0e;" x="102.550905" xlink:href="#m59db1732e1" y="190.421654"/>
     <use style="fill:#ff7f0e;stroke:#ff7f0e;" x="87.809564" xlink:href="#m59db1732e1" y="190.421654"/>
     <use style="fill:#ff7f0e;stroke:#ff7f0e;" x="102.550905" xlink:href="#m59db1732e1" y="201.872201"/>
     <use style="fill:#ff7f0e;stroke:#ff7f0e;" x="87.809564" xlink:href="#m59db1732e1" y="178.971108"/>
     <use style="fill:#ff7f0e;stroke:#ff7f0e;" x="50.956214" xlink:href="#m59db1732e1" y="201.872201"/>
     <use style="fill:#ff7f0e;stroke:#ff7f0e;" x="102.550905" xlink:href="#m59db1732e1" y="167.520561"/>
     <use style="fill:#ff7f0e;stroke:#ff7f0e;" x="117.292245" xlink:href="#m59db1732e1" y="201.872201"/>
     <use style="fill:#ff7f0e;stroke:#ff7f0e;" x="95.180234" xlink:href="#m59db1732e1" y="201.872201"/>
     <use style="fill:#ff7f0e;stroke:#ff7f0e;" x="95.180234" xlink:href="#m59db1732e1" y="178.971108"/>
     <use style="fill:#ff7f0e;stroke:#ff7f0e;" x="87.809564" xlink:href="#m59db1732e1" y="201.872201"/>
     <use style="fill:#ff7f0e;stroke:#ff7f0e;" x="80.438894" xlink:href="#m59db1732e1" y="201.872201"/>
     <use style="fill:#ff7f0e;stroke:#ff7f0e;" x="95.180234" xlink:href="#m59db1732e1" y="201.872201"/>
     <use style="fill:#ff7f0e;stroke:#ff7f0e;" x="95.180234" xlink:href="#m59db1732e1" y="201.872201"/>
     <use style="fill:#ff7f0e;stroke:#ff7f0e;" x="87.809564" xlink:href="#m59db1732e1" y="178.971108"/>
     <use style="fill:#ff7f0e;stroke:#ff7f0e;" x="87.809564" xlink:href="#m59db1732e1" y="213.322747"/>
     <use style="fill:#ff7f0e;stroke:#ff7f0e;" x="80.438894" xlink:href="#m59db1732e1" y="201.872201"/>
     <use style="fill:#ff7f0e;stroke:#ff7f0e;" x="87.809564" xlink:href="#m59db1732e1" y="201.872201"/>
     <use style="fill:#ff7f0e;stroke:#ff7f0e;" x="65.697554" xlink:href="#m59db1732e1" y="201.872201"/>
     <use style="fill:#ff7f0e;stroke:#ff7f0e;" x="73.068224" xlink:href="#m59db1732e1" y="201.872201"/>
     <use style="fill:#ff7f0e;stroke:#ff7f0e;" x="80.438894" xlink:href="#m59db1732e1" y="213.322747"/>
     <use style="fill:#ff7f0e;stroke:#ff7f0e;" x="73.068224" xlink:href="#m59db1732e1" y="201.872201"/>
     <use style="fill:#ff7f0e;stroke:#ff7f0e;" x="87.809564" xlink:href="#m59db1732e1" y="201.872201"/>
     <use style="fill:#ff7f0e;stroke:#ff7f0e;" x="73.068224" xlink:href="#m59db1732e1" y="190.421654"/>
     <use style="fill:#ff7f0e;stroke:#ff7f0e;" x="73.068224" xlink:href="#m59db1732e1" y="190.421654"/>
     <use style="fill:#ff7f0e;stroke:#ff7f0e;" x="73.068224" xlink:href="#m59db1732e1" y="201.872201"/>
     <use style="fill:#ff7f0e;stroke:#ff7f0e;" x="95.180234" xlink:href="#m59db1732e1" y="156.070015"/>
     <use style="fill:#ff7f0e;stroke:#ff7f0e;" x="117.292245" xlink:href="#m59db1732e1" y="178.971108"/>
     <use style="fill:#ff7f0e;stroke:#ff7f0e;" x="80.438894" xlink:href="#m59db1732e1" y="190.421654"/>
     <use style="fill:#ff7f0e;stroke:#ff7f0e;" x="95.180234" xlink:href="#m59db1732e1" y="201.872201"/>
     <use style="fill:#ff7f0e;stroke:#ff7f0e;" x="80.438894" xlink:href="#m59db1732e1" y="201.872201"/>
     <use style="fill:#ff7f0e;stroke:#ff7f0e;" x="87.809564" xlink:href="#m59db1732e1" y="201.872201"/>
     <use style="fill:#ff7f0e;stroke:#ff7f0e;" x="80.438894" xlink:href="#m59db1732e1" y="201.872201"/>
    </g>
   </g>
   <g id="matplotlib.axis_1">
    <g id="xtick_1">
     <g id="line2d_1">
      <defs>
       <path d="M 0 0 
L 0 3.5 
" id="m1834444025" style="stroke:#000000;stroke-width:0.8;"/>
      </defs>
      <g>
       <use style="stroke:#000000;stroke-width:0.8;" x="50.956214" xlink:href="#m1834444025" y="224.64"/>
      </g>
     </g>
     <g id="text_1">
      <!-- 1 -->
      <defs>
       <path d="M 28.515625 69.53125 
L 28.515625 10.15625 
Q 28.515625 7.03125 30.46875 5.46875 
Q 32.421875 3.90625 35.9375 3.90625 
L 39.84375 3.90625 
L 39.84375 1.5625 
L 11.328125 1.5625 
L 11.328125 3.90625 
L 14.84375 3.90625 
Q 18.75 3.90625 20.5 5.46875 
Q 22.265625 7.03125 22.265625 10.15625 
L 22.265625 57.421875 
Q 22.265625 58.984375 21.28125 59.953125 
Q 20.3125 60.9375 18.359375 60.9375 
L 11.328125 60.9375 
L 11.328125 63.28125 
L 14.84375 63.28125 
Q 19.53125 63.28125 22.453125 64.84375 
Q 25.390625 66.40625 26.953125 69.53125 
z
" id="SimSun-49"/>
      </defs>
      <g transform="translate(48.456214 238.788437)scale(0.1 -0.1)">
       <use xlink:href="#SimSun-49"/>
      </g>
     </g>
    </g>
    <g id="xtick_2">
     <g id="line2d_2">
      <g>
       <use style="stroke:#000000;stroke-width:0.8;" x="124.662915" xlink:href="#m1834444025" y="224.64"/>
      </g>
     </g>
     <g id="text_2">
      <!-- 2 -->
      <defs>
       <path d="M 36.328125 51.953125 
Q 36.328125 58.984375 33.203125 62.6875 
Q 30.078125 66.40625 23.828125 66.40625 
Q 19.140625 66.40625 15.8125 63.859375 
Q 12.5 61.328125 12.5 57.421875 
Q 12.5 55.078125 14.0625 53.515625 
Q 15.234375 51.953125 15.234375 50.390625 
Q 15.234375 48.4375 14.25 47.453125 
Q 13.28125 46.484375 11.328125 46.484375 
Q 8.984375 46.484375 7.609375 47.84375 
Q 6.25 49.21875 6.25 52.34375 
Q 6.25 60.546875 12.109375 64.84375 
Q 17.96875 69.140625 24.609375 69.140625 
Q 33.984375 69.140625 38.46875 64.453125 
Q 42.96875 59.765625 42.96875 52.734375 
Q 42.96875 48.046875 40.8125 43.359375 
Q 38.671875 38.671875 33.984375 34.375 
Q 22.65625 23.4375 16.59375 16.59375 
Q 10.546875 9.765625 9.375 7.421875 
L 32.421875 7.421875 
Q 35.9375 7.421875 38.28125 10.15625 
Q 40.625 12.890625 41.40625 18.359375 
L 43.75 18.359375 
L 41.40625 1.5625 
L 5.078125 1.5625 
L 5.078125 6.640625 
Q 7.03125 10.15625 11.515625 15.625 
Q 16.015625 21.09375 23.4375 28.515625 
Q 30.078125 35.15625 33.203125 41.015625 
Q 36.328125 46.875 36.328125 51.953125 
z
" id="SimSun-50"/>
      </defs>
      <g transform="translate(122.162915 238.788437)scale(0.1 -0.1)">
       <use xlink:href="#SimSun-50"/>
      </g>
     </g>
    </g>
    <g id="xtick_3">
     <g id="line2d_3">
      <g>
       <use style="stroke:#000000;stroke-width:0.8;" x="198.369616" xlink:href="#m1834444025" y="224.64"/>
      </g>
     </g>
     <g id="text_3">
      <!-- 3 -->
      <defs>
       <path d="M 43.75 19.53125 
Q 43.75 12.109375 38.28125 6.4375 
Q 32.8125 0.78125 23.046875 0.78125 
Q 16.015625 0.78125 10.9375 4.6875 
Q 5.859375 8.59375 5.859375 13.671875 
Q 5.859375 16.015625 7.421875 17.765625 
Q 8.984375 19.53125 10.546875 19.53125 
Q 12.890625 19.53125 13.859375 17.765625 
Q 14.84375 16.015625 14.84375 14.84375 
Q 14.84375 12.890625 14.0625 11.71875 
Q 13.28125 10.15625 13.28125 8.984375 
Q 13.28125 6.640625 16.203125 5.078125 
Q 19.140625 3.515625 22.65625 3.515625 
Q 29.6875 3.515625 33.203125 7.609375 
Q 36.71875 11.71875 36.71875 20.3125 
Q 36.71875 27.34375 33 31.640625 
Q 29.296875 35.9375 19.140625 35.9375 
L 19.140625 38.671875 
Q 26.953125 38.671875 30.65625 42.375 
Q 34.375 46.09375 34.375 52.734375 
Q 34.375 58.203125 31.4375 62.296875 
Q 28.515625 66.40625 22.265625 66.40625 
Q 19.53125 66.40625 16.40625 65.03125 
Q 13.28125 63.671875 13.28125 60.546875 
Q 13.28125 57.421875 14.0625 56.640625 
Q 14.84375 55.859375 14.84375 54.6875 
Q 14.84375 52.734375 14.0625 51.5625 
Q 13.28125 50.390625 11.328125 50.390625 
Q 9.765625 50.390625 8.390625 51.5625 
Q 7.03125 52.734375 7.03125 55.859375 
Q 7.03125 61.71875 12.109375 65.421875 
Q 17.1875 69.140625 23.828125 69.140625 
Q 31.640625 69.140625 36.328125 64.25 
Q 41.015625 59.375 41.015625 53.90625 
Q 41.015625 48.046875 38.078125 43.9375 
Q 35.15625 39.84375 28.90625 37.890625 
Q 37.5 34.765625 40.625 29.6875 
Q 43.75 24.609375 43.75 19.53125 
z
" id="SimSun-51"/>
      </defs>
      <g transform="translate(195.869616 238.788437)scale(0.1 -0.1)">
       <use xlink:href="#SimSun-51"/>
      </g>
     </g>
    </g>
    <g id="xtick_4">
     <g id="line2d_4">
      <g>
       <use style="stroke:#000000;stroke-width:0.8;" x="272.076317" xlink:href="#m1834444025" y="224.64"/>
      </g>
     </g>
     <g id="text_4">
      <!-- 4 -->
      <defs>
       <path d="M 35.9375 8.984375 
Q 35.9375 6.25 37.5 5.078125 
Q 39.0625 3.90625 41.796875 3.90625 
L 45.3125 3.90625 
L 45.3125 1.5625 
L 19.53125 1.5625 
L 19.53125 3.90625 
L 23.828125 3.90625 
Q 26.953125 3.90625 28.3125 5.078125 
Q 29.6875 6.25 29.6875 8.984375 
L 29.6875 21.875 
L 3.515625 21.875 
L 3.515625 23.828125 
L 32.03125 69.140625 
L 35.9375 69.140625 
L 35.9375 24.21875 
L 46.484375 24.21875 
L 46.484375 21.875 
L 35.9375 21.875 
z
M 29.296875 59.375 
L 7.03125 24.21875 
L 29.6875 24.21875 
L 29.6875 59.375 
z
" id="SimSun-52"/>
      </defs>
      <g transform="translate(269.576317 238.788437)scale(0.1 -0.1)">
       <use xlink:href="#SimSun-52"/>
      </g>
     </g>
    </g>
    <g id="xtick_5">
     <g id="line2d_5">
      <g>
       <use style="stroke:#000000;stroke-width:0.8;" x="345.783019" xlink:href="#m1834444025" y="224.64"/>
      </g>
     </g>
     <g id="text_5">
      <!-- 5 -->
      <defs>
       <path d="M 26.953125 44.53125 
Q 34.375 44.53125 39.0625 38.859375 
Q 43.75 33.203125 43.75 23.828125 
Q 43.75 13.28125 38.859375 7.03125 
Q 33.984375 0.78125 23.828125 0.78125 
Q 16.796875 0.78125 11.328125 4.875 
Q 5.859375 8.984375 5.859375 14.84375 
Q 5.859375 17.1875 7.21875 18.9375 
Q 8.59375 20.703125 10.9375 20.703125 
Q 13.28125 20.703125 14.0625 19.140625 
Q 14.84375 17.578125 14.84375 16.40625 
Q 14.84375 14.0625 13.671875 12.890625 
Q 12.5 11.328125 12.5 9.765625 
Q 12.5 6.640625 16.203125 5.078125 
Q 19.921875 3.515625 24.21875 3.515625 
Q 30.46875 3.515625 33.78125 8.59375 
Q 37.109375 13.671875 37.109375 23.046875 
Q 37.109375 30.859375 34.171875 35.734375 
Q 31.25 40.625 25.390625 40.625 
Q 21.09375 40.625 17.96875 39.0625 
Q 14.84375 37.5 12.109375 32.421875 
L 8.59375 32.8125 
L 10.546875 68.359375 
L 42.578125 68.359375 
L 41.40625 62.5 
L 13.28125 62.5 
L 11.71875 36.71875 
Q 15.625 42.1875 19.328125 43.359375 
Q 23.046875 44.53125 26.953125 44.53125 
z
" id="SimSun-53"/>
      </defs>
      <g transform="translate(343.283019 238.788437)scale(0.1 -0.1)">
       <use xlink:href="#SimSun-53"/>
      </g>
     </g>
    </g>
   </g>
   <g id="matplotlib.axis_2">
    <g id="ytick_1">
     <g id="line2d_6">
      <defs>
       <path d="M 0 0 
L -3.5 0 
" id="md8164e7634" style="stroke:#000000;stroke-width:0.8;"/>
      </defs>
      <g>
       <use style="stroke:#000000;stroke-width:0.8;" x="34.2" xlink:href="#md8164e7634" y="196.146927"/>
      </g>
     </g>
     <g id="text_6">
      <!-- 0.25 -->
      <defs>
       <path d="M 25 66.015625 
Q 19.53125 66.015625 15.8125 57.609375 
Q 12.109375 49.21875 12.109375 35.15625 
Q 12.109375 20.3125 15.8125 12.109375 
Q 19.53125 3.90625 25 3.90625 
Q 30.859375 3.90625 34.171875 12.109375 
Q 37.5 20.3125 37.5 35.15625 
Q 37.5 49.21875 34.375 57.609375 
Q 31.25 66.015625 25 66.015625 
z
M 25 0.78125 
Q 16.40625 0.78125 10.546875 9.765625 
Q 4.6875 18.75 4.6875 35.15625 
Q 4.6875 50.390625 10.34375 59.765625 
Q 16.015625 69.140625 25 69.140625 
Q 33.59375 69.140625 39.25 60.15625 
Q 44.921875 51.171875 44.921875 35.15625 
Q 44.921875 19.140625 39.25 9.953125 
Q 33.59375 0.78125 25 0.78125 
z
" id="SimSun-48"/>
       <path d="M 12.5 0.390625 
Q 10.15625 0.390625 8.390625 1.953125 
Q 6.640625 3.515625 6.640625 6.25 
Q 6.640625 8.984375 8.390625 10.546875 
Q 10.15625 12.109375 12.5 12.109375 
Q 14.84375 12.109375 16.59375 10.34375 
Q 18.359375 8.59375 18.359375 6.25 
Q 18.359375 3.515625 16.59375 1.953125 
Q 14.84375 0.390625 12.5 0.390625 
z
" id="SimSun-46"/>
      </defs>
      <g transform="translate(7.2 199.721146)scale(0.1 -0.1)">
       <use xlink:href="#SimSun-48"/>
       <use x="50" xlink:href="#SimSun-46"/>
       <use x="100" xlink:href="#SimSun-50"/>
       <use x="150" xlink:href="#SimSun-53"/>
      </g>
     </g>
    </g>
    <g id="ytick_2">
     <g id="line2d_7">
      <g>
       <use style="stroke:#000000;stroke-width:0.8;" x="34.2" xlink:href="#md8164e7634" y="167.520561"/>
      </g>
     </g>
     <g id="text_7">
      <!-- 0.50 -->
      <g transform="translate(7.2 171.09478)scale(0.1 -0.1)">
       <use xlink:href="#SimSun-48"/>
       <use x="50" xlink:href="#SimSun-46"/>
       <use x="100" xlink:href="#SimSun-53"/>
       <use x="150" xlink:href="#SimSun-48"/>
      </g>
     </g>
    </g>
    <g id="ytick_3">
     <g id="line2d_8">
      <g>
       <use style="stroke:#000000;stroke-width:0.8;" x="34.2" xlink:href="#md8164e7634" y="138.894195"/>
      </g>
     </g>
     <g id="text_8">
      <!-- 0.75 -->
      <defs>
       <path d="M 44.140625 65.625 
Q 35.9375 52.34375 31.046875 39.640625 
Q 26.171875 26.953125 26.171875 17.578125 
Q 26.171875 16.015625 26.5625 13.28125 
Q 26.5625 10.15625 26.5625 6.25 
Q 26.5625 3.125 25.578125 1.953125 
Q 24.609375 0.78125 22.265625 0.78125 
Q 20.3125 0.78125 18.9375 2.140625 
Q 17.578125 3.515625 17.578125 7.03125 
Q 17.578125 14.453125 20.890625 25.390625 
Q 24.21875 36.328125 38.671875 62.5 
L 19.140625 62.5 
Q 14.84375 62.5 12.296875 59.765625 
Q 9.765625 57.03125 8.59375 51.5625 
L 6.25 51.953125 
L 8.984375 68.359375 
L 44.140625 68.359375 
z
" id="SimSun-55"/>
      </defs>
      <g transform="translate(7.2 142.468414)scale(0.1 -0.1)">
       <use xlink:href="#SimSun-48"/>
       <use x="50" xlink:href="#SimSun-46"/>
       <use x="100" xlink:href="#SimSun-55"/>
       <use x="150" xlink:href="#SimSun-53"/>
      </g>
     </g>
    </g>
    <g id="ytick_4">
     <g id="line2d_9">
      <g>
       <use style="stroke:#000000;stroke-width:0.8;" x="34.2" xlink:href="#md8164e7634" y="110.267829"/>
      </g>
     </g>
     <g id="text_9">
      <!-- 1.00 -->
      <g transform="translate(7.2 113.842048)scale(0.1 -0.1)">
       <use xlink:href="#SimSun-49"/>
       <use x="50" xlink:href="#SimSun-46"/>
       <use x="100" xlink:href="#SimSun-48"/>
       <use x="150" xlink:href="#SimSun-48"/>
      </g>
     </g>
    </g>
    <g id="ytick_5">
     <g id="line2d_10">
      <g>
       <use style="stroke:#000000;stroke-width:0.8;" x="34.2" xlink:href="#md8164e7634" y="81.641463"/>
      </g>
     </g>
     <g id="text_10">
      <!-- 1.25 -->
      <g transform="translate(7.2 85.215682)scale(0.1 -0.1)">
       <use xlink:href="#SimSun-49"/>
       <use x="50" xlink:href="#SimSun-46"/>
       <use x="100" xlink:href="#SimSun-50"/>
       <use x="150" xlink:href="#SimSun-53"/>
      </g>
     </g>
    </g>
    <g id="ytick_6">
     <g id="line2d_11">
      <g>
       <use style="stroke:#000000;stroke-width:0.8;" x="34.2" xlink:href="#md8164e7634" y="53.015097"/>
      </g>
     </g>
     <g id="text_11">
      <!-- 1.50 -->
      <g transform="translate(7.2 56.589316)scale(0.1 -0.1)">
       <use xlink:href="#SimSun-49"/>
       <use x="50" xlink:href="#SimSun-46"/>
       <use x="100" xlink:href="#SimSun-53"/>
       <use x="150" xlink:href="#SimSun-48"/>
      </g>
     </g>
    </g>
    <g id="ytick_7">
     <g id="line2d_12">
      <g>
       <use style="stroke:#000000;stroke-width:0.8;" x="34.2" xlink:href="#md8164e7634" y="24.388731"/>
      </g>
     </g>
     <g id="text_12">
      <!-- 1.75 -->
      <g transform="translate(7.2 27.96295)scale(0.1 -0.1)">
       <use xlink:href="#SimSun-49"/>
       <use x="50" xlink:href="#SimSun-46"/>
       <use x="100" xlink:href="#SimSun-55"/>
       <use x="150" xlink:href="#SimSun-53"/>
      </g>
     </g>
    </g>
   </g>
   <g id="line2d_13">
    <path clip-path="url(#p5917bb605c)" d="M 100.526816 -1 
L 202.637032 248.2775 
" style="fill:none;stroke:#0000ff;stroke-linecap:square;stroke-width:1.5;"/>
   </g>
   <g id="line2d_14">
    <path clip-path="url(#p5917bb605c)" d="M 157.481994 -1 
L 259.59221 248.2775 
" style="fill:none;stroke:#1f77b4;stroke-dasharray:9.6,2.4,1.5,2.4;stroke-dashoffset:0;stroke-width:1.5;"/>
   </g>
   <g id="line2d_15">
    <path clip-path="url(#p5917bb605c)" d="M 43.571638 -1 
L 145.681854 248.2775 
" style="fill:none;stroke:#1f77b4;stroke-dasharray:9.6,2.4,1.5,2.4;stroke-dashoffset:0;stroke-width:1.5;"/>
   </g>
   <g id="patch_3">
    <path d="M 34.2 224.64 
L 34.2 7.2 
" style="fill:none;stroke:#000000;stroke-linecap:square;stroke-linejoin:miter;stroke-width:0.8;"/>
   </g>
   <g id="patch_4">
    <path d="M 369 224.64 
L 369 7.2 
" style="fill:none;stroke:#000000;stroke-linecap:square;stroke-linejoin:miter;stroke-width:0.8;"/>
   </g>
   <g id="patch_5">
    <path d="M 34.2 224.64 
L 369 224.64 
" style="fill:none;stroke:#000000;stroke-linecap:square;stroke-linejoin:miter;stroke-width:0.8;"/>
   </g>
   <g id="patch_6">
    <path d="M 34.2 7.2 
L 369 7.2 
" style="fill:none;stroke:#000000;stroke-linecap:square;stroke-linejoin:miter;stroke-width:0.8;"/>
   </g>
   <g id="legend_1">
    <g id="patch_7">
     <path d="M 320 219.64 
L 362 219.64 
Q 364 219.64 364 217.64 
L 364 191.765 
Q 364 189.765 362 189.765 
L 320 189.765 
Q 318 189.765 318 191.765 
L 318 217.64 
Q 318 219.64 320 219.64 
z
" style="fill:#ffffff;opacity:0.8;stroke:#cccccc;stroke-linejoin:miter;"/>
    </g>
    <g id="PathCollection_3">
     <g>
      <use style="fill:#1f77b4;stroke:#1f77b4;" x="332" xlink:href="#m1c9408c12a" y="198.288437"/>
     </g>
    </g>
    <g id="text_13">
     <!-- 1 -->
     <g transform="translate(350 200.913437)scale(0.1 -0.1)">
      <use xlink:href="#SimSun-49"/>
     </g>
    </g>
    <g id="PathCollection_4">
     <g>
      <use style="fill:#ff7f0e;stroke:#ff7f0e;" x="332" xlink:href="#m59db1732e1" y="211.725937"/>
     </g>
    </g>
    <g id="text_14">
     <!-- -1 -->
     <defs>
      <path d="M 3.125 34.765625 
L 3.125 38.28125 
L 46.484375 38.28125 
L 46.484375 34.765625 
z
" id="SimSun-45"/>
     </defs>
     <g transform="translate(350 214.350937)scale(0.1 -0.1)">
      <use xlink:href="#SimSun-45"/>
      <use x="50" xlink:href="#SimSun-49"/>
     </g>
    </g>
   </g>
  </g>
 </g>
 <defs>
  <clipPath id="p5917bb605c">
   <rect height="217.44" width="334.8" x="34.2" y="7.2"/>
  </clipPath>
 </defs>
</svg>
