<svg width="1030" height="673" xmlns="http://www.w3.org/2000/svg" xmlns:xlink="http://www.w3.org/1999/xlink" overflow="hidden"><defs><filter id="fx0" x="-10%" y="-10%" width="120%" height="120%" filterUnits="userSpaceOnUse" primitiveUnits="userSpaceOnUse"><feComponentTransfer color-interpolation-filters="sRGB"><feFuncR type="discrete" tableValues="0 0"/><feFuncG type="discrete" tableValues="0 0"/><feFuncB type="discrete" tableValues="0 0"/><feFuncA type="linear" slope="0.431373" intercept="0"/></feComponentTransfer><feGaussianBlur stdDeviation="1.26638 1.26638"/></filter><clipPath id="clip1"><rect x="1645" y="958" width="1030" height="673"/></clipPath><clipPath id="clip2"><rect x="31" y="21" width="289" height="51"/></clipPath><clipPath id="clip3"><rect x="0" y="0" width="352" height="110"/></clipPath></defs><g clip-path="url(#clip1)" transform="translate(-1645 -958)"><path d="M2200 1509C2200 1443.28 2306.33 1390 2437.5 1390 2568.67 1390 2675 1443.28 2675 1509 2675 1574.72 2568.67 1628 2437.5 1628 2306.33 1628 2200 1574.72 2200 1509Z" fill="#4472C4" fill-rule="evenodd"/><path d="M2200 1498 2437.5 1013 2675 1498Z" fill="#4472C4" fill-rule="evenodd"/><path d="M1771.5 1426.37C1771.5 1442.32 1851.64 1455.25 1950.5 1455.25 2049.36 1455.25 2129.5 1442.32 2129.5 1426.37L2129.5 1599.62C2129.5 1615.57 2049.36 1628.5 1950.5 1628.5 1851.64 1628.5 1771.5 1615.57 1771.5 1599.62Z" fill="#70AD47" fill-rule="evenodd"/><path d="M1771.5 1426.37C1771.5 1410.43 1851.64 1397.5 1950.5 1397.5 2049.36 1397.5 2129.5 1410.43 2129.5 1426.37 2129.5 1442.32 2049.36 1455.25 1950.5 1455.25 1851.64 1455.25 1771.5 1442.32 1771.5 1426.37Z" fill="#A9CE91" fill-rule="evenodd"/><path d="M2129.5 1426.37C2129.5 1442.32 2049.36 1455.25 1950.5 1455.25 1851.64 1455.25 1771.5 1442.32 1771.5 1426.37 1771.5 1410.43 1851.64 1397.5 1950.5 1397.5 2049.36 1397.5 2129.5 1410.43 2129.5 1426.37L2129.5 1599.62C2129.5 1615.57 2049.36 1628.5 1950.5 1628.5 1851.64 1628.5 1771.5 1615.57 1771.5 1599.62L1771.5 1426.37" stroke="#507E32" stroke-width="4.58333" stroke-miterlimit="8" fill="none" fill-rule="evenodd"/><path d="M1789.5 1380C1789.5 1291.36 1861.36 1219.5 1950 1219.5 2038.64 1219.5 2110.5 1291.36 2110.5 1380 2110.5 1468.64 2038.64 1540.5 1950 1540.5 1861.36 1540.5 1789.5 1468.64 1789.5 1380Z" stroke="#BC8C00" stroke-width="4.58333" stroke-miterlimit="8" fill="#FFC000" fill-rule="evenodd"/><path d="M1942 1379.5C1942 1374.81 1945.58 1371 1950 1371 1954.42 1371 1958 1374.81 1958 1379.5 1958 1384.19 1954.42 1388 1950 1388 1945.58 1388 1942 1384.19 1942 1379.5Z" fill="#FF0000" fill-rule="evenodd"/><path d="M2.29167-8.49478e-06 2.29273 287.54-2.2906 287.54-2.29167 8.49478e-06ZM18.0221 261.195 0.00108312 292.088-18.0202 261.195C-18.6579 260.102-18.2887 258.699-17.1954 258.061-16.1022 257.423-14.6989 257.792-14.0612 258.886L1.98055 286.386-1.97843 286.386 14.0631 258.886C14.7009 257.792 16.1041 257.423 17.1973 258.061 18.2906 258.698 18.6599 260.102 18.0221 261.195Z" fill="#70AD47" transform="matrix(-1 0 0 1 2438.5 1022.5)"/><path d="M2438.5 1314.5 2438.5 1450" stroke="#70AD47" stroke-width="4.58333" stroke-miterlimit="8" stroke-dasharray="18.3333 13.75" fill="none" fill-rule="evenodd"/><path d="M1805.5 1309.5 1944.31 1374.47" stroke="#70AD47" stroke-width="4.58333" stroke-miterlimit="8" stroke-dasharray="18.3333 13.75" fill="none" fill-rule="evenodd"/><text font-family="Microsoft YaHei,Microsoft YaHei_MSFontService,sans-serif" font-weight="400" font-size="48" transform="matrix(1 0 0 1 1841.14 1389)">R<tspan font-size="48" x="129.659" y="35">O</tspan><tspan font-size="48" x="617.008" y="-368">C</tspan></text><g clip-path="url(#clip2)" filter="url(#fx0)" transform="translate(2296 1344)"><g clip-path="url(#clip3)"><path d="M22.0078-1.17187C20.0234 0.015625 17.6328 0.609375 14.8359 0.609375 11.0859 0.609375 8.07031-0.59375 5.78906-3 3.50781-5.40625 2.36719-8.52344 2.36719-12.3516 2.36719-16.6016 3.59766-20.0273 6.05859-22.6289 8.51953-25.2305 11.8125-26.5312 15.9375-26.5312 18.3125-26.5312 20.3437-26.1094 22.0312-25.2656L22.0312-20.7187C20.2031-22.0625 18.1719-22.7344 15.9375-22.7344 13.3125-22.7344 11.1758-21.8242 9.52734-20.0039 7.87891-18.1836 7.05469-15.7578 7.05469-12.7266 7.05469-9.74219 7.83203-7.40625 9.38672-5.71875 10.9414-4.03125 13.0391-3.1875 15.6797-3.1875 17.9141-3.1875 20.0234-3.92187 22.0078-5.39062ZM26.4297-12.6797C26.4297-16.9609 27.625-20.3398 30.0156-22.8164 32.4062-25.293 35.6484-26.5312 39.7422-26.5312 43.6328-26.5312 46.6836-25.3398 48.8945-22.957 51.1055-20.5742 52.2109-17.2812 52.2109-13.0781 52.2109-8.98438 51.0312-5.67969 48.6719-3.16406 46.3125-0.648438 43.1484 0.609375 39.1797 0.609375 35.3047 0.609375 32.2109-0.609375 29.8984-3.04687 27.5859-5.48437 26.4297-8.69531 26.4297-12.6797ZM31.1172-12.8203C31.1172-9.83594 31.8711-7.48437 33.3789-5.76562 34.8867-4.04687 36.9141-3.1875 39.4609-3.1875 42.0859-3.1875 44.0859-4.02734 45.4609-5.70703 46.8359-7.38672 47.5234-9.79687 47.5234-12.9375 47.5234-16.0937 46.8359-18.5156 45.4609-20.2031 44.0859-21.8906 42.0859-22.7344 39.4609-22.7344 36.8828-22.7344 34.8476-21.8516 33.3555-20.0859 31.8633-18.3203 31.1172-15.8984 31.1172-12.8203ZM80.4427 0 75.8724 0 75.8724-14.7422C75.8724-20.0703 73.9271-22.7344 70.0365-22.7344 68.0208-22.7344 66.3646-21.9844 65.0677-20.4844 63.7708-18.9844 63.1224-17.0859 63.1224-14.7891L63.1224 0 58.5286 0 58.5286-25.9219 63.1224-25.9219 63.1224-21.6328 63.2161-21.6328C65.1693-24.8984 68.0052-26.5312 71.724-26.5312 74.5677-26.5312 76.7318-25.6211 78.2161-23.8008 79.7005-21.9805 80.4427-19.3281 80.4427-15.8437ZM109.437-11.7891 91.2969-11.7891C91.375-9.02344 92.1328-6.88672 93.5703-5.37891 95.0078-3.87109 97.0156-3.11719 99.5937-3.11719 102.5-3.11719 105.164-4.04687 107.586-5.90625L107.586-1.80469C105.305-0.195313 102.281 0.609375 98.5156 0.609375 94.7656 0.609375 91.8398-0.578125 89.7383-2.95312 87.6367-5.32812 86.5859-8.625 86.5859-12.8437 86.5859-16.8125 87.7383-20.0859 90.043-22.6641 92.3476-25.2422 95.2109-26.5312 98.6328-26.5312 102.023-26.5312 104.672-25.4414 106.578-23.2617 108.484-21.082 109.437-18.0312 109.437-14.1094ZM104.844-15.4687C104.828-17.8125 104.273-19.625 103.18-20.9062 102.086-22.1875 100.547-22.8281 98.5625-22.8281 96.7344-22.8281 95.1523-22.1484 93.8164-20.7891 92.4805-19.4297 91.6406-17.6562 91.2969-15.4687ZM146.055 0 140.5 0 122.242-28.2422C121.727-29.0391 121.312-29.8281 121-30.6094L120.859-30.6094C120.984-29.7969 121.047-28.1016 121.047-25.5234L121.047 0 116.406 0 116.406-36.3047 122.289-36.3047 140.055-8.55469C140.898-7.24219 141.398-6.40625 141.555-6.04687L141.648-6.04687C141.492-7.07812 141.414-8.84375 141.414-11.3437L141.414-36.3047 146.055-36.3047ZM153.044-12.6797C153.044-16.9609 154.24-20.3398 156.63-22.8164 159.021-25.293 162.263-26.5312 166.357-26.5312 170.247-26.5312 173.298-25.3398 175.509-22.957 177.72-20.5742 178.826-17.2812 178.826-13.0781 178.826-8.98438 177.646-5.67969 175.286-3.16406 172.927-0.648438 169.763 0.609375 165.794 0.609375 161.919 0.609375 158.826-0.609375 156.513-3.04687 154.201-5.48437 153.044-8.69531 153.044-12.6797ZM157.732-12.8203C157.732-9.83594 158.486-7.48437 159.993-5.76562 161.501-4.04687 163.529-3.1875 166.076-3.1875 168.701-3.1875 170.701-4.02734 172.076-5.70703 173.451-7.38672 174.138-9.79687 174.138-12.9375 174.138-16.0937 173.451-18.5156 172.076-20.2031 170.701-21.8906 168.701-22.7344 166.076-22.7344 163.497-22.7344 161.462-21.8516 159.97-20.0859 158.478-18.3203 157.732-15.8984 157.732-12.8203ZM199.042-21.375C198.276-21.9219 197.221-22.1953 195.878-22.1953 194.096-22.1953 192.628-21.3633 191.471-19.6992 190.315-18.0352 189.737-15.8437 189.737-13.125L189.737 0 185.143 0 185.143-25.9219 189.737-25.9219 189.737-20.6484 189.831-20.6484C191.143-24.4609 193.409-26.3672 196.628-26.3672 197.674-26.3672 198.479-26.25 199.042-26.0156ZM240.789 0 236.195 0 236.195-14.8828C236.195-17.6953 235.758-19.707 234.883-20.918 234.008-22.1289 232.57-22.7344 230.57-22.7344 228.883-22.7344 227.437-21.9453 226.234-20.3672 225.031-18.7891 224.43-16.9219 224.43-14.7656L224.43 0 219.836 0 219.836-15.3516C219.836-20.2734 217.937-22.7344 214.141-22.7344 212.391-22.7344 210.941-21.9844 209.793-20.4844 208.645-18.9844 208.07-17.0703 208.07-14.7422L208.07 0 203.477 0 203.477-25.9219 208.07-25.9219 208.07-21.8203 208.164-21.8203C210.008-24.9609 212.703-26.5312 216.25-26.5312 217.984-26.5312 219.516-26.0547 220.844-25.1016 222.172-24.1484 223.094-22.8594 223.609-21.2344 225.531-24.7656 228.406-26.5312 232.234-26.5312 237.937-26.5312 240.789-23.0156 240.789-15.9844ZM249.346-24.1172C251.924-25.7266 254.901-26.5312 258.276-26.5312 264.526-26.5312 267.651-23.25 267.651-16.6875L267.651 0 263.104 0 263.104-4.00781 262.987-4.00781C261.19-0.929687 258.542 0.609375 255.042 0.609375 252.526 0.609375 250.526-0.0703125 249.042-1.42969 247.557-2.78906 246.815-4.625 246.815-6.9375 246.815-11.7812 249.682-14.6016 255.417-15.3984L263.104-16.4766C263.104-20.7109 261.354-22.8281 257.854-22.8281 254.745-22.8281 251.909-21.7812 249.346-19.6875ZM257.034-12.1875C254.909-11.9062 253.444-11.375 252.639-10.5937 251.835-9.8125 251.432-8.71875 251.432-7.3125 251.432-6.07812 251.87-5.07031 252.745-4.28906 253.62-3.50781 254.776-3.11719 256.214-3.11719 258.214-3.11719 259.862-3.82031 261.159-5.22656 262.456-6.63281 263.104-8.39844 263.104-10.5234L263.104-13.0078ZM275.068 0 275.068-38.3672 279.661-38.3672 279.661 0Z" fill="#FFFFFF" transform="matrix(1 0 0 1 34.0469 65)"/></g></g><text fill="#FFFFFF" font-family="Microsoft YaHei,Microsoft YaHei_MSFontService,sans-serif" font-weight="400" font-size="48" transform="matrix(1 0 0 1 2327.36 1406)">coneNormal<tspan fill="#000000" font-size="48" x="-649.754" y="-240">ballNormal</tspan></text><path d="M2.29167-8.49478e-06 2.29273 287.54-2.2906 287.54-2.29167 8.49478e-06ZM18.0221 261.195 0.00108312 292.088-18.0202 261.195C-18.6579 260.102-18.2887 258.699-17.1954 258.061-16.1022 257.423-14.6989 257.792-14.0612 258.886L1.98055 286.386-1.97843 286.386 14.0631 258.886C14.7009 257.792 16.1041 257.423 17.1973 258.061 18.2906 258.698 18.6599 260.102 18.0221 261.195Z" fill="#70AD47" transform="matrix(-1 0 0 1 1949.5 1088.5)"/></g></svg>