<svg version="1.1" xmlns="http://www.w3.org/2000/svg" xmlns:xlink="http://www.w3.org/1999/xlink" width="1528" height="916"><defs><clipPath id="ynCyKEXLHKdU"><path fill="none" stroke="none" d=" M 0 0 L 1528 0 L 1528 916 L 0 916 L 0 0 Z"/></clipPath></defs><g transform="scale(1,1)" clip-path="url(#ynCyKEXLHKdU)"><g><rect fill="rgb(255,255,255)" stroke="none" x="0" y="0" width="1528" height="916" fill-opacity="1"/><path fill="rgb(0,100,0)" stroke="none" paint-order="stroke fill markers" fill-rule="evenodd" d=" M 989.2003582608314 192.99585703838335 L 989.2936709515811 214.2088552409403 L 1010.5066691541396 214.11554255019203 L 1010.4133564633884 192.90254434763364 L 989.2003582608314 192.99585703838335" fill-opacity="0.09803921568627451"/><path fill="none" stroke="rgb(0,100,0)" paint-order="fill stroke markers" d=" M 989.2003582608314 192.99585703838335 L 989.2936709515811 214.2088552409403 L 1010.5066691541396 214.11554255019203 L 1010.4133564633884 192.90254434763364 L 989.2003582608314 192.99585703838335" stroke-opacity="0.6980392156862745" stroke-linecap="round" stroke-linejoin="round" stroke-miterlimit="10" stroke-width="2.5"/><text fill="rgb(0,100,0)" stroke="none" font-family="geogebra-sans-serif, sans-serif" font-size="16px" font-style="normal" font-weight="normal" text-decoration="normal" x="1008" y="234" text-anchor="start" dominant-baseline="alphabetic" fill-opacity="1">α = 90°</text><text fill="none" stroke="rgb(255,255,255)" font-family="geogebra-sans-serif, sans-serif" font-size="16px" font-style="normal" font-weight="normal" text-decoration="normal" x="1008" y="234" text-anchor="start" dominant-baseline="alphabetic" stroke-opacity="1" stroke-linejoin="bevel" stroke-miterlimit="10" stroke-width="3">α = 90°</text><text fill="rgb(0,100,0)" stroke="none" font-family="geogebra-sans-serif, sans-serif" font-size="16px" font-style="normal" font-weight="normal" text-decoration="normal" x="1008" y="234" text-anchor="start" dominant-baseline="alphabetic" fill-opacity="1">α = 90°</text><path fill="none" stroke="rgb(0,0,0)" paint-order="fill stroke markers" d=" M 992.4027356337995 921 L 988.3294051781448 -5" stroke-opacity="0.6980392156862745" stroke-linecap="round" stroke-linejoin="round" stroke-miterlimit="10" stroke-width="2.5"/><path fill="none" stroke="rgb(0,0,0)" paint-order="fill stroke markers" d=" M -5 197.36919029791528 L 1533 190.60376671174163" stroke-opacity="0.6980392156862745" stroke-linecap="round" stroke-linejoin="round" stroke-miterlimit="10" stroke-width="2.5"/><path fill="none" stroke="rgb(0,0,0)" paint-order="fill stroke markers" d=" M -5 576.2512589733182 L 1533 569.4858353871444" stroke-opacity="0.6980392156862745" stroke-linecap="round" stroke-linejoin="round" stroke-miterlimit="10" stroke-width="2.5"/><path fill="none" stroke="rgb(128,128,128)" paint-order="fill stroke markers" d=" M 231.64681444544067 78.3331152817064 L 762.7461160868078 847.4336429431744" stroke-opacity="0.6980392156862745" stroke-linecap="round" stroke-linejoin="round" stroke-miterlimit="10" stroke-width="6.5"/><path fill="none" stroke="rgb(255,0,0)" paint-order="fill stroke markers" d=" M 312.88110405894633 195.9708805976557 L 564.0643632986144 559.7167500121241" stroke-opacity="0.6980392156862745" stroke-linecap="round" stroke-linejoin="round" stroke-miterlimit="10" stroke-width="2.5"/><path fill="rgb(255,0,0)" stroke="none" paint-order="stroke fill markers" fill-rule="evenodd" d=" M 573.7242668654425 573.705540634604 L 560.5671656429944 562.1317259038311 L 567.5615609542343 557.301774120417 Z" fill-opacity="0.6980392156862745"/><path fill="none" stroke="rgb(51,255,0)" paint-order="fill stroke markers" d=" M 989.2003582608314 192.99585703838335 L 990.7921898584349 554.8707590205264" stroke-opacity="0.6980392156862745" stroke-linecap="round" stroke-linejoin="round" stroke-miterlimit="10" stroke-width="2.5"/><path fill="rgb(51,255,0)" stroke="none" paint-order="stroke fill markers" fill-rule="evenodd" d=" M 990.866969499688 571.870594549297 L 986.5422309762422 554.8894539308397 L 995.0421487406276 554.8520641102131 Z" fill-opacity="0.6980392156862745"/><path fill="none" stroke="rgb(0,153,255)" paint-order="fill stroke markers" d=" M 988.5361405181851 41.99764160097058 L 329.45615815963396 192.1936353634568" stroke-opacity="0.6980392156862745" stroke-linecap="round" stroke-linejoin="round" stroke-miterlimit="10" stroke-width="2.5"/><path fill="rgb(0,153,255)" stroke="none" paint-order="stroke fill markers" fill-rule="evenodd" d=" M 312.88110405894633 195.9708805976557 L 328.5118468510842 188.0498718382849 L 330.4004694681837 196.33739888862868 Z" fill-opacity="0.6980392156862745"/><path fill="rgb(125,125,255)" stroke="none" paint-order="stroke fill markers" d=" M 317.88110405894633 195.9708805976557 C 317.88110405894633 198.73230434680968 315.6425278081003 200.9708805976557 312.88110405894633 200.9708805976557 C 310.1196803097924 200.9708805976557 307.88110405894633 198.73230434680968 307.88110405894633 195.9708805976557 C 307.88110405894633 193.20945684850173 310.1196803097924 190.9708805976557 312.88110405894633 190.9708805976557 C 315.6425278081003 190.9708805976557 317.88110405894633 193.20945684850173 317.88110405894633 195.9708805976557 Z" fill-opacity="1"/><path fill="none" stroke="rgb(0,0,0)" paint-order="fill stroke markers" d=" M 317.88110405894633 195.9708805976557 C 317.88110405894633 198.73230434680968 315.6425278081003 200.9708805976557 312.88110405894633 200.9708805976557 C 310.1196803097924 200.9708805976557 307.88110405894633 198.73230434680968 307.88110405894633 195.9708805976557 C 307.88110405894633 193.20945684850173 310.1196803097924 190.9708805976557 312.88110405894633 190.9708805976557 C 315.6425278081003 190.9708805976557 317.88110405894633 193.20945684850173 317.88110405894633 195.9708805976557 Z" stroke-opacity="1" stroke-linecap="round" stroke-linejoin="round" stroke-miterlimit="10"/><text fill="rgb(125,125,255)" stroke="none" font-family="geogebra-sans-serif, sans-serif" font-size="16px" font-style="normal" font-weight="normal" text-decoration="normal" x="317" y="186" text-anchor="start" dominant-baseline="alphabetic" fill-opacity="1">A</text><text fill="none" stroke="rgb(255,255,255)" font-family="geogebra-sans-serif, sans-serif" font-size="16px" font-style="normal" font-weight="normal" text-decoration="normal" x="317" y="186" text-anchor="start" dominant-baseline="alphabetic" stroke-opacity="1" stroke-linejoin="bevel" stroke-miterlimit="10" stroke-width="3">A</text><text fill="rgb(125,125,255)" stroke="none" font-family="geogebra-sans-serif, sans-serif" font-size="16px" font-style="normal" font-weight="normal" text-decoration="normal" x="317" y="186" text-anchor="start" dominant-baseline="alphabetic" fill-opacity="1">A</text><path fill="rgb(125,125,255)" stroke="none" paint-order="stroke fill markers" d=" M 578.7242668654425 573.705540634604 C 578.7242668654425 576.466964383758 576.4856906145965 578.705540634604 573.7242668654425 578.705540634604 C 570.9628431162885 578.705540634604 568.7242668654425 576.466964383758 568.7242668654425 573.705540634604 C 568.7242668654425 570.94411688545 570.9628431162885 568.705540634604 573.7242668654425 568.705540634604 C 576.4856906145965 568.705540634604 578.7242668654425 570.94411688545 578.7242668654425 573.705540634604 Z" fill-opacity="1"/><path fill="none" stroke="rgb(0,0,0)" paint-order="fill stroke markers" d=" M 578.7242668654425 573.705540634604 C 578.7242668654425 576.466964383758 576.4856906145965 578.705540634604 573.7242668654425 578.705540634604 C 570.9628431162885 578.705540634604 568.7242668654425 576.466964383758 568.7242668654425 573.705540634604 C 568.7242668654425 570.94411688545 570.9628431162885 568.705540634604 573.7242668654425 568.705540634604 C 576.4856906145965 568.705540634604 578.7242668654425 570.94411688545 578.7242668654425 573.705540634604 Z" stroke-opacity="1" stroke-linecap="round" stroke-linejoin="round" stroke-miterlimit="10"/><text fill="rgb(125,125,255)" stroke="none" font-family="geogebra-sans-serif, sans-serif" font-size="16px" font-style="normal" font-weight="normal" text-decoration="normal" x="578" y="564" text-anchor="start" dominant-baseline="alphabetic" fill-opacity="1">B</text><text fill="none" stroke="rgb(255,255,255)" font-family="geogebra-sans-serif, sans-serif" font-size="16px" font-style="normal" font-weight="normal" text-decoration="normal" x="578" y="564" text-anchor="start" dominant-baseline="alphabetic" stroke-opacity="1" stroke-linejoin="bevel" stroke-miterlimit="10" stroke-width="3">B</text><text fill="rgb(125,125,255)" stroke="none" font-family="geogebra-sans-serif, sans-serif" font-size="16px" font-style="normal" font-weight="normal" text-decoration="normal" x="578" y="564" text-anchor="start" dominant-baseline="alphabetic" fill-opacity="1">B</text><path fill="rgb(68,68,68)" stroke="none" paint-order="stroke fill markers" d=" M 993.2003582608314 192.99585703838335 C 993.2003582608314 195.2049960377065 991.4094972601546 196.99585703838335 989.2003582608314 196.99585703838335 C 986.9912192615083 196.99585703838335 985.2003582608314 195.2049960377065 985.2003582608314 192.99585703838335 C 985.2003582608314 190.78671803906016 986.9912192615083 188.99585703838335 989.2003582608314 188.99585703838335 C 991.4094972601546 188.99585703838335 993.2003582608314 190.78671803906016 993.2003582608314 192.99585703838335 Z" fill-opacity="1"/><path fill="none" stroke="rgb(0,0,0)" paint-order="fill stroke markers" d=" M 993.2003582608314 192.99585703838335 C 993.2003582608314 195.2049960377065 991.4094972601546 196.99585703838335 989.2003582608314 196.99585703838335 C 986.9912192615083 196.99585703838335 985.2003582608314 195.2049960377065 985.2003582608314 192.99585703838335 C 985.2003582608314 190.78671803906016 986.9912192615083 188.99585703838335 989.2003582608314 188.99585703838335 C 991.4094972601546 188.99585703838335 993.2003582608314 190.78671803906016 993.2003582608314 192.99585703838335 Z" stroke-opacity="1" stroke-linecap="round" stroke-linejoin="round" stroke-miterlimit="10"/><text fill="rgb(68,68,68)" stroke="none" font-family="geogebra-sans-serif, sans-serif" font-size="16px" font-style="normal" font-weight="normal" text-decoration="normal" x="993" y="185" text-anchor="start" dominant-baseline="alphabetic" fill-opacity="1">C</text><text fill="none" stroke="rgb(255,255,255)" font-family="geogebra-sans-serif, sans-serif" font-size="16px" font-style="normal" font-weight="normal" text-decoration="normal" x="993" y="185" text-anchor="start" dominant-baseline="alphabetic" stroke-opacity="1" stroke-linejoin="bevel" stroke-miterlimit="10" stroke-width="3">C</text><text fill="rgb(68,68,68)" stroke="none" font-family="geogebra-sans-serif, sans-serif" font-size="16px" font-style="normal" font-weight="normal" text-decoration="normal" x="993" y="185" text-anchor="start" dominant-baseline="alphabetic" fill-opacity="1">C</text><path fill="rgb(68,68,68)" stroke="none" paint-order="stroke fill markers" d=" M 994.866969499688 571.870594549297 C 994.866969499688 574.0797335486202 993.0761084990112 575.870594549297 990.866969499688 575.870594549297 C 988.6578305003649 575.870594549297 986.866969499688 574.0797335486202 986.866969499688 571.870594549297 C 986.866969499688 569.6614555499739 988.6578305003649 567.870594549297 990.866969499688 567.870594549297 C 993.0761084990112 567.870594549297 994.866969499688 569.6614555499739 994.866969499688 571.870594549297 Z" fill-opacity="1"/><path fill="none" stroke="rgb(0,0,0)" paint-order="fill stroke markers" d=" M 994.866969499688 571.870594549297 C 994.866969499688 574.0797335486202 993.0761084990112 575.870594549297 990.866969499688 575.870594549297 C 988.6578305003649 575.870594549297 986.866969499688 574.0797335486202 986.866969499688 571.870594549297 C 986.866969499688 569.6614555499739 988.6578305003649 567.870594549297 990.866969499688 567.870594549297 C 993.0761084990112 567.870594549297 994.866969499688 569.6614555499739 994.866969499688 571.870594549297 Z" stroke-opacity="1" stroke-linecap="round" stroke-linejoin="round" stroke-miterlimit="10"/><text fill="rgb(68,68,68)" stroke="none" font-family="geogebra-sans-serif, sans-serif" font-size="16px" font-style="normal" font-weight="normal" text-decoration="normal" x="995" y="564" text-anchor="start" dominant-baseline="alphabetic" fill-opacity="1">D</text><text fill="none" stroke="rgb(255,255,255)" font-family="geogebra-sans-serif, sans-serif" font-size="16px" font-style="normal" font-weight="normal" text-decoration="normal" x="995" y="564" text-anchor="start" dominant-baseline="alphabetic" stroke-opacity="1" stroke-linejoin="bevel" stroke-miterlimit="10" stroke-width="3">D</text><text fill="rgb(68,68,68)" stroke="none" font-family="geogebra-sans-serif, sans-serif" font-size="16px" font-style="normal" font-weight="normal" text-decoration="normal" x="995" y="564" text-anchor="start" dominant-baseline="alphabetic" fill-opacity="1">D</text><path fill="none" stroke="rgb(244,0,153)" paint-order="fill stroke markers" d=" M 988.5361405181851 36.99764160097058 L 983.5361405181851 41.99764160097058 L 988.5361405181851 46.99764160097058 L 993.5361405181851 41.99764160097058 Z" stroke-opacity="1" stroke-linecap="square" stroke-miterlimit="10" stroke-width="2.5"/><path fill="rgb(244,0,153)" stroke="none" paint-order="stroke fill markers" fill-rule="evenodd" d=" M 988.5361405181851 36.99764160097058 L 983.5361405181851 41.99764160097058 L 988.5361405181851 46.99764160097058 L 993.5361405181851 41.99764160097058 Z" fill-opacity="1"/><text fill="rgb(244,0,153)" stroke="none" font-family="geogebra-sans-serif, sans-serif" font-size="16px" font-style="normal" font-weight="normal" text-decoration="normal" x="993" y="32" text-anchor="start" dominant-baseline="alphabetic" fill-opacity="1">O</text><text fill="none" stroke="rgb(255,255,255)" font-family="geogebra-sans-serif, sans-serif" font-size="16px" font-style="normal" font-weight="normal" text-decoration="normal" x="993" y="32" text-anchor="start" dominant-baseline="alphabetic" stroke-opacity="1" stroke-linejoin="bevel" stroke-miterlimit="10" stroke-width="3">O</text><text fill="rgb(244,0,153)" stroke="none" font-family="geogebra-sans-serif, sans-serif" font-size="16px" font-style="normal" font-weight="normal" text-decoration="normal" x="993" y="32" text-anchor="start" dominant-baseline="alphabetic" fill-opacity="1">O</text><text fill="rgb(0,0,0)" stroke="none" font-family="geogebra-sans-serif, sans-serif" font-size="32px" font-style="normal" font-weight="normal" text-decoration="normal" x="389" y="397" text-anchor="start" dominant-baseline="alphabetic" fill-opacity="1">d</text><g transform="scale(35,35)"><g transform="translate(29.085714285714285,12.116344971428571)"><path fill="rgb(0,0,0)" stroke="none" paint-order="stroke fill markers" d=" M 0.434 -0.6940000000000001 L 0.434 0 L 0.356 0 L 0.356 -0.052000000000000005 Q 0.291 0.011 0.20800000000000002 0.011 Q 0.136 0.011 0.08600000000000001 -0.0565 Q 0.036000000000000004 -0.124 0.036000000000000004 -0.222 Q 0.036000000000000004 -0.319 0.08750000000000001 -0.387 Q 0.139 -0.455 0.213 -0.455 Q 0.293 -0.455 0.359 -0.4 L 0.359 -0.6940000000000001 L 0.434 -0.6940000000000001 M 0.356 -0.139 L 0.356 -0.339 Q 0.318 -0.394 0.259 -0.394 Q 0.20400000000000001 -0.394 0.159 -0.352 Q 0.114 -0.31 0.114 -0.221 Q 0.114 -0.135 0.1545 -0.0925 Q 0.195 -0.05 0.249 -0.05 Q 0.291 -0.05 0.323 -0.078 Q 0.356 -0.108 0.356 -0.139 Z"/></g><g transform="translate(29.602714285714285,11.449428571428571) scale(0.5,0.5)"><path fill="rgb(0,0,0)" stroke="none" paint-order="stroke fill markers" d=" M 0.255 -0.47900000000000004 L 0.076 -0.059000000000000004 Q 0.07 -0.045 0.063 -0.045 Q 0.045 -0.045 0.033 -0.056 Q 0.029 -0.059000000000000004 0.029 -0.063 Q 0.029 -0.065 0.032 -0.077 L 0.153 -0.513 Q 0.166 -0.554 0.197 -0.558 Q 0.202 -0.559 0.20600000000000002 -0.559 Q 0.24 -0.559 0.256 -0.53 Q 0.262 -0.519 0.262 -0.507 Q 0.262 -0.494 0.255 -0.47900000000000004 Z"/></g></g></g></g></svg>