<?xml version="1.0" encoding="utf-8"?>
<!-- Generator: Adobe Illustrator 24.2.0, SVG Export Plug-In . SVG Version: 6.00 Build 0)  -->
<svg version="1.1" id="图层_1" xmlns="http://www.w3.org/2000/svg" xmlns:xlink="http://www.w3.org/1999/xlink" x="0px" y="0px"
	 viewBox="0 0 203 123.9" style="enable-background:new 0 0 203 123.9;" xml:space="preserve">
<style type="text/css">
	.st0{fill:none;stroke:#000000;}
	.st1{fill:#D0021B;stroke:#D0021B;}
	.st2{fill:#4A90E2;stroke:#4A90E2;}
	.st3{stroke:#000000;stroke-width:0.1088;stroke-miterlimit:10;}
</style>
<g>
	<g>
		<path class="st0" d="M75.6,55.5c0-13.8,11.2-25,25-25s25,11.2,25,25s-11.2,25-25,25S75.6,69.3,75.6,55.5z"/>
	</g>
	<g>
		<path class="st1" d="M99.6,55.5c0-0.5,0.4-1,1-1s1,0.4,1,1s-0.4,1-1,1S99.6,56.1,99.6,55.5z"/>
	</g>
	<g>
		<path class="st0" d="M134.6,91.5c0-13.8,11.2-25,25-25s25,11.2,25,25s-11.2,25-25,25S134.6,105.3,134.6,91.5z"/>
	</g>
	<g>
		<path class="st1" d="M158.6,91.5c0-0.5,0.4-1,1-1s1,0.4,1,1s-0.4,1-1,1S158.6,92.1,158.6,91.5z"/>
	</g>
	<g>
		<path class="st0" d="M13.6,72.5c0-13.8,11.2-25,25-25s25,11.2,25,25s-11.2,25-25,25S13.6,86.3,13.6,72.5z"/>
	</g>
	<g>
		<path class="st1" d="M37.6,72.5c0-0.5,0.4-1,1-1s1,0.4,1,1s-0.4,1-1,1S37.6,73.1,37.6,72.5z"/>
	</g>
	<g>
		<path class="st2" d="M59.1,93.5c0-0.5,0.4-1,1-1s1,0.4,1,1s-0.4,1-1,1S59.1,94.1,59.1,93.5z"/>
	</g>
	<g>
		<path class="st2" d="M66.1,105.1c0-0.5,0.4-1,1-1s1,0.4,1,1s-0.4,1-1,1S66.1,105.6,66.1,105.1z"/>
	</g>
	<g>
		<path class="st2" d="M75.1,87.5c0-0.5,0.4-1,1-1s1,0.4,1,1s-0.4,1-1,1S75.1,88.1,75.1,87.5z"/>
	</g>
	<g>
		<path class="st2" d="M91.6,84.6c0-0.5,0.4-1,1-1s1,0.4,1,1s-0.4,1-1,1S91.6,85.1,91.6,84.6z"/>
	</g>
	<g>
		<path class="st2" d="M85.1,70.5c0-0.5,0.4-1,1-1s1,0.4,1,1s-0.4,1-1,1S85.1,71.1,85.1,70.5z"/>
	</g>
	<g>
		<path class="st2" d="M85.6,107.1c0-0.5,0.4-1,1-1s1,0.4,1,1s-0.4,1-1,1S85.6,107.6,85.6,107.1z"/>
	</g>
	<g>
		<path class="st2" d="M95.6,72c0-0.5,0.4-1,1-1s1,0.4,1,1s-0.4,1-1,1S95.6,72.6,95.6,72z"/>
	</g>
	<g>
		<path class="st2" d="M127.1,90.1c0-0.5,0.4-1,1-1s1,0.4,1,1s-0.4,1-1,1S127.1,90.6,127.1,90.1z"/>
	</g>
	<g>
		<path class="st2" d="M67.1,71.5c0-0.5,0.4-1,1-1s1,0.4,1,1s-0.4,1-1,1S67.1,72.1,67.1,71.5z"/>
	</g>
	<g>
		<path class="st2" d="M77.6,101.1c0-0.5,0.4-1,1-1s1,0.4,1,1s-0.4,1-1,1S77.6,101.6,77.6,101.1z"/>
	</g>
	<g>
		<path class="st2" d="M98.6,104.5c0-0.5,0.4-1,1-1s1,0.4,1,1s-0.4,1-1,1S98.6,105.1,98.6,104.5z"/>
	</g>
	<g>
		<path class="st2" d="M116.6,74.6c0-0.5,0.4-1,1-1s1,0.4,1,1s-0.4,1-1,1S116.6,75.1,116.6,74.6z"/>
	</g>
	<g>
		<path class="st2" d="M107.6,89.5c0-0.5,0.4-1,1-1s1,0.4,1,1s-0.4,1-1,1S107.6,90.1,107.6,89.5z"/>
	</g>
	<g>
		<path class="st2" d="M103.6,112.6c0-0.5,0.4-1,1-1s1,0.4,1,1s-0.4,1-1,1S103.6,113.1,103.6,112.6z"/>
	</g>
	<g>
		<path class="st2" d="M115.1,97.5c0-0.5,0.4-1,1-1s1,0.4,1,1s-0.4,1-1,1S115.1,98.1,115.1,97.5z"/>
	</g>
	<g>
		<path class="st2" d="M122.6,111.1c0-0.5,0.4-1,1-1s1,0.4,1,1s-0.4,1-1,1S122.6,111.6,122.6,111.1z"/>
	</g>
	<g>
		<path class="st2" d="M100.1,51.6c0-0.5,0.4-1,1-1s1,0.4,1,1c0,0.5-0.4,1-1,1S100.1,52.1,100.1,51.6z"/>
	</g>
	<g>
		<path class="st2" d="M104.1,39c0-0.5,0.4-1,1-1s1,0.4,1,1s-0.4,1-1,1S104.1,39.6,104.1,39z"/>
	</g>
	<g>
		<path class="st2" d="M135.6,57.1c0-0.5,0.4-1,1-1s1,0.4,1,1s-0.4,1-1,1S135.6,57.6,135.6,57.1z"/>
	</g>
	<g>
		<path class="st2" d="M107.1,71.5c0-0.5,0.4-1,1-1s1,0.4,1,1s-0.4,1-1,1S107.1,72.1,107.1,71.5z"/>
	</g>
	<g>
		<path class="st2" d="M125.1,41.6c0-0.5,0.4-1,1-1s1,0.4,1,1c0,0.5-0.4,1-1,1S125.1,42.1,125.1,41.6z"/>
	</g>
	<g>
		<path class="st2" d="M116.1,56.5c0-0.5,0.4-1,1-1s1,0.4,1,1s-0.4,1-1,1S116.1,57.1,116.1,56.5z"/>
	</g>
	<g>
		<path class="st2" d="M109.1,79.6c0-0.5,0.4-1,1-1s1,0.4,1,1s-0.4,1-1,1S109.1,80.1,109.1,79.6z"/>
	</g>
	<g>
		<path class="st2" d="M123.6,64.5c0-0.5,0.4-1,1-1s1,0.4,1,1c0,0.5-0.4,1-1,1S123.6,65.1,123.6,64.5z"/>
	</g>
	<g>
		<path class="st2" d="M131.1,78.1c0-0.5,0.4-1,1-1s1,0.4,1,1s-0.4,1-1,1S131.1,78.6,131.1,78.1z"/>
	</g>
	<g>
		<path class="st2" d="M55.6,46c0-0.5,0.4-1,1-1s1,0.4,1,1s-0.4,1-1,1S55.6,46.6,55.6,46z"/>
	</g>
	<g>
		<path class="st2" d="M62.6,57.6c0-0.5,0.4-1,1-1s1,0.4,1,1s-0.4,1-1,1S62.6,58.1,62.6,57.6z"/>
	</g>
	<g>
		<path class="st2" d="M82.1,59.6c0-0.5,0.4-1,1-1s1,0.4,1,1s-0.4,1-1,1S82.1,60.1,82.1,59.6z"/>
	</g>
	<g>
		<path class="st2" d="M74.1,53.6c0-0.5,0.4-1,1-1s1,0.4,1,1s-0.4,1-1,1S74.1,54.1,74.1,53.6z"/>
	</g>
	<g>
		<path class="st2" d="M95.1,57c0-0.5,0.4-1,1-1s1,0.4,1,1s-0.4,1-1,1S95.1,57.6,95.1,57z"/>
	</g>
	<g>
		<path class="st2" d="M143.1,74.6c0-0.5,0.4-1,1-1s1,0.4,1,1s-0.4,1-1,1S143.1,75.1,143.1,74.6z"/>
	</g>
	<g>
		<path class="st2" d="M136.6,60.5c0-0.5,0.4-1,1-1s1,0.4,1,1s-0.4,1-1,1S136.6,61.1,136.6,60.5z"/>
	</g>
	<g>
		<path class="st2" d="M137.1,97.1c0-0.5,0.4-1,1-1s1,0.4,1,1s-0.4,1-1,1S137.1,97.6,137.1,97.1z"/>
	</g>
	<g>
		<path class="st2" d="M147.1,62c0-0.5,0.4-1,1-1s1,0.4,1,1s-0.4,1-1,1S147.1,62.6,147.1,62z"/>
	</g>
	<g>
		<path class="st2" d="M178.6,80.1c0-0.5,0.4-1,1-1s1,0.4,1,1s-0.4,1-1,1S178.6,80.6,178.6,80.1z"/>
	</g>
	<g>
		<path class="st2" d="M150.1,94.5c0-0.5,0.4-1,1-1s1,0.4,1,1s-0.4,1-1,1S150.1,95.1,150.1,94.5z"/>
	</g>
	<g>
		<path class="st2" d="M168.1,64.6c0-0.5,0.4-1,1-1s1,0.4,1,1s-0.4,1-1,1S168.1,65.1,168.1,64.6z"/>
	</g>
	<g>
		<path class="st2" d="M159.1,79.5c0-0.5,0.4-1,1-1s1,0.4,1,1s-0.4,1-1,1S159.1,80.1,159.1,79.5z"/>
	</g>
	<g>
		<path class="st2" d="M155.1,102.6c0-0.5,0.4-1,1-1s1,0.4,1,1s-0.4,1-1,1S155.1,103.1,155.1,102.6z"/>
	</g>
	<g>
		<path class="st2" d="M166.6,87.5c0-0.5,0.4-1,1-1s1,0.4,1,1s-0.4,1-1,1S166.6,88.1,166.6,87.5z"/>
	</g>
	<g>
		<path class="st2" d="M174.1,101.1c0-0.5,0.4-1,1-1s1,0.4,1,1s-0.4,1-1,1S174.1,101.6,174.1,101.1z"/>
	</g>
	<g>
		<path class="st2" d="M151.6,41.6c0-0.5,0.4-1,1-1s1,0.4,1,1c0,0.5-0.4,1-1,1S151.6,42.1,151.6,41.6z"/>
	</g>
	<g>
		<path class="st2" d="M155.6,29c0-0.5,0.4-1,1-1s1,0.4,1,1s-0.4,1-1,1S155.6,29.6,155.6,29z"/>
	</g>
	<g>
		<path class="st2" d="M187.1,47.1c0-0.5,0.4-1,1-1s1,0.4,1,1c0,0.5-0.4,1-1,1S187.1,47.6,187.1,47.1z"/>
	</g>
	<g>
		<path class="st2" d="M158.6,61.5c0-0.5,0.4-1,1-1s1,0.4,1,1s-0.4,1-1,1S158.6,62.1,158.6,61.5z"/>
	</g>
	<g>
		<path class="st2" d="M176.6,31.6c0-0.5,0.4-1,1-1s1,0.4,1,1c0,0.5-0.4,1-1,1S176.6,32.1,176.6,31.6z"/>
	</g>
	<g>
		<path class="st2" d="M167.6,46.5c0-0.5,0.4-1,1-1s1,0.4,1,1s-0.4,1-1,1S167.6,47.1,167.6,46.5z"/>
	</g>
	<g>
		<path class="st2" d="M163.6,69.6c0-0.5,0.4-1,1-1s1,0.4,1,1s-0.4,1-1,1S163.6,70.1,163.6,69.6z"/>
	</g>
	<g>
		<path class="st2" d="M175.1,54.5c0-0.5,0.4-1,1-1s1,0.4,1,1s-0.4,1-1,1S175.1,55.1,175.1,54.5z"/>
	</g>
	<g>
		<path class="st2" d="M182.6,68.1c0-0.5,0.4-1,1-1s1,0.4,1,1s-0.4,1-1,1S182.6,68.6,182.6,68.1z"/>
	</g>
	<g>
		<path class="st2" d="M133.6,49.6c0-0.5,0.4-1,1-1s1,0.4,1,1c0,0.5-0.4,1-1,1S133.6,50.1,133.6,49.6z"/>
	</g>
	<g>
		<path class="st2" d="M146.6,47c0-0.5,0.4-1,1-1s1,0.4,1,1s-0.4,1-1,1S146.6,47.6,146.6,47z"/>
	</g>
	<g>
		<path class="st2" d="M46.1,20c0-0.5,0.4-1,1-1s1,0.4,1,1s-0.4,1-1,1S46.1,20.6,46.1,20z"/>
	</g>
	<g>
		<path class="st2" d="M53.1,31.6c0-0.5,0.4-1,1-1s1,0.4,1,1c0,0.5-0.4,1-1,1S53.1,32.1,53.1,31.6z"/>
	</g>
	<g>
		<path class="st2" d="M62.1,14c0-0.5,0.4-1,1-1s1,0.4,1,1c0,0.5-0.4,1-1,1S62.1,14.6,62.1,14z"/>
	</g>
	<g>
		<path class="st2" d="M78.6,11.1c0-0.5,0.4-1,1-1s1,0.4,1,1c0,0.5-0.4,1-1,1S78.6,11.6,78.6,11.1z"/>
	</g>
	<g>
		<path class="st2" d="M72.6,33.6c0-0.5,0.4-1,1-1s1,0.4,1,1c0,0.5-0.4,1-1,1S72.6,34.1,72.6,33.6z"/>
	</g>
	<g>
		<path class="st2" d="M64.6,27.6c0-0.5,0.4-1,1-1s1,0.4,1,1c0,0.5-0.4,1-1,1S64.6,28.1,64.6,27.6z"/>
	</g>
	<g>
		<path class="st2" d="M85.6,31c0-0.5,0.4-1,1-1s1,0.4,1,1s-0.4,1-1,1S85.6,31.6,85.6,31z"/>
	</g>
	<g>
		<path class="st2" d="M94.6,16c0-0.5,0.4-1,1-1s1,0.4,1,1c0,0.5-0.4,1-1,1S94.6,16.6,94.6,16z"/>
	</g>
	<g>
		<path class="st2" d="M90.6,39.1c0-0.5,0.4-1,1-1s1,0.4,1,1c0,0.5-0.4,1-1,1S90.6,39.6,90.6,39.1z"/>
	</g>
	<g>
		<path class="st2" d="M98.6,74.6c0-0.5,0.4-1,1-1s1,0.4,1,1s-0.4,1-1,1S98.6,75.1,98.6,74.6z"/>
	</g>
	<g>
		<path class="st2" d="M92.1,60.5c0-0.5,0.4-1,1-1s1,0.4,1,1s-0.4,1-1,1S92.1,61.1,92.1,60.5z"/>
	</g>
	<g>
		<path class="st2" d="M102.6,62c0-0.5,0.4-1,1-1s1,0.4,1,1s-0.4,1-1,1S102.6,62.6,102.6,62z"/>
	</g>
	<g>
		<path class="st2" d="M134.1,80.1c0-0.5,0.4-1,1-1s1,0.4,1,1s-0.4,1-1,1S134.1,80.6,134.1,80.1z"/>
	</g>
	<g>
		<path class="st2" d="M123.6,64.6c0-0.5,0.4-1,1-1s1,0.4,1,1s-0.4,1-1,1S123.6,65.1,123.6,64.6z"/>
	</g>
	<g>
		<path class="st2" d="M114.6,79.5c0-0.5,0.4-1,1-1s1,0.4,1,1s-0.4,1-1,1S114.6,80.1,114.6,79.5z"/>
	</g>
	<g>
		<path class="st2" d="M107.1,41.6c0-0.5,0.4-1,1-1s1,0.4,1,1c0,0.5-0.4,1-1,1S107.1,42.1,107.1,41.6z"/>
	</g>
	<g>
		<path class="st2" d="M111.1,29c0-0.5,0.4-1,1-1s1,0.4,1,1s-0.4,1-1,1S111.1,29.6,111.1,29z"/>
	</g>
	<g>
		<path class="st2" d="M142.6,47.1c0-0.5,0.4-1,1-1s1,0.4,1,1c0,0.5-0.4,1-1,1S142.6,47.6,142.6,47.1z"/>
	</g>
	<g>
		<path class="st2" d="M114.1,61.5c0-0.5,0.4-1,1-1s1,0.4,1,1s-0.4,1-1,1S114.1,62.1,114.1,61.5z"/>
	</g>
	<g>
		<path class="st2" d="M132.1,31.6c0-0.5,0.4-1,1-1s1,0.4,1,1c0,0.5-0.4,1-1,1S132.1,32.1,132.1,31.6z"/>
	</g>
	<g>
		<path class="st2" d="M123.1,46.5c0-0.5,0.4-1,1-1s1,0.4,1,1s-0.4,1-1,1S123.1,47.1,123.1,46.5z"/>
	</g>
	<g>
		<path class="st2" d="M119.1,69.6c0-0.5,0.4-1,1-1s1,0.4,1,1s-0.4,1-1,1S119.1,70.1,119.1,69.6z"/>
	</g>
	<g>
		<path class="st2" d="M129.6,58.5c0-0.5,0.4-1,1-1s1,0.4,1,1s-0.4,1-1,1S129.6,59.1,129.6,58.5z"/>
	</g>
	<g>
		<path class="st2" d="M138.1,68.1c0-0.5,0.4-1,1-1s1,0.4,1,1s-0.4,1-1,1S138.1,68.6,138.1,68.1z"/>
	</g>
	<g>
		<path class="st2" d="M102.1,47c0-0.5,0.4-1,1-1s1,0.4,1,1s-0.4,1-1,1S102.1,47.6,102.1,47z"/>
	</g>
	<g>
		<path class="st2" d="M129.1,53.1c0-0.5,0.4-1,1-1s1,0.4,1,1c0,0.5-0.4,1-1,1S129.1,53.6,129.1,53.1z"/>
	</g>
	<g>
		<path class="st2" d="M118.6,37.6c0-0.5,0.4-1,1-1s1,0.4,1,1c0,0.5-0.4,1-1,1S118.6,38.1,118.6,37.6z"/>
	</g>
	<g>
		<path class="st2" d="M127.1,45.6c0-0.5,0.4-1,1-1s1,0.4,1,1c0,0.5-0.4,1-1,1S127.1,46.1,127.1,45.6z"/>
	</g>
	<g>
		<path class="st2" d="M125.6,27.6c0-0.5,0.4-1,1-1s1,0.4,1,1c0,0.5-0.4,1-1,1S125.6,28.1,125.6,27.6z"/>
	</g>
	<g>
		<path class="st2" d="M116.6,42.5c0-0.5,0.4-1,1-1s1,0.4,1,1s-0.4,1-1,1S116.6,43.1,116.6,42.5z"/>
	</g>
	<g>
		<path class="st2" d="M124.1,50.5c0-0.5,0.4-1,1-1s1,0.4,1,1s-0.4,1-1,1S124.1,51.1,124.1,50.5z"/>
	</g>
	<g>
		<path class="st0" d="M13.5,76.9l25.1-4.3"/>
	</g>
	<g>
		<path class="st0" d="M0.5,0.5h202v122.9H0.5V0.5z"/>
	</g>
</g>
<g transform="matrix(0.9802021194739814,-0.19799950752139464,0.19799950752139464,0.9802021194739814,-9.730268681665905,56.31213842935121)">
	<g>
		<g>
			<g transform="matrix(1,0,0,1,271.5,82.25625)">
				<path class="st3" d="M-237.6-70l-0.2-0.1c-0.7,0.4-1.2,0.5-2.2,0.6l-0.1,0.3h0.7c0.3,0,0.5,0.1,0.5,0.3c0,0.1,0,0.2,0,0.3
					l-0.4,2.1c-0.4-0.1-0.8-0.2-1.1-0.2c-0.9,0-2.2,1-2.8,2.2c-0.4,0.8-0.7,2.1-0.7,3.2c0,0.9,0.2,1.3,0.6,1.3
					c0.4,0,0.9-0.2,1.3-0.6c0.7-0.6,1.2-1.1,2.1-2.5l-0.3,1.2c-0.1,0.6-0.2,1-0.2,1.4c0,0.3,0.1,0.4,0.4,0.4s0.6-0.2,1-0.5l1.1-0.8
					l-0.1-0.3l-0.6,0.4c-0.2,0.1-0.4,0.2-0.5,0.2c-0.1,0-0.2-0.1-0.2-0.3c0-0.1,0-0.2,0.1-0.6L-237.6-70z M-242.6-61
					c-0.2,0-0.3-0.2-0.3-0.5c0-1.7,0.6-3.8,1.3-4.4c0.2-0.1,0.4-0.2,0.8-0.2c0.6,0,1,0.1,1.4,0.3l-0.2,0.8
					C-240.1-62.5-242-61-242.6-61z"/>
			</g>
		</g>
	</g>
</g>
</svg>
