<?xml version="1.0" encoding="utf-8"?>
<!-- Generator: Adobe Illustrator 24.2.0, SVG Export Plug-In . SVG Version: 6.00 Build 0)  -->
<svg version="1.1" id="图层_1" xmlns="http://www.w3.org/2000/svg" xmlns:xlink="http://www.w3.org/1999/xlink" x="0px" y="0px"
	 viewBox="0 0 633 603.5" style="enable-background:new 0 0 633 603.5;" xml:space="preserve">
<style type="text/css">
	.st0{fill:#FFFFFF;}
	.st1{fill:none;stroke:#C0C0C0;stroke-linecap:round;stroke-linejoin:round;stroke-miterlimit:10;}
	.st2{fill-rule:evenodd;clip-rule:evenodd;fill:#993300;fill-opacity:9.803922e-02;}
	
		.st3{fill:none;stroke:#993300;stroke-width:2.5;stroke-linecap:round;stroke-linejoin:round;stroke-miterlimit:10;stroke-opacity:0.698;}
	.st4{fill-opacity:0.698;}
	.st5{fill:#4D4DFF;}
	.st6{fill:none;stroke:#000000;stroke-linecap:round;stroke-linejoin:round;stroke-miterlimit:10;}
	.st7{font-family:'ArialMT';}
	.st8{font-size:16px;}
	.st9{fill:none;stroke:#FFFFFF;stroke-width:3;stroke-linejoin:bevel;stroke-miterlimit:10;}
	.st10{fill:#444444;}
	.st11{font-size:14px;}
</style>
<rect class="st0" width="632" height="603"/>
<path class="st1" d="M29.5,0.4V603 M29.5,0.4V603 M102.5,0.4V603 M176.5,0.4V603 M250.5,0.4V603 M323.5,0.4V603 M397.5,0.4V603
	 M470.5,0.4V603 M544.5,0.4V603 M618.5,0.4V603 M0,0"/>
<line class="st1" x1="0.5" y1="51.6" x2="632.5" y2="51.6"/>
<line class="st1" x1="0.5" y1="124.6" x2="632.5" y2="124.6"/>
<line class="st1" x1="0.5" y1="198.6" x2="632.5" y2="198.6"/>
<line class="st1" x1="0.5" y1="272.6" x2="632.5" y2="272.6"/>
<line class="st1" x1="0.5" y1="345.6" x2="632.5" y2="345.6"/>
<line class="st1" x1="0.5" y1="419.6" x2="632.5" y2="419.6"/>
<line class="st1" x1="0.5" y1="492.6" x2="632.5" y2="492.6"/>
<line class="st1" x1="0.5" y1="566.6" x2="632.5" y2="566.6"/>
<path class="st2" d="M176.4,566.7l303.4-8.8l85.3-291.3L314.5,95.4L74.2,280.9L176.4,566.7z"/>
<path class="st3" d="M176.4,566.7l303.4-8.8l85.3-291.3L314.5,95.4L74.2,280.9L176.4,566.7z"/>
<path class="st3" d="M176.4,566.7l303.4-8.8"/>
<path class="st3" d="M479.8,557.9l85.3-291.3"/>
<path class="st3" d="M565.1,266.6L314.5,95.4"/>
<path class="st3" d="M314.5,95.4L74.2,280.9"/>
<path class="st3" d="M74.2,280.9l102.2,285.8"/>
<path class="st4" d="M260.9,469.7c-0.2,0-0.3,0-0.5,0.1c-0.5,0.2-0.8,0.6-0.8,1.1l-0.1,3.7l0,0l-64.4-0.9c0,0,0,0,0,0
	c-0.7,0-1.2,0.5-1.2,1.2c0,0.7,0.5,1.3,1.2,1.3l64.4,0.9l0,0l-0.1,3.7c0,0.5,0.3,1,0.8,1.2c0.2,0.1,0.3,0.1,0.5,0.1
	c0.3,0,0.6-0.1,0.9-0.4l5.1-4.9l0,0c0.2-0.2,0.4-0.5,0.4-0.9l0,0c0,0,0,0,0,0s0,0,0,0l0,0c0-0.3-0.1-0.7-0.4-0.9l0,0c0,0,0,0,0,0
	l-4.9-5.1C261.5,469.8,261.2,469.7,260.9,469.7z"/>
<path class="st4" d="M196.1,403.1c-0.2,0-0.3,0-0.5,0.1l0,0c-0.1,0.1-0.3,0.1-0.4,0.3l-5.1,4.9c-0.4,0.4-0.5,0.9-0.3,1.4
	c0.2,0.5,0.6,0.8,1.1,0.8l3.7,0.1l0,0l-0.9,64.4c0,0.7,0.5,1.3,1.2,1.3c0,0,0,0,0,0c0.7,0,1.2-0.5,1.2-1.2l0.9-64.4l0,0l3.7,0.1
	c0,0,0,0,0,0c0.5,0,1-0.3,1.1-0.8c0.2-0.5,0.1-1-0.3-1.4l-4.9-5.1c-0.1-0.1-0.3-0.2-0.4-0.3l0,0
	C196.5,403.2,196.3,403.1,196.1,403.1L196.1,403.1C196.2,403.1,196.2,403.1,196.1,403.1L196.1,403.1
	C196.2,403.1,196.2,403.1,196.1,403.1z"/>
<path class="st4" d="M129.6,467.8c-0.3,0-0.6,0.1-0.9,0.4l-5.1,4.9c0,0,0,0,0,0l0,0c-0.2,0.2-0.4,0.5-0.4,0.9l0,0c0,0,0,0,0,0
	c0,0,0,0,0,0l0,0c0,0.3,0.1,0.7,0.4,0.9l4.9,5.1c0.2,0.2,0.6,0.4,0.9,0.4c0.2,0,0.3,0,0.5-0.1c0.5-0.2,0.8-0.6,0.8-1.1l0.1-3.7l0,0
	l64.4,0.9c0,0,0,0,0,0c0.7,0,1.2-0.5,1.2-1.2c0-0.7-0.5-1.3-1.2-1.3l-64.4-0.9l0,0l0.1-3.7c0-0.5-0.3-1-0.8-1.2
	C129.9,467.9,129.7,467.8,129.6,467.8z"/>
<path class="st4" d="M195.1,473.8c-0.7,0-1.2,0.5-1.2,1.2l-0.9,64.4l0,0l-3.7-0.1c0,0,0,0,0,0c-0.5,0-1,0.3-1.1,0.8
	c-0.2,0.5-0.1,1,0.3,1.4l4.9,5.1c0,0,0,0,0,0l0,0c0.2,0.2,0.5,0.4,0.9,0.4l0,0l0,0c0,0,0,0,0,0l0,0c0,0,0,0,0,0
	c0.3,0,0.6-0.1,0.9-0.4l0,0c0,0,0,0,0,0l5.1-4.9c0.4-0.4,0.5-0.9,0.3-1.4c-0.2-0.5-0.6-0.8-1.1-0.8l-3.7-0.1l0,0l0.9-64.4
	C196.4,474.3,195.9,473.8,195.1,473.8C195.2,473.8,195.2,473.8,195.1,473.8z"/>
<path class="st4" d="M267.1,476.2l-2.5,0l0.1,10.5l2.5,0L267.1,476.2z M267.2,494.7l-2.5,0l0.1,10.5l2.5,0L267.2,494.7z
	 M267.3,513.2l-2.5,0l0.1,10.5l2.5,0L267.3,513.2z M267.5,531.7l-2.5,0l0.1,8.2l0,0l-3.7,0c-0.5,0-1,0.3-1.1,0.8
	c-0.2,0.5-0.1,1,0.3,1.4l5,5c0.2,0.2,0.5,0.4,0.9,0.4c0,0,0,0,0,0c0.3,0,0.6-0.1,0.9-0.4l5-5c0.4-0.4,0.5-0.9,0.3-1.4
	c-0.2-0.5-0.6-0.8-1.2-0.8c0,0,0,0,0,0l-3.7,0l0,0L267.5,531.7z"/>
<path class="st4" d="M313.3,474.6l-10.5,0.1l0,2.5l10.5-0.1L313.3,474.6z M294.8,474.8l-10.5,0.1l0,2.5l10.5-0.1L294.8,474.8z
	 M276.3,474.9l-10.5,0.1l0,2.5l10.5-0.1L276.3,474.9z M330.7,469.5c-0.2,0-0.3,0-0.5,0.1c-0.5,0.2-0.8,0.7-0.8,1.2l0,3.7l0,0
	l-8.2,0.1l0,2.5l8.2-0.1l0,0l0,3.7c0,0.5,0.3,1,0.8,1.1c0.2,0.1,0.3,0.1,0.5,0.1c0.3,0,0.7-0.1,0.9-0.4l5-5c0.2-0.2,0.4-0.6,0.4-0.9
	c0-0.3-0.1-0.6-0.4-0.9l-5-5C331.3,469.6,331,469.5,330.7,469.5z"/>
<path class="st4" d="M265.3,405.1c-0.3,0-0.6,0.1-0.9,0.4l-5,5c-0.4,0.4-0.5,0.9-0.3,1.4c0.2,0.5,0.6,0.8,1.2,0.8c0,0,0,0,0,0l3.7,0
	l0,0l0.1,8.2l2.5,0l-0.1-8.2l0,0l3.7,0c0.5,0,1-0.3,1.1-0.8s0.1-1-0.3-1.4l-5-5C265.9,405.2,265.6,405.1,265.3,405.1z M266.7,428.7
	l-2.5,0l0.1,10.5l2.5,0L266.7,428.7z M266.8,447.2l-2.5,0l0.1,10.5l2.5,0L266.8,447.2z M267,465.7l-2.5,0l0.1,10.5l2.5,0L267,465.7z
	"/>
<path class="st4" d="M196,404.6l0,2.5l10.5,0.1l0-2.5L196,404.6z M214.5,404.8l0,2.5l10.5,0.1l0-2.5L214.5,404.8z M233,405.1l0,2.5
	l10.5,0.1l0-2.5L233,405.1z M261.7,400.5c-0.2,0-0.3,0-0.5,0.1c-0.5,0.2-0.8,0.6-0.8,1.1l-0.1,3.7l0,0l-8.9-0.1l0,2.5l8.9,0.1l0,0
	l-0.1,3.7c0,0.5,0.3,1,0.8,1.2c0.2,0.1,0.3,0.1,0.5,0.1c0.3,0,0.6-0.1,0.9-0.4l5.1-4.9c0.5-0.5,0.5-1.3,0-1.8l-4.9-5.1
	C262.3,400.6,262,400.5,261.7,400.5z"/>
<path class="st4" d="M196.9,333.9c-0.3,0-0.6,0.1-0.9,0.4l-5.1,4.9c-0.4,0.4-0.5,0.9-0.3,1.4c0.2,0.5,0.6,0.8,1.1,0.8l3.7,0.1l0,0
	l-0.1,8.9l2.5,0l0.1-8.9l0,0l3.7,0.1c0,0,0,0,0,0c0.5,0,1-0.3,1.1-0.8c0.2-0.5,0.1-1-0.3-1.4l-4.9-5.1
	C197.6,334.1,197.3,333.9,196.9,333.9z M195.4,358.3l-0.1,10.5l2.5,0l0.1-10.5L195.4,358.3z M195.1,376.8l-0.1,10.5l2.5,0l0.1-10.5
	L195.1,376.8z M194.8,395.3l-0.1,10.5l2.5,0l0.1-10.5L194.8,395.3z"/>
<path class="st4" d="M148.5,403.9l0,2.5l10.5,0.1l0-2.5L148.5,403.9z M167,404.2l0,2.5l10.5,0.1l0-2.5L167,404.2z M185.5,404.4
	l0,2.5l10.5,0.1l0-2.5L185.5,404.4z M130.4,398.7c-0.3,0-0.6,0.1-0.9,0.4l-5.1,4.9c-0.5,0.5-0.5,1.3,0,1.8l4.9,5.1
	c0.2,0.2,0.6,0.4,0.9,0.4c0.2,0,0.3,0,0.5-0.1c0.5-0.2,0.8-0.6,0.8-1.1l0.1-3.7l0,0l8.9,0.1l0-2.5l-8.9-0.1l0,0l0.1-3.7
	c0-0.5-0.3-1-0.8-1.2C130.7,398.7,130.5,398.7,130.4,398.7z"/>
<path class="st5" d="M181.4,566.7c0,2.8-2.2,5-5,5s-5-2.2-5-5c0-2.8,2.2-5,5-5S181.4,564,181.4,566.7z"/>
<path class="st6" d="M181.4,566.7c0,2.8-2.2,5-5,5s-5-2.2-5-5c0-2.8,2.2-5,5-5S181.4,564,181.4,566.7z"/>
<text transform="matrix(1 0 0 1 180 557.1098)" class="st5 st7 st8">A</text>
<text transform="matrix(1 0 0 1 180 557.1098)" class="st9 st7 st8">A</text>
<text transform="matrix(1 0 0 1 180 557.1098)" class="st5 st7 st8">A</text>
<path class="st5" d="M484.8,557.9c0,2.8-2.2,5-5,5c-2.8,0-5-2.2-5-5c0-2.8,2.2-5,5-5C482.5,552.9,484.8,555.1,484.8,557.9z"/>
<path class="st6" d="M484.8,557.9c0,2.8-2.2,5-5,5c-2.8,0-5-2.2-5-5c0-2.8,2.2-5,5-5C482.5,552.9,484.8,555.1,484.8,557.9z"/>
<text transform="matrix(1 0 0 1 484 548.1098)" class="st5 st7 st8">B</text>
<text transform="matrix(1 0 0 1 484 548.1098)" class="st9 st7 st8">B</text>
<text transform="matrix(1 0 0 1 484 548.1098)" class="st5 st7 st8">B</text>
<path class="st10" d="M570.1,266.6c0,2.8-2.2,5-5,5s-5-2.2-5-5s2.2-5,5-5S570.1,263.9,570.1,266.6z"/>
<path class="st6" d="M570.1,266.6c0,2.8-2.2,5-5,5s-5-2.2-5-5s2.2-5,5-5S570.1,263.9,570.1,266.6z"/>
<text transform="matrix(1 0 0 1 569 257.1098)" class="st10 st7 st8">C</text>
<text transform="matrix(1 0 0 1 569 257.1098)" class="st9 st7 st8">C</text>
<text transform="matrix(1 0 0 1 569 257.1098)" class="st10 st7 st8">C</text>
<path class="st10" d="M319.5,95.4c0,2.8-2.2,5-5,5c-2.8,0-5-2.2-5-5c0-2.8,2.2-5,5-5C317.3,90.4,319.5,92.7,319.5,95.4z"/>
<path class="st6" d="M319.5,95.4c0,2.8-2.2,5-5,5c-2.8,0-5-2.2-5-5c0-2.8,2.2-5,5-5C317.3,90.4,319.5,92.7,319.5,95.4z"/>
<text transform="matrix(1 0 0 1 318 85.1098)" class="st10 st7 st8">D</text>
<text transform="matrix(1 0 0 1 318 85.1098)" class="st9 st7 st8">D</text>
<text transform="matrix(1 0 0 1 318 85.1098)" class="st10 st7 st8">D</text>
<path class="st10" d="M79.2,280.9c0,2.8-2.2,5-5,5c-2.8,0-5-2.2-5-5c0-2.8,2.2-5,5-5C77,275.9,79.2,278.2,79.2,280.9z"/>
<path class="st6" d="M79.2,280.9c0,2.8-2.2,5-5,5c-2.8,0-5-2.2-5-5c0-2.8,2.2-5,5-5C77,275.9,79.2,278.2,79.2,280.9z"/>
<text transform="matrix(1 0 0 1 78 271.1098)" class="st10 st7 st8">E</text>
<text transform="matrix(1 0 0 1 78 271.1098)" class="st9 st7 st8">E</text>
<text transform="matrix(1 0 0 1 78 271.1098)" class="st10 st7 st8">E</text>
<path class="st5" d="M200.2,475c0,2.8-2.2,5-5,5c-2.8,0-5-2.2-5-5s2.2-5,5-5C197.9,470,200.2,472.3,200.2,475z"/>
<path class="st6" d="M200.2,475c0,2.8-2.2,5-5,5c-2.8,0-5-2.2-5-5s2.2-5,5-5C197.9,470,200.2,472.3,200.2,475z"/>
<text transform="matrix(1 0 0 1 199 465.1098)" class="st5 st7 st8">P</text>
<text transform="matrix(1 0 0 1 199 465.1098)" class="st9 st7 st8">P</text>
<text transform="matrix(1 0 0 1 199 465.1098)" class="st5 st7 st8">P</text>
<text transform="matrix(1 0 0 1 208 472.1098)" class="st5 st7 st11">0</text>
<text transform="matrix(1 0 0 1 208 472.1098)" class="st9 st7 st11">0</text>
<text transform="matrix(1 0 0 1 208 472.1098)" class="st5 st7 st11">0</text>
<path class="st5" d="M266.8,476c0,0.6-0.4,1-1,1s-1-0.4-1-1c0-0.6,0.4-1,1-1S266.8,475.5,266.8,476z"/>
<path class="st6" d="M266.8,476c0,0.6-0.4,1-1,1s-1-0.4-1-1c0-0.6,0.4-1,1-1S266.8,475.5,266.8,476z"/>
<text transform="matrix(1 0 0 1 270 474.1098)" class="st5 st7 st8">P</text>
<text transform="matrix(1 0 0 1 270 474.1098)" class="st9 st7 st8">P</text>
<text transform="matrix(1 0 0 1 270 474.1098)" class="st5 st7 st8">P</text>
<text transform="matrix(1 0 0 1 279 481.1098)" class="st5 st7 st11">3</text>
<text transform="matrix(1 0 0 1 279 481.1098)" class="st9 st7 st11">3</text>
<text transform="matrix(1 0 0 1 279 481.1098)" class="st5 st7 st11">3</text>
<path class="st5" d="M200.2,475c0,2.8-2.2,5-5,5c-2.8,0-5-2.2-5-5s2.2-5,5-5C197.9,470,200.2,472.3,200.2,475z"/>
<path class="st6" d="M200.2,475c0,2.8-2.2,5-5,5c-2.8,0-5-2.2-5-5s2.2-5,5-5C197.9,470,200.2,472.3,200.2,475z"/>
<path class="st5" d="M197.1,404.4c0,0.6-0.4,1-1,1c-0.6,0-1-0.4-1-1s0.4-1,1-1C196.7,403.4,197.1,403.8,197.1,404.4z"/>
<path class="st6" d="M197.1,404.4c0,0.6-0.4,1-1,1c-0.6,0-1-0.4-1-1s0.4-1,1-1C196.7,403.4,197.1,403.8,197.1,404.4z"/>
<text transform="matrix(1 0 0 1 202 425.1098)" class="st5 st7 st8">P</text>
<text transform="matrix(1 0 0 1 202 425.1098)" class="st9 st7 st8">P</text>
<text transform="matrix(1 0 0 1 202 425.1098)" class="st5 st7 st8">P</text>
<text transform="matrix(1 0 0 1 211 432.1098)" class="st5 st7 st11">4</text>
<text transform="matrix(1 0 0 1 211 432.1098)" class="st9 st7 st11">4</text>
<text transform="matrix(1 0 0 1 211 432.1098)" class="st5 st7 st11">4</text>
<path class="st5" d="M200.2,475c0,2.8-2.2,5-5,5c-2.8,0-5-2.2-5-5s2.2-5,5-5C197.9,470,200.2,472.3,200.2,475z"/>
<path class="st6" d="M200.2,475c0,2.8-2.2,5-5,5c-2.8,0-5-2.2-5-5s2.2-5,5-5C197.9,470,200.2,472.3,200.2,475z"/>
<path class="st5" d="M125.5,474c0,0.6-0.4,1-1,1s-1-0.4-1-1c0-0.6,0.4-1,1-1S125.5,473.5,125.5,474z"/>
<path class="st6" d="M125.5,474c0,0.6-0.4,1-1,1s-1-0.4-1-1c0-0.6,0.4-1,1-1S125.5,473.5,125.5,474z"/>
<text transform="matrix(1 0 0 1 130 497.1098)" class="st5 st7 st8">P</text>
<text transform="matrix(1 0 0 1 130 497.1098)" class="st9 st7 st8">P</text>
<text transform="matrix(1 0 0 1 130 497.1098)" class="st5 st7 st8">P</text>
<text transform="matrix(1 0 0 1 139 504.1098)" class="st5 st7 st11">1</text>
<text transform="matrix(1 0 0 1 139 504.1098)" class="st9 st7 st11">1</text>
<text transform="matrix(1 0 0 1 139 504.1098)" class="st5 st7 st11">1</text>
<path class="st5" d="M200.2,475c0,2.8-2.2,5-5,5c-2.8,0-5-2.2-5-5s2.2-5,5-5C197.9,470,200.2,472.3,200.2,475z"/>
<path class="st6" d="M200.2,475c0,2.8-2.2,5-5,5c-2.8,0-5-2.2-5-5s2.2-5,5-5C197.9,470,200.2,472.3,200.2,475z"/>
<path class="st5" d="M195.2,545.7c0,0.6-0.4,1-1,1c-0.6,0-1-0.4-1-1c0-0.6,0.4-1,1-1C194.7,544.7,195.2,545.1,195.2,545.7z"/>
<path class="st6" d="M195.2,545.7c0,0.6-0.4,1-1,1c-0.6,0-1-0.4-1-1c0-0.6,0.4-1,1-1C194.7,544.7,195.2,545.1,195.2,545.7z"/>
<text transform="matrix(1 0 0 1 198 544.1098)" class="st5 st7 st8">P</text>
<text transform="matrix(1 0 0 1 198 544.1098)" class="st9 st7 st8">P</text>
<text transform="matrix(1 0 0 1 198 544.1098)" class="st5 st7 st8">P</text>
<text transform="matrix(1 0 0 1 207 551.1098)" class="st5 st7 st11">2</text>
<text transform="matrix(1 0 0 1 207 551.1098)" class="st9 st7 st11">2</text>
<text transform="matrix(1 0 0 1 207 551.1098)" class="st5 st7 st11">2</text>
<path class="st5" d="M270.8,476.2c0,2.8-2.2,5-5,5c-2.8,0-5-2.2-5-5c0-2.8,2.2-5,5-5C268.6,471.2,270.8,473.5,270.8,476.2z"/>
<path class="st6" d="M270.8,476.2c0,2.8-2.2,5-5,5c-2.8,0-5-2.2-5-5c0-2.8,2.2-5,5-5C268.6,471.2,270.8,473.5,270.8,476.2z"/>
<path class="st5" d="M267.3,546.1c0,0.6-0.4,1-1,1c-0.6,0-1-0.4-1-1s0.4-1,1-1C266.9,545.1,267.3,545.6,267.3,546.1z"/>
<path class="st6" d="M267.3,546.1c0,0.6-0.4,1-1,1c-0.6,0-1-0.4-1-1s0.4-1,1-1C266.9,545.1,267.3,545.6,267.3,546.1z"/>
<path class="st5" d="M270.8,476.2c0,2.8-2.2,5-5,5c-2.8,0-5-2.2-5-5c0-2.8,2.2-5,5-5C268.6,471.2,270.8,473.5,270.8,476.2z"/>
<path class="st6" d="M270.8,476.2c0,2.8-2.2,5-5,5c-2.8,0-5-2.2-5-5c0-2.8,2.2-5,5-5C268.6,471.2,270.8,473.5,270.8,476.2z"/>
<path class="st5" d="M336.7,475.7c0,0.6-0.4,1-1,1s-1-0.4-1-1s0.4-1,1-1S336.7,475.2,336.7,475.7z"/>
<path class="st6" d="M336.7,475.7c0,0.6-0.4,1-1,1s-1-0.4-1-1s0.4-1,1-1S336.7,475.2,336.7,475.7z"/>
<path class="st5" d="M270.8,476.2c0,2.8-2.2,5-5,5c-2.8,0-5-2.2-5-5c0-2.8,2.2-5,5-5C268.6,471.2,270.8,473.5,270.8,476.2z"/>
<path class="st6" d="M270.8,476.2c0,2.8-2.2,5-5,5c-2.8,0-5-2.2-5-5c0-2.8,2.2-5,5-5C268.6,471.2,270.8,473.5,270.8,476.2z"/>
<path class="st5" d="M266.3,406.3c0,0.6-0.4,1-1,1s-1-0.4-1-1s0.4-1,1-1S266.3,405.8,266.3,406.3z"/>
<path class="st6" d="M266.3,406.3c0,0.6-0.4,1-1,1s-1-0.4-1-1s0.4-1,1-1S266.3,405.8,266.3,406.3z"/>
<path class="st5" d="M270.8,476.2c0,2.8-2.2,5-5,5c-2.8,0-5-2.2-5-5c0-2.8,2.2-5,5-5C268.6,471.2,270.8,473.5,270.8,476.2z"/>
<path class="st6" d="M270.8,476.2c0,2.8-2.2,5-5,5c-2.8,0-5-2.2-5-5c0-2.8,2.2-5,5-5C268.6,471.2,270.8,473.5,270.8,476.2z"/>
<path class="st5" d="M267.3,546.1c0,0.6-0.4,1-1,1c-0.6,0-1-0.4-1-1s0.4-1,1-1C266.9,545.1,267.3,545.6,267.3,546.1z"/>
<path class="st6" d="M267.3,546.1c0,0.6-0.4,1-1,1c-0.6,0-1-0.4-1-1s0.4-1,1-1C266.9,545.1,267.3,545.6,267.3,546.1z"/>
<path class="st5" d="M200.9,405.8c0,2.8-2.2,5-5,5c-2.8,0-5-2.2-5-5s2.2-5,5-5C198.7,400.8,200.9,403.1,200.9,405.8z"/>
<path class="st6" d="M200.9,405.8c0,2.8-2.2,5-5,5c-2.8,0-5-2.2-5-5s2.2-5,5-5C198.7,400.8,200.9,403.1,200.9,405.8z"/>
<path class="st5" d="M267.6,406.8c0,0.6-0.4,1-1,1c-0.6,0-1-0.4-1-1s0.4-1,1-1C267.1,405.8,267.6,406.3,267.6,406.8z"/>
<path class="st6" d="M267.6,406.8c0,0.6-0.4,1-1,1c-0.6,0-1-0.4-1-1s0.4-1,1-1C267.1,405.8,267.6,406.3,267.6,406.8z"/>
<path class="st5" d="M200.9,405.8c0,2.8-2.2,5-5,5c-2.8,0-5-2.2-5-5s2.2-5,5-5C198.7,400.8,200.9,403.1,200.9,405.8z"/>
<path class="st6" d="M200.9,405.8c0,2.8-2.2,5-5,5c-2.8,0-5-2.2-5-5s2.2-5,5-5C198.7,400.8,200.9,403.1,200.9,405.8z"/>
<path class="st5" d="M197.9,335.2c0,0.6-0.4,1-1,1c-0.6,0-1-0.4-1-1c0-0.6,0.4-1,1-1C197.5,334.2,197.9,334.6,197.9,335.2z"/>
<path class="st6" d="M197.9,335.2c0,0.6-0.4,1-1,1c-0.6,0-1-0.4-1-1c0-0.6,0.4-1,1-1C197.5,334.2,197.9,334.6,197.9,335.2z"/>
<path class="st5" d="M200.9,405.8c0,2.8-2.2,5-5,5c-2.8,0-5-2.2-5-5s2.2-5,5-5C198.7,400.8,200.9,403.1,200.9,405.8z"/>
<path class="st6" d="M200.9,405.8c0,2.8-2.2,5-5,5c-2.8,0-5-2.2-5-5s2.2-5,5-5C198.7,400.8,200.9,403.1,200.9,405.8z"/>
<path class="st5" d="M126.3,404.8c0,0.6-0.4,1-1,1s-1-0.4-1-1c0-0.6,0.4-1,1-1S126.3,404.3,126.3,404.8z"/>
<path class="st6" d="M126.3,404.8c0,0.6-0.4,1-1,1s-1-0.4-1-1c0-0.6,0.4-1,1-1S126.3,404.3,126.3,404.8z"/>
<path class="st5" d="M200.9,405.8c0,2.8-2.2,5-5,5c-2.8,0-5-2.2-5-5s2.2-5,5-5C198.7,400.8,200.9,403.1,200.9,405.8z"/>
<path class="st6" d="M200.9,405.8c0,2.8-2.2,5-5,5c-2.8,0-5-2.2-5-5s2.2-5,5-5C198.7,400.8,200.9,403.1,200.9,405.8z"/>
<path class="st5" d="M267.6,406.8c0,0.6-0.4,1-1,1c-0.6,0-1-0.4-1-1s0.4-1,1-1C267.1,405.8,267.6,406.3,267.6,406.8z"/>
<path class="st6" d="M267.6,406.8c0,0.6-0.4,1-1,1c-0.6,0-1-0.4-1-1s0.4-1,1-1C267.1,405.8,267.6,406.3,267.6,406.8z"/>
</svg>
