<?xml version="1.0" encoding="utf-8" standalone="no"?>
<!DOCTYPE svg PUBLIC "-//W3C//DTD SVG 1.1//EN"
  "http://www.w3.org/Graphics/SVG/1.1/DTD/svg11.dtd">
<!-- Created with matplotlib (https://matplotlib.org/) -->
<svg height="246.965pt" version="1.1" viewBox="0 0 381.2 246.965" width="381.2pt" xmlns="http://www.w3.org/2000/svg" xmlns:xlink="http://www.w3.org/1999/xlink">
 <defs>
  <style type="text/css">
*{stroke-linecap:butt;stroke-linejoin:round;}
  </style>
 </defs>
 <g id="figure_1">
  <g id="patch_1">
   <path d="M 0 246.965 
L 381.2 246.965 
L 381.2 0 
L 0 0 
z
" style="fill:none;"/>
  </g>
  <g id="axes_1">
   <g id="patch_2">
    <path d="M 39.2 224.64 
L 374 224.64 
L 374 7.2 
L 39.2 7.2 
z
" style="fill:#ffffff;"/>
   </g>
   <g id="matplotlib.axis_1">
    <g id="xtick_1">
     <g id="line2d_1">
      <defs>
       <path d="M 0 0 
L 0 3.5 
" id="m7f36209269" style="stroke:#000000;stroke-width:0.8;"/>
      </defs>
      <g>
       <use style="stroke:#000000;stroke-width:0.8;" x="54.418182" xlink:href="#m7f36209269" y="224.64"/>
      </g>
     </g>
     <g id="text_1">
      <!-- 411 -->
      <defs>
       <path d="M 31.25 17.1875 
L 1.171875 17.1875 
L 1.171875 23.828125 
L 32.8125 69.53125 
L 38.671875 69.53125 
L 38.671875 23.828125 
L 48.046875 23.828125 
L 48.046875 17.1875 
L 38.671875 17.1875 
L 38.671875 2.34375 
L 31.25 2.34375 
z
M 31.25 23.828125 
L 31.25 54.6875 
L 9.375 23.828125 
z
" id="SimHei-52"/>
       <path d="M 21.875 56.25 
Q 16.796875 51.171875 8.984375 46.484375 
L 8.984375 53.90625 
Q 18.75 60.546875 25 69.53125 
L 29.6875 69.53125 
L 29.6875 2.34375 
L 21.875 2.34375 
z
" id="SimHei-49"/>
      </defs>
      <g transform="translate(46.918182 238.515)scale(0.1 -0.1)">
       <use xlink:href="#SimHei-52"/>
       <use x="50" xlink:href="#SimHei-49"/>
       <use x="100" xlink:href="#SimHei-49"/>
      </g>
     </g>
    </g>
    <g id="xtick_2">
     <g id="line2d_2">
      <g>
       <use style="stroke:#000000;stroke-width:0.8;" x="65.608021" xlink:href="#m7f36209269" y="224.64"/>
      </g>
     </g>
     <g id="text_2">
      <!-- 406 -->
      <defs>
       <path d="M 3.125 29.296875 
Q 3.90625 50 6.4375 56.046875 
Q 8.984375 62.109375 13.671875 66.015625 
Q 18.359375 69.921875 25.1875 69.921875 
Q 32.03125 69.921875 37.109375 64.25 
Q 42.1875 58.59375 43.75 50 
Q 45.3125 41.40625 44.71875 30.265625 
Q 44.140625 19.140625 40.8125 12.109375 
Q 37.5 5.078125 30.859375 2.34375 
Q 24.21875 -0.390625 17.578125 2.921875 
Q 10.9375 6.25 8.203125 11.71875 
Q 5.46875 17.1875 4.296875 23.234375 
Q 3.125 29.296875 3.90625 50 
z
M 12.890625 52.734375 
Q 10.546875 31.25 12.5 22.84375 
Q 14.453125 14.453125 18.9375 10.9375 
Q 23.4375 7.421875 28.125 9.5625 
Q 32.8125 11.71875 34.953125 18.15625 
Q 37.109375 24.609375 37.109375 32.21875 
Q 37.109375 39.84375 36.515625 46.09375 
Q 35.9375 52.34375 33 57.421875 
Q 30.078125 62.5 25.1875 62.6875 
Q 20.3125 62.890625 16.59375 57.8125 
Q 12.890625 52.734375 10.546875 31.25 
z
" id="SimHei-48"/>
       <path d="M 3.515625 19.53125 
Q 4.296875 30.859375 6.046875 34.765625 
Q 7.8125 38.671875 11.328125 44.53125 
L 27.34375 69.53125 
L 36.328125 69.53125 
L 19.921875 43.75 
Q 30.46875 46.484375 36.71875 42.96875 
Q 42.96875 39.453125 45.109375 34.953125 
Q 47.265625 30.46875 47.453125 25.1875 
Q 47.65625 19.921875 45.890625 14.84375 
Q 44.140625 9.765625 39.640625 5.65625 
Q 35.15625 1.5625 27.140625 1.171875 
Q 19.140625 0.78125 13.46875 4.09375 
Q 7.8125 7.421875 5.65625 13.46875 
Q 3.515625 19.53125 4.296875 30.859375 
z
M 12.5 16.015625 
Q 19.53125 8.59375 25.390625 8.203125 
Q 31.25 7.8125 35.15625 12.109375 
Q 39.0625 16.40625 39.0625 24.609375 
Q 39.0625 32.8125 34.171875 35.9375 
Q 29.296875 39.0625 23.234375 38.28125 
Q 17.1875 37.5 14.453125 32.421875 
Q 11.71875 27.34375 12.109375 21.671875 
Q 12.5 16.015625 19.53125 8.59375 
z
" id="SimHei-54"/>
      </defs>
      <g transform="translate(58.108021 238.515)scale(0.1 -0.1)">
       <use xlink:href="#SimHei-52"/>
       <use x="50" xlink:href="#SimHei-48"/>
       <use x="100" xlink:href="#SimHei-54"/>
      </g>
     </g>
    </g>
    <g id="xtick_3">
     <g id="line2d_3">
      <g>
       <use style="stroke:#000000;stroke-width:0.8;" x="76.797861" xlink:href="#m7f36209269" y="224.64"/>
      </g>
     </g>
     <g id="text_3">
      <!-- 401 -->
      <g transform="translate(69.297861 238.515)scale(0.1 -0.1)">
       <use xlink:href="#SimHei-52"/>
       <use x="50" xlink:href="#SimHei-48"/>
       <use x="100" xlink:href="#SimHei-49"/>
      </g>
     </g>
    </g>
    <g id="xtick_4">
     <g id="line2d_4">
      <g>
       <use style="stroke:#000000;stroke-width:0.8;" x="87.987701" xlink:href="#m7f36209269" y="224.64"/>
      </g>
     </g>
     <g id="text_4">
      <!-- 396 -->
      <defs>
       <path d="M 3.90625 19.140625 
L 10.9375 20.3125 
Q 12.5 15.234375 16.015625 11.90625 
Q 19.53125 8.59375 24.796875 8.78125 
Q 30.078125 8.984375 33.203125 13.078125 
Q 36.328125 17.1875 35.9375 22.453125 
Q 35.546875 27.734375 31.828125 30.65625 
Q 28.125 33.59375 19.921875 34.765625 
L 19.921875 39.84375 
Q 28.125 40.625 31.828125 44.140625 
Q 35.546875 47.65625 35.15625 53.3125 
Q 34.765625 58.984375 30.078125 61.515625 
Q 25.390625 64.0625 20.109375 62.109375 
Q 14.84375 60.15625 11.71875 51.171875 
L 4.6875 52.34375 
Q 7.03125 59.375 11.125 64.0625 
Q 15.234375 68.75 22.265625 69.53125 
Q 29.296875 70.3125 34.5625 67.765625 
Q 39.84375 65.234375 41.984375 59.953125 
Q 44.140625 54.6875 42.578125 48.4375 
Q 41.015625 42.1875 33.59375 37.5 
Q 39.0625 35.15625 41.984375 30.46875 
Q 44.921875 25.78125 43.9375 18.15625 
Q 42.96875 10.546875 37.109375 5.859375 
Q 31.25 1.171875 23.828125 1.359375 
Q 16.40625 1.5625 10.9375 6.046875 
Q 5.46875 10.546875 3.90625 19.140625 
z
" id="SimHei-51"/>
       <path d="M 12.5 1.171875 
Q 21.09375 15.625 26.5625 27.34375 
Q 16.796875 25.78125 10.34375 29.875 
Q 3.90625 33.984375 2.53125 41.015625 
Q 1.171875 48.046875 2.734375 53.703125 
Q 4.296875 59.375 7.609375 63.078125 
Q 10.9375 66.796875 15.625 68.359375 
Q 20.3125 69.921875 24.015625 69.921875 
Q 27.734375 69.921875 31.640625 68.359375 
Q 35.546875 66.796875 38.671875 63.671875 
Q 41.796875 60.546875 42.96875 57.21875 
Q 44.140625 53.90625 44.140625 48.625 
Q 44.140625 43.359375 40.234375 35.15625 
Q 36.328125 26.953125 21.09375 1.171875 
z
M 9.765625 50 
Q 10.9375 39.84375 14.640625 36.515625 
Q 18.359375 33.203125 22.65625 33.59375 
Q 26.953125 33.984375 29.484375 35.9375 
Q 32.03125 37.890625 34.375 42.578125 
Q 35.9375 48.4375 35.15625 52.53125 
Q 34.375 56.640625 31.046875 59.375 
Q 27.734375 62.109375 23.828125 62.109375 
Q 21.484375 62.5 17.765625 60.9375 
Q 14.0625 59.375 11.90625 54.6875 
Q 9.765625 50 10.9375 39.84375 
z
" id="SimHei-57"/>
      </defs>
      <g transform="translate(80.487701 238.515)scale(0.1 -0.1)">
       <use xlink:href="#SimHei-51"/>
       <use x="50" xlink:href="#SimHei-57"/>
       <use x="100" xlink:href="#SimHei-54"/>
      </g>
     </g>
    </g>
    <g id="xtick_5">
     <g id="line2d_5">
      <g>
       <use style="stroke:#000000;stroke-width:0.8;" x="99.17754" xlink:href="#m7f36209269" y="224.64"/>
      </g>
     </g>
     <g id="text_5">
      <!-- 391 -->
      <g transform="translate(91.67754 238.515)scale(0.1 -0.1)">
       <use xlink:href="#SimHei-51"/>
       <use x="50" xlink:href="#SimHei-57"/>
       <use x="100" xlink:href="#SimHei-49"/>
      </g>
     </g>
    </g>
    <g id="xtick_6">
     <g id="line2d_6">
      <g>
       <use style="stroke:#000000;stroke-width:0.8;" x="110.36738" xlink:href="#m7f36209269" y="224.64"/>
      </g>
     </g>
     <g id="text_6">
      <!-- 386 -->
      <defs>
       <path d="M 2.734375 16.796875 
Q 2.734375 26.171875 5.078125 30.65625 
Q 7.421875 35.15625 12.890625 37.890625 
Q 8.203125 40.625 6.640625 43.9375 
Q 5.078125 47.265625 4.875 51.5625 
Q 4.6875 55.859375 6.046875 58.984375 
Q 7.421875 62.109375 10.15625 64.84375 
Q 12.890625 67.578125 16.203125 68.546875 
Q 19.53125 69.53125 23.4375 69.53125 
Q 27.34375 69.53125 30.46875 68.75 
Q 33.59375 67.96875 37.109375 65.421875 
Q 40.625 62.890625 42.1875 58.203125 
Q 43.75 53.515625 41.984375 47.265625 
Q 40.234375 41.015625 32.8125 37.5 
Q 39.453125 35.546875 42.1875 31.4375 
Q 44.921875 27.34375 44.921875 21.484375 
Q 44.921875 15.625 43.15625 12.109375 
Q 41.40625 8.59375 39.25 6.25 
Q 37.109375 3.90625 33.390625 2.53125 
Q 29.6875 1.171875 24.015625 1.171875 
Q 18.359375 1.171875 14.25 2.53125 
Q 10.15625 3.90625 7.421875 6.640625 
Q 4.6875 9.375 3.703125 13.078125 
Q 2.734375 16.796875 2.734375 26.171875 
z
M 10.9375 26.5625 
Q 10.546875 17.1875 12.296875 13.671875 
Q 14.0625 10.15625 18.75 9.171875 
Q 23.4375 8.203125 28.515625 9.375 
Q 33.59375 10.546875 35.546875 14.84375 
Q 37.5 19.140625 36.90625 23.4375 
Q 36.328125 27.734375 32.03125 30.65625 
Q 27.734375 33.59375 22.65625 33.203125 
Q 17.578125 32.8125 14.25 29.6875 
Q 10.9375 26.5625 10.546875 17.1875 
z
M 12.109375 56.25 
Q 12.109375 48.4375 14.84375 44.921875 
Q 17.578125 41.40625 23.4375 41.40625 
Q 29.296875 41.40625 32.21875 44.921875 
Q 35.15625 48.4375 34.953125 53.3125 
Q 34.765625 58.203125 31.4375 60.546875 
Q 28.125 62.890625 22.453125 62.5 
Q 16.796875 62.109375 14.453125 59.171875 
Q 12.109375 56.25 12.109375 48.4375 
z
" id="SimHei-56"/>
      </defs>
      <g transform="translate(102.86738 238.515)scale(0.1 -0.1)">
       <use xlink:href="#SimHei-51"/>
       <use x="50" xlink:href="#SimHei-56"/>
       <use x="100" xlink:href="#SimHei-54"/>
      </g>
     </g>
    </g>
    <g id="xtick_7">
     <g id="line2d_7">
      <g>
       <use style="stroke:#000000;stroke-width:0.8;" x="121.557219" xlink:href="#m7f36209269" y="224.64"/>
      </g>
     </g>
     <g id="text_7">
      <!-- 381 -->
      <g transform="translate(114.057219 238.515)scale(0.1 -0.1)">
       <use xlink:href="#SimHei-51"/>
       <use x="50" xlink:href="#SimHei-56"/>
       <use x="100" xlink:href="#SimHei-49"/>
      </g>
     </g>
    </g>
    <g id="xtick_8">
     <g id="line2d_8">
      <g>
       <use style="stroke:#000000;stroke-width:0.8;" x="132.747059" xlink:href="#m7f36209269" y="224.64"/>
      </g>
     </g>
     <g id="text_8">
      <!-- 376 -->
      <defs>
       <path d="M 13.28125 2.34375 
Q 20.3125 32.03125 37.890625 61.328125 
L 4.296875 61.328125 
L 4.296875 68.359375 
L 46.09375 68.359375 
L 46.09375 61.71875 
Q 27.734375 32.03125 21.875 2.34375 
L 13.28125 2.34375 
z
" id="SimHei-55"/>
      </defs>
      <g transform="translate(125.247059 238.515)scale(0.1 -0.1)">
       <use xlink:href="#SimHei-51"/>
       <use x="50" xlink:href="#SimHei-55"/>
       <use x="100" xlink:href="#SimHei-54"/>
      </g>
     </g>
    </g>
    <g id="xtick_9">
     <g id="line2d_9">
      <g>
       <use style="stroke:#000000;stroke-width:0.8;" x="143.936898" xlink:href="#m7f36209269" y="224.64"/>
      </g>
     </g>
     <g id="text_9">
      <!-- 371 -->
      <g transform="translate(136.436898 238.515)scale(0.1 -0.1)">
       <use xlink:href="#SimHei-51"/>
       <use x="50" xlink:href="#SimHei-55"/>
       <use x="100" xlink:href="#SimHei-49"/>
      </g>
     </g>
    </g>
    <g id="xtick_10">
     <g id="line2d_10">
      <g>
       <use style="stroke:#000000;stroke-width:0.8;" x="155.126738" xlink:href="#m7f36209269" y="224.64"/>
      </g>
     </g>
     <g id="text_10">
      <!-- 366 -->
      <g transform="translate(147.626738 238.515)scale(0.1 -0.1)">
       <use xlink:href="#SimHei-51"/>
       <use x="50" xlink:href="#SimHei-54"/>
       <use x="100" xlink:href="#SimHei-54"/>
      </g>
     </g>
    </g>
    <g id="xtick_11">
     <g id="line2d_11">
      <g>
       <use style="stroke:#000000;stroke-width:0.8;" x="166.316578" xlink:href="#m7f36209269" y="224.64"/>
      </g>
     </g>
     <g id="text_11">
      <!-- 361 -->
      <g transform="translate(158.816578 238.515)scale(0.1 -0.1)">
       <use xlink:href="#SimHei-51"/>
       <use x="50" xlink:href="#SimHei-54"/>
       <use x="100" xlink:href="#SimHei-49"/>
      </g>
     </g>
    </g>
    <g id="xtick_12">
     <g id="line2d_12">
      <g>
       <use style="stroke:#000000;stroke-width:0.8;" x="177.506417" xlink:href="#m7f36209269" y="224.64"/>
      </g>
     </g>
     <g id="text_12">
      <!-- 356 -->
      <defs>
       <path d="M 8.59375 20.703125 
Q 11.328125 10.15625 17.96875 8.984375 
Q 24.609375 7.8125 28.703125 10.34375 
Q 32.8125 12.890625 34.5625 16.984375 
Q 36.328125 21.09375 36.125 26.171875 
Q 35.9375 31.25 33.390625 34.765625 
Q 30.859375 38.28125 26.953125 39.453125 
Q 23.046875 40.625 18.15625 39.453125 
Q 13.28125 38.28125 10.15625 33.984375 
L 3.515625 34.765625 
Q 4.296875 37.109375 10.9375 68.359375 
L 41.796875 68.359375 
L 41.796875 61.328125 
L 16.796875 61.328125 
Q 14.84375 50.78125 12.890625 44.53125 
Q 18.75 47.265625 23.828125 47.0625 
Q 28.90625 46.875 33.59375 44.71875 
Q 38.28125 42.578125 40.421875 38.859375 
Q 42.578125 35.15625 43.546875 31.4375 
Q 44.53125 27.734375 44.328125 23.4375 
Q 44.140625 19.140625 42.578125 14.640625 
Q 41.015625 10.15625 37.890625 7.21875 
Q 34.765625 4.296875 30.265625 2.53125 
Q 25.78125 0.78125 19.921875 1.171875 
Q 14.0625 1.5625 8.78125 5.46875 
Q 3.515625 9.375 1.5625 18.75 
z
" id="SimHei-53"/>
      </defs>
      <g transform="translate(170.006417 238.515)scale(0.1 -0.1)">
       <use xlink:href="#SimHei-51"/>
       <use x="50" xlink:href="#SimHei-53"/>
       <use x="100" xlink:href="#SimHei-54"/>
      </g>
     </g>
    </g>
    <g id="xtick_13">
     <g id="line2d_13">
      <g>
       <use style="stroke:#000000;stroke-width:0.8;" x="188.696257" xlink:href="#m7f36209269" y="224.64"/>
      </g>
     </g>
     <g id="text_13">
      <!-- 351 -->
      <g transform="translate(181.196257 238.515)scale(0.1 -0.1)">
       <use xlink:href="#SimHei-51"/>
       <use x="50" xlink:href="#SimHei-53"/>
       <use x="100" xlink:href="#SimHei-49"/>
      </g>
     </g>
    </g>
    <g id="xtick_14">
     <g id="line2d_14">
      <g>
       <use style="stroke:#000000;stroke-width:0.8;" x="199.886096" xlink:href="#m7f36209269" y="224.64"/>
      </g>
     </g>
     <g id="text_14">
      <!-- 346 -->
      <g transform="translate(192.386096 238.515)scale(0.1 -0.1)">
       <use xlink:href="#SimHei-51"/>
       <use x="50" xlink:href="#SimHei-52"/>
       <use x="100" xlink:href="#SimHei-54"/>
      </g>
     </g>
    </g>
    <g id="xtick_15">
     <g id="line2d_15">
      <g>
       <use style="stroke:#000000;stroke-width:0.8;" x="211.075936" xlink:href="#m7f36209269" y="224.64"/>
      </g>
     </g>
     <g id="text_15">
      <!-- 341 -->
      <g transform="translate(203.575936 238.515)scale(0.1 -0.1)">
       <use xlink:href="#SimHei-51"/>
       <use x="50" xlink:href="#SimHei-52"/>
       <use x="100" xlink:href="#SimHei-49"/>
      </g>
     </g>
    </g>
    <g id="xtick_16">
     <g id="line2d_16">
      <g>
       <use style="stroke:#000000;stroke-width:0.8;" x="222.265775" xlink:href="#m7f36209269" y="224.64"/>
      </g>
     </g>
     <g id="text_16">
      <!-- 336 -->
      <g transform="translate(214.765775 238.515)scale(0.1 -0.1)">
       <use xlink:href="#SimHei-51"/>
       <use x="50" xlink:href="#SimHei-51"/>
       <use x="100" xlink:href="#SimHei-54"/>
      </g>
     </g>
    </g>
    <g id="xtick_17">
     <g id="line2d_17">
      <g>
       <use style="stroke:#000000;stroke-width:0.8;" x="233.455615" xlink:href="#m7f36209269" y="224.64"/>
      </g>
     </g>
     <g id="text_17">
      <!-- 331 -->
      <g transform="translate(225.955615 238.515)scale(0.1 -0.1)">
       <use xlink:href="#SimHei-51"/>
       <use x="50" xlink:href="#SimHei-51"/>
       <use x="100" xlink:href="#SimHei-49"/>
      </g>
     </g>
    </g>
    <g id="xtick_18">
     <g id="line2d_18">
      <g>
       <use style="stroke:#000000;stroke-width:0.8;" x="244.645455" xlink:href="#m7f36209269" y="224.64"/>
      </g>
     </g>
     <g id="text_18">
      <!-- 326 -->
      <defs>
       <path d="M 4.6875 3.90625 
Q 5.078125 9.765625 10.15625 14.453125 
Q 15.234375 19.140625 23.046875 29.09375 
Q 30.859375 39.0625 33.203125 44.53125 
Q 35.546875 50 34.953125 53.90625 
Q 34.375 57.8125 31.25 60.34375 
Q 28.125 62.890625 24.015625 62.5 
Q 19.921875 62.109375 16.203125 59.375 
Q 12.5 56.640625 10.546875 51.171875 
L 3.125 52.34375 
Q 6.25 61.328125 11.125 65.421875 
Q 16.015625 69.53125 22.65625 69.921875 
Q 26.5625 70.3125 29.6875 69.71875 
Q 32.8125 69.140625 36.125 66.984375 
Q 39.453125 64.84375 41.59375 60.546875 
Q 43.75 56.25 43.15625 50.1875 
Q 42.578125 44.140625 37.109375 35.734375 
Q 31.640625 27.34375 16.015625 9.375 
L 44.140625 9.375 
L 44.140625 2.34375 
L 4.6875 2.34375 
z
" id="SimHei-50"/>
      </defs>
      <g transform="translate(237.145455 238.515)scale(0.1 -0.1)">
       <use xlink:href="#SimHei-51"/>
       <use x="50" xlink:href="#SimHei-50"/>
       <use x="100" xlink:href="#SimHei-54"/>
      </g>
     </g>
    </g>
    <g id="xtick_19">
     <g id="line2d_19">
      <g>
       <use style="stroke:#000000;stroke-width:0.8;" x="255.835294" xlink:href="#m7f36209269" y="224.64"/>
      </g>
     </g>
     <g id="text_19">
      <!-- 321 -->
      <g transform="translate(248.335294 238.515)scale(0.1 -0.1)">
       <use xlink:href="#SimHei-51"/>
       <use x="50" xlink:href="#SimHei-50"/>
       <use x="100" xlink:href="#SimHei-49"/>
      </g>
     </g>
    </g>
    <g id="xtick_20">
     <g id="line2d_20">
      <g>
       <use style="stroke:#000000;stroke-width:0.8;" x="267.025134" xlink:href="#m7f36209269" y="224.64"/>
      </g>
     </g>
     <g id="text_20">
      <!-- 316 -->
      <g transform="translate(259.525134 238.515)scale(0.1 -0.1)">
       <use xlink:href="#SimHei-51"/>
       <use x="50" xlink:href="#SimHei-49"/>
       <use x="100" xlink:href="#SimHei-54"/>
      </g>
     </g>
    </g>
    <g id="xtick_21">
     <g id="line2d_21">
      <g>
       <use style="stroke:#000000;stroke-width:0.8;" x="278.214973" xlink:href="#m7f36209269" y="224.64"/>
      </g>
     </g>
     <g id="text_21">
      <!-- 311 -->
      <g transform="translate(270.714973 238.515)scale(0.1 -0.1)">
       <use xlink:href="#SimHei-51"/>
       <use x="50" xlink:href="#SimHei-49"/>
       <use x="100" xlink:href="#SimHei-49"/>
      </g>
     </g>
    </g>
    <g id="xtick_22">
     <g id="line2d_22">
      <g>
       <use style="stroke:#000000;stroke-width:0.8;" x="289.404813" xlink:href="#m7f36209269" y="224.64"/>
      </g>
     </g>
     <g id="text_22">
      <!-- 306 -->
      <g transform="translate(281.904813 238.515)scale(0.1 -0.1)">
       <use xlink:href="#SimHei-51"/>
       <use x="50" xlink:href="#SimHei-48"/>
       <use x="100" xlink:href="#SimHei-54"/>
      </g>
     </g>
    </g>
    <g id="xtick_23">
     <g id="line2d_23">
      <g>
       <use style="stroke:#000000;stroke-width:0.8;" x="300.594652" xlink:href="#m7f36209269" y="224.64"/>
      </g>
     </g>
     <g id="text_23">
      <!-- 301 -->
      <g transform="translate(293.094652 238.515)scale(0.1 -0.1)">
       <use xlink:href="#SimHei-51"/>
       <use x="50" xlink:href="#SimHei-48"/>
       <use x="100" xlink:href="#SimHei-49"/>
      </g>
     </g>
    </g>
    <g id="xtick_24">
     <g id="line2d_24">
      <g>
       <use style="stroke:#000000;stroke-width:0.8;" x="311.784492" xlink:href="#m7f36209269" y="224.64"/>
      </g>
     </g>
     <g id="text_24">
      <!-- 296 -->
      <g transform="translate(304.284492 238.515)scale(0.1 -0.1)">
       <use xlink:href="#SimHei-50"/>
       <use x="50" xlink:href="#SimHei-57"/>
       <use x="100" xlink:href="#SimHei-54"/>
      </g>
     </g>
    </g>
    <g id="xtick_25">
     <g id="line2d_25">
      <g>
       <use style="stroke:#000000;stroke-width:0.8;" x="322.974332" xlink:href="#m7f36209269" y="224.64"/>
      </g>
     </g>
     <g id="text_25">
      <!-- 291 -->
      <g transform="translate(315.474332 238.515)scale(0.1 -0.1)">
       <use xlink:href="#SimHei-50"/>
       <use x="50" xlink:href="#SimHei-57"/>
       <use x="100" xlink:href="#SimHei-49"/>
      </g>
     </g>
    </g>
    <g id="xtick_26">
     <g id="line2d_26">
      <g>
       <use style="stroke:#000000;stroke-width:0.8;" x="334.164171" xlink:href="#m7f36209269" y="224.64"/>
      </g>
     </g>
     <g id="text_26">
      <!-- 286 -->
      <g transform="translate(326.664171 238.515)scale(0.1 -0.1)">
       <use xlink:href="#SimHei-50"/>
       <use x="50" xlink:href="#SimHei-56"/>
       <use x="100" xlink:href="#SimHei-54"/>
      </g>
     </g>
    </g>
    <g id="xtick_27">
     <g id="line2d_27">
      <g>
       <use style="stroke:#000000;stroke-width:0.8;" x="345.354011" xlink:href="#m7f36209269" y="224.64"/>
      </g>
     </g>
     <g id="text_27">
      <!-- 281 -->
      <g transform="translate(337.854011 238.515)scale(0.1 -0.1)">
       <use xlink:href="#SimHei-50"/>
       <use x="50" xlink:href="#SimHei-56"/>
       <use x="100" xlink:href="#SimHei-49"/>
      </g>
     </g>
    </g>
    <g id="xtick_28">
     <g id="line2d_28">
      <g>
       <use style="stroke:#000000;stroke-width:0.8;" x="356.54385" xlink:href="#m7f36209269" y="224.64"/>
      </g>
     </g>
     <g id="text_28">
      <!-- 276 -->
      <g transform="translate(349.04385 238.515)scale(0.1 -0.1)">
       <use xlink:href="#SimHei-50"/>
       <use x="50" xlink:href="#SimHei-55"/>
       <use x="100" xlink:href="#SimHei-54"/>
      </g>
     </g>
    </g>
   </g>
   <g id="matplotlib.axis_2">
    <g id="ytick_1">
     <g id="line2d_29">
      <defs>
       <path d="M 0 0 
L -3.5 0 
" id="mc1be342380" style="stroke:#000000;stroke-width:0.8;"/>
      </defs>
      <g>
       <use style="stroke:#000000;stroke-width:0.8;" x="39.2" xlink:href="#mc1be342380" y="216.83259"/>
      </g>
     </g>
     <g id="text_29">
      <!-- 0.000 -->
      <defs>
       <path d="M 16.796875 1.953125 
L 7.8125 1.953125 
L 7.8125 10.546875 
L 16.796875 10.546875 
z
" id="SimHei-46"/>
      </defs>
      <g transform="translate(7.2 220.27009)scale(0.1 -0.1)">
       <use xlink:href="#SimHei-48"/>
       <use x="50" xlink:href="#SimHei-46"/>
       <use x="100" xlink:href="#SimHei-48"/>
       <use x="150" xlink:href="#SimHei-48"/>
       <use x="200" xlink:href="#SimHei-48"/>
      </g>
     </g>
    </g>
    <g id="ytick_2">
     <g id="line2d_30">
      <g>
       <use style="stroke:#000000;stroke-width:0.8;" x="39.2" xlink:href="#mc1be342380" y="189.68764"/>
      </g>
     </g>
     <g id="text_30">
      <!-- 0.002 -->
      <g transform="translate(7.2 193.12514)scale(0.1 -0.1)">
       <use xlink:href="#SimHei-48"/>
       <use x="50" xlink:href="#SimHei-46"/>
       <use x="100" xlink:href="#SimHei-48"/>
       <use x="150" xlink:href="#SimHei-48"/>
       <use x="200" xlink:href="#SimHei-50"/>
      </g>
     </g>
    </g>
    <g id="ytick_3">
     <g id="line2d_31">
      <g>
       <use style="stroke:#000000;stroke-width:0.8;" x="39.2" xlink:href="#mc1be342380" y="162.54269"/>
      </g>
     </g>
     <g id="text_31">
      <!-- 0.004 -->
      <g transform="translate(7.2 165.98019)scale(0.1 -0.1)">
       <use xlink:href="#SimHei-48"/>
       <use x="50" xlink:href="#SimHei-46"/>
       <use x="100" xlink:href="#SimHei-48"/>
       <use x="150" xlink:href="#SimHei-48"/>
       <use x="200" xlink:href="#SimHei-52"/>
      </g>
     </g>
    </g>
    <g id="ytick_4">
     <g id="line2d_32">
      <g>
       <use style="stroke:#000000;stroke-width:0.8;" x="39.2" xlink:href="#mc1be342380" y="135.39774"/>
      </g>
     </g>
     <g id="text_32">
      <!-- 0.006 -->
      <g transform="translate(7.2 138.83524)scale(0.1 -0.1)">
       <use xlink:href="#SimHei-48"/>
       <use x="50" xlink:href="#SimHei-46"/>
       <use x="100" xlink:href="#SimHei-48"/>
       <use x="150" xlink:href="#SimHei-48"/>
       <use x="200" xlink:href="#SimHei-54"/>
      </g>
     </g>
    </g>
    <g id="ytick_5">
     <g id="line2d_33">
      <g>
       <use style="stroke:#000000;stroke-width:0.8;" x="39.2" xlink:href="#mc1be342380" y="108.25279"/>
      </g>
     </g>
     <g id="text_33">
      <!-- 0.008 -->
      <g transform="translate(7.2 111.69029)scale(0.1 -0.1)">
       <use xlink:href="#SimHei-48"/>
       <use x="50" xlink:href="#SimHei-46"/>
       <use x="100" xlink:href="#SimHei-48"/>
       <use x="150" xlink:href="#SimHei-48"/>
       <use x="200" xlink:href="#SimHei-56"/>
      </g>
     </g>
    </g>
    <g id="ytick_6">
     <g id="line2d_34">
      <g>
       <use style="stroke:#000000;stroke-width:0.8;" x="39.2" xlink:href="#mc1be342380" y="81.107839"/>
      </g>
     </g>
     <g id="text_34">
      <!-- 0.010 -->
      <g transform="translate(7.2 84.545339)scale(0.1 -0.1)">
       <use xlink:href="#SimHei-48"/>
       <use x="50" xlink:href="#SimHei-46"/>
       <use x="100" xlink:href="#SimHei-48"/>
       <use x="150" xlink:href="#SimHei-49"/>
       <use x="200" xlink:href="#SimHei-48"/>
      </g>
     </g>
    </g>
    <g id="ytick_7">
     <g id="line2d_35">
      <g>
       <use style="stroke:#000000;stroke-width:0.8;" x="39.2" xlink:href="#mc1be342380" y="53.962889"/>
      </g>
     </g>
     <g id="text_35">
      <!-- 0.012 -->
      <g transform="translate(7.2 57.400389)scale(0.1 -0.1)">
       <use xlink:href="#SimHei-48"/>
       <use x="50" xlink:href="#SimHei-46"/>
       <use x="100" xlink:href="#SimHei-48"/>
       <use x="150" xlink:href="#SimHei-49"/>
       <use x="200" xlink:href="#SimHei-50"/>
      </g>
     </g>
    </g>
    <g id="ytick_8">
     <g id="line2d_36">
      <g>
       <use style="stroke:#000000;stroke-width:0.8;" x="39.2" xlink:href="#mc1be342380" y="26.817939"/>
      </g>
     </g>
     <g id="text_36">
      <!-- 0.014 -->
      <g transform="translate(7.2 30.255439)scale(0.1 -0.1)">
       <use xlink:href="#SimHei-48"/>
       <use x="50" xlink:href="#SimHei-46"/>
       <use x="100" xlink:href="#SimHei-48"/>
       <use x="150" xlink:href="#SimHei-49"/>
       <use x="200" xlink:href="#SimHei-52"/>
      </g>
     </g>
    </g>
   </g>
   <g id="line2d_37">
    <path clip-path="url(#pfe7672fd41)" d="M 54.418182 207.263893 
L 56.65615 214.756364 
L 58.894118 214.666093 
L 61.132086 214.756364 
L 65.608021 213.402303 
L 67.845989 212.319054 
L 70.083957 211.8677 
L 72.321925 211.957971 
L 74.559893 209.791473 
L 76.797861 210.242827 
L 79.035829 209.791473 
L 81.273797 208.07633 
L 83.511765 208.256871 
L 85.749733 206.270915 
L 87.987701 204.916854 
L 90.225668 204.284959 
L 92.463636 202.208732 
L 94.701604 202.569815 
L 96.939572 201.576837 
L 99.17754 198.417361 
L 101.415508 194.264908 
L 103.653476 193.813554 
L 105.891444 193.091388 
L 108.129412 189.390288 
L 110.36738 187.675145 
L 112.605348 186.140542 
L 114.843316 183.34215 
L 117.081283 180.182674 
L 119.319251 177.655094 
L 121.557219 172.961016 
L 123.795187 172.690203 
L 126.033155 166.280982 
L 128.271123 164.114484 
L 130.509091 163.753401 
L 132.747059 159.239865 
L 134.985027 153.823621 
L 137.222995 150.934957 
L 139.460963 147.053316 
L 141.69893 145.428443 
L 143.936898 142.63005 
L 146.174866 134.054331 
L 150.650802 127.73538 
L 152.88877 122.680219 
L 155.126738 122.86076 
L 157.364706 115.729373 
L 159.602674 112.569897 
L 161.840642 108.327173 
L 164.07861 105.257968 
L 166.316578 100.022266 
L 168.554545 99.209829 
L 170.792513 88.287071 
L 173.030481 90.543839 
L 175.268449 81.787578 
L 177.506417 77.0935 
L 179.744385 75.107544 
L 181.982353 76.461605 
L 184.220321 73.031317 
L 186.458289 64.455598 
L 188.696257 66.531825 
L 190.934225 56.963127 
L 193.172193 57.595022 
L 195.41016 53.893922 
L 197.648128 50.734447 
L 199.886096 50.192823 
L 202.124064 50.463635 
L 204.362032 51.366342 
L 206.6 41.346291 
L 208.837968 39.360335 
L 211.075936 35.478694 
L 213.313904 33.131655 
L 215.551872 38.638169 
L 217.78984 32.048406 
L 220.027807 35.659235 
L 222.265775 35.749506 
L 224.503743 36.652213 
L 226.741711 35.298152 
L 228.979679 37.735462 
L 231.217647 36.471672 
L 233.455615 30.604074 
L 235.693583 44.686308 
L 237.931551 41.797645 
L 240.169519 39.811689 
L 242.407487 38.908981 
L 244.645455 38.638169 
L 246.883422 40.894937 
L 249.12139 42.700352 
L 251.359358 45.227932 
L 253.597326 51.366342 
L 255.835294 51.907966 
L 258.073262 49.470657 
L 260.31123 49.92201 
L 262.549198 55.428525 
L 267.025134 56.963127 
L 269.263102 65.9902 
L 271.50107 63.733432 
L 273.739037 75.017273 
L 275.977005 76.912959 
L 278.214973 72.399422 
L 280.452941 72.489693 
L 282.690909 83.773534 
L 284.928877 83.683263 
L 287.166845 88.1968 
L 289.404813 94.064397 
L 291.642781 91.085463 
L 293.880749 93.793585 
L 296.118717 99.931995 
L 298.356684 103.542824 
L 300.594652 103.0012 
L 302.83262 105.52878 
L 305.070588 109.861775 
L 307.308556 109.320151 
L 309.546524 116.090456 
L 311.784492 115.819643 
L 314.02246 114.826665 
L 316.260428 122.319136 
L 318.498396 122.86076 
L 320.736364 127.915921 
L 322.974332 127.554838 
L 325.212299 129.721336 
L 327.450267 133.602977 
L 329.688235 133.422436 
L 331.926203 140.373282 
L 334.164171 138.748409 
L 336.402139 141.005177 
L 338.640107 142.268967 
L 340.878075 149.400355 
L 343.116043 151.386311 
L 345.354011 153.101455 
L 347.591979 158.878782 
L 349.829947 158.156616 
L 352.067914 159.781489 
L 354.305882 157.253909 
L 356.54385 159.059323 
L 358.781818 165.649086 
L 358.781818 165.649086 
" style="fill:none;stroke:#1f77b4;stroke-linecap:square;stroke-width:1.5;"/>
   </g>
   <g id="line2d_38">
    <path clip-path="url(#pfe7672fd41)" d="M 54.418182 214.179875 
L 61.132086 213.182157 
L 65.608021 212.346948 
L 70.083957 211.350574 
L 74.559893 210.169256 
L 79.035829 208.777351 
L 83.511765 207.147564 
L 87.987701 205.251254 
L 92.463636 203.058843 
L 96.939572 200.540341 
L 101.415508 197.665969 
L 105.891444 194.406913 
L 110.36738 190.736158 
L 114.843316 186.62944 
L 119.319251 182.066259 
L 123.795187 177.030944 
L 128.271123 171.513755 
L 132.747059 165.51196 
L 137.222995 159.030871 
L 141.69893 152.084783 
L 146.174866 144.697778 
L 150.650802 136.904343 
L 155.126738 128.749772 
L 161.840642 115.966728 
L 170.792513 98.272302 
L 181.982353 76.103805 
L 188.696257 63.386524 
L 193.172193 55.378621 
L 197.648128 47.875187 
L 202.124064 40.983039 
L 206.6 34.803484 
L 208.837968 32.01047 
L 211.075936 29.429847 
L 213.313904 27.07165 
L 215.551872 24.945133 
L 217.78984 23.058711 
L 220.027807 21.419899 
L 222.265775 20.03527 
L 224.503743 18.910404 
L 226.741711 18.049855 
L 228.979679 17.457118 
L 231.217647 17.134607 
L 233.455615 17.083636 
L 235.693583 17.304415 
L 237.931551 17.796041 
L 240.169519 18.556512 
L 242.407487 19.582737 
L 244.645455 20.870554 
L 246.883422 22.414765 
L 249.12139 24.209165 
L 251.359358 26.246585 
L 253.597326 28.518943 
L 255.835294 31.017292 
L 258.073262 33.731882 
L 260.31123 36.652224 
L 264.787166 43.064912 
L 269.263102 50.159278 
L 273.739037 57.832025 
L 278.214973 65.975125 
L 284.928877 78.830507 
L 296.118717 101.062942 
L 305.070588 118.675454 
L 311.784492 131.333688 
L 316.260428 139.380931 
L 320.736364 147.051709 
L 325.212299 154.304133 
L 329.688235 161.107022 
L 334.164171 167.439427 
L 338.640107 173.289956 
L 343.116043 178.655915 
L 347.591979 183.542341 
L 352.067914 187.960946 
L 356.54385 191.929025 
L 358.781818 193.750781 
L 358.781818 193.750781 
" style="fill:none;stroke:#ff7f0e;stroke-linecap:square;stroke-width:1.5;"/>
   </g>
   <g id="patch_3">
    <path d="M 39.2 224.64 
L 39.2 7.2 
" style="fill:none;stroke:#000000;stroke-linecap:square;stroke-linejoin:miter;stroke-width:0.8;"/>
   </g>
   <g id="patch_4">
    <path d="M 374 224.64 
L 374 7.2 
" style="fill:none;stroke:#000000;stroke-linecap:square;stroke-linejoin:miter;stroke-width:0.8;"/>
   </g>
   <g id="patch_5">
    <path d="M 39.2 224.64 
L 374 224.64 
" style="fill:none;stroke:#000000;stroke-linecap:square;stroke-linejoin:miter;stroke-width:0.8;"/>
   </g>
   <g id="patch_6">
    <path d="M 39.2 7.2 
L 374 7.2 
" style="fill:none;stroke:#000000;stroke-linecap:square;stroke-linejoin:miter;stroke-width:0.8;"/>
   </g>
  </g>
 </g>
 <defs>
  <clipPath id="pfe7672fd41">
   <rect height="217.44" width="334.8" x="39.2" y="7.2"/>
  </clipPath>
 </defs>
</svg>
