<?xml version="1.0" encoding="utf-8" standalone="no"?>
<!DOCTYPE svg PUBLIC "-//W3C//DTD SVG 1.1//EN"
  "http://www.w3.org/Graphics/SVG/1.1/DTD/svg11.dtd">
<!-- Created with matplotlib (https://matplotlib.org/) -->
<svg height="275.894687pt" version="1.1" viewBox="0 0 394.496875 275.894687" width="394.496875pt" xmlns="http://www.w3.org/2000/svg" xmlns:xlink="http://www.w3.org/1999/xlink">
 <defs>
  <style type="text/css">
*{stroke-linecap:butt;stroke-linejoin:round;}
  </style>
 </defs>
 <g id="figure_1">
  <g id="patch_1">
   <path d="M 0 275.894687 
L 394.496875 275.894687 
L 394.496875 0 
L 0 0 
z
" style="fill:none;"/>
  </g>
  <g id="axes_1">
   <g id="patch_2">
    <path d="M 52.496875 121.786364 
L 387.296875 121.786364 
L 387.296875 22.95 
L 52.496875 22.95 
z
" style="fill:#ffffff;"/>
   </g>
   <g id="matplotlib.axis_1">
    <g id="xtick_1">
     <g id="line2d_1">
      <defs>
       <path d="M 0 0 
L 0 3.5 
" id="m96fbfc36d5" style="stroke:#000000;stroke-width:0.8;"/>
      </defs>
      <g>
       <use style="stroke:#000000;stroke-width:0.8;" x="52.496875" xlink:href="#m96fbfc36d5" y="121.786364"/>
      </g>
     </g>
     <g id="text_1">
      <!-- 200 -->
      <defs>
       <path d="M 4.6875 3.90625 
Q 5.078125 9.765625 10.15625 14.453125 
Q 15.234375 19.140625 23.046875 29.09375 
Q 30.859375 39.0625 33.203125 44.53125 
Q 35.546875 50 34.953125 53.90625 
Q 34.375 57.8125 31.25 60.34375 
Q 28.125 62.890625 24.015625 62.5 
Q 19.921875 62.109375 16.203125 59.375 
Q 12.5 56.640625 10.546875 51.171875 
L 3.125 52.34375 
Q 6.25 61.328125 11.125 65.421875 
Q 16.015625 69.53125 22.65625 69.921875 
Q 26.5625 70.3125 29.6875 69.71875 
Q 32.8125 69.140625 36.125 66.984375 
Q 39.453125 64.84375 41.59375 60.546875 
Q 43.75 56.25 43.15625 50.1875 
Q 42.578125 44.140625 37.109375 35.734375 
Q 31.640625 27.34375 16.015625 9.375 
L 44.140625 9.375 
L 44.140625 2.34375 
L 4.6875 2.34375 
z
" id="SimHei-50"/>
       <path d="M 3.125 29.296875 
Q 3.90625 50 6.4375 56.046875 
Q 8.984375 62.109375 13.671875 66.015625 
Q 18.359375 69.921875 25.1875 69.921875 
Q 32.03125 69.921875 37.109375 64.25 
Q 42.1875 58.59375 43.75 50 
Q 45.3125 41.40625 44.71875 30.265625 
Q 44.140625 19.140625 40.8125 12.109375 
Q 37.5 5.078125 30.859375 2.34375 
Q 24.21875 -0.390625 17.578125 2.921875 
Q 10.9375 6.25 8.203125 11.71875 
Q 5.46875 17.1875 4.296875 23.234375 
Q 3.125 29.296875 3.90625 50 
z
M 12.890625 52.734375 
Q 10.546875 31.25 12.5 22.84375 
Q 14.453125 14.453125 18.9375 10.9375 
Q 23.4375 7.421875 28.125 9.5625 
Q 32.8125 11.71875 34.953125 18.15625 
Q 37.109375 24.609375 37.109375 32.21875 
Q 37.109375 39.84375 36.515625 46.09375 
Q 35.9375 52.34375 33 57.421875 
Q 30.078125 62.5 25.1875 62.6875 
Q 20.3125 62.890625 16.59375 57.8125 
Q 12.890625 52.734375 10.546875 31.25 
z
" id="SimHei-48"/>
      </defs>
      <g transform="translate(44.996875 135.661364)scale(0.1 -0.1)">
       <use xlink:href="#SimHei-50"/>
       <use x="50" xlink:href="#SimHei-48"/>
       <use x="100" xlink:href="#SimHei-48"/>
      </g>
     </g>
    </g>
    <g id="xtick_2">
     <g id="line2d_2">
      <g>
       <use style="stroke:#000000;stroke-width:0.8;" x="65.597745" xlink:href="#m96fbfc36d5" y="121.786364"/>
      </g>
     </g>
     <g id="text_2">
      <!-- 209 -->
      <defs>
       <path d="M 12.5 1.171875 
Q 21.09375 15.625 26.5625 27.34375 
Q 16.796875 25.78125 10.34375 29.875 
Q 3.90625 33.984375 2.53125 41.015625 
Q 1.171875 48.046875 2.734375 53.703125 
Q 4.296875 59.375 7.609375 63.078125 
Q 10.9375 66.796875 15.625 68.359375 
Q 20.3125 69.921875 24.015625 69.921875 
Q 27.734375 69.921875 31.640625 68.359375 
Q 35.546875 66.796875 38.671875 63.671875 
Q 41.796875 60.546875 42.96875 57.21875 
Q 44.140625 53.90625 44.140625 48.625 
Q 44.140625 43.359375 40.234375 35.15625 
Q 36.328125 26.953125 21.09375 1.171875 
z
M 9.765625 50 
Q 10.9375 39.84375 14.640625 36.515625 
Q 18.359375 33.203125 22.65625 33.59375 
Q 26.953125 33.984375 29.484375 35.9375 
Q 32.03125 37.890625 34.375 42.578125 
Q 35.9375 48.4375 35.15625 52.53125 
Q 34.375 56.640625 31.046875 59.375 
Q 27.734375 62.109375 23.828125 62.109375 
Q 21.484375 62.5 17.765625 60.9375 
Q 14.0625 59.375 11.90625 54.6875 
Q 9.765625 50 10.9375 39.84375 
z
" id="SimHei-57"/>
      </defs>
      <g transform="translate(58.097745 135.661364)scale(0.1 -0.1)">
       <use xlink:href="#SimHei-50"/>
       <use x="50" xlink:href="#SimHei-48"/>
       <use x="100" xlink:href="#SimHei-57"/>
      </g>
     </g>
    </g>
    <g id="xtick_3">
     <g id="line2d_3">
      <g>
       <use style="stroke:#000000;stroke-width:0.8;" x="78.698614" xlink:href="#m96fbfc36d5" y="121.786364"/>
      </g>
     </g>
     <g id="text_3">
      <!-- 218 -->
      <defs>
       <path d="M 21.875 56.25 
Q 16.796875 51.171875 8.984375 46.484375 
L 8.984375 53.90625 
Q 18.75 60.546875 25 69.53125 
L 29.6875 69.53125 
L 29.6875 2.34375 
L 21.875 2.34375 
z
" id="SimHei-49"/>
       <path d="M 2.734375 16.796875 
Q 2.734375 26.171875 5.078125 30.65625 
Q 7.421875 35.15625 12.890625 37.890625 
Q 8.203125 40.625 6.640625 43.9375 
Q 5.078125 47.265625 4.875 51.5625 
Q 4.6875 55.859375 6.046875 58.984375 
Q 7.421875 62.109375 10.15625 64.84375 
Q 12.890625 67.578125 16.203125 68.546875 
Q 19.53125 69.53125 23.4375 69.53125 
Q 27.34375 69.53125 30.46875 68.75 
Q 33.59375 67.96875 37.109375 65.421875 
Q 40.625 62.890625 42.1875 58.203125 
Q 43.75 53.515625 41.984375 47.265625 
Q 40.234375 41.015625 32.8125 37.5 
Q 39.453125 35.546875 42.1875 31.4375 
Q 44.921875 27.34375 44.921875 21.484375 
Q 44.921875 15.625 43.15625 12.109375 
Q 41.40625 8.59375 39.25 6.25 
Q 37.109375 3.90625 33.390625 2.53125 
Q 29.6875 1.171875 24.015625 1.171875 
Q 18.359375 1.171875 14.25 2.53125 
Q 10.15625 3.90625 7.421875 6.640625 
Q 4.6875 9.375 3.703125 13.078125 
Q 2.734375 16.796875 2.734375 26.171875 
z
M 10.9375 26.5625 
Q 10.546875 17.1875 12.296875 13.671875 
Q 14.0625 10.15625 18.75 9.171875 
Q 23.4375 8.203125 28.515625 9.375 
Q 33.59375 10.546875 35.546875 14.84375 
Q 37.5 19.140625 36.90625 23.4375 
Q 36.328125 27.734375 32.03125 30.65625 
Q 27.734375 33.59375 22.65625 33.203125 
Q 17.578125 32.8125 14.25 29.6875 
Q 10.9375 26.5625 10.546875 17.1875 
z
M 12.109375 56.25 
Q 12.109375 48.4375 14.84375 44.921875 
Q 17.578125 41.40625 23.4375 41.40625 
Q 29.296875 41.40625 32.21875 44.921875 
Q 35.15625 48.4375 34.953125 53.3125 
Q 34.765625 58.203125 31.4375 60.546875 
Q 28.125 62.890625 22.453125 62.5 
Q 16.796875 62.109375 14.453125 59.171875 
Q 12.109375 56.25 12.109375 48.4375 
z
" id="SimHei-56"/>
      </defs>
      <g transform="translate(71.198614 135.661364)scale(0.1 -0.1)">
       <use xlink:href="#SimHei-50"/>
       <use x="50" xlink:href="#SimHei-49"/>
       <use x="100" xlink:href="#SimHei-56"/>
      </g>
     </g>
    </g>
    <g id="xtick_4">
     <g id="line2d_4">
      <g>
       <use style="stroke:#000000;stroke-width:0.8;" x="91.799484" xlink:href="#m96fbfc36d5" y="121.786364"/>
      </g>
     </g>
     <g id="text_4">
      <!-- 227 -->
      <defs>
       <path d="M 13.28125 2.34375 
Q 20.3125 32.03125 37.890625 61.328125 
L 4.296875 61.328125 
L 4.296875 68.359375 
L 46.09375 68.359375 
L 46.09375 61.71875 
Q 27.734375 32.03125 21.875 2.34375 
L 13.28125 2.34375 
z
" id="SimHei-55"/>
      </defs>
      <g transform="translate(84.299484 135.661364)scale(0.1 -0.1)">
       <use xlink:href="#SimHei-50"/>
       <use x="50" xlink:href="#SimHei-50"/>
       <use x="100" xlink:href="#SimHei-55"/>
      </g>
     </g>
    </g>
    <g id="xtick_5">
     <g id="line2d_5">
      <g>
       <use style="stroke:#000000;stroke-width:0.8;" x="104.900353" xlink:href="#m96fbfc36d5" y="121.786364"/>
      </g>
     </g>
     <g id="text_5">
      <!-- 236 -->
      <defs>
       <path d="M 3.90625 19.140625 
L 10.9375 20.3125 
Q 12.5 15.234375 16.015625 11.90625 
Q 19.53125 8.59375 24.796875 8.78125 
Q 30.078125 8.984375 33.203125 13.078125 
Q 36.328125 17.1875 35.9375 22.453125 
Q 35.546875 27.734375 31.828125 30.65625 
Q 28.125 33.59375 19.921875 34.765625 
L 19.921875 39.84375 
Q 28.125 40.625 31.828125 44.140625 
Q 35.546875 47.65625 35.15625 53.3125 
Q 34.765625 58.984375 30.078125 61.515625 
Q 25.390625 64.0625 20.109375 62.109375 
Q 14.84375 60.15625 11.71875 51.171875 
L 4.6875 52.34375 
Q 7.03125 59.375 11.125 64.0625 
Q 15.234375 68.75 22.265625 69.53125 
Q 29.296875 70.3125 34.5625 67.765625 
Q 39.84375 65.234375 41.984375 59.953125 
Q 44.140625 54.6875 42.578125 48.4375 
Q 41.015625 42.1875 33.59375 37.5 
Q 39.0625 35.15625 41.984375 30.46875 
Q 44.921875 25.78125 43.9375 18.15625 
Q 42.96875 10.546875 37.109375 5.859375 
Q 31.25 1.171875 23.828125 1.359375 
Q 16.40625 1.5625 10.9375 6.046875 
Q 5.46875 10.546875 3.90625 19.140625 
z
" id="SimHei-51"/>
       <path d="M 3.515625 19.53125 
Q 4.296875 30.859375 6.046875 34.765625 
Q 7.8125 38.671875 11.328125 44.53125 
L 27.34375 69.53125 
L 36.328125 69.53125 
L 19.921875 43.75 
Q 30.46875 46.484375 36.71875 42.96875 
Q 42.96875 39.453125 45.109375 34.953125 
Q 47.265625 30.46875 47.453125 25.1875 
Q 47.65625 19.921875 45.890625 14.84375 
Q 44.140625 9.765625 39.640625 5.65625 
Q 35.15625 1.5625 27.140625 1.171875 
Q 19.140625 0.78125 13.46875 4.09375 
Q 7.8125 7.421875 5.65625 13.46875 
Q 3.515625 19.53125 4.296875 30.859375 
z
M 12.5 16.015625 
Q 19.53125 8.59375 25.390625 8.203125 
Q 31.25 7.8125 35.15625 12.109375 
Q 39.0625 16.40625 39.0625 24.609375 
Q 39.0625 32.8125 34.171875 35.9375 
Q 29.296875 39.0625 23.234375 38.28125 
Q 17.1875 37.5 14.453125 32.421875 
Q 11.71875 27.34375 12.109375 21.671875 
Q 12.5 16.015625 19.53125 8.59375 
z
" id="SimHei-54"/>
      </defs>
      <g transform="translate(97.400353 135.661364)scale(0.1 -0.1)">
       <use xlink:href="#SimHei-50"/>
       <use x="50" xlink:href="#SimHei-51"/>
       <use x="100" xlink:href="#SimHei-54"/>
      </g>
     </g>
    </g>
    <g id="xtick_6">
     <g id="line2d_6">
      <g>
       <use style="stroke:#000000;stroke-width:0.8;" x="119.456875" xlink:href="#m96fbfc36d5" y="121.786364"/>
      </g>
     </g>
     <g id="text_6">
      <!-- 246 -->
      <defs>
       <path d="M 31.25 17.1875 
L 1.171875 17.1875 
L 1.171875 23.828125 
L 32.8125 69.53125 
L 38.671875 69.53125 
L 38.671875 23.828125 
L 48.046875 23.828125 
L 48.046875 17.1875 
L 38.671875 17.1875 
L 38.671875 2.34375 
L 31.25 2.34375 
z
M 31.25 23.828125 
L 31.25 54.6875 
L 9.375 23.828125 
z
" id="SimHei-52"/>
      </defs>
      <g transform="translate(111.956875 135.661364)scale(0.1 -0.1)">
       <use xlink:href="#SimHei-50"/>
       <use x="50" xlink:href="#SimHei-52"/>
       <use x="100" xlink:href="#SimHei-54"/>
      </g>
     </g>
    </g>
    <g id="xtick_7">
     <g id="line2d_7">
      <g>
       <use style="stroke:#000000;stroke-width:0.8;" x="132.557745" xlink:href="#m96fbfc36d5" y="121.786364"/>
      </g>
     </g>
     <g id="text_7">
      <!-- 255 -->
      <defs>
       <path d="M 8.59375 20.703125 
Q 11.328125 10.15625 17.96875 8.984375 
Q 24.609375 7.8125 28.703125 10.34375 
Q 32.8125 12.890625 34.5625 16.984375 
Q 36.328125 21.09375 36.125 26.171875 
Q 35.9375 31.25 33.390625 34.765625 
Q 30.859375 38.28125 26.953125 39.453125 
Q 23.046875 40.625 18.15625 39.453125 
Q 13.28125 38.28125 10.15625 33.984375 
L 3.515625 34.765625 
Q 4.296875 37.109375 10.9375 68.359375 
L 41.796875 68.359375 
L 41.796875 61.328125 
L 16.796875 61.328125 
Q 14.84375 50.78125 12.890625 44.53125 
Q 18.75 47.265625 23.828125 47.0625 
Q 28.90625 46.875 33.59375 44.71875 
Q 38.28125 42.578125 40.421875 38.859375 
Q 42.578125 35.15625 43.546875 31.4375 
Q 44.53125 27.734375 44.328125 23.4375 
Q 44.140625 19.140625 42.578125 14.640625 
Q 41.015625 10.15625 37.890625 7.21875 
Q 34.765625 4.296875 30.265625 2.53125 
Q 25.78125 0.78125 19.921875 1.171875 
Q 14.0625 1.5625 8.78125 5.46875 
Q 3.515625 9.375 1.5625 18.75 
z
" id="SimHei-53"/>
      </defs>
      <g transform="translate(125.057745 135.661364)scale(0.1 -0.1)">
       <use xlink:href="#SimHei-50"/>
       <use x="50" xlink:href="#SimHei-53"/>
       <use x="100" xlink:href="#SimHei-53"/>
      </g>
     </g>
    </g>
    <g id="xtick_8">
     <g id="line2d_8">
      <g>
       <use style="stroke:#000000;stroke-width:0.8;" x="145.658614" xlink:href="#m96fbfc36d5" y="121.786364"/>
      </g>
     </g>
     <g id="text_8">
      <!-- 264 -->
      <g transform="translate(138.158614 135.661364)scale(0.1 -0.1)">
       <use xlink:href="#SimHei-50"/>
       <use x="50" xlink:href="#SimHei-54"/>
       <use x="100" xlink:href="#SimHei-52"/>
      </g>
     </g>
    </g>
    <g id="xtick_9">
     <g id="line2d_9">
      <g>
       <use style="stroke:#000000;stroke-width:0.8;" x="158.759484" xlink:href="#m96fbfc36d5" y="121.786364"/>
      </g>
     </g>
     <g id="text_9">
      <!-- 273 -->
      <g transform="translate(151.259484 135.661364)scale(0.1 -0.1)">
       <use xlink:href="#SimHei-50"/>
       <use x="50" xlink:href="#SimHei-55"/>
       <use x="100" xlink:href="#SimHei-51"/>
      </g>
     </g>
    </g>
    <g id="xtick_10">
     <g id="line2d_10">
      <g>
       <use style="stroke:#000000;stroke-width:0.8;" x="171.860353" xlink:href="#m96fbfc36d5" y="121.786364"/>
      </g>
     </g>
     <g id="text_10">
      <!-- 282 -->
      <g transform="translate(164.360353 135.661364)scale(0.1 -0.1)">
       <use xlink:href="#SimHei-50"/>
       <use x="50" xlink:href="#SimHei-56"/>
       <use x="100" xlink:href="#SimHei-50"/>
      </g>
     </g>
    </g>
    <g id="xtick_11">
     <g id="line2d_11">
      <g>
       <use style="stroke:#000000;stroke-width:0.8;" x="186.416875" xlink:href="#m96fbfc36d5" y="121.786364"/>
      </g>
     </g>
     <g id="text_11">
      <!-- 292 -->
      <g transform="translate(178.916875 135.661364)scale(0.1 -0.1)">
       <use xlink:href="#SimHei-50"/>
       <use x="50" xlink:href="#SimHei-57"/>
       <use x="100" xlink:href="#SimHei-50"/>
      </g>
     </g>
    </g>
    <g id="xtick_12">
     <g id="line2d_12">
      <g>
       <use style="stroke:#000000;stroke-width:0.8;" x="199.517745" xlink:href="#m96fbfc36d5" y="121.786364"/>
      </g>
     </g>
     <g id="text_12">
      <!-- 301 -->
      <g transform="translate(192.017745 135.661364)scale(0.1 -0.1)">
       <use xlink:href="#SimHei-51"/>
       <use x="50" xlink:href="#SimHei-48"/>
       <use x="100" xlink:href="#SimHei-49"/>
      </g>
     </g>
    </g>
    <g id="xtick_13">
     <g id="line2d_13">
      <g>
       <use style="stroke:#000000;stroke-width:0.8;" x="212.618614" xlink:href="#m96fbfc36d5" y="121.786364"/>
      </g>
     </g>
     <g id="text_13">
      <!-- 310 -->
      <g transform="translate(205.118614 135.661364)scale(0.1 -0.1)">
       <use xlink:href="#SimHei-51"/>
       <use x="50" xlink:href="#SimHei-49"/>
       <use x="100" xlink:href="#SimHei-48"/>
      </g>
     </g>
    </g>
    <g id="xtick_14">
     <g id="line2d_14">
      <g>
       <use style="stroke:#000000;stroke-width:0.8;" x="225.719484" xlink:href="#m96fbfc36d5" y="121.786364"/>
      </g>
     </g>
     <g id="text_14">
      <!-- 319 -->
      <g transform="translate(218.219484 135.661364)scale(0.1 -0.1)">
       <use xlink:href="#SimHei-51"/>
       <use x="50" xlink:href="#SimHei-49"/>
       <use x="100" xlink:href="#SimHei-57"/>
      </g>
     </g>
    </g>
    <g id="xtick_15">
     <g id="line2d_15">
      <g>
       <use style="stroke:#000000;stroke-width:0.8;" x="240.276005" xlink:href="#m96fbfc36d5" y="121.786364"/>
      </g>
     </g>
     <g id="text_15">
      <!-- 329 -->
      <g transform="translate(232.776005 135.661364)scale(0.1 -0.1)">
       <use xlink:href="#SimHei-51"/>
       <use x="50" xlink:href="#SimHei-50"/>
       <use x="100" xlink:href="#SimHei-57"/>
      </g>
     </g>
    </g>
    <g id="xtick_16">
     <g id="line2d_16">
      <g>
       <use style="stroke:#000000;stroke-width:0.8;" x="253.376875" xlink:href="#m96fbfc36d5" y="121.786364"/>
      </g>
     </g>
     <g id="text_16">
      <!-- 338 -->
      <g transform="translate(245.876875 135.661364)scale(0.1 -0.1)">
       <use xlink:href="#SimHei-51"/>
       <use x="50" xlink:href="#SimHei-51"/>
       <use x="100" xlink:href="#SimHei-56"/>
      </g>
     </g>
    </g>
    <g id="xtick_17">
     <g id="line2d_17">
      <g>
       <use style="stroke:#000000;stroke-width:0.8;" x="266.477745" xlink:href="#m96fbfc36d5" y="121.786364"/>
      </g>
     </g>
     <g id="text_17">
      <!-- 347 -->
      <g transform="translate(258.977745 135.661364)scale(0.1 -0.1)">
       <use xlink:href="#SimHei-51"/>
       <use x="50" xlink:href="#SimHei-52"/>
       <use x="100" xlink:href="#SimHei-55"/>
      </g>
     </g>
    </g>
    <g id="xtick_18">
     <g id="line2d_18">
      <g>
       <use style="stroke:#000000;stroke-width:0.8;" x="279.578614" xlink:href="#m96fbfc36d5" y="121.786364"/>
      </g>
     </g>
     <g id="text_18">
      <!-- 356 -->
      <g transform="translate(272.078614 135.661364)scale(0.1 -0.1)">
       <use xlink:href="#SimHei-51"/>
       <use x="50" xlink:href="#SimHei-53"/>
       <use x="100" xlink:href="#SimHei-54"/>
      </g>
     </g>
    </g>
    <g id="xtick_19">
     <g id="line2d_19">
      <g>
       <use style="stroke:#000000;stroke-width:0.8;" x="292.679484" xlink:href="#m96fbfc36d5" y="121.786364"/>
      </g>
     </g>
     <g id="text_19">
      <!-- 365 -->
      <g transform="translate(285.179484 135.661364)scale(0.1 -0.1)">
       <use xlink:href="#SimHei-51"/>
       <use x="50" xlink:href="#SimHei-54"/>
       <use x="100" xlink:href="#SimHei-53"/>
      </g>
     </g>
    </g>
    <g id="xtick_20">
     <g id="line2d_20">
      <g>
       <use style="stroke:#000000;stroke-width:0.8;" x="307.236005" xlink:href="#m96fbfc36d5" y="121.786364"/>
      </g>
     </g>
     <g id="text_20">
      <!-- 375 -->
      <g transform="translate(299.736005 135.661364)scale(0.1 -0.1)">
       <use xlink:href="#SimHei-51"/>
       <use x="50" xlink:href="#SimHei-55"/>
       <use x="100" xlink:href="#SimHei-53"/>
      </g>
     </g>
    </g>
    <g id="xtick_21">
     <g id="line2d_21">
      <g>
       <use style="stroke:#000000;stroke-width:0.8;" x="320.336875" xlink:href="#m96fbfc36d5" y="121.786364"/>
      </g>
     </g>
     <g id="text_21">
      <!-- 384 -->
      <g transform="translate(312.836875 135.661364)scale(0.1 -0.1)">
       <use xlink:href="#SimHei-51"/>
       <use x="50" xlink:href="#SimHei-56"/>
       <use x="100" xlink:href="#SimHei-52"/>
      </g>
     </g>
    </g>
    <g id="xtick_22">
     <g id="line2d_22">
      <g>
       <use style="stroke:#000000;stroke-width:0.8;" x="333.437745" xlink:href="#m96fbfc36d5" y="121.786364"/>
      </g>
     </g>
     <g id="text_22">
      <!-- 393 -->
      <g transform="translate(325.937745 135.661364)scale(0.1 -0.1)">
       <use xlink:href="#SimHei-51"/>
       <use x="50" xlink:href="#SimHei-57"/>
       <use x="100" xlink:href="#SimHei-51"/>
      </g>
     </g>
    </g>
    <g id="xtick_23">
     <g id="line2d_23">
      <g>
       <use style="stroke:#000000;stroke-width:0.8;" x="346.538614" xlink:href="#m96fbfc36d5" y="121.786364"/>
      </g>
     </g>
     <g id="text_23">
      <!-- 402 -->
      <g transform="translate(339.038614 135.661364)scale(0.1 -0.1)">
       <use xlink:href="#SimHei-52"/>
       <use x="50" xlink:href="#SimHei-48"/>
       <use x="100" xlink:href="#SimHei-50"/>
      </g>
     </g>
    </g>
    <g id="xtick_24">
     <g id="line2d_24">
      <g>
       <use style="stroke:#000000;stroke-width:0.8;" x="361.095136" xlink:href="#m96fbfc36d5" y="121.786364"/>
      </g>
     </g>
     <g id="text_24">
      <!-- 412 -->
      <g transform="translate(353.595136 135.661364)scale(0.1 -0.1)">
       <use xlink:href="#SimHei-52"/>
       <use x="50" xlink:href="#SimHei-49"/>
       <use x="100" xlink:href="#SimHei-50"/>
      </g>
     </g>
    </g>
    <g id="xtick_25">
     <g id="line2d_25">
      <g>
       <use style="stroke:#000000;stroke-width:0.8;" x="374.196005" xlink:href="#m96fbfc36d5" y="121.786364"/>
      </g>
     </g>
     <g id="text_25">
      <!-- 421 -->
      <g transform="translate(366.696005 135.661364)scale(0.1 -0.1)">
       <use xlink:href="#SimHei-52"/>
       <use x="50" xlink:href="#SimHei-50"/>
       <use x="100" xlink:href="#SimHei-49"/>
      </g>
     </g>
    </g>
    <g id="text_26">
     <!-- 成绩 -->
     <defs>
      <path d="M 54.6875 62.5 
Q 54.296875 73.828125 53.90625 81.640625 
Q 58.59375 81.25 62.890625 80.859375 
Q 62.109375 75.78125 62.5 62.5 
L 73.828125 62.5 
Q 82.03125 62.5 91.796875 62.890625 
L 91.796875 55.46875 
Q 81.640625 55.859375 73.828125 55.859375 
L 62.890625 55.859375 
Q 63.28125 41.015625 67.96875 23.4375 
Q 75.390625 34.765625 79.6875 49.609375 
Q 83.59375 46.484375 88.671875 44.140625 
Q 85.546875 40.625 81.640625 32.421875 
Q 77.734375 24.21875 71.484375 15.234375 
Q 75 8.203125 79.09375 4.09375 
Q 83.203125 0 84.765625 0.578125 
Q 86.328125 1.171875 87.890625 14.0625 
Q 91.796875 10.9375 96.09375 9.375 
Q 93.359375 -6.640625 90.03125 -8.390625 
Q 86.71875 -10.15625 82.03125 -8.390625 
Q 77.34375 -6.640625 73.234375 -1.75 
Q 69.140625 3.125 66.40625 8.984375 
Q 57.03125 -1.171875 42.578125 -10.15625 
Q 40.625 -6.640625 36.71875 -3.90625 
Q 44.53125 -0.390625 51.75 5.46875 
Q 58.984375 11.328125 62.5 16.40625 
Q 59.765625 23.828125 57.8125 34.5625 
Q 55.859375 45.3125 55.46875 55.859375 
L 21.875 55.859375 
L 21.875 42.1875 
L 47.265625 42.1875 
Q 46.484375 35.15625 46.09375 27.734375 
L 44.921875 12.109375 
Q 44.53125 4.6875 40.8125 3.125 
Q 37.109375 1.5625 28.125 0.78125 
Q 27.734375 4.296875 25 9.375 
Q 34.765625 8.984375 36.328125 10.546875 
Q 37.890625 12.109375 38.28125 19.53125 
L 39.0625 35.15625 
L 21.875 35.15625 
Q 21.875 19.921875 19.53125 9.765625 
Q 17.1875 -0.390625 10.9375 -8.984375 
Q 6.640625 -5.859375 3.125 -4.6875 
Q 8.203125 1.5625 10.15625 7.21875 
Q 12.109375 12.890625 13.078125 19.53125 
Q 14.0625 26.171875 14.25 38.28125 
Q 14.453125 50.390625 14.0625 62.5 
L 54.6875 62.5 
z
M 74.21875 81.640625 
Q 82.03125 75.390625 87.890625 69.140625 
Q 84.375 66.40625 81.640625 63.671875 
Q 76.953125 69.921875 69.140625 76.5625 
Q 71.875 78.90625 74.21875 81.640625 
z
" id="SimHei-25104"/>
      <path d="M 60.9375 72.65625 
Q 60.9375 76.171875 60.546875 81.640625 
L 68.75 81.640625 
Q 68.359375 76.5625 68.359375 72.65625 
L 82.421875 72.65625 
Q 86.328125 72.65625 92.578125 73.046875 
L 92.578125 66.40625 
Q 86.71875 66.796875 81.640625 66.796875 
L 68.359375 66.796875 
L 68.359375 60.546875 
L 77.734375 60.546875 
Q 80.859375 60.546875 87.109375 60.9375 
L 87.109375 54.6875 
Q 81.25 55.078125 77.734375 55.078125 
L 68.359375 55.078125 
L 68.359375 48.4375 
L 87.5 48.4375 
Q 89.0625 48.4375 95.703125 48.828125 
L 95.703125 42.1875 
Q 89.0625 42.578125 84.765625 42.578125 
L 46.09375 42.578125 
Q 41.40625 42.578125 35.546875 42.1875 
L 35.546875 48.828125 
Q 41.40625 48.4375 45.703125 48.4375 
L 60.9375 48.4375 
L 60.9375 55.078125 
L 52.34375 55.078125 
Q 48.4375 55.078125 42.1875 54.6875 
L 42.1875 60.9375 
Q 48.4375 60.546875 52.34375 60.546875 
L 60.9375 60.546875 
L 60.9375 66.796875 
L 47.65625 66.796875 
Q 43.75 66.796875 37.5 66.40625 
L 37.5 73.046875 
Q 44.921875 72.65625 47.265625 72.65625 
z
M 37.5 57.8125 
Q 35.546875 55.859375 31.25 48.828125 
Q 26.953125 41.796875 18.359375 29.6875 
Q 21.875 30.078125 35.15625 32.03125 
Q 34.765625 27.34375 34.765625 25 
Q 29.296875 24.609375 21.875 23.625 
Q 14.453125 22.65625 8.59375 21.09375 
Q 7.421875 25.390625 6.25 28.90625 
Q 9.765625 30.078125 14.25 35.15625 
Q 18.75 40.234375 22.265625 46.875 
Q 18.359375 46.875 14.640625 46.09375 
Q 10.9375 45.3125 7.03125 44.140625 
Q 5.859375 47.65625 4.296875 51.5625 
Q 8.203125 54.296875 12.109375 63.671875 
Q 16.015625 73.046875 17.1875 80.859375 
Q 22.265625 78.515625 26.171875 77.734375 
Q 24.21875 74.21875 21.09375 67.578125 
Q 17.96875 60.9375 13.28125 52.734375 
Q 16.40625 52.734375 25.390625 53.125 
Q 28.125 58.59375 29.296875 62.5 
Q 32.421875 59.765625 37.5 57.8125 
z
M 87.109375 36.328125 
Q 86.71875 31.640625 86.71875 24.21875 
Q 86.71875 17.1875 87.109375 10.9375 
L 79.296875 10.9375 
L 79.296875 30.46875 
L 50.390625 30.46875 
L 50.390625 10.546875 
L 42.578125 10.546875 
Q 42.96875 18.75 42.96875 24.609375 
Q 42.96875 30.859375 42.578125 36.328125 
L 87.109375 36.328125 
z
M 69.921875 25 
Q 68.359375 22.265625 67.375 16.40625 
Q 66.40625 10.546875 64.0625 5.859375 
Q 61.71875 1.171875 55.46875 -2.734375 
Q 49.21875 -6.640625 36.328125 -10.15625 
Q 34.375 -6.640625 30.859375 -3.125 
Q 52.34375 0.78125 56.640625 8.203125 
Q 60.9375 15.625 60.9375 25.390625 
Q 65.625 25.390625 69.921875 25 
z
M 36.328125 14.84375 
Q 35.546875 11.328125 35.15625 7.421875 
Q 31.25 7.03125 23.234375 5.65625 
Q 15.234375 4.296875 6.640625 1.5625 
Q 5.46875 6.640625 4.296875 10.546875 
Q 14.84375 11.328125 21.484375 12.296875 
Q 28.125 13.28125 36.328125 14.84375 
z
M 72.65625 10.15625 
Q 76.953125 8.203125 82.21875 4.875 
Q 87.5 1.5625 95.3125 -3.90625 
Q 92.1875 -6.640625 89.0625 -9.765625 
Q 83.984375 -5.46875 79.875 -2.53125 
Q 75.78125 0.390625 67.96875 5.078125 
Q 71.09375 7.8125 72.65625 10.15625 
z
" id="SimHei-32489"/>
     </defs>
     <g transform="translate(209.896875 148.841051)scale(0.1 -0.1)">
      <use xlink:href="#SimHei-25104"/>
      <use x="100" xlink:href="#SimHei-32489"/>
     </g>
    </g>
   </g>
   <g id="matplotlib.axis_2">
    <g id="ytick_1">
     <g id="line2d_26">
      <defs>
       <path d="M 0 0 
L -3.5 0 
" id="m39189b4ae7" style="stroke:#000000;stroke-width:0.8;"/>
      </defs>
      <g>
       <use style="stroke:#000000;stroke-width:0.8;" x="52.496875" xlink:href="#m39189b4ae7" y="121.786364"/>
      </g>
     </g>
     <g id="text_27">
      <!-- 0.000 -->
      <defs>
       <path d="M 16.796875 1.953125 
L 7.8125 1.953125 
L 7.8125 10.546875 
L 16.796875 10.546875 
z
" id="SimHei-46"/>
      </defs>
      <g transform="translate(20.496875 125.223864)scale(0.1 -0.1)">
       <use xlink:href="#SimHei-48"/>
       <use x="50" xlink:href="#SimHei-46"/>
       <use x="100" xlink:href="#SimHei-48"/>
       <use x="150" xlink:href="#SimHei-48"/>
       <use x="200" xlink:href="#SimHei-48"/>
      </g>
     </g>
    </g>
    <g id="ytick_2">
     <g id="line2d_27">
      <g>
       <use style="stroke:#000000;stroke-width:0.8;" x="52.496875" xlink:href="#m39189b4ae7" y="88.840909"/>
      </g>
     </g>
     <g id="text_28">
      <!-- 0.005 -->
      <g transform="translate(20.496875 92.278409)scale(0.1 -0.1)">
       <use xlink:href="#SimHei-48"/>
       <use x="50" xlink:href="#SimHei-46"/>
       <use x="100" xlink:href="#SimHei-48"/>
       <use x="150" xlink:href="#SimHei-48"/>
       <use x="200" xlink:href="#SimHei-53"/>
      </g>
     </g>
    </g>
    <g id="ytick_3">
     <g id="line2d_28">
      <g>
       <use style="stroke:#000000;stroke-width:0.8;" x="52.496875" xlink:href="#m39189b4ae7" y="55.895455"/>
      </g>
     </g>
     <g id="text_29">
      <!-- 0.010 -->
      <g transform="translate(20.496875 59.332955)scale(0.1 -0.1)">
       <use xlink:href="#SimHei-48"/>
       <use x="50" xlink:href="#SimHei-46"/>
       <use x="100" xlink:href="#SimHei-48"/>
       <use x="150" xlink:href="#SimHei-49"/>
       <use x="200" xlink:href="#SimHei-48"/>
      </g>
     </g>
    </g>
    <g id="ytick_4">
     <g id="line2d_29">
      <g>
       <use style="stroke:#000000;stroke-width:0.8;" x="52.496875" xlink:href="#m39189b4ae7" y="22.95"/>
      </g>
     </g>
     <g id="text_30">
      <!-- 0.015 -->
      <g transform="translate(20.496875 26.3875)scale(0.1 -0.1)">
       <use xlink:href="#SimHei-48"/>
       <use x="50" xlink:href="#SimHei-46"/>
       <use x="100" xlink:href="#SimHei-48"/>
       <use x="150" xlink:href="#SimHei-49"/>
       <use x="200" xlink:href="#SimHei-53"/>
      </g>
     </g>
    </g>
    <g id="text_31">
     <!-- 概率密度 -->
     <defs>
      <path d="M 48.4375 17.96875 
Q 46.875 21.09375 45.3125 23.046875 
Q 48.046875 25 51.171875 26.953125 
Q 53.515625 23.046875 55.265625 19.71875 
Q 57.03125 16.40625 59.765625 11.71875 
Q 57.421875 9.765625 53.515625 7.03125 
Q 52.734375 9.375 51.171875 12.5 
Q 48.046875 9.765625 43.359375 6.4375 
Q 38.671875 3.125 35.15625 -0.78125 
Q 32.421875 3.125 30.078125 5.46875 
Q 32.8125 8.203125 33.203125 13.671875 
L 33.203125 62.5 
Q 33.203125 69.140625 32.8125 73.4375 
L 55.859375 73.4375 
Q 55.46875 67.578125 55.46875 54.296875 
Q 55.46875 41.40625 55.859375 34.375 
L 39.84375 34.375 
L 39.84375 11.71875 
Q 42.578125 13.28125 48.4375 17.96875 
z
M 51.953125 -10.9375 
Q 50 -7.8125 46.09375 -5.078125 
Q 53.125 -1.171875 60.15625 9.953125 
Q 67.1875 21.09375 70.3125 36.71875 
L 59.375 36.71875 
Q 59.765625 42.578125 59.765625 48.046875 
Q 59.765625 53.515625 59.375 58.59375 
L 66.796875 58.59375 
Q 66.015625 55.46875 66.015625 50.78125 
L 66.015625 42.578125 
L 71.875 42.578125 
Q 73.046875 54.6875 73.046875 68.75 
L 69.140625 68.75 
Q 63.671875 68.75 59.375 68.359375 
L 59.375 75 
Q 64.0625 74.609375 69.140625 74.609375 
L 80.46875 74.609375 
Q 87.890625 74.609375 91.40625 75 
L 91.40625 68.359375 
Q 88.28125 68.75 79.6875 68.75 
Q 79.6875 57.8125 78.515625 42.578125 
L 83.984375 42.578125 
Q 87.5 42.578125 92.578125 42.96875 
L 92.578125 36.328125 
Q 87.5 36.71875 84.765625 36.71875 
L 77.34375 36.71875 
Q 72.265625 16.796875 66.984375 7.21875 
Q 61.71875 -2.34375 51.953125 -10.9375 
z
M 15.625 69.140625 
Q 15.625 74.21875 15.234375 78.90625 
L 23.046875 78.90625 
Q 22.265625 73.828125 22.265625 67.1875 
L 22.265625 59.375 
Q 25.390625 59.375 30.078125 59.765625 
L 30.078125 53.125 
Q 25 53.515625 22.265625 53.515625 
L 22.265625 41.40625 
Q 24.21875 42.578125 26.5625 44.140625 
Q 29.6875 36.71875 32.421875 29.296875 
Q 28.90625 28.515625 26.5625 26.5625 
Q 25 32.03125 22.265625 38.28125 
L 22.265625 4.6875 
Q 22.265625 -1.953125 22.65625 -8.984375 
L 15.234375 -8.984375 
Q 15.625 -0.78125 15.625 4.6875 
L 15.625 31.640625 
Q 12.890625 22.65625 8.59375 14.84375 
Q 7.03125 17.96875 2.734375 21.09375 
Q 7.8125 28.515625 10.34375 35.546875 
Q 12.890625 42.578125 14.84375 53.515625 
Q 7.8125 53.515625 5.46875 53.125 
L 5.46875 59.765625 
Q 8.59375 59.375 15.625 59.375 
z
M 82.8125 26.953125 
Q 82.421875 16.40625 82.421875 3.515625 
Q 82.421875 -0.78125 84.5625 -1.171875 
Q 86.71875 -1.5625 87.890625 -1.359375 
Q 89.0625 -1.171875 89.640625 0.578125 
Q 90.234375 2.34375 90.234375 7.421875 
Q 93.75 5.46875 97.65625 4.6875 
Q 96.09375 -3.515625 94.53125 -5.46875 
Q 92.96875 -7.421875 88.28125 -7.421875 
L 83.59375 -7.421875 
Q 75 -7.03125 75.78125 0.78125 
Q 75.78125 14.453125 75.78125 26.953125 
L 82.8125 26.953125 
z
M 48.828125 40.234375 
L 48.828125 51.171875 
L 39.84375 51.171875 
L 39.84375 40.234375 
z
M 48.828125 57.03125 
L 48.828125 67.578125 
L 39.84375 67.578125 
L 39.84375 57.03125 
z
" id="SimHei-27010"/>
      <path d="M 51.953125 80.46875 
Q 53.515625 76.5625 55.46875 70.703125 
L 75 70.703125 
Q 82.03125 70.703125 90.625 71.09375 
L 90.625 64.453125 
Q 82.03125 65.234375 74.609375 65.234375 
L 43.75 65.234375 
Q 46.484375 63.28125 51.5625 60.9375 
Q 48.046875 58.59375 44.921875 55.265625 
Q 41.796875 51.953125 38.671875 48.828125 
L 51.171875 48.828125 
Q 55.859375 53.515625 58.984375 58.984375 
Q 62.5 56.25 66.796875 53.515625 
Q 61.71875 50.78125 56.25 44.921875 
Q 50.78125 39.0625 41.015625 31.25 
L 60.15625 32.8125 
Q 58.203125 35.15625 56.25 37.890625 
Q 58.59375 38.671875 62.5 41.40625 
Q 66.40625 36.71875 73.4375 26.5625 
Q 69.921875 25.390625 66.015625 22.65625 
Q 65.234375 25 62.890625 27.734375 
Q 57.8125 27.34375 53.515625 27.34375 
L 53.515625 16.40625 
L 80.46875 16.40625 
Q 88.671875 16.40625 95.3125 16.796875 
L 95.3125 10.15625 
Q 89.0625 10.546875 80.078125 10.546875 
L 53.515625 10.546875 
L 53.515625 2.734375 
Q 53.515625 -4.6875 53.90625 -9.765625 
L 45.3125 -9.765625 
Q 45.703125 -4.6875 45.703125 2.734375 
L 45.703125 10.546875 
L 20.703125 10.546875 
Q 12.890625 10.546875 5.078125 10.15625 
L 5.078125 16.796875 
Q 12.890625 16.40625 21.09375 16.40625 
L 45.703125 16.40625 
L 45.703125 26.5625 
Q 42.1875 26.171875 38.671875 25.578125 
Q 35.15625 25 31.640625 23.828125 
Q 30.46875 27.734375 28.90625 31.25 
Q 32.421875 31.640625 36.328125 34.375 
Q 40.234375 37.109375 46.484375 43.75 
Q 35.9375 42.578125 31.640625 41.015625 
Q 30.859375 44.921875 28.90625 49.609375 
Q 32.421875 49.609375 36.328125 54.484375 
Q 40.234375 59.375 42.96875 65.234375 
L 26.5625 65.234375 
Q 17.96875 65.234375 10.15625 64.453125 
L 10.15625 71.09375 
Q 17.96875 70.703125 24.21875 70.703125 
L 46.484375 70.703125 
Q 45.3125 75.390625 43.75 78.515625 
Q 47.265625 79.296875 51.953125 80.46875 
z
M 25.390625 40.234375 
Q 26.953125 37.5 28.515625 34.375 
Q 24.609375 32.03125 20.703125 29.09375 
Q 16.796875 26.171875 12.5 22.265625 
Q 9.765625 26.171875 7.421875 29.296875 
Q 12.5 31.640625 17.1875 34.5625 
Q 21.875 37.5 25.390625 40.234375 
z
M 75.78125 41.40625 
Q 80.078125 38.671875 83.390625 36.515625 
Q 86.71875 34.375 91.796875 30.46875 
Q 88.671875 28.125 85.9375 25 
Q 82.8125 27.734375 79.09375 30.859375 
Q 75.390625 33.984375 71.484375 36.328125 
Q 73.828125 38.671875 75.78125 41.40625 
z
M 89.453125 55.078125 
Q 86.71875 53.90625 82.8125 50.96875 
Q 78.90625 48.046875 75 44.140625 
Q 72.265625 47.65625 69.921875 49.609375 
Q 73.4375 51.953125 76.171875 54.484375 
Q 78.90625 57.03125 82.8125 61.328125 
Q 86.328125 57.8125 89.453125 55.078125 
z
M 16.40625 60.15625 
Q 22.265625 56.25 27.734375 51.171875 
Q 24.609375 48.4375 22.265625 45.703125 
Q 16.796875 51.5625 10.546875 55.078125 
Q 13.671875 57.8125 16.40625 60.15625 
z
" id="SimHei-29575"/>
      <path d="M 75.390625 52.34375 
Q 69.921875 48.828125 61.90625 42.96875 
Q 53.90625 37.109375 43.359375 31.640625 
L 62.890625 31.640625 
Q 71.09375 31.640625 71.09375 40.625 
Q 75 38.28125 80.46875 36.328125 
Q 76.5625 27.734375 73.625 26.359375 
Q 70.703125 25 65.625 25 
L 44.921875 25 
Q 34.765625 24.609375 33.984375 26.171875 
Q 17.578125 20.703125 8.984375 18.359375 
Q 7.421875 22.265625 3.90625 26.171875 
Q 13.28125 26.953125 19.71875 28.90625 
Q 26.171875 30.859375 31.25 32.8125 
L 31.25 42.96875 
Q 31.25 46.875 30.859375 53.125 
L 39.84375 53.125 
Q 39.453125 47.265625 39.453125 43.359375 
L 39.453125 36.71875 
Q 45.3125 39.453125 53.515625 45.109375 
Q 61.71875 50.78125 67.578125 58.984375 
Q 69.921875 56.640625 75.390625 52.34375 
z
M 19.140625 8.59375 
Q 19.140625 12.890625 18.75 17.578125 
L 27.34375 17.578125 
Q 26.953125 12.109375 26.953125 8.203125 
L 26.953125 0 
L 48.046875 0 
L 48.046875 10.9375 
Q 48.046875 14.84375 47.265625 21.484375 
L 56.25 21.484375 
Q 55.859375 17.1875 55.859375 10.546875 
L 55.859375 0 
L 77.734375 0 
L 77.734375 9.765625 
Q 77.734375 13.671875 77.34375 18.75 
L 85.9375 18.75 
Q 85.546875 14.0625 85.546875 9.375 
L 85.546875 -3.515625 
Q 85.546875 -6.640625 85.9375 -10.9375 
L 77.734375 -10.9375 
L 77.734375 -6.25 
L 18.75 -6.25 
Q 19.140625 -2.34375 19.140625 1.171875 
z
M 83.984375 55.859375 
L 83.984375 64.84375 
L 17.96875 64.84375 
L 17.96875 55.46875 
L 9.375 55.46875 
Q 9.765625 57.8125 9.765625 62.5 
Q 9.765625 67.1875 9.375 71.484375 
L 46.484375 71.484375 
Q 45.3125 75 43.359375 78.90625 
Q 46.875 80.078125 51.953125 81.640625 
Q 53.515625 79.296875 55.859375 71.484375 
L 92.578125 71.484375 
Q 92.1875 66.40625 92.1875 62.890625 
Q 92.1875 59.765625 92.578125 55.859375 
z
M 25.78125 51.171875 
Q 23.4375 44.53125 19.140625 35.15625 
Q 14.0625 36.71875 10.546875 37.5 
Q 14.84375 43.75 17.1875 53.125 
Q 21.09375 51.953125 25.78125 51.171875 
z
M 85.15625 51.953125 
Q 90.234375 45.703125 95.3125 38.28125 
Q 91.015625 36.71875 87.890625 34.375 
Q 83.59375 41.796875 78.125 47.65625 
Q 81.25 49.609375 85.15625 51.953125 
z
M 50.390625 49.21875 
Q 44.921875 56.25 40.234375 59.765625 
Q 43.359375 61.71875 46.484375 64.453125 
Q 49.609375 62.109375 57.03125 54.296875 
Q 53.90625 51.5625 50.390625 49.21875 
z
" id="SimHei-23494"/>
      <path d="M 27.34375 26.171875 
Q 38.28125 25.78125 44.921875 25.78125 
L 81.25 25.78125 
Q 77.734375 19.53125 72.65625 13.28125 
Q 67.578125 7.03125 62.890625 3.125 
Q 67.96875 0.78125 77.34375 -0.78125 
Q 86.71875 -2.34375 95.3125 -2.34375 
Q 92.96875 -4.6875 91.015625 -10.15625 
Q 79.6875 -8.59375 71.09375 -6.4375 
Q 62.5 -4.296875 56.640625 -1.5625 
Q 48.4375 -5.078125 40.421875 -7.21875 
Q 32.421875 -9.375 23.828125 -10.546875 
Q 22.65625 -7.421875 19.140625 -3.90625 
Q 26.171875 -3.90625 35.15625 -1.953125 
Q 44.140625 0 50.78125 3.125 
Q 44.140625 8.59375 37.5 19.921875 
L 27.34375 19.53125 
z
M 46.484375 79.296875 
Q 50.78125 80.46875 54.296875 82.03125 
Q 56.640625 77.734375 58.984375 70.703125 
L 73.4375 70.703125 
Q 77.734375 70.703125 89.0625 71.09375 
L 89.0625 64.0625 
Q 78.125 64.453125 72.65625 64.453125 
L 21.484375 64.453125 
Q 21.484375 46.875 21.09375 36.125 
Q 20.703125 25.390625 18.9375 14.84375 
Q 17.1875 4.296875 11.328125 -8.203125 
Q 7.8125 -5.859375 3.90625 -4.6875 
Q 10.15625 6.25 11.90625 16.796875 
Q 13.671875 27.34375 13.859375 43.75 
Q 14.0625 60.15625 13.671875 70.703125 
L 50 70.703125 
Q 48.4375 75.78125 46.484375 79.296875 
z
M 38.671875 51.5625 
Q 38.671875 57.8125 38.28125 61.328125 
L 46.484375 61.328125 
Q 46.09375 58.203125 46.09375 51.5625 
L 67.1875 51.5625 
Q 67.1875 57.8125 66.796875 61.71875 
L 75 61.71875 
Q 74.609375 57.03125 74.609375 51.5625 
Q 83.203125 51.5625 89.453125 51.953125 
L 89.453125 45.3125 
Q 83.59375 45.703125 74.609375 45.703125 
Q 74.609375 35.15625 75 30.46875 
L 38.28125 30.46875 
Q 38.671875 36.71875 38.671875 45.703125 
Q 33.984375 45.703125 25 45.3125 
L 25 51.953125 
Q 33.984375 51.5625 38.671875 51.5625 
z
M 67.1875 36.71875 
L 67.1875 45.703125 
L 46.09375 45.703125 
L 46.09375 36.71875 
z
M 44.921875 19.921875 
Q 50 12.109375 57.03125 6.640625 
Q 62.890625 10.9375 69.140625 19.921875 
L 45.3125 19.921875 
z
" id="SimHei-24230"/>
     </defs>
     <g transform="translate(15.246875 92.368182)rotate(-90)scale(0.1 -0.1)">
      <use xlink:href="#SimHei-27010"/>
      <use x="100" xlink:href="#SimHei-29575"/>
      <use x="200" xlink:href="#SimHei-23494"/>
      <use x="300" xlink:href="#SimHei-24230"/>
     </g>
    </g>
   </g>
   <g id="line2d_30">
    <path clip-path="url(#pb029f8aac6)" d="M 52.496875 121.772162 
L 77.992667 121.625357 
L 90.06962 121.34272 
L 98.120923 120.955918 
L 104.830342 120.427228 
L 110.868819 119.717378 
L 115.565412 118.960786 
L 120.262005 117.97842 
L 124.287657 116.920363 
L 128.313308 115.628684 
L 132.338959 114.069775 
L 135.693669 112.542308 
L 139.048378 110.787252 
L 142.403087 108.787345 
L 145.757797 106.52753 
L 149.112506 103.995788 
L 152.467216 101.184025 
L 155.821925 98.088952 
L 159.176635 94.712941 
L 163.202286 90.303789 
L 167.227937 85.531971 
L 171.92453 79.567026 
L 177.292065 72.34947 
L 194.065612 49.394014 
L 198.091264 44.42896 
L 201.445973 40.639225 
L 204.129741 37.884437 
L 206.813508 35.411438 
L 209.497276 33.250246 
L 212.181043 31.427597 
L 214.193869 30.296714 
L 216.206695 29.377323 
L 218.21952 28.67605 
L 220.232346 28.197979 
L 222.245172 27.946592 
L 224.257997 27.923724 
L 226.270823 28.129542 
L 228.283649 28.562543 
L 230.296474 29.219572 
L 232.3093 30.09586 
L 234.322126 31.185084 
L 236.334951 32.479438 
L 239.018719 34.508263 
L 241.702486 36.860013 
L 244.386254 39.505911 
L 247.740963 43.178406 
L 251.095673 47.194026 
L 255.121324 52.366487 
L 260.488859 59.659473 
L 274.578639 79.0391 
L 279.275232 85.036869 
L 283.300883 89.842734 
L 287.326534 94.28967 
L 290.681244 97.698906 
L 294.035953 100.827906 
L 297.390663 103.673566 
L 300.745372 106.23854 
L 304.100081 108.530392 
L 307.454791 110.560717 
L 310.8095 112.344254 
L 314.16421 113.898043 
L 317.518919 115.240635 
L 321.54457 116.600245 
L 325.570222 117.71734 
L 330.266815 118.757884 
L 334.963408 119.562069 
L 340.330943 120.24838 
L 346.36942 120.791696 
L 353.749781 121.219606 
L 363.142967 121.522183 
L 376.561805 121.705394 
L 387.296875 121.757286 
L 387.296875 121.757286 
" style="fill:none;stroke:#1f77b4;stroke-linecap:square;stroke-width:1.5;"/>
   </g>
   <g id="line2d_31">
    <path clip-path="url(#pb029f8aac6)" d="M 270.280831 73.264504 
L 270.280831 121.786364 
" style="fill:none;stroke:#ff0000;stroke-dasharray:7.4,3.2;stroke-dashoffset:0;stroke-width:2;"/>
   </g>
   <g id="line2d_32">
    <path clip-path="url(#pb029f8aac6)" d="M 279.578614 86.520362 
L 279.578614 121.786364 
" style="fill:none;stroke:#008000;stroke-dasharray:5.55,2.4;stroke-dashoffset:0;stroke-width:1.5;"/>
   </g>
   <g id="patch_3">
    <path d="M 52.496875 121.786364 
L 52.496875 22.95 
" style="fill:none;stroke:#000000;stroke-linecap:square;stroke-linejoin:miter;stroke-width:0.8;"/>
   </g>
   <g id="patch_4">
    <path d="M 387.296875 121.786364 
L 387.296875 22.95 
" style="fill:none;stroke:#000000;stroke-linecap:square;stroke-linejoin:miter;stroke-width:0.8;"/>
   </g>
   <g id="patch_5">
    <path d="M 52.496875 121.786364 
L 387.296875 121.786364 
" style="fill:none;stroke:#000000;stroke-linecap:square;stroke-linejoin:miter;stroke-width:0.8;"/>
   </g>
   <g id="patch_6">
    <path d="M 52.496875 22.95 
L 387.296875 22.95 
" style="fill:none;stroke:#000000;stroke-linecap:square;stroke-linejoin:miter;stroke-width:0.8;"/>
   </g>
   <g id="text_32">
    <!-- 分数线 -->
    <defs>
     <path d="M 15.625 -10.15625 
Q 12.890625 -5.859375 8.984375 -3.515625 
Q 15.234375 -1.171875 20.3125 2.140625 
Q 25.390625 5.46875 29.296875 10.34375 
Q 33.203125 15.234375 35.15625 21.09375 
Q 37.109375 26.953125 37.890625 35.546875 
Q 28.90625 35.546875 23.4375 35.15625 
L 23.4375 43.359375 
Q 29.6875 42.96875 39.453125 42.96875 
L 78.515625 42.96875 
Q 77.734375 37.109375 77.34375 32.8125 
L 74.21875 3.90625 
Q 73.4375 -3.125 67.96875 -5.46875 
Q 62.5 -7.8125 55.859375 -8.203125 
Q 55.46875 -4.296875 51.953125 0.78125 
Q 60.15625 0.390625 63.078125 1.359375 
Q 66.015625 2.34375 66.796875 8.203125 
L 69.53125 35.546875 
L 46.09375 35.546875 
Q 44.921875 25.390625 42.765625 18.546875 
Q 40.625 11.71875 36.71875 6.640625 
Q 32.8125 1.5625 27.34375 -2.734375 
Q 21.875 -7.03125 15.625 -10.15625 
z
M 61.71875 80.859375 
Q 64.453125 72.65625 72.84375 62.109375 
Q 81.25 51.5625 96.484375 43.75 
Q 93.359375 41.015625 90.234375 35.546875 
Q 83.203125 40.625 77.921875 45.109375 
Q 72.65625 49.609375 69.140625 53.515625 
Q 65.625 57.421875 61.328125 64.640625 
Q 57.03125 71.875 54.296875 78.125 
Q 58.59375 79.296875 61.71875 80.859375 
z
M 42.1875 75.390625 
Q 38.671875 69.140625 36.328125 64.453125 
Q 33.984375 59.765625 31.640625 56.046875 
Q 29.296875 52.34375 24.609375 46.09375 
Q 19.921875 39.84375 13.28125 33.203125 
Q 9.765625 36.71875 6.25 38.671875 
Q 14.0625 45.703125 18.546875 51.5625 
Q 23.046875 57.421875 27.140625 64.25 
Q 31.25 71.09375 34.375 79.296875 
Q 37.5 76.953125 42.1875 75.390625 
z
" id="SimHei-20998"/>
     <path d="M 70.703125 76.953125 
Q 69.921875 75 68.75 71.671875 
Q 67.578125 68.359375 65.234375 59.765625 
L 83.203125 59.765625 
Q 87.109375 59.765625 92.578125 60.15625 
L 92.578125 53.125 
Q 88.28125 53.515625 85.9375 53.515625 
Q 85.9375 47.265625 83.78125 33.78125 
Q 81.640625 20.3125 76.171875 10.546875 
Q 80.078125 5.859375 84.953125 2.140625 
Q 89.84375 -1.5625 94.140625 -3.125 
Q 89.453125 -6.640625 87.890625 -9.765625 
Q 83.203125 -7.03125 79.296875 -3.515625 
Q 75.390625 0 71.484375 5.078125 
Q 67.1875 0.390625 62.296875 -2.921875 
Q 57.421875 -6.25 50 -10.15625 
Q 48.046875 -6.640625 44.53125 -4.6875 
Q 50.390625 -2.34375 57.03125 1.953125 
Q 63.671875 6.25 67.1875 10.546875 
Q 64.453125 16.015625 61.90625 22.265625 
Q 59.375 28.515625 57.421875 38.671875 
Q 56.25 35.546875 53.515625 30.46875 
Q 50.78125 32.03125 46.875 33.59375 
Q 53.125 44.53125 57.03125 57.421875 
Q 60.9375 70.3125 62.109375 79.6875 
Q 66.796875 77.734375 70.703125 76.953125 
z
M 32.8125 35.15625 
Q 31.25 33.59375 29.296875 30.078125 
L 50.78125 30.078125 
Q 48.4375 20.3125 42.578125 10.546875 
Q 48.828125 8.203125 52.34375 6.25 
Q 50.390625 3.515625 48.828125 0.390625 
Q 45.3125 2.734375 38.28125 5.078125 
Q 30.46875 -3.515625 11.328125 -10.15625 
Q 9.375 -5.859375 6.25 -4.296875 
Q 24.609375 0 31.25 7.421875 
Q 20.3125 10.15625 13.28125 12.109375 
Q 15.625 15.625 19.53125 23.828125 
Q 15.625 23.828125 6.640625 23.4375 
L 6.640625 30.46875 
Q 14.0625 30.078125 21.875 30.078125 
Q 23.4375 33.59375 24.21875 37.890625 
Q 28.515625 36.328125 32.8125 35.15625 
z
M 27.734375 61.71875 
Q 27.734375 71.09375 27.34375 79.6875 
L 35.15625 79.6875 
Q 34.765625 71.484375 34.765625 61.71875 
Q 48.046875 61.71875 53.515625 62.109375 
L 53.515625 55.078125 
Q 48.046875 55.46875 34.765625 55.46875 
Q 34.765625 44.140625 35.15625 37.890625 
L 27.34375 37.890625 
Q 27.734375 43.359375 27.734375 51.5625 
Q 25.78125 48.4375 20.3125 43.546875 
Q 14.84375 38.671875 10.15625 35.9375 
Q 8.203125 39.453125 4.296875 41.015625 
Q 7.8125 42.1875 13.671875 46.484375 
Q 19.53125 50.78125 22.65625 55.46875 
Q 14.84375 55.46875 7.8125 55.078125 
L 7.8125 62.109375 
Q 14.453125 61.71875 27.734375 61.71875 
z
M 62.109375 49.609375 
Q 65.625 26.5625 71.875 17.578125 
Q 75.78125 26.5625 77.140625 35.734375 
Q 78.515625 44.921875 78.90625 53.515625 
L 63.671875 53.515625 
L 62.109375 49.609375 
z
M 22.65625 15.625 
Q 27.34375 14.453125 35.546875 12.5 
Q 38.671875 16.40625 41.40625 23.828125 
L 26.953125 23.828125 
Q 25 19.921875 22.65625 15.625 
z
M 51.953125 75.390625 
Q 50 72.265625 48.828125 69.53125 
Q 47.65625 66.796875 45.703125 62.890625 
Q 42.578125 64.453125 39.453125 65.234375 
Q 42.578125 70.3125 45.3125 78.125 
Q 49.21875 76.171875 51.953125 75.390625 
z
M 40.234375 52.734375 
Q 45.3125 47.65625 50 42.578125 
Q 47.65625 40.625 44.921875 37.890625 
Q 39.453125 44.53125 35.9375 48.4375 
Q 38.28125 50.390625 40.234375 52.734375 
z
M 14.453125 78.125 
Q 19.921875 72.65625 23.4375 67.1875 
L 17.578125 63.671875 
Q 14.84375 69.140625 9.375 73.828125 
Q 12.890625 76.171875 14.453125 78.125 
z
" id="SimHei-25968"/>
     <path d="M 53.90625 67.1875 
Q 53.90625 73.046875 52.734375 80.078125 
Q 57.8125 79.6875 63.28125 78.90625 
Q 62.109375 76.5625 61.71875 71.28125 
Q 61.328125 66.015625 61.71875 56.25 
L 75 58.59375 
Q 81.640625 60.15625 88.28125 62.109375 
L 89.84375 54.6875 
Q 83.203125 53.90625 76.171875 52.734375 
L 62.109375 50 
Q 62.109375 43.75 62.890625 39.0625 
L 78.125 41.796875 
Q 85.9375 43.359375 92.96875 45.703125 
L 94.140625 38.28125 
Q 87.109375 37.109375 79.296875 35.546875 
L 64.0625 32.8125 
Q 64.84375 25 67.96875 18.359375 
Q 71.484375 21.09375 74.796875 24.609375 
Q 78.125 28.125 80.859375 32.421875 
Q 86.71875 27.734375 89.84375 26.171875 
Q 84.765625 23.828125 81.828125 20.890625 
Q 78.90625 17.96875 72.265625 11.71875 
Q 76.953125 3.90625 80.65625 1.75 
Q 84.375 -0.390625 85.9375 1.5625 
Q 87.5 3.515625 88.671875 9.765625 
Q 92.1875 7.03125 96.875 5.46875 
Q 90.234375 -11.71875 82.421875 -8.390625 
Q 74.609375 -5.078125 66.015625 7.03125 
Q 60.546875 2.734375 55.265625 -0.96875 
Q 50 -4.6875 42.1875 -8.59375 
Q 40.234375 -4.6875 36.328125 -1.5625 
Q 44.140625 1.171875 49.609375 4.296875 
Q 55.078125 7.421875 62.109375 13.28125 
Q 58.59375 21.09375 57.03125 31.640625 
Q 45.3125 29.6875 40.625 28.125 
L 39.453125 35.546875 
Q 44.140625 35.546875 55.46875 37.890625 
Q 54.6875 44.140625 54.6875 48.4375 
Q 44.140625 46.09375 40.234375 44.921875 
L 38.671875 52.34375 
Q 42.578125 52.34375 53.90625 54.6875 
z
M 30.46875 76.171875 
Q 26.5625 72.65625 22.84375 66.203125 
Q 19.140625 59.765625 12.890625 50.390625 
Q 22.265625 50.78125 25.78125 50.78125 
Q 29.296875 56.640625 32.03125 63.671875 
Q 35.9375 60.9375 40.625 59.375 
Q 36.71875 55.46875 32.609375 48.828125 
Q 28.515625 42.1875 18.359375 26.171875 
Q 28.90625 26.953125 37.109375 27.734375 
Q 35.9375 23.828125 35.9375 21.09375 
Q 33.203125 21.09375 23.828125 20.109375 
Q 14.453125 19.140625 8.59375 17.578125 
Q 8.203125 21.484375 6.25 25.78125 
Q 10.9375 26.953125 14.84375 32.03125 
Q 18.75 37.109375 23.046875 44.921875 
Q 10.15625 44.140625 6.640625 41.796875 
Q 5.46875 46.09375 3.125 50.390625 
Q 8.203125 53.90625 12.890625 61.90625 
Q 17.578125 69.921875 21.484375 80.46875 
Q 25.390625 77.734375 30.46875 76.171875 
z
M 40.234375 13.671875 
Q 39.84375 9.375 40.234375 7.03125 
Q 30.46875 5.078125 22.65625 3.125 
Q 14.84375 1.171875 8.203125 -1.171875 
Q 7.03125 3.125 3.90625 7.421875 
Q 14.84375 8.59375 20.703125 9.5625 
Q 26.5625 10.546875 40.234375 13.671875 
z
M 75.78125 62.890625 
Q 73.046875 67.1875 68.359375 73.046875 
L 74.609375 76.171875 
Q 76.171875 74.21875 82.421875 66.796875 
Q 78.515625 65.234375 75.78125 62.890625 
z
" id="SimHei-32447"/>
    </defs>
    <g transform="translate(270.280831 73.264504)scale(0.1 -0.1)">
     <use xlink:href="#SimHei-20998"/>
     <use x="100" xlink:href="#SimHei-25968"/>
     <use x="200" xlink:href="#SimHei-32447"/>
    </g>
   </g>
   <g id="text_33">
    <!-- pyq -->
    <defs>
     <path d="M 44.140625 23.828125 
Q 44.140625 12.5 38.671875 6.640625 
Q 33.203125 0.78125 25.390625 0.78125 
Q 21.09375 0.78125 17.96875 2.53125 
Q 14.84375 4.296875 12.5 7.8125 
L 12.5 -12.5 
L 4.6875 -12.5 
L 4.6875 45.703125 
L 12.5 45.703125 
L 12.5 39.84375 
Q 14.84375 43.359375 17.96875 44.921875 
Q 21.09375 46.484375 25.390625 46.484375 
Q 33.203125 46.484375 38.671875 40.8125 
Q 44.140625 35.15625 44.140625 23.828125 
z
M 35.546875 23.828125 
Q 35.546875 31.25 32.609375 35.34375 
Q 29.6875 39.453125 23.828125 39.453125 
Q 19.140625 39.453125 15.8125 35.34375 
Q 12.5 31.25 12.5 23.828125 
Q 12.5 16.40625 15.8125 12.109375 
Q 19.140625 7.8125 23.828125 7.8125 
Q 29.6875 7.8125 32.609375 12.109375 
Q 35.546875 16.40625 35.546875 23.828125 
z
" id="SimHei-112"/>
     <path d="M 45.3125 45.703125 
L 27.34375 -1.5625 
Q 25.78125 -7.03125 22.65625 -9.765625 
Q 19.53125 -12.5 14.84375 -12.5 
Q 12.890625 -12.5 11.125 -12.296875 
Q 9.375 -12.109375 7.8125 -11.328125 
L 7.8125 -3.515625 
Q 9.375 -4.296875 10.9375 -4.6875 
Q 12.5 -5.078125 13.671875 -5.078125 
Q 16.796875 -5.078125 17.96875 -4.09375 
Q 19.140625 -3.125 20.3125 0.390625 
L 3.125 45.703125 
L 11.71875 45.703125 
L 24.21875 11.328125 
L 24.609375 11.328125 
L 36.71875 45.703125 
z
" id="SimHei-121"/>
     <path d="M 42.96875 -12.5 
L 35.15625 -12.5 
L 35.15625 7.8125 
Q 32.8125 4.296875 29.6875 2.53125 
Q 26.5625 0.78125 22.265625 0.78125 
Q 14.453125 0.78125 8.984375 6.640625 
Q 3.515625 12.5 3.515625 23.828125 
Q 3.515625 35.15625 8.984375 40.8125 
Q 14.453125 46.484375 22.265625 46.484375 
Q 26.5625 46.484375 29.6875 44.921875 
Q 32.8125 43.359375 35.15625 39.84375 
L 35.15625 45.703125 
L 42.96875 45.703125 
z
M 35.15625 23.828125 
Q 35.15625 31.25 31.828125 35.34375 
Q 28.515625 39.453125 23.828125 39.453125 
Q 17.96875 39.453125 15.03125 35.34375 
Q 12.109375 31.25 12.109375 23.828125 
Q 12.109375 16.40625 15.03125 12.109375 
Q 17.96875 7.8125 23.828125 7.8125 
Q 28.515625 7.8125 31.828125 12.109375 
Q 35.15625 16.40625 35.15625 23.828125 
z
" id="SimHei-113"/>
    </defs>
    <g transform="translate(279.578614 86.520362)scale(0.1 -0.1)">
     <use xlink:href="#SimHei-112"/>
     <use x="50" xlink:href="#SimHei-121"/>
     <use x="100" xlink:href="#SimHei-113"/>
    </g>
   </g>
   <g id="text_34">
    <!-- 成绩分布概率密度 -->
    <defs>
     <path d="M 37.109375 66.015625 
Q 41.40625 74.609375 43.359375 82.8125 
Q 48.828125 80.859375 53.125 79.296875 
Q 51.171875 77.734375 46.09375 66.015625 
L 75 66.015625 
Q 86.71875 66.015625 94.140625 66.40625 
L 94.140625 59.375 
L 42.578125 59.375 
Q 36.328125 48.4375 30.859375 41.796875 
L 51.171875 41.796875 
Q 51.171875 50.390625 50.78125 55.859375 
L 58.984375 55.859375 
Q 58.59375 50.390625 58.59375 41.796875 
L 85.9375 41.796875 
Q 85.546875 34.765625 85.546875 27.734375 
L 85.546875 11.71875 
Q 85.546875 4.296875 81.4375 2.34375 
Q 77.34375 0.390625 69.53125 -0.390625 
Q 68.75 5.078125 66.015625 8.59375 
Q 75 8.59375 76.75 9.765625 
Q 78.515625 10.9375 78.125 16.015625 
L 78.125 35.15625 
L 58.59375 35.15625 
L 58.59375 8.59375 
Q 58.59375 0.390625 58.984375 -9.375 
L 50.78125 -9.375 
Q 51.171875 0.390625 51.171875 8.59375 
L 51.171875 35.15625 
L 32.8125 35.15625 
L 32.8125 0 
L 25 0 
Q 25.390625 8.203125 25.390625 16.015625 
L 25.390625 34.765625 
Q 20.3125 28.90625 10.15625 19.921875 
Q 7.421875 23.046875 3.125 25.78125 
Q 11.71875 31.640625 19.71875 40.03125 
Q 27.734375 48.4375 33.59375 59.375 
L 24.21875 59.375 
Q 14.453125 59.375 6.25 58.984375 
L 6.25 66.40625 
Q 14.453125 66.015625 24.21875 66.015625 
z
" id="SimHei-24067"/>
    </defs>
    <g transform="translate(171.896875 16.95)scale(0.12 -0.12)">
     <use xlink:href="#SimHei-25104"/>
     <use x="100" xlink:href="#SimHei-32489"/>
     <use x="200" xlink:href="#SimHei-20998"/>
     <use x="300" xlink:href="#SimHei-24067"/>
     <use x="400" xlink:href="#SimHei-27010"/>
     <use x="500" xlink:href="#SimHei-29575"/>
     <use x="600" xlink:href="#SimHei-23494"/>
     <use x="700" xlink:href="#SimHei-24230"/>
    </g>
   </g>
  </g>
  <g id="axes_2">
   <g id="patch_7">
    <path d="M 52.496875 240.39 
L 387.296875 240.39 
L 387.296875 141.553636 
L 52.496875 141.553636 
z
" style="fill:#ffffff;"/>
   </g>
   <g id="matplotlib.axis_3">
    <g id="xtick_26">
     <g id="line2d_33">
      <g>
       <use style="stroke:#000000;stroke-width:0.8;" x="52.496875" xlink:href="#m96fbfc36d5" y="240.39"/>
      </g>
     </g>
     <g id="text_35">
      <!-- 200 -->
      <g transform="translate(44.996875 254.265)scale(0.1 -0.1)">
       <use xlink:href="#SimHei-50"/>
       <use x="50" xlink:href="#SimHei-48"/>
       <use x="100" xlink:href="#SimHei-48"/>
      </g>
     </g>
    </g>
    <g id="xtick_27">
     <g id="line2d_34">
      <g>
       <use style="stroke:#000000;stroke-width:0.8;" x="65.597745" xlink:href="#m96fbfc36d5" y="240.39"/>
      </g>
     </g>
     <g id="text_36">
      <!-- 209 -->
      <g transform="translate(58.097745 254.265)scale(0.1 -0.1)">
       <use xlink:href="#SimHei-50"/>
       <use x="50" xlink:href="#SimHei-48"/>
       <use x="100" xlink:href="#SimHei-57"/>
      </g>
     </g>
    </g>
    <g id="xtick_28">
     <g id="line2d_35">
      <g>
       <use style="stroke:#000000;stroke-width:0.8;" x="78.698614" xlink:href="#m96fbfc36d5" y="240.39"/>
      </g>
     </g>
     <g id="text_37">
      <!-- 218 -->
      <g transform="translate(71.198614 254.265)scale(0.1 -0.1)">
       <use xlink:href="#SimHei-50"/>
       <use x="50" xlink:href="#SimHei-49"/>
       <use x="100" xlink:href="#SimHei-56"/>
      </g>
     </g>
    </g>
    <g id="xtick_29">
     <g id="line2d_36">
      <g>
       <use style="stroke:#000000;stroke-width:0.8;" x="91.799484" xlink:href="#m96fbfc36d5" y="240.39"/>
      </g>
     </g>
     <g id="text_38">
      <!-- 227 -->
      <g transform="translate(84.299484 254.265)scale(0.1 -0.1)">
       <use xlink:href="#SimHei-50"/>
       <use x="50" xlink:href="#SimHei-50"/>
       <use x="100" xlink:href="#SimHei-55"/>
      </g>
     </g>
    </g>
    <g id="xtick_30">
     <g id="line2d_37">
      <g>
       <use style="stroke:#000000;stroke-width:0.8;" x="104.900353" xlink:href="#m96fbfc36d5" y="240.39"/>
      </g>
     </g>
     <g id="text_39">
      <!-- 236 -->
      <g transform="translate(97.400353 254.265)scale(0.1 -0.1)">
       <use xlink:href="#SimHei-50"/>
       <use x="50" xlink:href="#SimHei-51"/>
       <use x="100" xlink:href="#SimHei-54"/>
      </g>
     </g>
    </g>
    <g id="xtick_31">
     <g id="line2d_38">
      <g>
       <use style="stroke:#000000;stroke-width:0.8;" x="119.456875" xlink:href="#m96fbfc36d5" y="240.39"/>
      </g>
     </g>
     <g id="text_40">
      <!-- 246 -->
      <g transform="translate(111.956875 254.265)scale(0.1 -0.1)">
       <use xlink:href="#SimHei-50"/>
       <use x="50" xlink:href="#SimHei-52"/>
       <use x="100" xlink:href="#SimHei-54"/>
      </g>
     </g>
    </g>
    <g id="xtick_32">
     <g id="line2d_39">
      <g>
       <use style="stroke:#000000;stroke-width:0.8;" x="132.557745" xlink:href="#m96fbfc36d5" y="240.39"/>
      </g>
     </g>
     <g id="text_41">
      <!-- 255 -->
      <g transform="translate(125.057745 254.265)scale(0.1 -0.1)">
       <use xlink:href="#SimHei-50"/>
       <use x="50" xlink:href="#SimHei-53"/>
       <use x="100" xlink:href="#SimHei-53"/>
      </g>
     </g>
    </g>
    <g id="xtick_33">
     <g id="line2d_40">
      <g>
       <use style="stroke:#000000;stroke-width:0.8;" x="145.658614" xlink:href="#m96fbfc36d5" y="240.39"/>
      </g>
     </g>
     <g id="text_42">
      <!-- 264 -->
      <g transform="translate(138.158614 254.265)scale(0.1 -0.1)">
       <use xlink:href="#SimHei-50"/>
       <use x="50" xlink:href="#SimHei-54"/>
       <use x="100" xlink:href="#SimHei-52"/>
      </g>
     </g>
    </g>
    <g id="xtick_34">
     <g id="line2d_41">
      <g>
       <use style="stroke:#000000;stroke-width:0.8;" x="158.759484" xlink:href="#m96fbfc36d5" y="240.39"/>
      </g>
     </g>
     <g id="text_43">
      <!-- 273 -->
      <g transform="translate(151.259484 254.265)scale(0.1 -0.1)">
       <use xlink:href="#SimHei-50"/>
       <use x="50" xlink:href="#SimHei-55"/>
       <use x="100" xlink:href="#SimHei-51"/>
      </g>
     </g>
    </g>
    <g id="xtick_35">
     <g id="line2d_42">
      <g>
       <use style="stroke:#000000;stroke-width:0.8;" x="171.860353" xlink:href="#m96fbfc36d5" y="240.39"/>
      </g>
     </g>
     <g id="text_44">
      <!-- 282 -->
      <g transform="translate(164.360353 254.265)scale(0.1 -0.1)">
       <use xlink:href="#SimHei-50"/>
       <use x="50" xlink:href="#SimHei-56"/>
       <use x="100" xlink:href="#SimHei-50"/>
      </g>
     </g>
    </g>
    <g id="xtick_36">
     <g id="line2d_43">
      <g>
       <use style="stroke:#000000;stroke-width:0.8;" x="186.416875" xlink:href="#m96fbfc36d5" y="240.39"/>
      </g>
     </g>
     <g id="text_45">
      <!-- 292 -->
      <g transform="translate(178.916875 254.265)scale(0.1 -0.1)">
       <use xlink:href="#SimHei-50"/>
       <use x="50" xlink:href="#SimHei-57"/>
       <use x="100" xlink:href="#SimHei-50"/>
      </g>
     </g>
    </g>
    <g id="xtick_37">
     <g id="line2d_44">
      <g>
       <use style="stroke:#000000;stroke-width:0.8;" x="199.517745" xlink:href="#m96fbfc36d5" y="240.39"/>
      </g>
     </g>
     <g id="text_46">
      <!-- 301 -->
      <g transform="translate(192.017745 254.265)scale(0.1 -0.1)">
       <use xlink:href="#SimHei-51"/>
       <use x="50" xlink:href="#SimHei-48"/>
       <use x="100" xlink:href="#SimHei-49"/>
      </g>
     </g>
    </g>
    <g id="xtick_38">
     <g id="line2d_45">
      <g>
       <use style="stroke:#000000;stroke-width:0.8;" x="212.618614" xlink:href="#m96fbfc36d5" y="240.39"/>
      </g>
     </g>
     <g id="text_47">
      <!-- 310 -->
      <g transform="translate(205.118614 254.265)scale(0.1 -0.1)">
       <use xlink:href="#SimHei-51"/>
       <use x="50" xlink:href="#SimHei-49"/>
       <use x="100" xlink:href="#SimHei-48"/>
      </g>
     </g>
    </g>
    <g id="xtick_39">
     <g id="line2d_46">
      <g>
       <use style="stroke:#000000;stroke-width:0.8;" x="225.719484" xlink:href="#m96fbfc36d5" y="240.39"/>
      </g>
     </g>
     <g id="text_48">
      <!-- 319 -->
      <g transform="translate(218.219484 254.265)scale(0.1 -0.1)">
       <use xlink:href="#SimHei-51"/>
       <use x="50" xlink:href="#SimHei-49"/>
       <use x="100" xlink:href="#SimHei-57"/>
      </g>
     </g>
    </g>
    <g id="xtick_40">
     <g id="line2d_47">
      <g>
       <use style="stroke:#000000;stroke-width:0.8;" x="240.276005" xlink:href="#m96fbfc36d5" y="240.39"/>
      </g>
     </g>
     <g id="text_49">
      <!-- 329 -->
      <g transform="translate(232.776005 254.265)scale(0.1 -0.1)">
       <use xlink:href="#SimHei-51"/>
       <use x="50" xlink:href="#SimHei-50"/>
       <use x="100" xlink:href="#SimHei-57"/>
      </g>
     </g>
    </g>
    <g id="xtick_41">
     <g id="line2d_48">
      <g>
       <use style="stroke:#000000;stroke-width:0.8;" x="253.376875" xlink:href="#m96fbfc36d5" y="240.39"/>
      </g>
     </g>
     <g id="text_50">
      <!-- 338 -->
      <g transform="translate(245.876875 254.265)scale(0.1 -0.1)">
       <use xlink:href="#SimHei-51"/>
       <use x="50" xlink:href="#SimHei-51"/>
       <use x="100" xlink:href="#SimHei-56"/>
      </g>
     </g>
    </g>
    <g id="xtick_42">
     <g id="line2d_49">
      <g>
       <use style="stroke:#000000;stroke-width:0.8;" x="266.477745" xlink:href="#m96fbfc36d5" y="240.39"/>
      </g>
     </g>
     <g id="text_51">
      <!-- 347 -->
      <g transform="translate(258.977745 254.265)scale(0.1 -0.1)">
       <use xlink:href="#SimHei-51"/>
       <use x="50" xlink:href="#SimHei-52"/>
       <use x="100" xlink:href="#SimHei-55"/>
      </g>
     </g>
    </g>
    <g id="xtick_43">
     <g id="line2d_50">
      <g>
       <use style="stroke:#000000;stroke-width:0.8;" x="279.578614" xlink:href="#m96fbfc36d5" y="240.39"/>
      </g>
     </g>
     <g id="text_52">
      <!-- 356 -->
      <g transform="translate(272.078614 254.265)scale(0.1 -0.1)">
       <use xlink:href="#SimHei-51"/>
       <use x="50" xlink:href="#SimHei-53"/>
       <use x="100" xlink:href="#SimHei-54"/>
      </g>
     </g>
    </g>
    <g id="xtick_44">
     <g id="line2d_51">
      <g>
       <use style="stroke:#000000;stroke-width:0.8;" x="292.679484" xlink:href="#m96fbfc36d5" y="240.39"/>
      </g>
     </g>
     <g id="text_53">
      <!-- 365 -->
      <g transform="translate(285.179484 254.265)scale(0.1 -0.1)">
       <use xlink:href="#SimHei-51"/>
       <use x="50" xlink:href="#SimHei-54"/>
       <use x="100" xlink:href="#SimHei-53"/>
      </g>
     </g>
    </g>
    <g id="xtick_45">
     <g id="line2d_52">
      <g>
       <use style="stroke:#000000;stroke-width:0.8;" x="307.236005" xlink:href="#m96fbfc36d5" y="240.39"/>
      </g>
     </g>
     <g id="text_54">
      <!-- 375 -->
      <g transform="translate(299.736005 254.265)scale(0.1 -0.1)">
       <use xlink:href="#SimHei-51"/>
       <use x="50" xlink:href="#SimHei-55"/>
       <use x="100" xlink:href="#SimHei-53"/>
      </g>
     </g>
    </g>
    <g id="xtick_46">
     <g id="line2d_53">
      <g>
       <use style="stroke:#000000;stroke-width:0.8;" x="320.336875" xlink:href="#m96fbfc36d5" y="240.39"/>
      </g>
     </g>
     <g id="text_55">
      <!-- 384 -->
      <g transform="translate(312.836875 254.265)scale(0.1 -0.1)">
       <use xlink:href="#SimHei-51"/>
       <use x="50" xlink:href="#SimHei-56"/>
       <use x="100" xlink:href="#SimHei-52"/>
      </g>
     </g>
    </g>
    <g id="xtick_47">
     <g id="line2d_54">
      <g>
       <use style="stroke:#000000;stroke-width:0.8;" x="333.437745" xlink:href="#m96fbfc36d5" y="240.39"/>
      </g>
     </g>
     <g id="text_56">
      <!-- 393 -->
      <g transform="translate(325.937745 254.265)scale(0.1 -0.1)">
       <use xlink:href="#SimHei-51"/>
       <use x="50" xlink:href="#SimHei-57"/>
       <use x="100" xlink:href="#SimHei-51"/>
      </g>
     </g>
    </g>
    <g id="xtick_48">
     <g id="line2d_55">
      <g>
       <use style="stroke:#000000;stroke-width:0.8;" x="346.538614" xlink:href="#m96fbfc36d5" y="240.39"/>
      </g>
     </g>
     <g id="text_57">
      <!-- 402 -->
      <g transform="translate(339.038614 254.265)scale(0.1 -0.1)">
       <use xlink:href="#SimHei-52"/>
       <use x="50" xlink:href="#SimHei-48"/>
       <use x="100" xlink:href="#SimHei-50"/>
      </g>
     </g>
    </g>
    <g id="xtick_49">
     <g id="line2d_56">
      <g>
       <use style="stroke:#000000;stroke-width:0.8;" x="361.095136" xlink:href="#m96fbfc36d5" y="240.39"/>
      </g>
     </g>
     <g id="text_58">
      <!-- 412 -->
      <g transform="translate(353.595136 254.265)scale(0.1 -0.1)">
       <use xlink:href="#SimHei-52"/>
       <use x="50" xlink:href="#SimHei-49"/>
       <use x="100" xlink:href="#SimHei-50"/>
      </g>
     </g>
    </g>
    <g id="xtick_50">
     <g id="line2d_57">
      <g>
       <use style="stroke:#000000;stroke-width:0.8;" x="374.196005" xlink:href="#m96fbfc36d5" y="240.39"/>
      </g>
     </g>
     <g id="text_59">
      <!-- 421 -->
      <g transform="translate(366.696005 254.265)scale(0.1 -0.1)">
       <use xlink:href="#SimHei-52"/>
       <use x="50" xlink:href="#SimHei-50"/>
       <use x="100" xlink:href="#SimHei-49"/>
      </g>
     </g>
    </g>
    <g id="text_60">
     <!-- 成绩 -->
     <g transform="translate(209.896875 267.444687)scale(0.1 -0.1)">
      <use xlink:href="#SimHei-25104"/>
      <use x="100" xlink:href="#SimHei-32489"/>
     </g>
    </g>
   </g>
   <g id="matplotlib.axis_4">
    <g id="ytick_5">
     <g id="line2d_58">
      <g>
       <use style="stroke:#000000;stroke-width:0.8;" x="52.496875" xlink:href="#m39189b4ae7" y="146.26013"/>
      </g>
     </g>
     <g id="text_61">
      <!-- 0 -->
      <g transform="translate(40.496875 149.69763)scale(0.1 -0.1)">
       <use xlink:href="#SimHei-48"/>
      </g>
     </g>
    </g>
    <g id="ytick_6">
     <g id="line2d_59">
      <g>
       <use style="stroke:#000000;stroke-width:0.8;" x="52.496875" xlink:href="#m39189b4ae7" y="152.294096"/>
      </g>
     </g>
     <g id="text_62">
      <!-- 100 -->
      <g transform="translate(30.496875 155.731596)scale(0.1 -0.1)">
       <use xlink:href="#SimHei-49"/>
       <use x="50" xlink:href="#SimHei-48"/>
       <use x="100" xlink:href="#SimHei-48"/>
      </g>
     </g>
    </g>
    <g id="ytick_7">
     <g id="line2d_60">
      <g>
       <use style="stroke:#000000;stroke-width:0.8;" x="52.496875" xlink:href="#m39189b4ae7" y="158.328062"/>
      </g>
     </g>
     <g id="text_63">
      <!-- 200 -->
      <g transform="translate(30.496875 161.765562)scale(0.1 -0.1)">
       <use xlink:href="#SimHei-50"/>
       <use x="50" xlink:href="#SimHei-48"/>
       <use x="100" xlink:href="#SimHei-48"/>
      </g>
     </g>
    </g>
    <g id="ytick_8">
     <g id="line2d_61">
      <g>
       <use style="stroke:#000000;stroke-width:0.8;" x="52.496875" xlink:href="#m39189b4ae7" y="164.362028"/>
      </g>
     </g>
     <g id="text_64">
      <!-- 300 -->
      <g transform="translate(30.496875 167.799528)scale(0.1 -0.1)">
       <use xlink:href="#SimHei-51"/>
       <use x="50" xlink:href="#SimHei-48"/>
       <use x="100" xlink:href="#SimHei-48"/>
      </g>
     </g>
    </g>
    <g id="ytick_9">
     <g id="line2d_62">
      <g>
       <use style="stroke:#000000;stroke-width:0.8;" x="52.496875" xlink:href="#m39189b4ae7" y="170.395994"/>
      </g>
     </g>
     <g id="text_65">
      <!-- 400 -->
      <g transform="translate(30.496875 173.833494)scale(0.1 -0.1)">
       <use xlink:href="#SimHei-52"/>
       <use x="50" xlink:href="#SimHei-48"/>
       <use x="100" xlink:href="#SimHei-48"/>
      </g>
     </g>
    </g>
    <g id="ytick_10">
     <g id="line2d_63">
      <g>
       <use style="stroke:#000000;stroke-width:0.8;" x="52.496875" xlink:href="#m39189b4ae7" y="176.42996"/>
      </g>
     </g>
     <g id="text_66">
      <!-- 500 -->
      <g transform="translate(30.496875 179.86746)scale(0.1 -0.1)">
       <use xlink:href="#SimHei-53"/>
       <use x="50" xlink:href="#SimHei-48"/>
       <use x="100" xlink:href="#SimHei-48"/>
      </g>
     </g>
    </g>
    <g id="ytick_11">
     <g id="line2d_64">
      <g>
       <use style="stroke:#000000;stroke-width:0.8;" x="52.496875" xlink:href="#m39189b4ae7" y="182.463926"/>
      </g>
     </g>
     <g id="text_67">
      <!-- 600 -->
      <g transform="translate(30.496875 185.901426)scale(0.1 -0.1)">
       <use xlink:href="#SimHei-54"/>
       <use x="50" xlink:href="#SimHei-48"/>
       <use x="100" xlink:href="#SimHei-48"/>
      </g>
     </g>
    </g>
    <g id="ytick_12">
     <g id="line2d_65">
      <g>
       <use style="stroke:#000000;stroke-width:0.8;" x="52.496875" xlink:href="#m39189b4ae7" y="188.497892"/>
      </g>
     </g>
     <g id="text_68">
      <!-- 700 -->
      <g transform="translate(30.496875 191.935392)scale(0.1 -0.1)">
       <use xlink:href="#SimHei-55"/>
       <use x="50" xlink:href="#SimHei-48"/>
       <use x="100" xlink:href="#SimHei-48"/>
      </g>
     </g>
    </g>
    <g id="ytick_13">
     <g id="line2d_66">
      <g>
       <use style="stroke:#000000;stroke-width:0.8;" x="52.496875" xlink:href="#m39189b4ae7" y="194.531858"/>
      </g>
     </g>
     <g id="text_69">
      <!-- 800 -->
      <g transform="translate(30.496875 197.969358)scale(0.1 -0.1)">
       <use xlink:href="#SimHei-56"/>
       <use x="50" xlink:href="#SimHei-48"/>
       <use x="100" xlink:href="#SimHei-48"/>
      </g>
     </g>
    </g>
    <g id="ytick_14">
     <g id="line2d_67">
      <g>
       <use style="stroke:#000000;stroke-width:0.8;" x="52.496875" xlink:href="#m39189b4ae7" y="200.565824"/>
      </g>
     </g>
     <g id="text_70">
      <!-- 900 -->
      <g transform="translate(30.496875 204.003324)scale(0.1 -0.1)">
       <use xlink:href="#SimHei-57"/>
       <use x="50" xlink:href="#SimHei-48"/>
       <use x="100" xlink:href="#SimHei-48"/>
      </g>
     </g>
    </g>
    <g id="ytick_15">
     <g id="line2d_68">
      <g>
       <use style="stroke:#000000;stroke-width:0.8;" x="52.496875" xlink:href="#m39189b4ae7" y="206.59979"/>
      </g>
     </g>
     <g id="text_71">
      <!-- 1000 -->
      <g transform="translate(25.496875 210.03729)scale(0.1 -0.1)">
       <use xlink:href="#SimHei-49"/>
       <use x="50" xlink:href="#SimHei-48"/>
       <use x="100" xlink:href="#SimHei-48"/>
       <use x="150" xlink:href="#SimHei-48"/>
      </g>
     </g>
    </g>
    <g id="ytick_16">
     <g id="line2d_69">
      <g>
       <use style="stroke:#000000;stroke-width:0.8;" x="52.496875" xlink:href="#m39189b4ae7" y="212.633756"/>
      </g>
     </g>
     <g id="text_72">
      <!-- 1100 -->
      <g transform="translate(25.496875 216.071256)scale(0.1 -0.1)">
       <use xlink:href="#SimHei-49"/>
       <use x="50" xlink:href="#SimHei-49"/>
       <use x="100" xlink:href="#SimHei-48"/>
       <use x="150" xlink:href="#SimHei-48"/>
      </g>
     </g>
    </g>
    <g id="ytick_17">
     <g id="line2d_70">
      <g>
       <use style="stroke:#000000;stroke-width:0.8;" x="52.496875" xlink:href="#m39189b4ae7" y="218.667722"/>
      </g>
     </g>
     <g id="text_73">
      <!-- 1200 -->
      <g transform="translate(25.496875 222.105222)scale(0.1 -0.1)">
       <use xlink:href="#SimHei-49"/>
       <use x="50" xlink:href="#SimHei-50"/>
       <use x="100" xlink:href="#SimHei-48"/>
       <use x="150" xlink:href="#SimHei-48"/>
      </g>
     </g>
    </g>
    <g id="ytick_18">
     <g id="line2d_71">
      <g>
       <use style="stroke:#000000;stroke-width:0.8;" x="52.496875" xlink:href="#m39189b4ae7" y="224.701688"/>
      </g>
     </g>
     <g id="text_74">
      <!-- 1300 -->
      <g transform="translate(25.496875 228.139188)scale(0.1 -0.1)">
       <use xlink:href="#SimHei-49"/>
       <use x="50" xlink:href="#SimHei-51"/>
       <use x="100" xlink:href="#SimHei-48"/>
       <use x="150" xlink:href="#SimHei-48"/>
      </g>
     </g>
    </g>
    <g id="ytick_19">
     <g id="line2d_72">
      <g>
       <use style="stroke:#000000;stroke-width:0.8;" x="52.496875" xlink:href="#m39189b4ae7" y="230.735654"/>
      </g>
     </g>
     <g id="text_75">
      <!-- 1400 -->
      <g transform="translate(25.496875 234.173154)scale(0.1 -0.1)">
       <use xlink:href="#SimHei-49"/>
       <use x="50" xlink:href="#SimHei-52"/>
       <use x="100" xlink:href="#SimHei-48"/>
       <use x="150" xlink:href="#SimHei-48"/>
      </g>
     </g>
    </g>
    <g id="ytick_20">
     <g id="line2d_73">
      <g>
       <use style="stroke:#000000;stroke-width:0.8;" x="52.496875" xlink:href="#m39189b4ae7" y="236.76962"/>
      </g>
     </g>
     <g id="text_76">
      <!-- 1500 -->
      <g transform="translate(25.496875 240.20712)scale(0.1 -0.1)">
       <use xlink:href="#SimHei-49"/>
       <use x="50" xlink:href="#SimHei-53"/>
       <use x="100" xlink:href="#SimHei-48"/>
       <use x="150" xlink:href="#SimHei-48"/>
      </g>
     </g>
    </g>
    <g id="text_77">
     <!-- 排名 -->
     <defs>
      <path d="M 3.515625 28.515625 
Q 10.546875 29.6875 17.96875 32.421875 
L 17.96875 53.515625 
L 14.84375 53.515625 
Q 10.15625 53.515625 5.46875 53.125 
L 5.46875 60.15625 
Q 9.375 59.765625 14.84375 59.765625 
L 17.96875 59.765625 
L 17.96875 70.3125 
Q 17.96875 75.78125 17.578125 80.859375 
L 26.171875 80.859375 
Q 25.390625 76.5625 25.390625 70.3125 
L 25.390625 59.765625 
Q 32.421875 59.765625 35.546875 60.15625 
L 35.546875 53.125 
Q 29.296875 53.515625 25.390625 53.515625 
L 25.390625 34.765625 
Q 30.46875 36.328125 35.546875 39.0625 
Q 35.546875 34.375 35.9375 32.03125 
Q 32.421875 30.859375 25.390625 28.125 
L 25.390625 -1.5625 
Q 25 -6.640625 22.0625 -7.8125 
Q 19.140625 -8.984375 10.9375 -10.15625 
Q 9.375 -3.515625 7.03125 -1.171875 
Q 13.671875 -1.953125 15.625 -1.75 
Q 17.578125 -1.5625 17.96875 1.171875 
L 17.96875 25.78125 
Q 13.28125 24.21875 7.03125 20.3125 
Q 5.859375 23.828125 3.515625 28.515625 
z
M 78.90625 80.078125 
Q 78.515625 75 78.515625 67.1875 
L 78.515625 62.5 
Q 89.0625 62.5 95.3125 63.28125 
L 95.3125 55.859375 
Q 89.453125 56.25 86.328125 56.25 
L 78.515625 56.25 
L 78.515625 41.015625 
Q 87.890625 41.015625 92.96875 41.40625 
L 92.96875 33.984375 
Q 87.890625 34.375 78.515625 34.375 
L 78.515625 16.796875 
Q 89.84375 16.796875 96.09375 17.1875 
L 96.09375 9.765625 
Q 91.40625 10.15625 78.515625 10.15625 
L 78.515625 4.296875 
Q 78.515625 1.171875 78.90625 -9.375 
L 71.09375 -9.375 
L 71.09375 67.1875 
Q 71.09375 75.78125 70.703125 80.078125 
L 78.90625 80.078125 
z
M 53.515625 67.96875 
Q 53.515625 76.953125 53.125 80.46875 
L 61.328125 80.46875 
Q 60.9375 75 60.9375 66.40625 
L 60.9375 -9.375 
L 53.125 -9.375 
Q 53.515625 -0.78125 53.515625 4.296875 
L 53.515625 10.15625 
Q 41.015625 10.15625 34.765625 9.765625 
L 34.765625 17.1875 
Q 39.84375 16.796875 53.515625 16.796875 
L 53.515625 34.375 
Q 43.359375 34.375 39.453125 33.59375 
L 39.453125 41.40625 
Q 42.96875 41.015625 53.515625 41.015625 
L 53.515625 56.25 
Q 42.1875 56.25 38.28125 55.859375 
L 38.28125 63.28125 
Q 42.578125 62.5 53.515625 62.5 
z
" id="SimHei-25490"/>
      <path d="M 45.3125 78.125 
Q 43.359375 76.171875 41.984375 74.21875 
Q 40.625 72.265625 38.671875 69.53125 
L 83.59375 69.53125 
Q 78.90625 62.5 70.5 51.75 
Q 62.109375 41.015625 46.484375 31.25 
L 85.9375 31.25 
Q 85.546875 25.390625 85.546875 19.140625 
L 85.546875 3.125 
Q 85.546875 -3.515625 85.9375 -9.765625 
L 77.734375 -9.765625 
L 77.734375 -1.171875 
L 35.15625 -1.171875 
L 35.15625 -10.15625 
L 27.34375 -10.15625 
Q 27.734375 -4.6875 27.734375 2.34375 
L 27.734375 21.875 
Q 14.84375 16.40625 9.765625 14.84375 
Q 8.203125 18.75 4.6875 22.265625 
Q 14.84375 24.21875 27.140625 29.296875 
Q 39.453125 34.375 46.09375 39.453125 
Q 37.5 47.265625 30.859375 51.5625 
Q 33.59375 53.90625 36.328125 57.421875 
Q 48.828125 47.265625 52.734375 44.140625 
Q 62.5 51.5625 70.3125 63.28125 
L 34.765625 63.28125 
Q 23.046875 49.21875 16.40625 44.140625 
Q 14.0625 46.484375 9.375 49.21875 
Q 18.359375 55.078125 24.796875 62.6875 
Q 31.25 70.3125 36.71875 82.03125 
Q 41.796875 79.296875 45.3125 78.125 
z
M 77.734375 5.078125 
L 77.734375 25 
L 35.15625 25 
L 35.15625 5.078125 
z
" id="SimHei-21517"/>
     </defs>
     <g transform="translate(20.246875 200.971818)rotate(-90)scale(0.1 -0.1)">
      <use xlink:href="#SimHei-25490"/>
      <use x="100" xlink:href="#SimHei-21517"/>
     </g>
    </g>
   </g>
   <g id="line2d_74">
    <path clip-path="url(#pc9b7a9c0ba)" d="M 52.496875 240.388712 
L 100.133749 240.27322 
L 114.89447 240.025998 
L 124.958598 239.652555 
L 133.009901 239.14342 
L 139.71932 238.510323 
L 145.757797 237.725206 
L 151.125332 236.814331 
L 156.492867 235.664049 
L 161.18946 234.43128 
L 165.886053 232.961523 
L 170.582647 231.232308 
L 174.608298 229.529093 
L 178.633949 227.612047 
L 182.6596 225.475254 
L 186.685252 223.116629 
L 191.381845 220.087751 
L 196.078438 216.771744 
L 200.775031 213.189221 
L 206.142566 208.806894 
L 212.181043 203.579258 
L 220.232346 196.289022 
L 235.664009 182.240308 
L 241.702486 177.056059 
L 247.070021 172.724094 
L 251.766614 169.19281 
L 256.463208 165.932892 
L 261.159801 162.963139 
L 265.185452 160.656261 
L 269.211103 158.571099 
L 273.236755 156.704625 
L 277.262406 155.050109 
L 281.958999 153.374457 
L 286.655592 151.954001 
L 291.352186 150.765741 
L 296.719721 149.660123 
L 302.087256 148.787266 
L 308.125733 148.037325 
L 314.835152 147.434753 
L 322.886454 146.952155 
L 332.279641 146.617061 
L 345.027536 146.394547 
L 365.826735 146.282598 
L 387.296875 146.26287 
L 387.296875 146.26287 
" style="fill:none;stroke:#1f77b4;stroke-linecap:square;stroke-width:1.5;"/>
   </g>
   <g id="line2d_75">
    <path clip-path="url(#pc9b7a9c0ba)" d="M 270.280831 240.39 
L 270.280831 158.054005 
L 52.496875 158.054005 
" style="fill:none;stroke:#ff0000;stroke-dasharray:7.4,3.2;stroke-dashoffset:0;stroke-width:2;"/>
   </g>
   <g id="line2d_76">
    <path clip-path="url(#pc9b7a9c0ba)" d="M 279.578614 240.39 
L 279.578614 153.870727 
L 52.496875 153.870727 
" style="fill:none;stroke:#008000;stroke-dasharray:5.55,2.4;stroke-dashoffset:0;stroke-width:1.5;"/>
   </g>
   <g id="patch_8">
    <path d="M 52.496875 240.39 
L 52.496875 141.553636 
" style="fill:none;stroke:#000000;stroke-linecap:square;stroke-linejoin:miter;stroke-width:0.8;"/>
   </g>
   <g id="patch_9">
    <path d="M 387.296875 240.39 
L 387.296875 141.553636 
" style="fill:none;stroke:#000000;stroke-linecap:square;stroke-linejoin:miter;stroke-width:0.8;"/>
   </g>
   <g id="patch_10">
    <path d="M 52.496875 240.39 
L 387.296875 240.39 
" style="fill:none;stroke:#000000;stroke-linecap:square;stroke-linejoin:miter;stroke-width:0.8;"/>
   </g>
   <g id="patch_11">
    <path d="M 52.496875 141.553636 
L 387.296875 141.553636 
" style="fill:none;stroke:#000000;stroke-linecap:square;stroke-linejoin:miter;stroke-width:0.8;"/>
   </g>
   <g id="text_78">
    <!-- 分数线 -->
    <g transform="translate(264.458223 162.881178)scale(0.1 -0.1)">
     <use xlink:href="#SimHei-20998"/>
     <use x="100" xlink:href="#SimHei-25968"/>
     <use x="200" xlink:href="#SimHei-32447"/>
    </g>
   </g>
   <g id="text_79">
    <!-- pyq -->
    <g transform="translate(282.489918 155.07752)scale(0.1 -0.1)">
     <use xlink:href="#SimHei-112"/>
     <use x="50" xlink:href="#SimHei-121"/>
     <use x="100" xlink:href="#SimHei-113"/>
    </g>
   </g>
   <g id="text_80">
    <!-- 成绩排名(累计分布) -->
    <defs>
     <path d="M 46.484375 -3.125 
L 42.1875 -7.421875 
Q 32.421875 1.953125 27.53125 12.109375 
Q 22.65625 22.265625 22.65625 35.15625 
Q 22.65625 48.046875 27.53125 58.203125 
Q 32.421875 68.359375 42.1875 78.125 
L 46.484375 73.828125 
Q 37.5 65.234375 33 56.046875 
Q 28.515625 46.875 28.515625 35.15625 
Q 28.515625 23.4375 33 14.25 
Q 37.5 5.078125 46.484375 -3.125 
z
" id="SimHei-40"/>
     <path d="M 85.546875 78.125 
Q 85.15625 71.875 85.15625 62.109375 
Q 85.15625 52.34375 85.546875 46.09375 
L 73.046875 46.09375 
Q 75.78125 43.359375 79.296875 40.625 
Q 75 39.453125 66.203125 35.546875 
Q 57.421875 31.640625 50.96875 28.703125 
Q 44.53125 25.78125 37.5 22.265625 
Q 60.15625 23.828125 72.65625 24.609375 
Q 69.140625 26.953125 65.625 28.90625 
Q 68.359375 31.25 70.3125 33.984375 
Q 80.078125 28.125 92.1875 20.3125 
Q 89.84375 17.578125 87.109375 14.0625 
Q 83.984375 16.796875 79.6875 19.53125 
Q 66.40625 18.359375 54.296875 17.578125 
L 54.296875 0.78125 
Q 54.296875 -5.46875 50.1875 -7.21875 
Q 46.09375 -8.984375 40.625 -9.375 
Q 40.234375 -5.859375 37.109375 -0.78125 
Q 43.75 -1.171875 45.3125 -0.390625 
Q 46.875 0.390625 46.875 1.953125 
L 46.875 16.796875 
Q 37.5 16.40625 31.046875 15.8125 
Q 24.609375 15.234375 13.28125 13.671875 
Q 12.109375 17.578125 10.9375 21.09375 
Q 17.96875 21.875 24.609375 23.625 
Q 31.25 25.390625 47.265625 33.203125 
Q 27.734375 31.640625 19.53125 30.078125 
Q 18.75 34.375 17.1875 37.109375 
Q 20.703125 37.109375 27.140625 39.640625 
Q 33.59375 42.1875 38.671875 46.09375 
L 14.84375 46.09375 
Q 15.234375 52.734375 15.234375 62.109375 
Q 15.234375 71.875 14.84375 78.125 
L 85.546875 78.125 
z
M 37.890625 8.203125 
Q 34.375 6.25 27.53125 2.140625 
Q 20.703125 -1.953125 13.28125 -6.640625 
Q 10.9375 -3.515625 7.8125 -0.390625 
Q 13.28125 1.953125 19.53125 5.65625 
Q 25.78125 9.375 31.640625 14.0625 
Q 33.59375 11.328125 37.890625 8.203125 
z
M 46.484375 64.0625 
L 46.484375 72.65625 
L 22.65625 72.65625 
L 22.65625 64.0625 
z
M 77.734375 64.0625 
L 77.734375 72.65625 
L 53.90625 72.65625 
L 53.90625 64.0625 
z
M 66.796875 13.28125 
Q 74.21875 10.15625 78.90625 7.8125 
L 91.40625 1.5625 
Q 88.671875 -1.953125 87.109375 -5.859375 
Q 80.46875 -1.5625 74.609375 1.5625 
Q 68.75 4.6875 63.28125 7.03125 
Q 65.625 10.546875 66.796875 13.28125 
z
M 46.484375 51.171875 
L 46.484375 58.59375 
L 22.65625 58.59375 
L 22.65625 51.171875 
z
M 77.734375 51.171875 
L 77.734375 58.59375 
L 53.90625 58.59375 
L 53.90625 51.171875 
z
M 57.8125 38.671875 
Q 65.625 42.1875 71.484375 46.09375 
L 50.390625 46.09375 
Q 45.3125 42.96875 35.9375 37.890625 
Q 48.046875 38.28125 57.8125 38.671875 
z
" id="SimHei-32047"/>
     <path d="M 61.328125 48.4375 
L 61.328125 67.96875 
Q 61.328125 75.78125 60.9375 80.078125 
L 69.140625 80.078125 
Q 68.75 75 68.75 71.09375 
L 68.75 48.4375 
L 84.765625 48.4375 
Q 89.453125 48.4375 94.921875 48.828125 
L 94.921875 41.40625 
Q 89.0625 41.796875 85.15625 41.796875 
L 68.75 41.796875 
L 68.75 2.734375 
Q 68.75 -1.953125 69.140625 -8.59375 
L 60.9375 -8.59375 
Q 61.328125 -1.953125 61.328125 2.34375 
L 61.328125 41.796875 
L 46.09375 41.796875 
Q 40.234375 41.796875 34.375 41.40625 
L 34.375 48.828125 
Q 40.234375 48.4375 45.3125 48.4375 
z
M 27.734375 49.21875 
Q 27.34375 41.796875 27.34375 33.59375 
L 27.34375 9.765625 
Q 33.984375 16.40625 37.890625 21.875 
Q 40.234375 18.75 43.359375 15.625 
L 32.421875 4.6875 
Q 27.34375 -0.390625 22.65625 -5.46875 
Q 19.921875 -1.953125 17.578125 0.78125 
Q 20.3125 3.90625 19.921875 10.15625 
L 19.921875 42.578125 
Q 9.375 42.578125 4.296875 42.1875 
L 4.296875 49.609375 
Q 10.546875 49.21875 12.890625 49.21875 
z
M 17.96875 78.90625 
Q 23.046875 73.828125 33.984375 62.5 
Q 30.46875 59.375 27.34375 56.640625 
Q 22.265625 64.0625 12.109375 74.21875 
Q 14.84375 76.171875 17.96875 78.90625 
z
" id="SimHei-35745"/>
     <path d="M 26.171875 35.15625 
Q 26.171875 22.265625 21.28125 12.109375 
Q 16.40625 1.953125 6.640625 -7.421875 
L 2.34375 -3.125 
Q 11.328125 5.078125 15.8125 14.25 
Q 20.3125 23.4375 20.3125 35.15625 
Q 20.3125 46.875 15.8125 56.046875 
Q 11.328125 65.234375 2.34375 73.828125 
L 6.640625 78.125 
Q 16.40625 68.359375 21.28125 58.203125 
Q 26.171875 48.046875 26.171875 35.15625 
z
" id="SimHei-41"/>
    </defs>
    <g transform="translate(165.896875 135.553636)scale(0.12 -0.12)">
     <use xlink:href="#SimHei-25104"/>
     <use x="100" xlink:href="#SimHei-32489"/>
     <use x="200" xlink:href="#SimHei-25490"/>
     <use x="300" xlink:href="#SimHei-21517"/>
     <use x="400" xlink:href="#SimHei-40"/>
     <use x="450" xlink:href="#SimHei-32047"/>
     <use x="550" xlink:href="#SimHei-35745"/>
     <use x="650" xlink:href="#SimHei-20998"/>
     <use x="750" xlink:href="#SimHei-24067"/>
     <use x="850" xlink:href="#SimHei-41"/>
    </g>
   </g>
  </g>
 </g>
 <defs>
  <clipPath id="pb029f8aac6">
   <rect height="98.836364" width="334.8" x="52.496875" y="22.95"/>
  </clipPath>
  <clipPath id="pc9b7a9c0ba">
   <rect height="98.836364" width="334.8" x="52.496875" y="141.553636"/>
  </clipPath>
 </defs>
</svg>
