<?xml version="1.0" encoding="utf-8" standalone="no"?>
<!DOCTYPE svg PUBLIC "-//W3C//DTD SVG 1.1//EN"
  "http://www.w3.org/Graphics/SVG/1.1/DTD/svg11.dtd">
<!-- Created with matplotlib (https://matplotlib.org/) -->
<svg height="302.4pt" version="1.1" viewBox="0 0 446.4 302.4" width="446.4pt" xmlns="http://www.w3.org/2000/svg" xmlns:xlink="http://www.w3.org/1999/xlink">
 <defs>
  <style type="text/css">
*{stroke-linecap:butt;stroke-linejoin:round;}
  </style>
 </defs>
 <g id="figure_1">
  <g id="patch_1">
   <path d="M 0 302.4 
L 446.4 302.4 
L 446.4 0 
L 0 0 
z
" style="fill:none;"/>
  </g>
  <g id="patch_2">
   <path d="M 7.2 295.2 
L 439.2 295.2 
L 439.2 7.2 
L 7.2 7.2 
z
" style="fill:#ffffff;"/>
  </g>
  <g id="pane3d_1">
   <g id="patch_3">
    <path d="M 64.468276 231.56215 
L 188.108936 160.951075 
L 186.05045 26.024902 
L 55.516013 89.4675 
" style="fill:#f2f2f2;opacity:0.5;stroke:#f2f2f2;stroke-linejoin:miter;"/>
   </g>
  </g>
  <g id="pane3d_2">
   <g id="patch_4">
    <path d="M 188.108936 160.951075 
L 388.395181 200.427223 
L 396.774918 61.432405 
L 186.05045 26.024902 
" style="fill:#e6e6e6;opacity:0.5;stroke:#e6e6e6;stroke-linejoin:miter;"/>
   </g>
  </g>
  <g id="pane3d_3">
   <g id="patch_5">
    <path d="M 64.468276 231.56215 
L 275.196469 277.538555 
L 388.395181 200.427223 
L 188.108936 160.951075 
" style="fill:#ececec;opacity:0.5;stroke:#ececec;stroke-linejoin:miter;"/>
   </g>
  </g>
  <g id="axis3d_1">
   <g id="line2d_1">
    <path d="M 64.468276 231.56215 
L 275.196469 277.538555 
" style="fill:none;stroke:#000000;stroke-linecap:square;stroke-width:0.8;"/>
   </g>
   <g id="text_1">
    <!-- X -->
    <defs>
     <path d="M 27.34375 37.5 
L 41.015625 8.203125 
Q 42.1875 5.859375 43.546875 4.875 
Q 44.921875 3.90625 46.484375 3.90625 
L 47.65625 3.90625 
L 47.65625 1.5625 
L 30.859375 1.5625 
L 30.859375 3.90625 
L 32.421875 3.90625 
Q 34.375 3.90625 34.765625 4.484375 
Q 35.15625 5.078125 35.15625 5.859375 
Q 35.15625 6.640625 34.765625 7.421875 
L 24.21875 30.46875 
L 15.234375 11.71875 
Q 14.453125 9.765625 14.0625 8.59375 
Q 13.28125 7.03125 13.28125 6.640625 
Q 13.28125 5.078125 14.25 4.484375 
Q 15.234375 3.90625 16.796875 3.90625 
L 17.578125 3.90625 
L 17.578125 1.5625 
L 2.734375 1.5625 
L 2.734375 3.90625 
L 4.296875 3.90625 
Q 6.25 3.90625 7.8125 5.078125 
Q 9.375 6.25 10.15625 7.8125 
L 22.65625 34.375 
L 9.375 63.28125 
Q 8.984375 64.453125 8 65.234375 
Q 7.03125 66.015625 5.46875 66.015625 
L 3.90625 66.015625 
L 3.90625 68.359375 
L 19.921875 68.359375 
L 19.921875 66.015625 
L 18.75 66.015625 
Q 16.40625 66.015625 16.015625 64.84375 
Q 15.625 63.671875 16.40625 61.328125 
L 25.78125 40.625 
L 35.15625 60.546875 
Q 36.328125 63.28125 35.9375 64.640625 
Q 35.546875 66.015625 33.203125 66.015625 
L 30.859375 66.015625 
L 30.859375 68.359375 
L 46.09375 68.359375 
L 46.09375 66.015625 
L 43.75 66.015625 
Q 42.96875 66.015625 41.796875 65.234375 
Q 40.625 64.453125 39.453125 62.890625 
z
M 8.203125 3.90625 
z
M 11.71875 3.90625 
z
M 41.015625 66.015625 
z
M 36.328125 66.015625 
z
M 36.328125 3.90625 
z
M 42.96875 3.90625 
z
M 14.453125 66.015625 
z
M 8.203125 66.015625 
z
" id="SimSun-88"/>
    </defs>
    <g transform="translate(148.219095 285.889837)scale(0.1 -0.1)">
     <use xlink:href="#SimSun-88"/>
    </g>
   </g>
   <g id="Line3DCollection_1">
    <path d="M 91.554611 237.471811 
L 213.928431 166.040063 
L 213.164063 30.580734 
" style="fill:none;stroke:#b0b0b0;stroke-width:0.8;"/>
    <path d="M 117.416347 243.114292 
L 238.559812 170.894875 
L 239.044197 34.929308 
" style="fill:none;stroke:#b0b0b0;stroke-width:0.8;"/>
    <path d="M 143.574885 248.821528 
L 263.453239 175.801335 
L 265.213746 39.326511 
" style="fill:none;stroke:#b0b0b0;stroke-width:0.8;"/>
    <path d="M 170.035362 254.594641 
L 288.612916 180.760274 
L 291.677592 43.773165 
" style="fill:none;stroke:#b0b0b0;stroke-width:0.8;"/>
    <path d="M 196.803037 260.434777 
L 314.043137 185.772535 
L 318.440728 48.270108 
" style="fill:none;stroke:#b0b0b0;stroke-width:0.8;"/>
    <path d="M 223.883291 266.343112 
L 339.748289 190.838986 
L 345.50826 52.818197 
" style="fill:none;stroke:#b0b0b0;stroke-width:0.8;"/>
    <path d="M 251.28163 272.320847 
L 365.732856 195.960509 
L 372.88541 57.418311 
" style="fill:none;stroke:#b0b0b0;stroke-width:0.8;"/>
   </g>
   <g id="xtick_1">
    <g id="line2d_2">
     <path d="M 92.609161 236.856252 
L 89.441563 238.705234 
" style="fill:none;stroke:#000000;stroke-linecap:square;stroke-width:0.8;"/>
    </g>
    <g id="text_2">
     <!-- 26.75 -->
     <defs>
      <path d="M 36.328125 51.953125 
Q 36.328125 58.984375 33.203125 62.6875 
Q 30.078125 66.40625 23.828125 66.40625 
Q 19.140625 66.40625 15.8125 63.859375 
Q 12.5 61.328125 12.5 57.421875 
Q 12.5 55.078125 14.0625 53.515625 
Q 15.234375 51.953125 15.234375 50.390625 
Q 15.234375 48.4375 14.25 47.453125 
Q 13.28125 46.484375 11.328125 46.484375 
Q 8.984375 46.484375 7.609375 47.84375 
Q 6.25 49.21875 6.25 52.34375 
Q 6.25 60.546875 12.109375 64.84375 
Q 17.96875 69.140625 24.609375 69.140625 
Q 33.984375 69.140625 38.46875 64.453125 
Q 42.96875 59.765625 42.96875 52.734375 
Q 42.96875 48.046875 40.8125 43.359375 
Q 38.671875 38.671875 33.984375 34.375 
Q 22.65625 23.4375 16.59375 16.59375 
Q 10.546875 9.765625 9.375 7.421875 
L 32.421875 7.421875 
Q 35.9375 7.421875 38.28125 10.15625 
Q 40.625 12.890625 41.40625 18.359375 
L 43.75 18.359375 
L 41.40625 1.5625 
L 5.078125 1.5625 
L 5.078125 6.640625 
Q 7.03125 10.15625 11.515625 15.625 
Q 16.015625 21.09375 23.4375 28.515625 
Q 30.078125 35.15625 33.203125 41.015625 
Q 36.328125 46.875 36.328125 51.953125 
z
" id="SimSun-50"/>
      <path d="M 12.109375 28.125 
Q 12.109375 16.40625 16.203125 9.953125 
Q 20.3125 3.515625 26.171875 3.515625 
Q 32.03125 3.515625 35.15625 7.8125 
Q 38.28125 12.109375 38.28125 23.828125 
Q 38.28125 31.640625 34.953125 35.9375 
Q 31.640625 40.234375 26.953125 40.234375 
Q 22.65625 40.234375 18.9375 37.6875 
Q 15.234375 35.15625 12.109375 28.125 
z
M 27.34375 44.140625 
Q 36.71875 44.140625 40.8125 37.890625 
Q 44.921875 31.640625 44.921875 23.828125 
Q 44.921875 12.109375 39.25 6.4375 
Q 33.59375 0.78125 26.171875 0.78125 
Q 15.625 0.78125 10.15625 8.78125 
Q 4.6875 16.796875 4.6875 32.03125 
Q 4.6875 50 11.328125 59.5625 
Q 17.96875 69.140625 29.296875 69.140625 
Q 34.765625 69.140625 38.078125 66.015625 
Q 41.40625 62.890625 41.40625 60.546875 
Q 41.40625 58.203125 40.421875 57.03125 
Q 39.453125 55.859375 37.109375 55.859375 
Q 35.15625 55.859375 34.171875 56.828125 
Q 33.203125 57.8125 33.203125 59.765625 
Q 33.203125 60.546875 33.59375 61.328125 
Q 33.59375 62.109375 33.59375 62.890625 
Q 33.59375 64.453125 32.421875 65.421875 
Q 31.25 66.40625 28.125 66.40625 
Q 21.484375 66.40625 16.796875 60.34375 
Q 12.109375 54.296875 12.109375 33.984375 
Q 14.453125 39.0625 18.546875 41.59375 
Q 22.65625 44.140625 27.34375 44.140625 
z
" id="SimSun-54"/>
      <path d="M 12.5 0.390625 
Q 10.15625 0.390625 8.390625 1.953125 
Q 6.640625 3.515625 6.640625 6.25 
Q 6.640625 8.984375 8.390625 10.546875 
Q 10.15625 12.109375 12.5 12.109375 
Q 14.84375 12.109375 16.59375 10.34375 
Q 18.359375 8.59375 18.359375 6.25 
Q 18.359375 3.515625 16.59375 1.953125 
Q 14.84375 0.390625 12.5 0.390625 
z
" id="SimSun-46"/>
      <path d="M 44.140625 65.625 
Q 35.9375 52.34375 31.046875 39.640625 
Q 26.171875 26.953125 26.171875 17.578125 
Q 26.171875 16.015625 26.5625 13.28125 
Q 26.5625 10.15625 26.5625 6.25 
Q 26.5625 3.125 25.578125 1.953125 
Q 24.609375 0.78125 22.265625 0.78125 
Q 20.3125 0.78125 18.9375 2.140625 
Q 17.578125 3.515625 17.578125 7.03125 
Q 17.578125 14.453125 20.890625 25.390625 
Q 24.21875 36.328125 38.671875 62.5 
L 19.140625 62.5 
Q 14.84375 62.5 12.296875 59.765625 
Q 9.765625 57.03125 8.59375 51.5625 
L 6.25 51.953125 
L 8.984375 68.359375 
L 44.140625 68.359375 
z
" id="SimSun-55"/>
      <path d="M 26.953125 44.53125 
Q 34.375 44.53125 39.0625 38.859375 
Q 43.75 33.203125 43.75 23.828125 
Q 43.75 13.28125 38.859375 7.03125 
Q 33.984375 0.78125 23.828125 0.78125 
Q 16.796875 0.78125 11.328125 4.875 
Q 5.859375 8.984375 5.859375 14.84375 
Q 5.859375 17.1875 7.21875 18.9375 
Q 8.59375 20.703125 10.9375 20.703125 
Q 13.28125 20.703125 14.0625 19.140625 
Q 14.84375 17.578125 14.84375 16.40625 
Q 14.84375 14.0625 13.671875 12.890625 
Q 12.5 11.328125 12.5 9.765625 
Q 12.5 6.640625 16.203125 5.078125 
Q 19.921875 3.515625 24.21875 3.515625 
Q 30.46875 3.515625 33.78125 8.59375 
Q 37.109375 13.671875 37.109375 23.046875 
Q 37.109375 30.859375 34.171875 35.734375 
Q 31.25 40.625 25.390625 40.625 
Q 21.09375 40.625 17.96875 39.0625 
Q 14.84375 37.5 12.109375 32.421875 
L 8.59375 32.8125 
L 10.546875 68.359375 
L 42.578125 68.359375 
L 41.40625 62.5 
L 13.28125 62.5 
L 11.71875 36.71875 
Q 15.625 42.1875 19.328125 43.359375 
Q 23.046875 44.53125 26.953125 44.53125 
z
" id="SimSun-53"/>
     </defs>
     <g transform="translate(71.390138 257.659621)scale(0.1 -0.1)">
      <use xlink:href="#SimSun-50"/>
      <use x="50" xlink:href="#SimSun-54"/>
      <use x="100" xlink:href="#SimSun-46"/>
      <use x="150" xlink:href="#SimSun-55"/>
      <use x="200" xlink:href="#SimSun-53"/>
     </g>
    </g>
   </g>
   <g id="xtick_2">
    <g id="line2d_3">
     <path d="M 118.460722 242.49169 
L 115.323668 244.361838 
" style="fill:none;stroke:#000000;stroke-linecap:square;stroke-width:0.8;"/>
    </g>
    <g id="text_3">
     <!-- 27.00 -->
     <defs>
      <path d="M 25 66.015625 
Q 19.53125 66.015625 15.8125 57.609375 
Q 12.109375 49.21875 12.109375 35.15625 
Q 12.109375 20.3125 15.8125 12.109375 
Q 19.53125 3.90625 25 3.90625 
Q 30.859375 3.90625 34.171875 12.109375 
Q 37.5 20.3125 37.5 35.15625 
Q 37.5 49.21875 34.375 57.609375 
Q 31.25 66.015625 25 66.015625 
z
M 25 0.78125 
Q 16.40625 0.78125 10.546875 9.765625 
Q 4.6875 18.75 4.6875 35.15625 
Q 4.6875 50.390625 10.34375 59.765625 
Q 16.015625 69.140625 25 69.140625 
Q 33.59375 69.140625 39.25 60.15625 
Q 44.921875 51.171875 44.921875 35.15625 
Q 44.921875 19.140625 39.25 9.953125 
Q 33.59375 0.78125 25 0.78125 
z
" id="SimSun-48"/>
     </defs>
     <g transform="translate(97.24954 263.385663)scale(0.1 -0.1)">
      <use xlink:href="#SimSun-50"/>
      <use x="50" xlink:href="#SimSun-55"/>
      <use x="100" xlink:href="#SimSun-46"/>
      <use x="150" xlink:href="#SimSun-48"/>
      <use x="200" xlink:href="#SimSun-48"/>
     </g>
    </g>
   </g>
   <g id="xtick_3">
    <g id="line2d_4">
     <path d="M 144.60878 248.191763 
L 141.503182 250.083442 
" style="fill:none;stroke:#000000;stroke-linecap:square;stroke-width:0.8;"/>
    </g>
    <g id="text_4">
     <!-- 27.25 -->
     <g transform="translate(123.406193 269.177526)scale(0.1 -0.1)">
      <use xlink:href="#SimSun-50"/>
      <use x="50" xlink:href="#SimSun-55"/>
      <use x="100" xlink:href="#SimSun-46"/>
      <use x="150" xlink:href="#SimSun-50"/>
      <use x="200" xlink:href="#SimSun-53"/>
     </g>
    </g>
   </g>
   <g id="xtick_4">
    <g id="line2d_5">
     <path d="M 171.058466 253.957588 
L 167.985261 255.871172 
" style="fill:none;stroke:#000000;stroke-linecap:square;stroke-width:0.8;"/>
    </g>
    <g id="text_5">
     <!-- 27.50 -->
     <g transform="translate(149.865255 275.036351)scale(0.1 -0.1)">
      <use xlink:href="#SimSun-50"/>
      <use x="50" xlink:href="#SimSun-55"/>
      <use x="100" xlink:href="#SimSun-46"/>
      <use x="150" xlink:href="#SimSun-53"/>
      <use x="200" xlink:href="#SimSun-48"/>
     </g>
    </g>
   </g>
   <g id="xtick_5">
    <g id="line2d_6">
     <path d="M 197.815028 259.790309 
L 194.775181 261.726181 
" style="fill:none;stroke:#000000;stroke-linecap:square;stroke-width:0.8;"/>
    </g>
    <g id="text_6">
     <!-- 27.75 -->
     <g transform="translate(176.631999 280.963306)scale(0.1 -0.1)">
      <use xlink:href="#SimSun-50"/>
      <use x="50" xlink:href="#SimSun-55"/>
      <use x="100" xlink:href="#SimSun-46"/>
      <use x="150" xlink:href="#SimSun-55"/>
      <use x="200" xlink:href="#SimSun-53"/>
     </g>
    </g>
   </g>
   <g id="xtick_6">
    <g id="line2d_7">
     <path d="M 224.883839 265.691099 
L 221.878341 267.64965 
" style="fill:none;stroke:#000000;stroke-linecap:square;stroke-width:0.8;"/>
    </g>
    <g id="text_7">
     <!-- 28.00 -->
     <defs>
      <path d="M 9.765625 17.578125 
Q 9.765625 11.328125 13.859375 7.421875 
Q 17.96875 3.515625 24.21875 3.515625 
Q 31.640625 3.515625 34.953125 7.421875 
Q 38.28125 11.328125 38.28125 17.1875 
Q 38.28125 22.265625 33.59375 26.953125 
Q 28.90625 31.640625 19.53125 35.546875 
Q 14.84375 32.421875 12.296875 27.734375 
Q 9.765625 23.046875 9.765625 17.578125 
z
M 44.140625 18.359375 
Q 44.140625 10.9375 38.671875 5.859375 
Q 33.203125 0.78125 24.21875 0.78125 
Q 16.015625 0.78125 10.15625 5.859375 
Q 4.296875 10.9375 4.296875 17.578125 
Q 4.296875 24.21875 7.609375 28.90625 
Q 10.9375 33.59375 17.1875 37.109375 
Q 11.71875 39.84375 8.78125 43.9375 
Q 5.859375 48.046875 5.859375 53.125 
Q 5.859375 59.765625 10.9375 64.453125 
Q 16.015625 69.140625 25 69.140625 
Q 33.203125 69.140625 38.28125 64.453125 
Q 43.359375 59.765625 43.359375 53.125 
Q 43.359375 48.4375 40.421875 44.328125 
Q 37.5 40.234375 31.25 37.109375 
Q 37.890625 33.203125 41.015625 28.515625 
Q 44.140625 23.828125 44.140625 18.359375 
z
M 37.890625 52.734375 
Q 37.890625 58.203125 34.765625 62.296875 
Q 31.640625 66.40625 25 66.40625 
Q 17.578125 66.40625 14.453125 62.5 
Q 11.328125 58.59375 11.328125 54.296875 
Q 11.328125 50 15.8125 45.890625 
Q 20.3125 41.796875 28.515625 38.671875 
Q 33.203125 41.015625 35.546875 44.53125 
Q 37.890625 48.046875 37.890625 52.734375 
z
" id="SimSun-56"/>
     </defs>
     <g transform="translate(203.711823 286.959586)scale(0.1 -0.1)">
      <use xlink:href="#SimSun-50"/>
      <use x="50" xlink:href="#SimSun-56"/>
      <use x="100" xlink:href="#SimSun-46"/>
      <use x="150" xlink:href="#SimSun-48"/>
      <use x="200" xlink:href="#SimSun-48"/>
     </g>
    </g>
   </g>
   <g id="xtick_7">
    <g id="line2d_8">
     <path d="M 252.270397 271.661155 
L 249.300267 273.642786 
" style="fill:none;stroke:#000000;stroke-linecap:square;stroke-width:0.8;"/>
    </g>
    <g id="text_8">
     <!-- 28.25 -->
     <g transform="translate(231.110253 293.026415)scale(0.1 -0.1)">
      <use xlink:href="#SimSun-50"/>
      <use x="50" xlink:href="#SimSun-56"/>
      <use x="100" xlink:href="#SimSun-46"/>
      <use x="150" xlink:href="#SimSun-50"/>
      <use x="200" xlink:href="#SimSun-53"/>
     </g>
    </g>
   </g>
  </g>
  <g id="axis3d_2">
   <g id="line2d_9">
    <path d="M 388.395181 200.427223 
L 275.196469 277.538555 
" style="fill:none;stroke:#000000;stroke-linecap:square;stroke-width:0.8;"/>
   </g>
   <g id="text_9">
    <!-- Y -->
    <defs>
     <path d="M 37.109375 61.328125 
Q 37.5 63.671875 36.515625 64.84375 
Q 35.546875 66.015625 32.8125 66.015625 
L 32.03125 66.015625 
L 32.03125 68.359375 
L 47.265625 68.359375 
L 47.265625 66.015625 
L 46.09375 66.015625 
Q 44.140625 66.015625 42.578125 64.640625 
Q 41.015625 63.28125 39.84375 60.546875 
L 27.734375 29.6875 
L 27.734375 7.03125 
Q 27.734375 5.46875 28.703125 4.6875 
Q 29.6875 3.90625 31.25 3.90625 
L 34.765625 3.90625 
L 34.765625 1.5625 
L 14.453125 1.5625 
L 14.453125 3.90625 
L 17.96875 3.90625 
Q 19.921875 3.90625 20.703125 4.6875 
Q 21.484375 5.46875 21.484375 7.03125 
L 21.484375 27.34375 
L 8.203125 61.71875 
Q 7.421875 63.671875 6.25 64.84375 
Q 5.078125 66.015625 3.125 66.015625 
L 2.34375 66.015625 
L 2.34375 68.359375 
L 19.53125 68.359375 
L 19.53125 66.015625 
L 17.1875 66.015625 
Q 14.84375 66.015625 14.453125 64.84375 
Q 14.0625 63.671875 14.84375 61.328125 
L 25.390625 32.421875 
L 26.171875 32.421875 
z
M 42.1875 66.015625 
z
M 39.0625 66.015625 
z
M 13.28125 66.015625 
z
M 6.640625 66.015625 
z
" id="SimSun-89"/>
    </defs>
    <g transform="translate(359.365557 264.352314)scale(0.1 -0.1)">
     <use xlink:href="#SimSun-89"/>
    </g>
   </g>
   <g id="Line3DCollection_2">
    <path d="M 70.164642 82.347945 
L 78.295318 223.665537 
L 287.89352 268.889283 
" style="fill:none;stroke:#b0b0b0;stroke-width:0.8;"/>
    <path d="M 86.334452 74.489063 
L 93.572262 214.940888 
L 301.910896 259.3406 
" style="fill:none;stroke:#b0b0b0;stroke-width:0.8;"/>
    <path d="M 102.202306 66.776938 
L 108.578265 206.370973 
L 315.668356 249.968974 
" style="fill:none;stroke:#b0b0b0;stroke-width:0.8;"/>
    <path d="M 117.776585 59.207496 
L 123.320472 197.951711 
L 329.173061 240.769525 
" style="fill:none;stroke:#b0b0b0;stroke-width:0.8;"/>
    <path d="M 133.065362 51.776816 
L 137.805778 189.679165 
L 342.431913 231.737551 
" style="fill:none;stroke:#b0b0b0;stroke-width:0.8;"/>
    <path d="M 148.076416 44.481115 
L 152.040841 181.549533 
L 355.451567 222.86852 
" style="fill:none;stroke:#b0b0b0;stroke-width:0.8;"/>
    <path d="M 162.817245 37.316748 
L 166.032089 173.559143 
L 368.238436 214.158063 
" style="fill:none;stroke:#b0b0b0;stroke-width:0.8;"/>
    <path d="M 177.295083 30.280202 
L 179.785734 165.704449 
L 380.798709 205.601964 
" style="fill:none;stroke:#b0b0b0;stroke-width:0.8;"/>
   </g>
   <g id="xtick_8">
    <g id="line2d_10">
     <path d="M 286.139622 268.510855 
L 291.405222 269.646982 
" style="fill:none;stroke:#000000;stroke-linecap:square;stroke-width:0.8;"/>
    </g>
    <g id="text_10">
     <!-- 33.75 -->
     <defs>
      <path d="M 43.75 19.53125 
Q 43.75 12.109375 38.28125 6.4375 
Q 32.8125 0.78125 23.046875 0.78125 
Q 16.015625 0.78125 10.9375 4.6875 
Q 5.859375 8.59375 5.859375 13.671875 
Q 5.859375 16.015625 7.421875 17.765625 
Q 8.984375 19.53125 10.546875 19.53125 
Q 12.890625 19.53125 13.859375 17.765625 
Q 14.84375 16.015625 14.84375 14.84375 
Q 14.84375 12.890625 14.0625 11.71875 
Q 13.28125 10.15625 13.28125 8.984375 
Q 13.28125 6.640625 16.203125 5.078125 
Q 19.140625 3.515625 22.65625 3.515625 
Q 29.6875 3.515625 33.203125 7.609375 
Q 36.71875 11.71875 36.71875 20.3125 
Q 36.71875 27.34375 33 31.640625 
Q 29.296875 35.9375 19.140625 35.9375 
L 19.140625 38.671875 
Q 26.953125 38.671875 30.65625 42.375 
Q 34.375 46.09375 34.375 52.734375 
Q 34.375 58.203125 31.4375 62.296875 
Q 28.515625 66.40625 22.265625 66.40625 
Q 19.53125 66.40625 16.40625 65.03125 
Q 13.28125 63.671875 13.28125 60.546875 
Q 13.28125 57.421875 14.0625 56.640625 
Q 14.84375 55.859375 14.84375 54.6875 
Q 14.84375 52.734375 14.0625 51.5625 
Q 13.28125 50.390625 11.328125 50.390625 
Q 9.765625 50.390625 8.390625 51.5625 
Q 7.03125 52.734375 7.03125 55.859375 
Q 7.03125 61.71875 12.109375 65.421875 
Q 17.1875 69.140625 23.828125 69.140625 
Q 31.640625 69.140625 36.328125 64.25 
Q 41.015625 59.375 41.015625 53.90625 
Q 41.015625 48.046875 38.078125 43.9375 
Q 35.15625 39.84375 28.90625 37.890625 
Q 37.5 34.765625 40.625 29.6875 
Q 43.75 24.609375 43.75 19.53125 
z
" id="SimSun-51"/>
     </defs>
     <g transform="translate(288.645919 287.391842)scale(0.1 -0.1)">
      <use xlink:href="#SimSun-51"/>
      <use x="50" xlink:href="#SimSun-51"/>
      <use x="100" xlink:href="#SimSun-46"/>
      <use x="150" xlink:href="#SimSun-55"/>
      <use x="200" xlink:href="#SimSun-53"/>
     </g>
    </g>
   </g>
   <g id="xtick_9">
    <g id="line2d_11">
     <path d="M 300.168256 258.96922 
L 305.400024 260.084179 
" style="fill:none;stroke:#000000;stroke-linecap:square;stroke-width:0.8;"/>
    </g>
    <g id="text_11">
     <!-- 34.00 -->
     <defs>
      <path d="M 35.9375 8.984375 
Q 35.9375 6.25 37.5 5.078125 
Q 39.0625 3.90625 41.796875 3.90625 
L 45.3125 3.90625 
L 45.3125 1.5625 
L 19.53125 1.5625 
L 19.53125 3.90625 
L 23.828125 3.90625 
Q 26.953125 3.90625 28.3125 5.078125 
Q 29.6875 6.25 29.6875 8.984375 
L 29.6875 21.875 
L 3.515625 21.875 
L 3.515625 23.828125 
L 32.03125 69.140625 
L 35.9375 69.140625 
L 35.9375 24.21875 
L 46.484375 24.21875 
L 46.484375 21.875 
L 35.9375 21.875 
z
M 29.296875 59.375 
L 7.03125 24.21875 
L 29.6875 24.21875 
L 29.6875 59.375 
z
" id="SimSun-52"/>
     </defs>
     <g transform="translate(302.533226 277.741114)scale(0.1 -0.1)">
      <use xlink:href="#SimSun-51"/>
      <use x="50" xlink:href="#SimSun-52"/>
      <use x="100" xlink:href="#SimSun-46"/>
      <use x="150" xlink:href="#SimSun-48"/>
      <use x="200" xlink:href="#SimSun-48"/>
     </g>
    </g>
   </g>
   <g id="xtick_10">
    <g id="line2d_12">
     <path d="M 313.936858 249.604447 
L 319.135137 250.698824 
" style="fill:none;stroke:#000000;stroke-linecap:square;stroke-width:0.8;"/>
    </g>
    <g id="text_12">
     <!-- 34.25 -->
     <g transform="translate(316.163138 268.269258)scale(0.1 -0.1)">
      <use xlink:href="#SimSun-51"/>
      <use x="50" xlink:href="#SimSun-52"/>
      <use x="100" xlink:href="#SimSun-46"/>
      <use x="150" xlink:href="#SimSun-50"/>
      <use x="200" xlink:href="#SimSun-53"/>
     </g>
    </g>
   </g>
   <g id="xtick_11">
    <g id="line2d_13">
     <path d="M 327.452592 240.411663 
L 332.617725 241.486023 
" style="fill:none;stroke:#000000;stroke-linecap:square;stroke-width:0.8;"/>
    </g>
    <g id="text_13">
     <!-- 34.50 -->
     <g transform="translate(329.542747 258.971345)scale(0.1 -0.1)">
      <use xlink:href="#SimSun-51"/>
      <use x="50" xlink:href="#SimSun-52"/>
      <use x="100" xlink:href="#SimSun-46"/>
      <use x="150" xlink:href="#SimSun-53"/>
      <use x="200" xlink:href="#SimSun-48"/>
     </g>
    </g>
   </g>
   <g id="xtick_12">
    <g id="line2d_14">
     <path d="M 340.722361 231.386173 
L 345.854687 232.44106 
" style="fill:none;stroke:#000000;stroke-linecap:square;stroke-width:0.8;"/>
    </g>
    <g id="text_14">
     <!-- 34.75 -->
     <g transform="translate(342.678884 249.842629)scale(0.1 -0.1)">
      <use xlink:href="#SimSun-51"/>
      <use x="50" xlink:href="#SimSun-52"/>
      <use x="100" xlink:href="#SimSun-46"/>
      <use x="150" xlink:href="#SimSun-55"/>
      <use x="200" xlink:href="#SimSun-53"/>
     </g>
    </g>
   </g>
   <g id="xtick_13">
    <g id="line2d_15">
     <path d="M 353.752819 222.523452 
L 358.852675 223.55939 
" style="fill:none;stroke:#000000;stroke-linecap:square;stroke-width:0.8;"/>
    </g>
    <g id="text_15">
     <!-- 35.00 -->
     <g transform="translate(355.578135 240.878533)scale(0.1 -0.1)">
      <use xlink:href="#SimSun-51"/>
      <use x="50" xlink:href="#SimSun-53"/>
      <use x="100" xlink:href="#SimSun-46"/>
      <use x="150" xlink:href="#SimSun-48"/>
      <use x="200" xlink:href="#SimSun-48"/>
     </g>
    </g>
   </g>
   <g id="xtick_14">
    <g id="line2d_16">
     <path d="M 366.550381 213.819136 
L 371.618103 214.836632 
" style="fill:none;stroke:#000000;stroke-linecap:square;stroke-width:0.8;"/>
    </g>
    <g id="text_16">
     <!-- 35.25 -->
     <g transform="translate(368.24685 232.074642)scale(0.1 -0.1)">
      <use xlink:href="#SimSun-51"/>
      <use x="50" xlink:href="#SimSun-53"/>
      <use x="100" xlink:href="#SimSun-46"/>
      <use x="150" xlink:href="#SimSun-50"/>
      <use x="200" xlink:href="#SimSun-53"/>
     </g>
    </g>
   </g>
   <g id="xtick_15">
    <g id="line2d_17">
     <path d="M 379.121237 205.269016 
L 384.157158 206.268557 
" style="fill:none;stroke:#000000;stroke-linecap:square;stroke-width:0.8;"/>
    </g>
    <g id="text_17">
     <!-- 35.50 -->
     <g transform="translate(380.691156 223.426701)scale(0.1 -0.1)">
      <use xlink:href="#SimSun-51"/>
      <use x="50" xlink:href="#SimSun-53"/>
      <use x="100" xlink:href="#SimSun-46"/>
      <use x="150" xlink:href="#SimSun-53"/>
      <use x="200" xlink:href="#SimSun-48"/>
     </g>
    </g>
   </g>
  </g>
  <g id="axis3d_3">
   <g id="line2d_18">
    <path d="M 388.395181 200.427223 
L 396.774918 61.432405 
" style="fill:none;stroke:#000000;stroke-linecap:square;stroke-width:0.8;"/>
   </g>
   <g id="text_18">
    <!-- Z -->
    <defs>
     <path d="M 28.125 3.90625 
Q 33.203125 3.90625 36.90625 7.21875 
Q 40.625 10.546875 42.96875 17.1875 
L 45.3125 16.796875 
L 41.015625 1.5625 
L 3.515625 1.5625 
L 37.890625 66.015625 
L 24.21875 66.015625 
Q 19.140625 66.015625 15.03125 63.078125 
Q 10.9375 60.15625 7.8125 54.296875 
L 5.46875 55.078125 
L 10.15625 68.359375 
L 45.703125 68.359375 
L 11.328125 3.90625 
z
" id="SimSun-90"/>
    </defs>
    <g transform="translate(432.668903 131.826911)scale(0.1 -0.1)">
     <use xlink:href="#SimSun-90"/>
    </g>
   </g>
   <g id="Line3DCollection_3">
    <path d="M 388.769681 194.215384 
L 188.016748 154.908509 
L 64.068846 225.222211 
" style="fill:none;stroke:#b0b0b0;stroke-width:0.8;"/>
    <path d="M 390.156717 171.208601 
L 187.675469 132.538911 
L 62.588944 201.73249 
" style="fill:none;stroke:#b0b0b0;stroke-width:0.8;"/>
    <path d="M 391.568052 147.798757 
L 187.328463 109.793978 
L 61.08225 177.817511 
" style="fill:none;stroke:#b0b0b0;stroke-width:0.8;"/>
    <path d="M 393.004332 123.975168 
L 186.975586 86.664184 
L 59.548029 153.465621 
" style="fill:none;stroke:#b0b0b0;stroke-width:0.8;"/>
    <path d="M 394.466222 99.726767 
L 186.616687 63.139677 
L 57.985521 128.664736 
" style="fill:none;stroke:#b0b0b0;stroke-width:0.8;"/>
    <path d="M 395.954415 75.042088 
L 186.251611 39.210266 
L 56.393936 103.402323 
" style="fill:none;stroke:#b0b0b0;stroke-width:0.8;"/>
   </g>
   <g id="xtick_16">
    <g id="line2d_19">
     <path d="M 387.094592 193.887407 
L 392.123349 194.872024 
" style="fill:none;stroke:#000000;stroke-linecap:square;stroke-width:0.8;"/>
    </g>
    <g id="text_19">
     <!-- 28.0 -->
     <g transform="translate(398.014967 199.526022)scale(0.1 -0.1)">
      <use xlink:href="#SimSun-50"/>
      <use x="50" xlink:href="#SimSun-56"/>
      <use x="100" xlink:href="#SimSun-46"/>
      <use x="150" xlink:href="#SimSun-48"/>
     </g>
    </g>
   </g>
   <g id="xtick_17">
    <g id="line2d_20">
     <path d="M 388.466602 170.885824 
L 393.540499 171.854832 
" style="fill:none;stroke:#000000;stroke-linecap:square;stroke-width:0.8;"/>
    </g>
    <g id="text_20">
     <!-- 28.2 -->
     <g transform="translate(399.566073 176.548408)scale(0.1 -0.1)">
      <use xlink:href="#SimSun-50"/>
      <use x="50" xlink:href="#SimSun-56"/>
      <use x="100" xlink:href="#SimSun-46"/>
      <use x="150" xlink:href="#SimSun-50"/>
     </g>
    </g>
   </g>
   <g id="xtick_18">
    <g id="line2d_21">
     <path d="M 389.86264 147.481415 
L 394.982493 148.434114 
" style="fill:none;stroke:#000000;stroke-linecap:square;stroke-width:0.8;"/>
    </g>
    <g id="text_21">
     <!-- 28.4 -->
     <g transform="translate(401.1443 153.169041)scale(0.1 -0.1)">
      <use xlink:href="#SimSun-50"/>
      <use x="50" xlink:href="#SimSun-56"/>
      <use x="100" xlink:href="#SimSun-46"/>
      <use x="150" xlink:href="#SimSun-52"/>
     </g>
    </g>
   </g>
   <g id="xtick_19">
    <g id="line2d_22">
     <path d="M 391.283342 123.663504 
L 396.449991 124.599163 
" style="fill:none;stroke:#000000;stroke-linecap:square;stroke-width:0.8;"/>
    </g>
    <g id="text_22">
     <!-- 28.6 -->
     <g transform="translate(402.750365 129.377291)scale(0.1 -0.1)">
      <use xlink:href="#SimSun-50"/>
      <use x="50" xlink:href="#SimSun-56"/>
      <use x="100" xlink:href="#SimSun-46"/>
      <use x="150" xlink:href="#SimSun-54"/>
     </g>
    </g>
   </g>
   <g id="xtick_20">
    <g id="line2d_23">
     <path d="M 392.729369 99.421034 
L 397.943676 100.338892 
" style="fill:none;stroke:#000000;stroke-linecap:square;stroke-width:0.8;"/>
    </g>
    <g id="text_23">
     <!-- 28.8 -->
     <g transform="translate(404.38501 105.162151)scale(0.1 -0.1)">
      <use xlink:href="#SimSun-50"/>
      <use x="50" xlink:href="#SimSun-56"/>
      <use x="100" xlink:href="#SimSun-46"/>
      <use x="150" xlink:href="#SimSun-56"/>
     </g>
    </g>
   </g>
   <g id="xtick_21">
    <g id="line2d_24">
     <path d="M 394.201404 74.742552 
L 399.464254 75.641813 
" style="fill:none;stroke:#000000;stroke-linecap:square;stroke-width:0.8;"/>
    </g>
    <g id="text_24">
     <!-- 29.0 -->
     <defs>
      <path d="M 10.9375 47.65625 
Q 10.9375 39.0625 14.25 34.5625 
Q 17.578125 30.078125 22.65625 30.078125 
Q 28.515625 30.078125 32.8125 35.546875 
Q 37.109375 41.015625 37.109375 45.703125 
Q 37.109375 55.078125 33.984375 60.734375 
Q 30.859375 66.40625 23.828125 66.40625 
Q 17.1875 66.40625 14.0625 61.125 
Q 10.9375 55.859375 10.9375 47.65625 
z
M 21.484375 26.5625 
Q 13.671875 26.5625 8.984375 31.4375 
Q 4.296875 36.328125 4.296875 47.265625 
Q 4.296875 56.640625 9.375 62.890625 
Q 14.453125 69.140625 23.828125 69.140625 
Q 33.59375 69.140625 39.0625 61.328125 
Q 44.53125 53.515625 44.53125 38.671875 
Q 44.53125 22.265625 38.078125 11.515625 
Q 31.640625 0.78125 20.3125 0.78125 
Q 15.234375 0.78125 11.515625 3.125 
Q 7.8125 5.46875 7.8125 9.375 
Q 7.8125 10.9375 8.78125 12.5 
Q 9.765625 14.0625 12.109375 14.0625 
Q 14.453125 14.0625 15.234375 12.296875 
Q 16.015625 10.546875 16.015625 8.203125 
Q 16.015625 6.640625 16.40625 5.65625 
Q 16.796875 4.6875 17.1875 4.296875 
Q 17.578125 3.90625 18.546875 3.703125 
Q 19.53125 3.515625 20.703125 3.515625 
Q 27.734375 3.515625 32.03125 11.328125 
Q 36.328125 19.140625 37.109375 37.5 
Q 35.15625 32.8125 31.25 29.6875 
Q 27.34375 26.5625 21.484375 26.5625 
z
" id="SimSun-57"/>
     </defs>
     <g transform="translate(406.049007 80.512217)scale(0.1 -0.1)">
      <use xlink:href="#SimSun-50"/>
      <use x="50" xlink:href="#SimSun-57"/>
      <use x="100" xlink:href="#SimSun-46"/>
      <use x="150" xlink:href="#SimSun-48"/>
     </g>
    </g>
   </g>
  </g>
  <g id="axes_1">
   <g id="Poly3DCollection_1">
    <path clip-path="url(#pe1d0b185f1)" d="M 181.023537 178.372837 
L 174.423923 173.566115 
L 187.422616 154.362594 
L 194.056173 159.179457 
z
" style="fill:#6a22fe;"/>
    <path clip-path="url(#pe1d0b185f1)" d="M 174.423923 173.566115 
L 168.845213 169.295049 
L 181.838799 150.047206 
L 187.422616 154.362594 
z
" style="fill:#583efd;"/>
    <path clip-path="url(#pe1d0b185f1)" d="M 188.419012 183.550997 
L 181.023537 178.372837 
L 194.056173 159.179457 
L 201.513465 164.33329 
z
" style="fill:#7610ff;"/>
    <path clip-path="url(#pe1d0b185f1)" d="M 168.845213 169.295049 
L 164.483642 165.70887 
L 177.501143 146.383819 
L 181.838799 150.047206 
z
" style="fill:#445cfb;"/>
    <path clip-path="url(#pe1d0b185f1)" d="M 194.056173 159.179457 
L 187.422616 154.362594 
L 200.52937 134.99943 
L 207.197208 139.826436 
z
" style="fill:#1996f3;"/>
    <path clip-path="url(#pe1d0b185f1)" d="M 187.422616 154.362594 
L 181.838799 150.047206 
L 194.940554 130.639129 
L 200.52937 134.99943 
z
" style="fill:#08acee;"/>
    <path clip-path="url(#pe1d0b185f1)" d="M 196.360162 188.924105 
L 188.419012 183.550997 
L 201.513465 164.33329 
L 209.542551 169.648326 
z
" style="fill:#7e03ff;"/>
    <path clip-path="url(#pe1d0b185f1)" d="M 201.513465 164.33329 
L 194.056173 159.179457 
L 207.197208 139.826436 
L 214.717091 144.955357 
z
" style="fill:#2686f5;"/>
    <path clip-path="url(#pe1d0b185f1)" d="M 164.483642 165.70887 
L 161.502579 162.938873 
L 174.57242 143.506049 
L 177.501143 146.383819 
z
" style="fill:#2c7ef7;"/>
    <path clip-path="url(#pe1d0b185f1)" d="M 181.838799 150.047206 
L 177.501143 146.383819 
L 190.627363 126.897369 
L 194.940554 130.639129 
z
" style="fill:#0dc2e8;"/>
    <path clip-path="url(#pe1d0b185f1)" d="M 207.197208 139.826436 
L 200.52937 134.99943 
L 213.745538 115.474623 
L 220.447999 120.311774 
z
" style="fill:#37e6d8;"/>
    <path clip-path="url(#pe1d0b185f1)" d="M 200.52937 134.99943 
L 194.940554 130.639129 
L 208.151834 111.068807 
L 213.745538 115.474623 
z
" style="fill:#48f1d0;"/>
    <path clip-path="url(#pe1d0b185f1)" d="M 209.542551 169.648326 
L 201.513465 164.33329 
L 214.717091 144.955357 
L 222.835309 150.21116 
z
" style="fill:#2e7bf7;"/>
    <path clip-path="url(#pe1d0b185f1)" d="M 204.575386 194.306231 
L 196.360162 188.924105 
L 209.542551 169.648326 
L 217.869265 174.940365 
z
" style="fill:#8000ff;"/>
    <path clip-path="url(#pe1d0b185f1)" d="M 214.717091 144.955357 
L 207.197208 139.826436 
L 220.447999 120.311774 
L 228.031262 125.415186 
z
" style="fill:#2adddd;"/>
    <path clip-path="url(#pe1d0b185f1)" d="M 177.501143 146.383819 
L 174.57242 143.506049 
L 187.751964 123.910113 
L 190.627363 126.897369 
z
" style="fill:#24d8df;"/>
    <path clip-path="url(#pe1d0b185f1)" d="M 194.940554 130.639129 
L 190.627363 126.897369 
L 203.863672 107.247487 
L 208.151834 111.068807 
z
" style="fill:#5df9c7;"/>
    <path clip-path="url(#pe1d0b185f1)" d="M 220.447999 120.311774 
L 213.745538 115.474623 
L 227.072497 95.786141 
L 233.809928 100.633438 
z
" style="fill:#86ffb0;"/>
    <path clip-path="url(#pe1d0b185f1)" d="M 161.502579 162.938873 
L 160.027754 161.094996 
L 173.176963 141.527182 
L 174.57242 143.506049 
z
" style="fill:#11a0f1;"/>
    <path clip-path="url(#pe1d0b185f1)" d="M 213.745538 115.474623 
L 208.151834 111.068807 
L 221.474019 91.334198 
L 227.072497 95.786141 
z
" style="fill:#99fca6;"/>
    <path clip-path="url(#pe1d0b185f1)" d="M 222.835309 150.21116 
L 214.717091 144.955357 
L 228.031262 125.415186 
L 236.239828 130.610573 
z
" style="fill:#22d6e0;"/>
    <path clip-path="url(#pe1d0b185f1)" d="M 217.869265 174.940365 
L 209.542551 169.648326 
L 222.835309 150.21116 
L 231.275101 155.411407 
z
" style="fill:#3079f7;"/>
    <path clip-path="url(#pe1d0b185f1)" d="M 228.031262 125.415186 
L 220.447999 120.311774 
L 233.809928 100.633438 
L 241.457373 105.71073 
z
" style="fill:#7affb7;"/>
    <path clip-path="url(#pe1d0b185f1)" d="M 190.627363 126.897369 
L 187.751964 123.910113 
L 201.042599 104.149003 
L 203.863672 107.247487 
z
" style="fill:#74feba;"/>
    <path clip-path="url(#pe1d0b185f1)" d="M 208.151834 111.068807 
L 203.863672 107.247487 
L 217.21146 87.432111 
L 221.474019 91.334198 
z
" style="fill:#acf59a;"/>
    <path clip-path="url(#pe1d0b185f1)" d="M 212.776064 199.505326 
L 204.575386 194.306231 
L 217.869265 174.940365 
L 226.201582 180.020112 
z
" style="fill:#7e03ff;"/>
    <path clip-path="url(#pe1d0b185f1)" d="M 174.57242 143.506049 
L 173.176963 141.527182 
L 186.437268 121.794043 
L 187.751964 123.910113 
z
" style="fill:#3febd5;"/>
    <path clip-path="url(#pe1d0b185f1)" d="M 236.239828 130.610573 
L 228.031262 125.415186 
L 241.457373 105.71073 
L 249.757525 110.844495 
z
" style="fill:#72febb;"/>
    <path clip-path="url(#pe1d0b185f1)" d="M 231.275101 155.411407 
L 222.835309 150.21116 
L 236.239828 130.610573 
L 244.794312 135.717288 
z
" style="fill:#20d5e1;"/>
    <path clip-path="url(#pe1d0b185f1)" d="M 203.863672 107.247487 
L 201.042599 104.149003 
L 214.445734 84.220622 
L 217.21146 87.432111 
z
" style="fill:#c4e88a;"/>
    <path clip-path="url(#pe1d0b185f1)" d="M 160.027754 161.094996 
L 160.141671 160.261772 
L 173.395043 140.536136 
L 173.176963 141.527182 
z
" style="fill:#0ac0e8;"/>
    <path clip-path="url(#pe1d0b185f1)" d="M 226.201582 180.020112 
L 217.869265 174.940365 
L 231.275101 155.411407 
L 239.740994 160.3696 
z
" style="fill:#2e7bf7;"/>
    <path clip-path="url(#pe1d0b185f1)" d="M 187.751964 123.910113 
L 186.437268 121.794043 
L 199.810081 101.893476 
L 201.042599 104.149003 
z
" style="fill:#8efeac;"/>
    <path clip-path="url(#pe1d0b185f1)" d="M 244.794312 135.717288 
L 236.239828 130.610573 
L 249.757525 110.844495 
L 258.428344 115.855904 
z
" style="fill:#70febc;"/>
    <path clip-path="url(#pe1d0b185f1)" d="M 173.176963 141.527182 
L 173.395043 140.536136 
L 186.761277 120.642522 
L 186.437268 121.794043 
z
" style="fill:#5af8c8;"/>
    <path clip-path="url(#pe1d0b185f1)" d="M 220.662218 204.32744 
L 212.776064 199.505326 
L 226.201582 180.020112 
L 234.23527 184.697397 
z
" style="fill:#7610ff;"/>
    <path clip-path="url(#pe1d0b185f1)" d="M 239.740994 160.3696 
L 231.275101 155.411407 
L 244.794312 135.717288 
L 253.395754 140.551675 
z
" style="fill:#22d6e0;"/>
    <path clip-path="url(#pe1d0b185f1)" d="M 201.042599 104.149003 
L 199.810081 101.893476 
L 213.296842 81.82334 
L 214.445734 84.220622 
z
" style="fill:#ded579;"/>
    <path clip-path="url(#pe1d0b185f1)" d="M 160.141671 160.261772 
L 161.877371 160.493712 
L 175.256595 140.592808 
L 173.395043 140.536136 
z
" style="fill:#24d8df;"/>
    <path clip-path="url(#pe1d0b185f1)" d="M 186.437268 121.794043 
L 186.761277 120.642522 
L 200.241821 100.578775 
L 199.810081 101.893476 
z
" style="fill:#abf69b;"/>
    <path clip-path="url(#pe1d0b185f1)" d="M 234.23527 184.697397 
L 226.201582 180.020112 
L 239.740994 160.3696 
L 247.924447 164.899407 
z
" style="fill:#2686f5;"/>
    <path clip-path="url(#pe1d0b185f1)" d="M 253.395754 140.551675 
L 244.794312 135.717288 
L 258.428344 115.855904 
L 267.167343 120.56419 
z
" style="fill:#72febb;"/>
    <path clip-path="url(#pe1d0b185f1)" d="M 173.395043 140.536136 
L 175.256595 140.592808 
L 188.750775 120.520912 
L 186.761277 120.642522 
z
" style="fill:#74feba;"/>
    <path clip-path="url(#pe1d0b185f1)" d="M 199.810081 101.893476 
L 200.241821 100.578775 
L 213.838147 80.342704 
L 213.296842 81.82334 
z
" style="fill:#fbb965;"/>
    <path clip-path="url(#pe1d0b185f1)" d="M 247.924447 164.899407 
L 239.740994 160.3696 
L 253.395754 140.551675 
L 261.731248 144.931304 
z
" style="fill:#2adddd;"/>
    <path clip-path="url(#pe1d0b185f1)" d="M 227.930044 208.582145 
L 220.662218 204.32744 
L 234.23527 184.697397 
L 241.661438 188.786584 
z
" style="fill:#6826fe;"/>
    <path clip-path="url(#pe1d0b185f1)" d="M 186.761277 120.642522 
L 188.750775 120.520912 
L 202.361399 100.275812 
L 200.241821 100.578775 
z
" style="fill:#c4e88a;"/>
    <path clip-path="url(#pe1d0b185f1)" d="M 261.731248 144.931304 
L 253.395754 140.551675 
L 267.167343 120.56419 
L 275.657194 124.790888 
z
" style="fill:#7affb7;"/>
    <path clip-path="url(#pe1d0b185f1)" d="M 241.661438 188.786584 
L 234.23527 184.697397 
L 247.924447 164.899407 
L 255.511419 168.820067 
z
" style="fill:#1898f2;"/>
    <path clip-path="url(#pe1d0b185f1)" d="M 161.877371 160.493712 
L 165.212007 161.810323 
L 178.734768 141.723024 
L 175.256595 140.592808 
z
" style="fill:#3febd5;"/>
    <path clip-path="url(#pe1d0b185f1)" d="M 200.241821 100.578775 
L 202.361399 100.275812 
L 216.08998 79.855256 
L 213.838147 80.342704 
z
" style="fill:#ff9b52;"/>
    <path clip-path="url(#pe1d0b185f1)" d="M 255.511419 168.820067 
L 247.924447 164.899407 
L 261.731248 144.931304 
L 269.481527 148.68037 
z
" style="fill:#38e7d7;"/>
    <path clip-path="url(#pe1d0b185f1)" d="M 175.256595 140.592808 
L 178.734768 141.723024 
L 192.374844 121.461458 
L 188.750775 120.520912 
z
" style="fill:#8efeac;"/>
    <path clip-path="url(#pe1d0b185f1)" d="M 234.281737 212.089375 
L 227.930044 208.582145 
L 241.661438 188.786584 
L 248.176439 192.113373 
z
" style="fill:#5641fd;"/>
    <path clip-path="url(#pe1d0b185f1)" d="M 269.481527 148.68037 
L 261.731248 144.931304 
L 275.657194 124.790888 
L 283.573334 128.365228 
z
" style="fill:#88ffaf;"/>
    <path clip-path="url(#pe1d0b185f1)" d="M 188.750775 120.520912 
L 192.374844 121.461458 
L 206.13377 101.02335 
L 202.361399 100.275812 
z
" style="fill:#ded579;"/>
    <path clip-path="url(#pe1d0b185f1)" d="M 248.176439 192.113373 
L 241.661438 188.786584 
L 255.511419 168.820067 
L 262.192329 171.963143 
z
" style="fill:#06aeed;"/>
    <path clip-path="url(#pe1d0b185f1)" d="M 165.212007 161.810323 
L 170.06101 164.191241 
L 183.740097 143.913533 
L 178.734768 141.723024 
z
" style="fill:#56f7ca;"/>
    <path clip-path="url(#pe1d0b185f1)" d="M 202.361399 100.275812 
L 206.13377 101.02335 
L 220.013104 80.40638 
L 216.08998 79.855256 
z
" style="fill:#ff793e;"/>
    <path clip-path="url(#pe1d0b185f1)" d="M 262.192329 171.963143 
L 255.511419 168.820067 
L 269.481527 148.68037 
L 276.330998 151.636396 
z
" style="fill:#4af2cf;"/>
    <path clip-path="url(#pe1d0b185f1)" d="M 178.734768 141.723024 
L 183.740097 143.913533 
L 197.539048 123.458141 
L 192.374844 121.461458 
z
" style="fill:#a6f89d;"/>
    <path clip-path="url(#pe1d0b185f1)" d="M 239.437766 214.687672 
L 234.281737 212.089375 
L 248.176439 192.113373 
L 253.494278 194.522943 
z
" style="fill:#425ffa;"/>
    <path clip-path="url(#pe1d0b185f1)" d="M 276.330998 151.636396 
L 269.481527 148.68037 
L 283.573334 128.365228 
L 290.594067 131.130802 
z
" style="fill:#9bfba5;"/>
    <path clip-path="url(#pe1d0b185f1)" d="M 192.374844 121.461458 
L 197.539048 123.458141 
L 211.459444 102.82272 
L 206.13377 101.02335 
z
" style="fill:#f6be68;"/>
    <path clip-path="url(#pe1d0b185f1)" d="M 253.494278 194.522943 
L 248.176439 192.113373 
L 262.192329 171.963143 
L 267.674623 174.18057 
z
" style="fill:#0fc4e7;"/>
    <path clip-path="url(#pe1d0b185f1)" d="M 170.06101 164.191241 
L 176.273945 167.572144 
L 190.116418 147.107705 
L 183.740097 143.913533 
z
" style="fill:#6afdc0;"/>
    <path clip-path="url(#pe1d0b185f1)" d="M 206.13377 101.02335 
L 211.459444 102.82272 
L 225.502897 82.004882 
L 220.013104 80.40638 
z
" style="fill:#ff562c;"/>
    <path clip-path="url(#pe1d0b185f1)" d="M 267.674623 174.18057 
L 262.192329 171.963143 
L 276.330998 151.636396 
L 281.980443 153.658196 
z
" style="fill:#5efac6;"/>
    <path clip-path="url(#pe1d0b185f1)" d="M 183.740097 143.913533 
L 190.116418 147.107705 
L 204.081396 126.462156 
L 197.539048 123.458141 
z
" style="fill:#bbee91;"/>
    <path clip-path="url(#pe1d0b185f1)" d="M 243.151331 216.243532 
L 239.437766 214.687672 
L 253.494278 194.522943 
L 257.361302 195.889139 
z
" style="fill:#2884f6;"/>
    <path clip-path="url(#pe1d0b185f1)" d="M 281.980443 153.658196 
L 276.330998 151.636396 
L 290.594067 131.130802 
L 296.413412 132.953422 
z
" style="fill:#b0f397;"/>
    <path clip-path="url(#pe1d0b185f1)" d="M 197.539048 123.458141 
L 204.081396 126.462156 
L 218.170515 105.633081 
L 211.459444 102.82272 
z
" style="fill:#ffa759;"/>
    <path clip-path="url(#pe1d0b185f1)" d="M 257.361302 195.889139 
L 253.494278 194.522943 
L 267.674623 174.18057 
L 271.697682 175.353678 
z
" style="fill:#28dbde;"/>
    <path clip-path="url(#pe1d0b185f1)" d="M 176.273945 167.572144 
L 183.633328 171.842306 
L 197.639806 151.202783 
L 190.116418 147.107705 
z
" style="fill:#7affb7;"/>
    <path clip-path="url(#pe1d0b185f1)" d="M 211.459444 102.82272 
L 218.170515 105.633081 
L 232.385436 84.618023 
L 225.502897 82.004882 
z
" style="fill:#ff381c;"/>
    <path clip-path="url(#pe1d0b185f1)" d="M 271.697682 175.353678 
L 267.674623 174.18057 
L 281.980443 153.658196 
L 286.162166 154.634719 
z
" style="fill:#78ffb8;"/>
    <path clip-path="url(#pe1d0b185f1)" d="M 190.116418 147.107705 
L 197.639806 151.202783 
L 211.771422 130.378859 
L 204.081396 126.462156 
z
" style="fill:#cbe486;"/>
    <path clip-path="url(#pe1d0b185f1)" d="M 245.224215 216.661208 
L 243.151331 216.243532 
L 257.361302 195.889139 
L 259.572359 196.12403 
z
" style="fill:#0ea5ef;"/>
    <path clip-path="url(#pe1d0b185f1)" d="M 286.162166 154.634719 
L 281.980443 153.658196 
L 296.413412 132.953422 
L 300.756479 133.729794 
z
" style="fill:#c8e688;"/>
    <path clip-path="url(#pe1d0b185f1)" d="M 204.081396 126.462156 
L 211.771422 130.378859 
L 226.029862 109.368053 
L 218.170515 105.633081 
z
" style="fill:#ff934d;"/>
    <path clip-path="url(#pe1d0b185f1)" d="M 183.633328 171.842306 
L 191.857693 176.844728 
L 206.021872 156.049621 
L 197.639806 151.202783 
z
" style="fill:#86ffb0;"/>
    <path clip-path="url(#pe1d0b185f1)" d="M 259.572359 196.12403 
L 257.361302 195.889139 
L 271.697682 175.353678 
L 274.049305 175.402491 
z
" style="fill:#42edd3;"/>
    <path clip-path="url(#pe1d0b185f1)" d="M 218.170515 105.633081 
L 226.029862 109.368053 
L 240.416839 88.167837 
L 232.385436 84.618023 
z
" style="fill:#ff1f10;"/>
    <path clip-path="url(#pe1d0b185f1)" d="M 245.522636 215.891981 
L 245.224215 216.661208 
L 259.572359 196.12403 
L 259.987052 195.186837 
z
" style="fill:#0dc2e8;"/>
    <path clip-path="url(#pe1d0b185f1)" d="M 197.639806 151.202783 
L 206.021872 156.049621 
L 220.313696 135.067114 
L 211.771422 130.378859 
z
" style="fill:#d6db7e;"/>
    <path clip-path="url(#pe1d0b185f1)" d="M 274.049305 175.402491 
L 271.697682 175.353678 
L 286.162166 154.634719 
L 288.656795 154.494098 
z
" style="fill:#92fda9;"/>
    <path clip-path="url(#pe1d0b185f1)" d="M 191.857693 176.844728 
L 200.609961 182.379663 
L 214.918445 161.455772 
L 206.021872 156.049621 
z
" style="fill:#8efeac;"/>
    <path clip-path="url(#pe1d0b185f1)" d="M 259.987052 195.186837 
L 259.572359 196.12403 
L 274.049305 175.402491 
L 274.582358 174.294328 
z
" style="fill:#5df9c7;"/>
    <path clip-path="url(#pe1d0b185f1)" d="M 211.771422 130.378859 
L 220.313696 135.067114 
L 234.734897 113.894662 
L 226.029862 109.368053 
z
" style="fill:#ff8444;"/>
    <path clip-path="url(#pe1d0b185f1)" d="M 288.656795 154.494098 
L 286.162166 154.634719 
L 300.756479 133.729794 
L 303.396603 133.396313 
z
" style="fill:#e2d176;"/>
    <path clip-path="url(#pe1d0b185f1)" d="M 243.991248 213.941637 
L 245.522636 215.891981 
L 259.987052 195.186837 
L 258.544176 193.091009 
z
" style="fill:#28dbde;"/>
    <path clip-path="url(#pe1d0b185f1)" d="M 206.021872 156.049621 
L 214.918445 161.455772 
L 229.356832 140.34192 
L 220.313696 135.067114 
z
" style="fill:#ded579;"/>
    <path clip-path="url(#pe1d0b185f1)" d="M 274.582358 174.294328 
L 274.049305 175.402491 
L 288.656795 154.494098 
L 289.31034 153.211901 
z
" style="fill:#acf59a;"/>
    <path clip-path="url(#pe1d0b185f1)" d="M 226.029862 109.368053 
L 234.734897 113.894662 
L 249.28724 92.529675 
L 240.416839 88.167837 
z
" style="fill:#ff0d06;"/>
    <path clip-path="url(#pe1d0b185f1)" d="M 200.609961 182.379663 
L 209.511578 188.212067 
L 223.944105 167.192461 
L 214.918445 161.455772 
z
" style="fill:#8efeac;"/>
    <path clip-path="url(#pe1d0b185f1)" d="M 258.544176 193.091009 
L 259.987052 195.186837 
L 274.582358 174.294328 
L 273.229668 172.050451 
z
" style="fill:#78ffb8;"/>
    <path clip-path="url(#pe1d0b185f1)" d="M 220.313696 135.067114 
L 229.356832 140.34192 
L 243.926898 119.035508 
L 234.734897 113.894662 
z
" style="fill:#ff793e;"/>
    <path clip-path="url(#pe1d0b185f1)" d="M 240.663176 210.874818 
L 243.991248 213.941637 
L 258.544176 193.091009 
L 255.272201 189.908121 
z
" style="fill:#40ecd4;"/>
    <path clip-path="url(#pe1d0b185f1)" d="M 289.31034 153.211901 
L 288.656795 154.494098 
L 303.396603 133.396313 
L 304.172814 131.936954 
z
" style="fill:#fcb763;"/>
    <path clip-path="url(#pe1d0b185f1)" d="M 214.918445 161.455772 
L 223.944105 167.192461 
L 238.508429 145.980904 
L 229.356832 140.34192 
z
" style="fill:#ded579;"/>
    <path clip-path="url(#pe1d0b185f1)" d="M 209.511578 188.212067 
L 218.162043 194.082979 
L 232.692168 173.005515 
L 223.944105 167.192461 
z
" style="fill:#8bfeae;"/>
    <path clip-path="url(#pe1d0b185f1)" d="M 273.229668 172.050451 
L 274.582358 174.294328 
L 289.31034 153.211901 
L 288.049545 150.817354 
z
" style="fill:#c8e688;"/>
    <path clip-path="url(#pe1d0b185f1)" d="M 235.664085 206.815129 
L 240.663176 210.874818 
L 255.272201 189.908121 
L 250.29373 185.767502 
z
" style="fill:#58f8c9;"/>
    <path clip-path="url(#pe1d0b185f1)" d="M 234.734897 113.894662 
L 243.926898 119.035508 
L 258.630454 97.533889 
L 249.28724 92.529675 
z
" style="fill:#ff0000;"/>
    <path clip-path="url(#pe1d0b185f1)" d="M 255.272201 189.908121 
L 258.544176 193.091009 
L 273.229668 172.050451 
L 270.014955 168.749497 
z
" style="fill:#92fda9;"/>
    <path clip-path="url(#pe1d0b185f1)" d="M 218.162043 194.082979 
L 226.16246 199.72416 
L 240.75871 178.629641 
L 232.692168 173.005515 
z
" style="fill:#82ffb3;"/>
    <path clip-path="url(#pe1d0b185f1)" d="M 226.16246 199.72416 
L 233.140871 204.874709 
L 247.768295 183.804805 
L 240.75871 178.629641 
z
" style="fill:#74feba;"/>
    <path clip-path="url(#pe1d0b185f1)" d="M 229.356832 140.34192 
L 238.508429 145.980904 
L 253.206363 124.574756 
L 243.926898 119.035508 
z
" style="fill:#ff793e;"/>
    <path clip-path="url(#pe1d0b185f1)" d="M 223.944105 167.192461 
L 232.692168 173.005515 
L 247.35552 151.734793 
L 238.508429 145.980904 
z
" style="fill:#dbd87b;"/>
    <path clip-path="url(#pe1d0b185f1)" d="M 288.049545 150.817354 
L 289.31034 153.211901 
L 304.172814 131.936954 
L 303.005659 129.389065 
z
" style="fill:#ff964f;"/>
    <path clip-path="url(#pe1d0b185f1)" d="M 250.29373 185.767502 
L 255.272201 189.908121 
L 270.014955 168.749497 
L 265.057693 164.52663 
z
" style="fill:#a8f79c;"/>
    <path clip-path="url(#pe1d0b185f1)" d="M 270.014955 168.749497 
L 273.229668 172.050451 
L 288.049545 150.817354 
L 284.893285 147.396297 
z
" style="fill:#e2d176;"/>
    <path clip-path="url(#pe1d0b185f1)" d="M 232.692168 173.005515 
L 240.75871 178.629641 
L 255.489065 157.341314 
L 247.35552 151.734793 
z
" style="fill:#d2de81;"/>
    <path clip-path="url(#pe1d0b185f1)" d="M 240.75871 178.629641 
L 247.768295 183.804805 
L 262.530103 162.541328 
L 255.489065 157.341314 
z
" style="fill:#c4e88a;"/>
    <path clip-path="url(#pe1d0b185f1)" d="M 243.926898 119.035508 
L 253.206363 124.574756 
L 268.039756 102.971326 
L 258.630454 97.533889 
z
" style="fill:#ff0000;"/>
    <path clip-path="url(#pe1d0b185f1)" d="M 238.508429 145.980904 
L 247.35552 151.734793 
L 262.153937 130.268144 
L 253.206363 124.574756 
z
" style="fill:#ff7e41;"/>
    <path clip-path="url(#pe1d0b185f1)" d="M 265.057693 164.52663 
L 270.014955 168.749497 
L 284.893285 147.396297 
L 279.957834 143.08984 
z
" style="fill:#f9bb66;"/>
    <path clip-path="url(#pe1d0b185f1)" d="M 284.893285 147.396297 
L 288.049545 150.817354 
L 303.005659 129.389065 
L 299.909068 125.845825 
z
" style="fill:#ff733b;"/>
    <path clip-path="url(#pe1d0b185f1)" d="M 247.35552 151.734793 
L 255.489065 157.341314 
L 270.355382 135.856494 
L 262.153937 130.268144 
z
" style="fill:#ff8947;"/>
    <path clip-path="url(#pe1d0b185f1)" d="M 255.489065 157.341314 
L 262.530103 162.541328 
L 277.428156 141.081598 
L 270.355382 135.856494 
z
" style="fill:#ff9b52;"/>
    <path clip-path="url(#pe1d0b185f1)" d="M 253.206363 124.574756 
L 262.153937 130.268144 
L 277.089295 108.602847 
L 268.039756 102.971326 
z
" style="fill:#ff0302;"/>
    <path clip-path="url(#pe1d0b185f1)" d="M 279.957834 143.08984 
L 284.893285 147.396297 
L 299.909068 125.845825 
L 294.996046 121.454408 
z
" style="fill:#ff532a;"/>
    <path clip-path="url(#pe1d0b185f1)" d="M 262.153937 130.268144 
L 270.355382 135.856494 
L 285.359551 114.172449 
L 277.089295 108.602847 
z
" style="fill:#ff1309;"/>
    <path clip-path="url(#pe1d0b185f1)" d="M 270.355382 135.856494 
L 277.428156 141.081598 
L 292.464349 119.422886 
L 285.359551 114.172449 
z
" style="fill:#ff2914;"/>
   </g>
  </g>
 </g>
 <defs>
  <clipPath id="pe1d0b185f1">
   <rect height="288" width="432" x="7.2" y="7.2"/>
  </clipPath>
 </defs>
</svg>
