<?xml version="1.0" encoding="utf-8" standalone="no"?>
<!DOCTYPE svg PUBLIC "-//W3C//DTD SVG 1.1//EN"
  "http://www.w3.org/Graphics/SVG/1.1/DTD/svg11.dtd">
<!-- Created with matplotlib (https://matplotlib.org/) -->
<svg height="302.4pt" version="1.1" viewBox="0 0 446.4 302.4" width="446.4pt" xmlns="http://www.w3.org/2000/svg" xmlns:xlink="http://www.w3.org/1999/xlink">
 <defs>
  <style type="text/css">
*{stroke-linecap:butt;stroke-linejoin:round;}
  </style>
 </defs>
 <g id="figure_1">
  <g id="patch_1">
   <path d="M 0 302.4 
L 446.4 302.4 
L 446.4 0 
L 0 0 
z
" style="fill:none;"/>
  </g>
  <g id="patch_2">
   <path d="M 7.2 295.2 
L 439.2 295.2 
L 439.2 7.2 
L 7.2 7.2 
z
" style="fill:#ffffff;"/>
  </g>
  <g id="pane3d_1">
   <g id="patch_3">
    <path d="M 64.468276 231.56215 
L 188.108936 160.951075 
L 186.05045 26.024902 
L 55.516013 89.4675 
" style="fill:#f2f2f2;opacity:0.5;stroke:#f2f2f2;stroke-linejoin:miter;"/>
   </g>
  </g>
  <g id="pane3d_2">
   <g id="patch_4">
    <path d="M 188.108936 160.951075 
L 388.395181 200.427223 
L 396.774918 61.432405 
L 186.05045 26.024902 
" style="fill:#e6e6e6;opacity:0.5;stroke:#e6e6e6;stroke-linejoin:miter;"/>
   </g>
  </g>
  <g id="pane3d_3">
   <g id="patch_5">
    <path d="M 64.468276 231.56215 
L 275.196469 277.538555 
L 388.395181 200.427223 
L 188.108936 160.951075 
" style="fill:#ececec;opacity:0.5;stroke:#ececec;stroke-linejoin:miter;"/>
   </g>
  </g>
  <g id="axis3d_1">
   <g id="line2d_1">
    <path d="M 64.468276 231.56215 
L 275.196469 277.538555 
" style="fill:none;stroke:#000000;stroke-linecap:square;stroke-width:0.8;"/>
   </g>
   <g id="text_1">
    <!-- X -->
    <defs>
     <path d="M 27.34375 37.5 
L 41.015625 8.203125 
Q 42.1875 5.859375 43.546875 4.875 
Q 44.921875 3.90625 46.484375 3.90625 
L 47.65625 3.90625 
L 47.65625 1.5625 
L 30.859375 1.5625 
L 30.859375 3.90625 
L 32.421875 3.90625 
Q 34.375 3.90625 34.765625 4.484375 
Q 35.15625 5.078125 35.15625 5.859375 
Q 35.15625 6.640625 34.765625 7.421875 
L 24.21875 30.46875 
L 15.234375 11.71875 
Q 14.453125 9.765625 14.0625 8.59375 
Q 13.28125 7.03125 13.28125 6.640625 
Q 13.28125 5.078125 14.25 4.484375 
Q 15.234375 3.90625 16.796875 3.90625 
L 17.578125 3.90625 
L 17.578125 1.5625 
L 2.734375 1.5625 
L 2.734375 3.90625 
L 4.296875 3.90625 
Q 6.25 3.90625 7.8125 5.078125 
Q 9.375 6.25 10.15625 7.8125 
L 22.65625 34.375 
L 9.375 63.28125 
Q 8.984375 64.453125 8 65.234375 
Q 7.03125 66.015625 5.46875 66.015625 
L 3.90625 66.015625 
L 3.90625 68.359375 
L 19.921875 68.359375 
L 19.921875 66.015625 
L 18.75 66.015625 
Q 16.40625 66.015625 16.015625 64.84375 
Q 15.625 63.671875 16.40625 61.328125 
L 25.78125 40.625 
L 35.15625 60.546875 
Q 36.328125 63.28125 35.9375 64.640625 
Q 35.546875 66.015625 33.203125 66.015625 
L 30.859375 66.015625 
L 30.859375 68.359375 
L 46.09375 68.359375 
L 46.09375 66.015625 
L 43.75 66.015625 
Q 42.96875 66.015625 41.796875 65.234375 
Q 40.625 64.453125 39.453125 62.890625 
z
M 8.203125 3.90625 
z
M 11.71875 3.90625 
z
M 41.015625 66.015625 
z
M 36.328125 66.015625 
z
M 36.328125 3.90625 
z
M 42.96875 3.90625 
z
M 14.453125 66.015625 
z
M 8.203125 66.015625 
z
" id="SimSun-88"/>
    </defs>
    <g transform="translate(148.219095 285.889837)scale(0.1 -0.1)">
     <use xlink:href="#SimSun-88"/>
    </g>
   </g>
   <g id="Line3DCollection_1">
    <path d="M 77.164852 234.332272 
L 200.214463 163.337059 
L 198.760833 28.160595 
" style="fill:none;stroke:#b0b0b0;stroke-width:0.8;"/>
    <path d="M 99.37772 239.178647 
L 221.381503 167.509053 
L 220.993526 31.896299 
" style="fill:none;stroke:#b0b0b0;stroke-width:0.8;"/>
    <path d="M 121.810069 244.072908 
L 242.742489 171.719275 
L 243.440302 35.667974 
" style="fill:none;stroke:#b0b0b0;stroke-width:0.8;"/>
    <path d="M 144.465166 249.015768 
L 264.300099 175.96825 
L 266.104268 39.476144 
" style="fill:none;stroke:#b0b0b0;stroke-width:0.8;"/>
    <path d="M 167.346348 254.007955 
L 286.057061 180.256518 
L 288.988592 43.321339 
" style="fill:none;stroke:#b0b0b0;stroke-width:0.8;"/>
    <path d="M 190.457014 259.05021 
L 308.016153 184.584625 
L 312.096504 47.204104 
" style="fill:none;stroke:#b0b0b0;stroke-width:0.8;"/>
    <path d="M 213.800635 264.143291 
L 330.180205 188.95313 
L 335.431296 51.12499 
" style="fill:none;stroke:#b0b0b0;stroke-width:0.8;"/>
    <path d="M 237.38075 269.287971 
L 352.552099 193.3626 
L 358.996326 55.084563 
" style="fill:none;stroke:#b0b0b0;stroke-width:0.8;"/>
    <path d="M 261.200972 274.485036 
L 375.134774 197.813614 
L 382.795018 59.083397 
" style="fill:none;stroke:#b0b0b0;stroke-width:0.8;"/>
   </g>
   <g id="xtick_1">
    <g id="line2d_2">
     <path d="M 78.224985 233.720613 
L 75.040631 235.557871 
" style="fill:none;stroke:#000000;stroke-linecap:square;stroke-width:0.8;"/>
    </g>
    <g id="text_2">
     <!-- −1.00 -->
     <defs>
      <path id="SimSun-8722"/>
      <path d="M 28.515625 69.53125 
L 28.515625 10.15625 
Q 28.515625 7.03125 30.46875 5.46875 
Q 32.421875 3.90625 35.9375 3.90625 
L 39.84375 3.90625 
L 39.84375 1.5625 
L 11.328125 1.5625 
L 11.328125 3.90625 
L 14.84375 3.90625 
Q 18.75 3.90625 20.5 5.46875 
Q 22.265625 7.03125 22.265625 10.15625 
L 22.265625 57.421875 
Q 22.265625 58.984375 21.28125 59.953125 
Q 20.3125 60.9375 18.359375 60.9375 
L 11.328125 60.9375 
L 11.328125 63.28125 
L 14.84375 63.28125 
Q 19.53125 63.28125 22.453125 64.84375 
Q 25.390625 66.40625 26.953125 69.53125 
z
" id="SimSun-49"/>
      <path d="M 12.5 0.390625 
Q 10.15625 0.390625 8.390625 1.953125 
Q 6.640625 3.515625 6.640625 6.25 
Q 6.640625 8.984375 8.390625 10.546875 
Q 10.15625 12.109375 12.5 12.109375 
Q 14.84375 12.109375 16.59375 10.34375 
Q 18.359375 8.59375 18.359375 6.25 
Q 18.359375 3.515625 16.59375 1.953125 
Q 14.84375 0.390625 12.5 0.390625 
z
" id="SimSun-46"/>
      <path d="M 25 66.015625 
Q 19.53125 66.015625 15.8125 57.609375 
Q 12.109375 49.21875 12.109375 35.15625 
Q 12.109375 20.3125 15.8125 12.109375 
Q 19.53125 3.90625 25 3.90625 
Q 30.859375 3.90625 34.171875 12.109375 
Q 37.5 20.3125 37.5 35.15625 
Q 37.5 49.21875 34.375 57.609375 
Q 31.25 66.015625 25 66.015625 
z
M 25 0.78125 
Q 16.40625 0.78125 10.546875 9.765625 
Q 4.6875 18.75 4.6875 35.15625 
Q 4.6875 50.390625 10.34375 59.765625 
Q 16.015625 69.140625 25 69.140625 
Q 33.59375 69.140625 39.25 60.15625 
Q 44.921875 51.171875 44.921875 35.15625 
Q 44.921875 19.140625 39.25 9.953125 
Q 33.59375 0.78125 25 0.78125 
z
" id="SimSun-48"/>
     </defs>
     <g transform="translate(54.501883 254.473633)scale(0.1 -0.1)">
      <use xlink:href="#SimSun-8722"/>
      <use x="100" xlink:href="#SimSun-49"/>
      <use x="150" xlink:href="#SimSun-46"/>
      <use x="200" xlink:href="#SimSun-48"/>
      <use x="250" xlink:href="#SimSun-48"/>
     </g>
    </g>
   </g>
   <g id="xtick_2">
    <g id="line2d_3">
     <path d="M 100.429212 238.560962 
L 97.270795 240.416334 
" style="fill:none;stroke:#000000;stroke-linecap:square;stroke-width:0.8;"/>
    </g>
    <g id="text_3">
     <!-- −0.75 -->
     <defs>
      <path d="M 44.140625 65.625 
Q 35.9375 52.34375 31.046875 39.640625 
Q 26.171875 26.953125 26.171875 17.578125 
Q 26.171875 16.015625 26.5625 13.28125 
Q 26.5625 10.15625 26.5625 6.25 
Q 26.5625 3.125 25.578125 1.953125 
Q 24.609375 0.78125 22.265625 0.78125 
Q 20.3125 0.78125 18.9375 2.140625 
Q 17.578125 3.515625 17.578125 7.03125 
Q 17.578125 14.453125 20.890625 25.390625 
Q 24.21875 36.328125 38.671875 62.5 
L 19.140625 62.5 
Q 14.84375 62.5 12.296875 59.765625 
Q 9.765625 57.03125 8.59375 51.5625 
L 6.25 51.953125 
L 8.984375 68.359375 
L 44.140625 68.359375 
z
" id="SimSun-55"/>
      <path d="M 26.953125 44.53125 
Q 34.375 44.53125 39.0625 38.859375 
Q 43.75 33.203125 43.75 23.828125 
Q 43.75 13.28125 38.859375 7.03125 
Q 33.984375 0.78125 23.828125 0.78125 
Q 16.796875 0.78125 11.328125 4.875 
Q 5.859375 8.984375 5.859375 14.84375 
Q 5.859375 17.1875 7.21875 18.9375 
Q 8.59375 20.703125 10.9375 20.703125 
Q 13.28125 20.703125 14.0625 19.140625 
Q 14.84375 17.578125 14.84375 16.40625 
Q 14.84375 14.0625 13.671875 12.890625 
Q 12.5 11.328125 12.5 9.765625 
Q 12.5 6.640625 16.203125 5.078125 
Q 19.921875 3.515625 24.21875 3.515625 
Q 30.46875 3.515625 33.78125 8.59375 
Q 37.109375 13.671875 37.109375 23.046875 
Q 37.109375 30.859375 34.171875 35.734375 
Q 31.25 40.625 25.390625 40.625 
Q 21.09375 40.625 17.96875 39.0625 
Q 14.84375 37.5 12.109375 32.421875 
L 8.59375 32.8125 
L 10.546875 68.359375 
L 42.578125 68.359375 
L 41.40625 62.5 
L 13.28125 62.5 
L 11.71875 36.71875 
Q 15.625 42.1875 19.328125 43.359375 
Q 23.046875 44.53125 26.953125 44.53125 
z
" id="SimSun-53"/>
     </defs>
     <g transform="translate(76.712492 259.391723)scale(0.1 -0.1)">
      <use xlink:href="#SimSun-8722"/>
      <use x="100" xlink:href="#SimSun-48"/>
      <use x="150" xlink:href="#SimSun-46"/>
      <use x="200" xlink:href="#SimSun-55"/>
      <use x="250" xlink:href="#SimSun-53"/>
     </g>
    </g>
   </g>
   <g id="xtick_3">
    <g id="line2d_4">
     <path d="M 122.852696 243.449106 
L 119.720886 245.322862 
" style="fill:none;stroke:#000000;stroke-linecap:square;stroke-width:0.8;"/>
    </g>
    <g id="text_4">
     <!-- −0.50 -->
     <g transform="translate(99.142911 264.358487)scale(0.1 -0.1)">
      <use xlink:href="#SimSun-8722"/>
      <use x="100" xlink:href="#SimSun-48"/>
      <use x="150" xlink:href="#SimSun-46"/>
      <use x="200" xlink:href="#SimSun-53"/>
      <use x="250" xlink:href="#SimSun-48"/>
     </g>
    </g>
   </g>
   <g id="xtick_4">
    <g id="line2d_5">
     <path d="M 145.498702 248.385759 
L 142.394184 250.278173 
" style="fill:none;stroke:#000000;stroke-linecap:square;stroke-width:0.8;"/>
    </g>
    <g id="text_5">
     <!-- −0.25 -->
     <defs>
      <path d="M 36.328125 51.953125 
Q 36.328125 58.984375 33.203125 62.6875 
Q 30.078125 66.40625 23.828125 66.40625 
Q 19.140625 66.40625 15.8125 63.859375 
Q 12.5 61.328125 12.5 57.421875 
Q 12.5 55.078125 14.0625 53.515625 
Q 15.234375 51.953125 15.234375 50.390625 
Q 15.234375 48.4375 14.25 47.453125 
Q 13.28125 46.484375 11.328125 46.484375 
Q 8.984375 46.484375 7.609375 47.84375 
Q 6.25 49.21875 6.25 52.34375 
Q 6.25 60.546875 12.109375 64.84375 
Q 17.96875 69.140625 24.609375 69.140625 
Q 33.984375 69.140625 38.46875 64.453125 
Q 42.96875 59.765625 42.96875 52.734375 
Q 42.96875 48.046875 40.8125 43.359375 
Q 38.671875 38.671875 33.984375 34.375 
Q 22.65625 23.4375 16.59375 16.59375 
Q 10.546875 9.765625 9.375 7.421875 
L 32.421875 7.421875 
Q 35.9375 7.421875 38.28125 10.15625 
Q 40.625 12.890625 41.40625 18.359375 
L 43.75 18.359375 
L 41.40625 1.5625 
L 5.078125 1.5625 
L 5.078125 6.640625 
Q 7.03125 10.15625 11.515625 15.625 
Q 16.015625 21.09375 23.4375 28.515625 
Q 30.078125 35.15625 33.203125 41.015625 
Q 36.328125 46.875 36.328125 51.953125 
z
" id="SimSun-50"/>
     </defs>
     <g transform="translate(121.796419 269.374649)scale(0.1 -0.1)">
      <use xlink:href="#SimSun-8722"/>
      <use x="100" xlink:href="#SimSun-48"/>
      <use x="150" xlink:href="#SimSun-46"/>
      <use x="200" xlink:href="#SimSun-50"/>
      <use x="250" xlink:href="#SimSun-53"/>
     </g>
    </g>
   </g>
   <g id="xtick_5">
    <g id="line2d_6">
     <path d="M 168.370557 253.371644 
L 165.294034 255.282997 
" style="fill:none;stroke:#000000;stroke-linecap:square;stroke-width:0.8;"/>
    </g>
    <g id="text_6">
     <!-- 0.00 -->
     <g transform="translate(149.676362 274.44095)scale(0.1 -0.1)">
      <use xlink:href="#SimSun-48"/>
      <use x="50" xlink:href="#SimSun-46"/>
      <use x="100" xlink:href="#SimSun-48"/>
      <use x="150" xlink:href="#SimSun-48"/>
     </g>
    </g>
   </g>
   <g id="xtick_6">
    <g id="line2d_7">
     <path d="M 191.471657 258.407504 
L 188.423848 260.33808 
" style="fill:none;stroke:#000000;stroke-linecap:square;stroke-width:0.8;"/>
    </g>
    <g id="text_7">
     <!-- 0.25 -->
     <g transform="translate(172.786151 279.558146)scale(0.1 -0.1)">
      <use xlink:href="#SimSun-48"/>
      <use x="50" xlink:href="#SimSun-46"/>
      <use x="100" xlink:href="#SimSun-50"/>
      <use x="150" xlink:href="#SimSun-53"/>
     </g>
    </g>
   </g>
   <g id="xtick_7">
    <g id="line2d_8">
     <path d="M 214.805467 263.494092 
L 211.787109 265.444184 
" style="fill:none;stroke:#000000;stroke-linecap:square;stroke-width:0.8;"/>
    </g>
    <g id="text_8">
     <!-- 0.50 -->
     <g transform="translate(196.129266 284.727007)scale(0.1 -0.1)">
      <use xlink:href="#SimSun-48"/>
      <use x="50" xlink:href="#SimSun-46"/>
      <use x="100" xlink:href="#SimSun-53"/>
      <use x="150" xlink:href="#SimSun-48"/>
     </g>
    </g>
   </g>
   <g id="xtick_8">
    <g id="line2d_9">
     <path d="M 238.37552 268.63218 
L 235.387368 270.602084 
" style="fill:none;stroke:#000000;stroke-linecap:square;stroke-width:0.8;"/>
    </g>
    <g id="text_9">
     <!-- 0.75 -->
     <g transform="translate(219.709261 289.948321)scale(0.1 -0.1)">
      <use xlink:href="#SimSun-48"/>
      <use x="50" xlink:href="#SimSun-46"/>
      <use x="100" xlink:href="#SimSun-55"/>
      <use x="150" xlink:href="#SimSun-53"/>
     </g>
    </g>
   </g>
   <g id="xtick_9">
    <g id="line2d_10">
     <path d="M 262.185423 273.822553 
L 259.22825 275.812574 
" style="fill:none;stroke:#000000;stroke-linecap:square;stroke-width:0.8;"/>
    </g>
    <g id="text_10">
     <!-- 1.00 -->
     <g transform="translate(243.529758 295.222889)scale(0.1 -0.1)">
      <use xlink:href="#SimSun-49"/>
      <use x="50" xlink:href="#SimSun-46"/>
      <use x="100" xlink:href="#SimSun-48"/>
      <use x="150" xlink:href="#SimSun-48"/>
     </g>
    </g>
   </g>
  </g>
  <g id="axis3d_2">
   <g id="line2d_11">
    <path d="M 388.395181 200.427223 
L 275.196469 277.538555 
" style="fill:none;stroke:#000000;stroke-linecap:square;stroke-width:0.8;"/>
   </g>
   <g id="text_11">
    <!-- Y -->
    <defs>
     <path d="M 37.109375 61.328125 
Q 37.5 63.671875 36.515625 64.84375 
Q 35.546875 66.015625 32.8125 66.015625 
L 32.03125 66.015625 
L 32.03125 68.359375 
L 47.265625 68.359375 
L 47.265625 66.015625 
L 46.09375 66.015625 
Q 44.140625 66.015625 42.578125 64.640625 
Q 41.015625 63.28125 39.84375 60.546875 
L 27.734375 29.6875 
L 27.734375 7.03125 
Q 27.734375 5.46875 28.703125 4.6875 
Q 29.6875 3.90625 31.25 3.90625 
L 34.765625 3.90625 
L 34.765625 1.5625 
L 14.453125 1.5625 
L 14.453125 3.90625 
L 17.96875 3.90625 
Q 19.921875 3.90625 20.703125 4.6875 
Q 21.484375 5.46875 21.484375 7.03125 
L 21.484375 27.34375 
L 8.203125 61.71875 
Q 7.421875 63.671875 6.25 64.84375 
Q 5.078125 66.015625 3.125 66.015625 
L 2.34375 66.015625 
L 2.34375 68.359375 
L 19.53125 68.359375 
L 19.53125 66.015625 
L 17.1875 66.015625 
Q 14.84375 66.015625 14.453125 64.84375 
Q 14.0625 63.671875 14.84375 61.328125 
L 25.390625 32.421875 
L 26.171875 32.421875 
z
M 42.1875 66.015625 
z
M 39.0625 66.015625 
z
M 13.28125 66.015625 
z
M 6.640625 66.015625 
z
" id="SimSun-89"/>
    </defs>
    <g transform="translate(359.365557 264.352314)scale(0.1 -0.1)">
     <use xlink:href="#SimSun-89"/>
    </g>
   </g>
   <g id="Line3DCollection_2">
    <path d="M 64.219755 85.23729 
L 72.682401 226.87107 
L 282.740459 272.399565 
" style="fill:none;stroke:#b0b0b0;stroke-width:0.8;"/>
    <path d="M 84.354899 75.451169 
L 91.701224 216.009436 
L 300.194748 260.509646 
" style="fill:none;stroke:#b0b0b0;stroke-width:0.8;"/>
    <path d="M 104.024495 65.891314 
L 110.302393 205.386325 
L 317.248314 248.892701 
" style="fill:none;stroke:#b0b0b0;stroke-width:0.8;"/>
    <path d="M 123.244506 56.549967 
L 128.499517 194.993963 
L 333.914799 237.539437 
" style="fill:none;stroke:#b0b0b0;stroke-width:0.8;"/>
    <path d="M 142.030171 47.419722 
L 146.305618 184.824914 
L 350.207234 226.440977 
" style="fill:none;stroke:#b0b0b0;stroke-width:0.8;"/>
    <path d="M 160.396049 38.493503 
L 163.733166 174.872057 
L 366.138071 215.588838 
" style="fill:none;stroke:#b0b0b0;stroke-width:0.8;"/>
    <path d="M 178.356056 29.764546 
L 180.794106 165.128568 
L 381.719218 204.97491 
" style="fill:none;stroke:#b0b0b0;stroke-width:0.8;"/>
   </g>
   <g id="xtick_10">
    <g id="line2d_12">
     <path d="M 280.982447 272.018529 
L 286.260412 273.162488 
" style="fill:none;stroke:#000000;stroke-linecap:square;stroke-width:0.8;"/>
    </g>
    <g id="text_12">
     <!-- −0.3 -->
     <defs>
      <path d="M 43.75 19.53125 
Q 43.75 12.109375 38.28125 6.4375 
Q 32.8125 0.78125 23.046875 0.78125 
Q 16.015625 0.78125 10.9375 4.6875 
Q 5.859375 8.59375 5.859375 13.671875 
Q 5.859375 16.015625 7.421875 17.765625 
Q 8.984375 19.53125 10.546875 19.53125 
Q 12.890625 19.53125 13.859375 17.765625 
Q 14.84375 16.015625 14.84375 14.84375 
Q 14.84375 12.890625 14.0625 11.71875 
Q 13.28125 10.15625 13.28125 8.984375 
Q 13.28125 6.640625 16.203125 5.078125 
Q 19.140625 3.515625 22.65625 3.515625 
Q 29.6875 3.515625 33.203125 7.609375 
Q 36.71875 11.71875 36.71875 20.3125 
Q 36.71875 27.34375 33 31.640625 
Q 29.296875 35.9375 19.140625 35.9375 
L 19.140625 38.671875 
Q 26.953125 38.671875 30.65625 42.375 
Q 34.375 46.09375 34.375 52.734375 
Q 34.375 58.203125 31.4375 62.296875 
Q 28.515625 66.40625 22.265625 66.40625 
Q 19.53125 66.40625 16.40625 65.03125 
Q 13.28125 63.671875 13.28125 60.546875 
Q 13.28125 57.421875 14.0625 56.640625 
Q 14.84375 55.859375 14.84375 54.6875 
Q 14.84375 52.734375 14.0625 51.5625 
Q 13.28125 50.390625 11.328125 50.390625 
Q 9.765625 50.390625 8.390625 51.5625 
Q 7.03125 52.734375 7.03125 55.859375 
Q 7.03125 61.71875 12.109375 65.421875 
Q 17.1875 69.140625 23.828125 69.140625 
Q 31.640625 69.140625 36.328125 64.25 
Q 41.015625 59.375 41.015625 53.90625 
Q 41.015625 48.046875 38.078125 43.9375 
Q 35.15625 39.84375 28.90625 37.890625 
Q 37.5 34.765625 40.625 29.6875 
Q 43.75 24.609375 43.75 19.53125 
z
" id="SimSun-51"/>
     </defs>
     <g transform="translate(283.540703 290.939618)scale(0.1 -0.1)">
      <use xlink:href="#SimSun-8722"/>
      <use x="100" xlink:href="#SimSun-48"/>
      <use x="150" xlink:href="#SimSun-46"/>
      <use x="200" xlink:href="#SimSun-51"/>
     </g>
    </g>
   </g>
   <g id="xtick_11">
    <g id="line2d_13">
     <path d="M 298.450724 260.137406 
L 303.68665 261.254946 
" style="fill:none;stroke:#000000;stroke-linecap:square;stroke-width:0.8;"/>
    </g>
    <g id="text_13">
     <!-- −0.2 -->
     <g transform="translate(300.832996 278.922658)scale(0.1 -0.1)">
      <use xlink:href="#SimSun-8722"/>
      <use x="100" xlink:href="#SimSun-48"/>
      <use x="150" xlink:href="#SimSun-46"/>
      <use x="200" xlink:href="#SimSun-50"/>
     </g>
    </g>
   </g>
   <g id="xtick_12">
    <g id="line2d_14">
     <path d="M 315.518102 248.528957 
L 320.712517 249.620983 
" style="fill:none;stroke:#000000;stroke-linecap:square;stroke-width:0.8;"/>
    </g>
    <g id="text_14">
     <!-- −0.1 -->
     <g transform="translate(317.728455 267.181469)scale(0.1 -0.1)">
      <use xlink:href="#SimSun-8722"/>
      <use x="100" xlink:href="#SimSun-48"/>
      <use x="150" xlink:href="#SimSun-46"/>
      <use x="200" xlink:href="#SimSun-49"/>
     </g>
    </g>
   </g>
   <g id="xtick_13">
    <g id="line2d_15">
     <path d="M 332.198224 237.183901 
L 337.351654 238.251276 
" style="fill:none;stroke:#000000;stroke-linecap:square;stroke-width:0.8;"/>
    </g>
    <g id="text_15">
     <!-- 0.0 -->
     <g transform="translate(339.240586 255.706668)scale(0.1 -0.1)">
      <use xlink:href="#SimSun-48"/>
      <use x="50" xlink:href="#SimSun-46"/>
      <use x="100" xlink:href="#SimSun-48"/>
     </g>
    </g>
   </g>
   <g id="xtick_14">
    <g id="line2d_16">
     <path d="M 348.504124 226.093375 
L 353.617089 227.136924 
" style="fill:none;stroke:#000000;stroke-linecap:square;stroke-width:0.8;"/>
    </g>
    <g id="text_16">
     <!-- 0.1 -->
     <g transform="translate(355.382288 244.489291)scale(0.1 -0.1)">
      <use xlink:href="#SimSun-48"/>
      <use x="50" xlink:href="#SimSun-46"/>
      <use x="100" xlink:href="#SimSun-49"/>
     </g>
    </g>
   </g>
   <g id="xtick_15">
    <g id="line2d_17">
     <path d="M 364.448255 215.248906 
L 369.521272 216.26942 
" style="fill:none;stroke:#000000;stroke-linecap:square;stroke-width:0.8;"/>
    </g>
    <g id="text_17">
     <!-- 0.2 -->
     <g transform="translate(371.165887 233.520769)scale(0.1 -0.1)">
      <use xlink:href="#SimSun-48"/>
      <use x="50" xlink:href="#SimSun-46"/>
      <use x="100" xlink:href="#SimSun-50"/>
     </g>
    </g>
   </g>
   <g id="xtick_16">
    <g id="line2d_18">
     <path d="M 380.042525 204.642398 
L 385.076106 205.64063 
" style="fill:none;stroke:#000000;stroke-linecap:square;stroke-width:0.8;"/>
    </g>
    <g id="text_18">
     <!-- 0.3 -->
     <g transform="translate(386.60317 222.792914)scale(0.1 -0.1)">
      <use xlink:href="#SimSun-48"/>
      <use x="50" xlink:href="#SimSun-46"/>
      <use x="100" xlink:href="#SimSun-51"/>
     </g>
    </g>
   </g>
  </g>
  <g id="axis3d_3">
   <g id="line2d_19">
    <path d="M 388.395181 200.427223 
L 396.774918 61.432405 
" style="fill:none;stroke:#000000;stroke-linecap:square;stroke-width:0.8;"/>
   </g>
   <g id="text_19">
    <!-- Z -->
    <defs>
     <path d="M 28.125 3.90625 
Q 33.203125 3.90625 36.90625 7.21875 
Q 40.625 10.546875 42.96875 17.1875 
L 45.3125 16.796875 
L 41.015625 1.5625 
L 3.515625 1.5625 
L 37.890625 66.015625 
L 24.21875 66.015625 
Q 19.140625 66.015625 15.03125 63.078125 
Q 10.9375 60.15625 7.8125 54.296875 
L 5.46875 55.078125 
L 10.15625 68.359375 
L 45.703125 68.359375 
L 11.328125 3.90625 
z
" id="SimSun-90"/>
    </defs>
    <g transform="translate(432.668903 131.826911)scale(0.1 -0.1)">
     <use xlink:href="#SimSun-90"/>
    </g>
   </g>
   <g id="Line3DCollection_3">
    <path d="M 388.554562 197.783562 
L 188.0697 158.37931 
L 64.298292 228.864091 
" style="fill:none;stroke:#b0b0b0;stroke-width:0.8;"/>
    <path d="M 389.517586 181.809875 
L 187.832696 142.844572 
L 63.270971 212.557959 
" style="fill:none;stroke:#b0b0b0;stroke-width:0.8;"/>
    <path d="M 390.492308 165.642147 
L 187.592934 127.129048 
L 62.230758 196.04718 
" style="fill:none;stroke:#b0b0b0;stroke-width:0.8;"/>
    <path d="M 391.478943 149.276819 
L 187.350365 111.229565 
L 61.177406 179.327877 
" style="fill:none;stroke:#b0b0b0;stroke-width:0.8;"/>
    <path d="M 392.47771 132.710247 
L 187.10494 95.142874 
L 60.110667 162.396074 
" style="fill:none;stroke:#b0b0b0;stroke-width:0.8;"/>
    <path d="M 393.488836 115.938697 
L 186.856609 78.865647 
L 59.030283 145.247695 
" style="fill:none;stroke:#b0b0b0;stroke-width:0.8;"/>
    <path d="M 394.51255 98.958339 
L 186.605318 62.394481 
L 57.93599 127.878557 
" style="fill:none;stroke:#b0b0b0;stroke-width:0.8;"/>
    <path d="M 395.549089 81.76525 
L 186.351016 45.725888 
L 56.827519 110.284369 
" style="fill:none;stroke:#b0b0b0;stroke-width:0.8;"/>
    <path d="M 396.598695 64.355407 
L 186.093647 28.856297 
L 55.704592 92.46073 
" style="fill:none;stroke:#b0b0b0;stroke-width:0.8;"/>
   </g>
   <g id="xtick_17">
    <g id="line2d_20">
     <path d="M 386.881803 197.454789 
L 391.903562 198.44179 
" style="fill:none;stroke:#000000;stroke-linecap:square;stroke-width:0.8;"/>
    </g>
    <g id="text_20">
     <!-- 0.0 -->
     <g transform="translate(400.274397 203.089744)scale(0.1 -0.1)">
      <use xlink:href="#SimSun-48"/>
      <use x="50" xlink:href="#SimSun-46"/>
      <use x="100" xlink:href="#SimSun-48"/>
     </g>
    </g>
   </g>
   <g id="xtick_18">
    <g id="line2d_21">
     <path d="M 387.834395 181.484685 
L 392.88749 182.460937 
" style="fill:none;stroke:#000000;stroke-linecap:square;stroke-width:0.8;"/>
    </g>
    <g id="text_21">
     <!-- 0.1 -->
     <g transform="translate(401.351347 187.136145)scale(0.1 -0.1)">
      <use xlink:href="#SimSun-48"/>
      <use x="50" xlink:href="#SimSun-46"/>
      <use x="100" xlink:href="#SimSun-49"/>
     </g>
    </g>
   </g>
   <g id="xtick_19">
    <g id="line2d_22">
     <path d="M 388.798556 165.320649 
L 393.883378 166.285819 
" style="fill:none;stroke:#000000;stroke-linecap:square;stroke-width:0.8;"/>
    </g>
    <g id="text_22">
     <!-- 0.2 -->
     <g transform="translate(402.441353 170.989128)scale(0.1 -0.1)">
      <use xlink:href="#SimSun-48"/>
      <use x="50" xlink:href="#SimSun-46"/>
      <use x="100" xlink:href="#SimSun-50"/>
     </g>
    </g>
   </g>
   <g id="xtick_20">
    <g id="line2d_23">
     <path d="M 389.774496 148.95913 
L 394.891447 149.912871 
" style="fill:none;stroke:#000000;stroke-linecap:square;stroke-width:0.8;"/>
    </g>
    <g id="text_23">
     <!-- 0.3 -->
     <g transform="translate(403.544655 154.645155)scale(0.1 -0.1)">
      <use xlink:href="#SimSun-48"/>
      <use x="50" xlink:href="#SimSun-46"/>
      <use x="100" xlink:href="#SimSun-51"/>
     </g>
    </g>
   </g>
   <g id="xtick_21">
    <g id="line2d_24">
     <path d="M 390.762433 132.396484 
L 395.911921 133.338443 
" style="fill:none;stroke:#000000;stroke-linecap:square;stroke-width:0.8;"/>
    </g>
    <g id="text_24">
     <!-- 0.4 -->
     <defs>
      <path d="M 35.9375 8.984375 
Q 35.9375 6.25 37.5 5.078125 
Q 39.0625 3.90625 41.796875 3.90625 
L 45.3125 3.90625 
L 45.3125 1.5625 
L 19.53125 1.5625 
L 19.53125 3.90625 
L 23.828125 3.90625 
Q 26.953125 3.90625 28.3125 5.078125 
Q 29.6875 6.25 29.6875 8.984375 
L 29.6875 21.875 
L 3.515625 21.875 
L 3.515625 23.828125 
L 32.03125 69.140625 
L 35.9375 69.140625 
L 35.9375 24.21875 
L 46.484375 24.21875 
L 46.484375 21.875 
L 35.9375 21.875 
z
M 29.296875 59.375 
L 7.03125 24.21875 
L 29.6875 24.21875 
L 29.6875 59.375 
z
" id="SimSun-52"/>
     </defs>
     <g transform="translate(404.661497 138.1006)scale(0.1 -0.1)">
      <use xlink:href="#SimSun-48"/>
      <use x="50" xlink:href="#SimSun-46"/>
      <use x="100" xlink:href="#SimSun-52"/>
     </g>
    </g>
   </g>
   <g id="xtick_22">
    <g id="line2d_25">
     <path d="M 391.76259 115.628981 
L 396.94503 116.558792 
" style="fill:none;stroke:#000000;stroke-linecap:square;stroke-width:0.8;"/>
    </g>
    <g id="text_25">
     <!-- 0.5 -->
     <g transform="translate(405.79213 121.351748)scale(0.1 -0.1)">
      <use xlink:href="#SimSun-48"/>
      <use x="50" xlink:href="#SimSun-46"/>
      <use x="100" xlink:href="#SimSun-53"/>
     </g>
    </g>
   </g>
   <g id="xtick_23">
    <g id="line2d_26">
     <path d="M 392.775194 98.652796 
L 397.99101 99.570082 
" style="fill:none;stroke:#000000;stroke-linecap:square;stroke-width:0.8;"/>
    </g>
    <g id="text_26">
     <!-- 0.6 -->
     <defs>
      <path d="M 12.109375 28.125 
Q 12.109375 16.40625 16.203125 9.953125 
Q 20.3125 3.515625 26.171875 3.515625 
Q 32.03125 3.515625 35.15625 7.8125 
Q 38.28125 12.109375 38.28125 23.828125 
Q 38.28125 31.640625 34.953125 35.9375 
Q 31.640625 40.234375 26.953125 40.234375 
Q 22.65625 40.234375 18.9375 37.6875 
Q 15.234375 35.15625 12.109375 28.125 
z
M 27.34375 44.140625 
Q 36.71875 44.140625 40.8125 37.890625 
Q 44.921875 31.640625 44.921875 23.828125 
Q 44.921875 12.109375 39.25 6.4375 
Q 33.59375 0.78125 26.171875 0.78125 
Q 15.625 0.78125 10.15625 8.78125 
Q 4.6875 16.796875 4.6875 32.03125 
Q 4.6875 50 11.328125 59.5625 
Q 17.96875 69.140625 29.296875 69.140625 
Q 34.765625 69.140625 38.078125 66.015625 
Q 41.40625 62.890625 41.40625 60.546875 
Q 41.40625 58.203125 40.421875 57.03125 
Q 39.453125 55.859375 37.109375 55.859375 
Q 35.15625 55.859375 34.171875 56.828125 
Q 33.203125 57.8125 33.203125 59.765625 
Q 33.203125 60.546875 33.59375 61.328125 
Q 33.59375 62.109375 33.59375 62.890625 
Q 33.59375 64.453125 32.421875 65.421875 
Q 31.25 66.40625 28.125 66.40625 
Q 21.484375 66.40625 16.796875 60.34375 
Q 12.109375 54.296875 12.109375 33.984375 
Q 14.453125 39.0625 18.546875 41.59375 
Q 22.65625 44.140625 27.34375 44.140625 
z
" id="SimSun-54"/>
     </defs>
     <g transform="translate(406.936811 104.394791)scale(0.1 -0.1)">
      <use xlink:href="#SimSun-48"/>
      <use x="50" xlink:href="#SimSun-46"/>
      <use x="100" xlink:href="#SimSun-54"/>
     </g>
    </g>
   </g>
   <g id="xtick_24">
    <g id="line2d_27">
     <path d="M 393.800479 81.46401 
L 399.050105 82.368383 
" style="fill:none;stroke:#000000;stroke-linecap:square;stroke-width:0.8;"/>
    </g>
    <g id="text_27">
     <!-- 0.7 -->
     <g transform="translate(408.095804 87.225827)scale(0.1 -0.1)">
      <use xlink:href="#SimSun-48"/>
      <use x="50" xlink:href="#SimSun-46"/>
      <use x="100" xlink:href="#SimSun-55"/>
     </g>
    </g>
   </g>
   <g id="xtick_25">
    <g id="line2d_28">
     <path d="M 394.838686 64.058603 
L 400.122561 64.949664 
" style="fill:none;stroke:#000000;stroke-linecap:square;stroke-width:0.8;"/>
    </g>
    <g id="text_28">
     <!-- 0.8 -->
     <defs>
      <path d="M 9.765625 17.578125 
Q 9.765625 11.328125 13.859375 7.421875 
Q 17.96875 3.515625 24.21875 3.515625 
Q 31.640625 3.515625 34.953125 7.421875 
Q 38.28125 11.328125 38.28125 17.1875 
Q 38.28125 22.265625 33.59375 26.953125 
Q 28.90625 31.640625 19.53125 35.546875 
Q 14.84375 32.421875 12.296875 27.734375 
Q 9.765625 23.046875 9.765625 17.578125 
z
M 44.140625 18.359375 
Q 44.140625 10.9375 38.671875 5.859375 
Q 33.203125 0.78125 24.21875 0.78125 
Q 16.015625 0.78125 10.15625 5.859375 
Q 4.296875 10.9375 4.296875 17.578125 
Q 4.296875 24.21875 7.609375 28.90625 
Q 10.9375 33.59375 17.1875 37.109375 
Q 11.71875 39.84375 8.78125 43.9375 
Q 5.859375 48.046875 5.859375 53.125 
Q 5.859375 59.765625 10.9375 64.453125 
Q 16.015625 69.140625 25 69.140625 
Q 33.203125 69.140625 38.28125 64.453125 
Q 43.359375 59.765625 43.359375 53.125 
Q 43.359375 48.4375 40.421875 44.328125 
Q 37.5 40.234375 31.25 37.109375 
Q 37.890625 33.203125 41.015625 28.515625 
Q 44.140625 23.828125 44.140625 18.359375 
z
M 37.890625 52.734375 
Q 37.890625 58.203125 34.765625 62.296875 
Q 31.640625 66.40625 25 66.40625 
Q 17.578125 66.40625 14.453125 62.5 
Q 11.328125 58.59375 11.328125 54.296875 
Q 11.328125 50 15.8125 45.890625 
Q 20.3125 41.796875 28.515625 38.671875 
Q 33.203125 41.015625 35.546875 44.53125 
Q 37.890625 48.046875 37.890625 52.734375 
z
" id="SimSun-56"/>
     </defs>
     <g transform="translate(409.269378 69.840854)scale(0.1 -0.1)">
      <use xlink:href="#SimSun-48"/>
      <use x="50" xlink:href="#SimSun-46"/>
      <use x="100" xlink:href="#SimSun-56"/>
     </g>
    </g>
   </g>
  </g>
  <g id="axes_1">
   <g id="Poly3DCollection_1">
    <path clip-path="url(#pfa0fd1760e)" d="M 238.345841 177.525212 
L 218.40801 177.567549 
L 218.281665 145.878483 
L 238.456469 145.837104 
z
" style="fill:#8000ff;"/>
    <path clip-path="url(#pfa0fd1760e)" d="M 257.946975 178.851178 
L 238.345841 177.525212 
L 238.456469 145.837104 
L 258.291064 147.133085 
z
" style="fill:#8000ff;"/>
    <path clip-path="url(#pfa0fd1760e)" d="M 218.40801 177.567549 
L 198.841461 178.97687 
L 198.482001 147.255938 
L 218.281665 145.878483 
z
" style="fill:#8000ff;"/>
    <path clip-path="url(#pfa0fd1760e)" d="M 276.510945 181.503955 
L 257.946975 178.851178 
L 258.291064 147.133085 
L 277.077621 149.726006 
z
" style="fill:#8000ff;"/>
    <path clip-path="url(#pfa0fd1760e)" d="M 198.841461 178.97687 
L 180.345968 181.709049 
L 179.764614 149.926481 
L 198.482001 147.255938 
z
" style="fill:#8000ff;"/>
    <path clip-path="url(#pfa0fd1760e)" d="M 293.360961 185.399333 
L 276.510945 181.503955 
L 277.077621 149.726006 
L 294.132017 153.533811 
z
" style="fill:#8000ff;"/>
    <path clip-path="url(#pfa0fd1760e)" d="M 180.345968 181.709049 
L 163.596876 185.677252 
L 162.812186 153.805496 
L 179.764614 149.926481 
z
" style="fill:#8000ff;"/>
    <path clip-path="url(#pfa0fd1760e)" d="M 307.861405 190.410733 
L 293.360961 185.399333 
L 294.132017 153.533811 
L 308.811396 158.433106 
z
" style="fill:#8000ff;"/>
    <path clip-path="url(#pfa0fd1760e)" d="M 163.596876 185.677252 
L 149.227498 190.752312 
L 148.265262 158.767067 
L 162.812186 153.805496 
z
" style="fill:#8000ff;"/>
    <path clip-path="url(#pfa0fd1760e)" d="M 238.456469 145.837104 
L 218.281665 145.878483 
L 218.152281 113.427053 
L 238.569758 113.386691 
z
" style="fill:#2adddd;"/>
    <path clip-path="url(#pfa0fd1760e)" d="M 258.291064 147.133085 
L 238.456469 145.837104 
L 238.569758 113.386691 
L 258.643443 114.650851 
z
" style="fill:#2adddd;"/>
    <path clip-path="url(#pfa0fd1760e)" d="M 218.281665 145.878483 
L 198.482001 147.255938 
L 198.11388 114.77069 
L 218.152281 113.427053 
z
" style="fill:#2adddd;"/>
    <path clip-path="url(#pfa0fd1760e)" d="M 277.077621 149.726006 
L 258.291064 147.133085 
L 258.643443 114.650851 
L 277.65799 117.18024 
z
" style="fill:#2adddd;"/>
    <path clip-path="url(#pfa0fd1760e)" d="M 198.482001 147.255938 
L 179.764614 149.926481 
L 179.169211 117.375809 
L 198.11388 114.77069 
z
" style="fill:#2adddd;"/>
    <path clip-path="url(#pfa0fd1760e)" d="M 319.437282 196.370155 
L 307.861405 190.410733 
L 308.811396 158.433106 
L 320.533763 164.260034 
z
" style="fill:#8000ff;"/>
    <path clip-path="url(#pfa0fd1760e)" d="M 149.227498 190.752312 
L 137.809526 196.763731 
L 136.702526 164.64489 
L 148.265262 158.767067 
z
" style="fill:#8000ff;"/>
    <path clip-path="url(#pfa0fd1760e)" d="M 294.132017 153.533811 
L 277.077621 149.726006 
L 277.65799 117.18024 
L 294.921782 120.895062 
z
" style="fill:#2adddd;"/>
    <path clip-path="url(#pfa0fd1760e)" d="M 179.764614 149.926481 
L 162.812186 153.805496 
L 162.008448 121.160128 
L 179.169211 117.375809 
z
" style="fill:#2adddd;"/>
    <path clip-path="url(#pfa0fd1760e)" d="M 308.811396 158.433106 
L 294.132017 153.533811 
L 294.921782 120.895062 
L 309.784565 125.67528 
z
" style="fill:#2adddd;"/>
    <path clip-path="url(#pfa0fd1760e)" d="M 162.812186 153.805496 
L 148.265262 158.767067 
L 147.27954 126.001147 
L 162.008448 121.160128 
z
" style="fill:#2adddd;"/>
    <path clip-path="url(#pfa0fd1760e)" d="M 327.595813 203.07019 
L 319.437282 196.370155 
L 320.533763 164.260034 
L 328.799805 170.81217 
z
" style="fill:#8000ff;"/>
    <path clip-path="url(#pfa0fd1760e)" d="M 238.569758 113.386691 
L 218.152281 113.427053 
L 218.019747 80.185415 
L 238.685806 80.146131 
z
" style="fill:#d4dd80;"/>
    <path clip-path="url(#pfa0fd1760e)" d="M 137.809526 196.763731 
L 129.831293 203.501771 
L 128.618824 171.234262 
L 136.702526 164.64489 
z
" style="fill:#8000ff;"/>
    <path clip-path="url(#pfa0fd1760e)" d="M 258.643443 114.650851 
L 238.569758 113.386691 
L 238.685806 80.146131 
L 259.004415 81.376526 
z
" style="fill:#d4dd80;"/>
    <path clip-path="url(#pfa0fd1760e)" d="M 218.152281 113.427053 
L 198.11388 114.77069 
L 197.736781 81.493166 
L 218.019747 80.185415 
z
" style="fill:#d4dd80;"/>
    <path clip-path="url(#pfa0fd1760e)" d="M 277.65799 117.18024 
L 258.643443 114.650851 
L 259.004415 81.376526 
L 278.252552 83.838486 
z
" style="fill:#d4dd80;"/>
    <path clip-path="url(#pfa0fd1760e)" d="M 198.11388 114.77069 
L 179.169211 117.375809 
L 178.559242 84.028849 
L 197.736781 81.493166 
z
" style="fill:#d4dd80;"/>
    <path clip-path="url(#pfa0fd1760e)" d="M 320.533763 164.260034 
L 308.811396 158.433106 
L 309.784565 125.67528 
L 321.65717 131.361402 
z
" style="fill:#2adddd;"/>
    <path clip-path="url(#pfa0fd1760e)" d="M 148.265262 158.767067 
L 136.702526 164.64489 
L 135.56833 131.73699 
L 147.27954 126.001147 
z
" style="fill:#2adddd;"/>
    <path clip-path="url(#pfa0fd1760e)" d="M 294.921782 120.895062 
L 277.65799 117.18024 
L 278.252552 83.838486 
L 295.730947 87.454596 
z
" style="fill:#d4dd80;"/>
    <path clip-path="url(#pfa0fd1760e)" d="M 179.169211 117.375809 
L 162.008448 121.160128 
L 161.184962 87.712633 
L 178.559242 84.028849 
z
" style="fill:#d4dd80;"/>
    <path clip-path="url(#pfa0fd1760e)" d="M 331.9498 210.267637 
L 327.595813 203.07019 
L 328.799805 170.81217 
L 333.216577 177.85199 
z
" style="fill:#8000ff;"/>
    <path clip-path="url(#pfa0fd1760e)" d="M 129.831293 203.501771 
L 125.674314 210.721189 
L 124.401371 178.295653 
L 128.618824 171.234262 
z
" style="fill:#8000ff;"/>
    <path clip-path="url(#pfa0fd1760e)" d="M 309.784565 125.67528 
L 294.921782 120.895062 
L 295.730947 87.454596 
L 310.781771 92.108349 
z
" style="fill:#d4dd80;"/>
    <path clip-path="url(#pfa0fd1760e)" d="M 162.008448 121.160128 
L 147.27954 126.001147 
L 146.269462 92.425617 
L 161.184962 87.712633 
z
" style="fill:#d4dd80;"/>
    <path clip-path="url(#pfa0fd1760e)" d="M 328.799805 170.81217 
L 320.533763 164.260034 
L 321.65717 131.361402 
L 330.033577 137.75627 
z
" style="fill:#2adddd;"/>
    <path clip-path="url(#pfa0fd1760e)" d="M 238.685806 80.146131 
L 218.019747 80.185415 
L 217.883946 46.124349 
L 238.804715 46.08621 
z
" style="fill:#ff0000;"/>
    <path clip-path="url(#pfa0fd1760e)" d="M 136.702526 164.64489 
L 128.618824 171.234262 
L 127.376351 138.168269 
L 135.56833 131.73699 
z
" style="fill:#2adddd;"/>
    <path clip-path="url(#pfa0fd1760e)" d="M 259.004415 81.376526 
L 238.685806 80.146131 
L 238.804715 46.08621 
L 259.374298 47.280778 
z
" style="fill:#ff0000;"/>
    <path clip-path="url(#pfa0fd1760e)" d="M 218.019747 80.185415 
L 197.736781 81.493166 
L 197.350371 47.394024 
L 217.883946 46.124349 
z
" style="fill:#ff0000;"/>
    <path clip-path="url(#pfa0fd1760e)" d="M 332.241619 217.689267 
L 331.9498 210.267637 
L 333.216577 177.85199 
L 333.521913 185.112442 
z
" style="fill:#8000ff;"/>
    <path clip-path="url(#pfa0fd1760e)" d="M 278.252552 83.838486 
L 259.004415 81.376526 
L 259.374298 47.280778 
L 278.861837 49.671182 
z
" style="fill:#ff0000;"/>
    <path clip-path="url(#pfa0fd1760e)" d="M 125.674314 210.721189 
L 125.589258 218.147154 
L 124.305314 185.56043 
L 124.401371 178.295653 
z
" style="fill:#8000ff;"/>
    <path clip-path="url(#pfa0fd1760e)" d="M 197.736781 81.493166 
L 178.559242 84.028849 
L 177.934166 49.85602 
L 197.350371 47.394024 
z
" style="fill:#ff0000;"/>
    <path clip-path="url(#pfa0fd1760e)" d="M 321.65717 131.361402 
L 309.784565 125.67528 
L 310.781771 92.108349 
L 322.808507 97.644855 
z
" style="fill:#d4dd80;"/>
    <path clip-path="url(#pfa0fd1760e)" d="M 147.27954 126.001147 
L 135.56833 131.73699 
L 134.405925 98.010591 
L 146.269462 92.425617 
z
" style="fill:#d4dd80;"/>
    <path clip-path="url(#pfa0fd1760e)" d="M 295.730947 87.454596 
L 278.252552 83.838486 
L 278.861837 49.671182 
L 296.560235 53.182508 
z
" style="fill:#ff0000;"/>
    <path clip-path="url(#pfa0fd1760e)" d="M 178.559242 84.028849 
L 161.184962 87.712633 
L 160.340991 53.433082 
L 177.934166 49.85602 
z
" style="fill:#ff0000;"/>
    <path clip-path="url(#pfa0fd1760e)" d="M 333.216577 177.85199 
L 328.799805 170.81217 
L 330.033577 137.75627 
L 334.514929 144.628368 
z
" style="fill:#2adddd;"/>
    <path clip-path="url(#pfa0fd1760e)" d="M 128.618824 171.234262 
L 124.401371 178.295653 
L 123.096685 145.061504 
L 127.376351 138.168269 
z
" style="fill:#2adddd;"/>
    <path clip-path="url(#pfa0fd1760e)" d="M 328.365976 225.040176 
L 332.241619 217.689267 
L 333.521913 185.112442 
L 329.607654 192.305068 
z
" style="fill:#8000ff;"/>
    <path clip-path="url(#pfa0fd1760e)" d="M 125.589258 218.147154 
L 129.673298 225.483762 
L 128.430595 192.739147 
L 124.305314 185.56043 
z
" style="fill:#8000ff;"/>
    <path clip-path="url(#pfa0fd1760e)" d="M 310.781771 92.108349 
L 295.730947 87.454596 
L 296.560235 53.182508 
L 311.803915 57.701961 
z
" style="fill:#ff0000;"/>
    <path clip-path="url(#pfa0fd1760e)" d="M 161.184962 87.712633 
L 146.269462 92.425617 
L 145.234113 58.010096 
L 160.340991 53.433082 
z
" style="fill:#ff0000;"/>
    <path clip-path="url(#pfa0fd1760e)" d="M 330.033577 137.75627 
L 321.65717 131.361402 
L 322.808507 97.644855 
L 331.298248 103.872517 
z
" style="fill:#d4dd80;"/>
    <path clip-path="url(#pfa0fd1760e)" d="M 135.56833 131.73699 
L 127.376351 138.168269 
L 126.102746 104.273782 
L 134.405925 98.010591 
z
" style="fill:#d4dd80;"/>
    <path clip-path="url(#pfa0fd1760e)" d="M 333.521913 185.112442 
L 333.216577 177.85199 
L 334.514929 144.628368 
L 334.834371 151.7172 
z
" style="fill:#2adddd;"/>
    <path clip-path="url(#pfa0fd1760e)" d="M 124.401371 178.295653 
L 124.305314 185.56043 
L 122.989098 152.154645 
L 123.096685 145.061504 
z
" style="fill:#2adddd;"/>
    <path clip-path="url(#pfa0fd1760e)" d="M 322.808507 97.644855 
L 310.781771 92.108349 
L 311.803915 57.701961 
L 323.988829 63.079506 
z
" style="fill:#ff0000;"/>
    <path clip-path="url(#pfa0fd1760e)" d="M 320.388843 232.014905 
L 328.365976 225.040176 
L 329.607654 192.305068 
L 321.539058 199.130866 
z
" style="fill:#8000ff;"/>
    <path clip-path="url(#pfa0fd1760e)" d="M 146.269462 92.425617 
L 134.405925 98.010591 
L 133.214243 63.434772 
L 145.234113 58.010096 
z
" style="fill:#ff0000;"/>
    <path clip-path="url(#pfa0fd1760e)" d="M 129.673298 225.483762 
L 137.851432 232.425327 
L 136.702803 199.532563 
L 128.430595 192.739147 
z
" style="fill:#8000ff;"/>
    <path clip-path="url(#pfa0fd1760e)" d="M 334.514929 144.628368 
L 330.033577 137.75627 
L 331.298248 103.872517 
L 335.846051 110.566181 
z
" style="fill:#d4dd80;"/>
    <path clip-path="url(#pfa0fd1760e)" d="M 127.376351 138.168269 
L 123.096685 145.061504 
L 121.759052 110.988114 
L 126.102746 104.273782 
z
" style="fill:#d4dd80;"/>
    <path clip-path="url(#pfa0fd1760e)" d="M 329.607654 192.305068 
L 333.521913 185.112442 
L 334.834371 151.7172 
L 330.880767 158.741173 
z
" style="fill:#2adddd;"/>
    <path clip-path="url(#pfa0fd1760e)" d="M 124.305314 185.56043 
L 128.430595 192.739147 
L 127.156414 159.165116 
L 122.989098 152.154645 
z
" style="fill:#2adddd;"/>
    <path clip-path="url(#pfa0fd1760e)" d="M 331.298248 103.872517 
L 322.808507 97.644855 
L 323.988829 63.079506 
L 332.594993 69.129417 
z
" style="fill:#ff0000;"/>
    <path clip-path="url(#pfa0fd1760e)" d="M 137.851432 232.425327 
L 149.864831 238.670243 
L 148.861119 205.64523 
L 136.702803 199.532563 
z
" style="fill:#8000ff;"/>
    <path clip-path="url(#pfa0fd1760e)" d="M 134.405925 98.010591 
L 126.102746 104.273782 
L 124.796826 69.519267 
L 133.214243 63.434772 
z
" style="fill:#ff0000;"/>
    <path clip-path="url(#pfa0fd1760e)" d="M 302.601952 240.661887 
L 315.915861 234.732952 
L 317.012818 201.791206 
L 303.536457 207.594903 
z
" style="fill:#8000ff;"/>
    <path clip-path="url(#pfa0fd1760e)" d="M 334.834371 151.7172 
L 334.514929 144.628368 
L 335.846051 110.566181 
L 336.18022 117.47231 
z
" style="fill:#d4dd80;"/>
    <path clip-path="url(#pfa0fd1760e)" d="M 123.096685 145.061504 
L 122.989098 152.154645 
L 121.639378 117.898525 
L 121.759052 110.988114 
z
" style="fill:#d4dd80;"/>
    <path clip-path="url(#pfa0fd1760e)" d="M 321.539058 199.130866 
L 329.607654 192.305068 
L 330.880767 158.741173 
L 322.718609 165.408171 
z
" style="fill:#2adddd;"/>
    <path clip-path="url(#pfa0fd1760e)" d="M 128.430595 192.739147 
L 136.702803 199.532563 
L 135.524868 165.80056 
L 127.156414 159.165116 
z
" style="fill:#2adddd;"/>
    <path clip-path="url(#pfa0fd1760e)" d="M 149.864831 238.670243 
L 165.269238 243.936757 
L 164.45646 210.800975 
L 148.861119 205.64523 
z
" style="fill:#8000ff;"/>
    <path clip-path="url(#pfa0fd1760e)" d="M 335.846051 110.566181 
L 331.298248 103.872517 
L 332.594993 69.129417 
L 337.2112 75.633275 
z
" style="fill:#ff0000;"/>
    <path clip-path="url(#pfa0fd1760e)" d="M 286.104312 245.520468 
L 302.601952 240.661887 
L 303.536457 207.594903 
L 286.832838 212.351512 
z
" style="fill:#8000ff;"/>
    <path clip-path="url(#pfa0fd1760e)" d="M 126.102746 104.273782 
L 121.759052 110.988114 
L 120.387209 76.043287 
L 124.796826 69.519267 
z
" style="fill:#ff0000;"/>
    <path clip-path="url(#pfa0fd1760e)" d="M 330.880767 158.741173 
L 334.834371 151.7172 
L 336.18022 117.47231 
L 332.186527 124.316611 
z
" style="fill:#d4dd80;"/>
    <path clip-path="url(#pfa0fd1760e)" d="M 165.269238 243.936757 
L 183.445806 247.979501 
L 182.862311 214.759161 
L 164.45646 210.800975 
z
" style="fill:#8000ff;"/>
    <path clip-path="url(#pfa0fd1760e)" d="M 122.989098 152.154645 
L 127.156414 159.165116 
L 125.849544 124.729753 
L 121.639378 117.898525 
z
" style="fill:#d4dd80;"/>
    <path clip-path="url(#pfa0fd1760e)" d="M 267.099978 249.080094 
L 286.104312 245.520468 
L 286.832838 212.351512 
L 267.587647 215.836805 
z
" style="fill:#8000ff;"/>
    <path clip-path="url(#pfa0fd1760e)" d="M 136.702803 199.532563 
L 148.861119 205.64523 
L 147.831631 171.77212 
L 135.524868 165.80056 
z
" style="fill:#2adddd;"/>
    <path clip-path="url(#pfa0fd1760e)" d="M 183.445806 247.979501 
L 203.625568 250.605262 
L 203.299472 217.330221 
L 182.862311 214.759161 
z
" style="fill:#8000ff;"/>
    <path clip-path="url(#pfa0fd1760e)" d="M 246.403845 251.169401 
L 267.099978 249.080094 
L 267.587647 215.836805 
L 246.626817 217.882631 
z
" style="fill:#8000ff;"/>
    <path clip-path="url(#pfa0fd1760e)" d="M 303.536457 207.594903 
L 317.012818 201.791206 
L 318.137831 168.006949 
L 304.495011 173.676991 
z
" style="fill:#2adddd;"/>
    <path clip-path="url(#pfa0fd1760e)" d="M 336.18022 117.47231 
L 335.846051 110.566181 
L 337.2112 75.633275 
L 337.560753 82.344927 
z
" style="fill:#ff0000;"/>
    <path clip-path="url(#pfa0fd1760e)" d="M 203.625568 250.605262 
L 224.926952 251.68627 
L 224.874142 218.38876 
L 203.299472 217.330221 
z
" style="fill:#8000ff;"/>
    <path clip-path="url(#pfa0fd1760e)" d="M 121.759052 110.988114 
L 121.639378 117.898525 
L 120.254859 82.759185 
L 120.387209 76.043287 
z
" style="fill:#ff0000;"/>
    <path clip-path="url(#pfa0fd1760e)" d="M 224.926952 251.68627 
L 246.403845 251.169401 
L 246.626817 217.882631 
L 224.874142 218.38876 
z
" style="fill:#8000ff;"/>
    <path clip-path="url(#pfa0fd1760e)" d="M 322.718609 165.408171 
L 330.880767 158.741173 
L 332.186527 124.316611 
L 323.92863 130.814322 
z
" style="fill:#d4dd80;"/>
    <path clip-path="url(#pfa0fd1760e)" d="M 127.156414 159.165116 
L 135.524868 165.80056 
L 134.31649 131.196786 
L 125.849544 124.729753 
z
" style="fill:#d4dd80;"/>
    <path clip-path="url(#pfa0fd1760e)" d="M 148.861119 205.64523 
L 164.45646 210.800975 
L 163.622695 176.809608 
L 147.831631 171.77212 
z
" style="fill:#2adddd;"/>
    <path clip-path="url(#pfa0fd1760e)" d="M 286.832838 212.351512 
L 303.536457 207.594903 
L 304.495011 173.676991 
L 287.580207 178.324717 
z
" style="fill:#2adddd;"/>
    <path clip-path="url(#pfa0fd1760e)" d="M 332.186527 124.316611 
L 336.18022 117.47231 
L 337.560753 82.344927 
L 333.526205 88.997848 
z
" style="fill:#ff0000;"/>
    <path clip-path="url(#pfa0fd1760e)" d="M 164.45646 210.800975 
L 182.862311 214.759161 
L 182.263688 180.677478 
L 163.622695 176.809608 
z
" style="fill:#2adddd;"/>
    <path clip-path="url(#pfa0fd1760e)" d="M 121.639378 117.898525 
L 125.849544 124.729753 
L 124.508712 89.399481 
L 120.254859 82.759185 
z
" style="fill:#ff0000;"/>
    <path clip-path="url(#pfa0fd1760e)" d="M 267.587647 215.836805 
L 286.832838 212.351512 
L 287.580207 178.324717 
L 268.087974 181.730604 
z
" style="fill:#2adddd;"/>
    <path clip-path="url(#pfa0fd1760e)" d="M 135.524868 165.80056 
L 147.831631 171.77212 
L 146.775362 137.017817 
L 134.31649 131.196786 
z
" style="fill:#d4dd80;"/>
    <path clip-path="url(#pfa0fd1760e)" d="M 182.862311 214.759161 
L 203.299472 217.330221 
L 202.964898 183.190093 
L 182.263688 180.677478 
z
" style="fill:#2adddd;"/>
    <path clip-path="url(#pfa0fd1760e)" d="M 246.626817 217.882631 
L 267.587647 215.836805 
L 268.087974 181.730604 
L 246.855589 183.729969 
z
" style="fill:#2adddd;"/>
    <path clip-path="url(#pfa0fd1760e)" d="M 304.495011 173.676991 
L 318.137831 168.006949 
L 319.291989 133.347443 
L 305.478553 138.874878 
z
" style="fill:#d4dd80;"/>
    <path clip-path="url(#pfa0fd1760e)" d="M 203.299472 217.330221 
L 224.874142 218.38876 
L 224.819959 184.22462 
L 202.964898 183.190093 
z
" style="fill:#2adddd;"/>
    <path clip-path="url(#pfa0fd1760e)" d="M 224.874142 218.38876 
L 246.626817 217.882631 
L 246.855589 183.729969 
L 224.819959 184.22462 
z
" style="fill:#2adddd;"/>
    <path clip-path="url(#pfa0fd1760e)" d="M 323.92863 130.814322 
L 332.186527 124.316611 
L 333.526205 88.997848 
L 325.170319 95.31512 
z
" style="fill:#ff0000;"/>
    <path clip-path="url(#pfa0fd1760e)" d="M 125.849544 124.729753 
L 134.31649 131.196786 
L 133.076475 95.687001 
L 124.508712 89.399481 
z
" style="fill:#ff0000;"/>
    <path clip-path="url(#pfa0fd1760e)" d="M 147.831631 171.77212 
L 163.622695 176.809608 
L 162.767121 141.929084 
L 146.775362 137.017817 
z
" style="fill:#d4dd80;"/>
    <path clip-path="url(#pfa0fd1760e)" d="M 287.580207 178.324717 
L 304.495011 173.676991 
L 305.478553 138.874878 
L 288.347157 143.406367 
z
" style="fill:#d4dd80;"/>
    <path clip-path="url(#pfa0fd1760e)" d="M 163.622695 176.809608 
L 182.263688 180.677478 
L 181.649339 145.700513 
L 162.767121 141.929084 
z
" style="fill:#d4dd80;"/>
    <path clip-path="url(#pfa0fd1760e)" d="M 268.087974 181.730604 
L 287.580207 178.324717 
L 288.347157 143.406367 
L 268.60146 146.727452 
z
" style="fill:#d4dd80;"/>
    <path clip-path="url(#pfa0fd1760e)" d="M 134.31649 131.196786 
L 146.775362 137.017817 
L 145.691252 101.347484 
L 133.076475 95.687001 
z
" style="fill:#ff0000;"/>
    <path clip-path="url(#pfa0fd1760e)" d="M 182.263688 180.677478 
L 202.964898 183.190093 
L 202.621511 148.150699 
L 181.649339 145.700513 
z
" style="fill:#d4dd80;"/>
    <path clip-path="url(#pfa0fd1760e)" d="M 246.855589 183.729969 
L 268.087974 181.730604 
L 268.60146 146.727452 
L 247.09039 148.677183 
z
" style="fill:#d4dd80;"/>
    <path clip-path="url(#pfa0fd1760e)" d="M 305.478553 138.874878 
L 319.291989 133.347443 
L 320.476441 97.778228 
L 306.488073 103.15353 
z
" style="fill:#ff0000;"/>
    <path clip-path="url(#pfa0fd1760e)" d="M 202.964898 183.190093 
L 224.819959 184.22462 
L 224.764346 149.159572 
L 202.621511 148.150699 
z
" style="fill:#d4dd80;"/>
    <path clip-path="url(#pfa0fd1760e)" d="M 224.819959 184.22462 
L 246.855589 183.729969 
L 247.09039 148.677183 
L 224.764346 149.159572 
z
" style="fill:#d4dd80;"/>
    <path clip-path="url(#pfa0fd1760e)" d="M 146.775362 137.017817 
L 162.767121 141.929084 
L 161.88887 106.124054 
L 145.691252 101.347484 
z
" style="fill:#ff0000;"/>
    <path clip-path="url(#pfa0fd1760e)" d="M 288.347157 143.406367 
L 305.478553 138.874878 
L 306.488073 103.15353 
L 289.134469 107.560956 
z
" style="fill:#ff0000;"/>
    <path clip-path="url(#pfa0fd1760e)" d="M 162.767121 141.929084 
L 181.649339 145.700513 
L 181.018638 109.79252 
L 161.88887 106.124054 
z
" style="fill:#ff0000;"/>
    <path clip-path="url(#pfa0fd1760e)" d="M 268.60146 146.727452 
L 288.347157 143.406367 
L 289.134469 107.560956 
L 269.12863 110.791493 
z
" style="fill:#ff0000;"/>
    <path clip-path="url(#pfa0fd1760e)" d="M 181.649339 145.700513 
L 202.621511 148.150699 
L 202.268959 112.176034 
L 181.018638 109.79252 
z
" style="fill:#ff0000;"/>
    <path clip-path="url(#pfa0fd1760e)" d="M 247.09039 148.677183 
L 268.60146 146.727452 
L 269.12863 110.791493 
L 247.331462 112.688214 
z
" style="fill:#ff0000;"/>
    <path clip-path="url(#pfa0fd1760e)" d="M 202.621511 148.150699 
L 224.764346 149.159572 
L 224.707247 113.157505 
L 202.268959 112.176034 
z
" style="fill:#ff0000;"/>
    <path clip-path="url(#pfa0fd1760e)" d="M 224.764346 149.159572 
L 247.09039 148.677183 
L 247.331462 112.688214 
L 224.707247 113.157505 
z
" style="fill:#ff0000;"/>
   </g>
  </g>
 </g>
 <defs>
  <clipPath id="pfa0fd1760e">
   <rect height="288" width="432" x="7.2" y="7.2"/>
  </clipPath>
 </defs>
</svg>
