<?xml version="1.0" encoding="utf-8" standalone="no"?>
<!DOCTYPE svg PUBLIC "-//W3C//DTD SVG 1.1//EN"
  "http://www.w3.org/Graphics/SVG/1.1/DTD/svg11.dtd">
<!-- Created with matplotlib (https://matplotlib.org/) -->
<svg height="302.4pt" version="1.1" viewBox="0 0 446.4 302.4" width="446.4pt" xmlns="http://www.w3.org/2000/svg" xmlns:xlink="http://www.w3.org/1999/xlink">
 <defs>
  <style type="text/css">
*{stroke-linecap:butt;stroke-linejoin:round;}
  </style>
 </defs>
 <g id="figure_1">
  <g id="patch_1">
   <path d="M 0 302.4 
L 446.4 302.4 
L 446.4 0 
L 0 0 
z
" style="fill:none;"/>
  </g>
  <g id="patch_2">
   <path d="M 7.2 295.2 
L 439.2 295.2 
L 439.2 7.2 
L 7.2 7.2 
z
" style="fill:#ffffff;"/>
  </g>
  <g id="pane3d_1">
   <g id="patch_3">
    <path d="M 64.468276 231.56215 
L 188.108936 160.951075 
L 186.05045 26.024902 
L 55.516013 89.4675 
" style="fill:#f2f2f2;opacity:0.5;stroke:#f2f2f2;stroke-linejoin:miter;"/>
   </g>
  </g>
  <g id="pane3d_2">
   <g id="patch_4">
    <path d="M 188.108936 160.951075 
L 388.395181 200.427223 
L 396.774918 61.432405 
L 186.05045 26.024902 
" style="fill:#e6e6e6;opacity:0.5;stroke:#e6e6e6;stroke-linejoin:miter;"/>
   </g>
  </g>
  <g id="pane3d_3">
   <g id="patch_5">
    <path d="M 64.468276 231.56215 
L 275.196469 277.538555 
L 388.395181 200.427223 
L 188.108936 160.951075 
" style="fill:#ececec;opacity:0.5;stroke:#ececec;stroke-linejoin:miter;"/>
   </g>
  </g>
  <g id="axis3d_1">
   <g id="line2d_1">
    <path d="M 64.468276 231.56215 
L 275.196469 277.538555 
" style="fill:none;stroke:#000000;stroke-linecap:square;stroke-width:0.8;"/>
   </g>
   <g id="text_1">
    <!-- X -->
    <defs>
     <path d="M 27.34375 37.5 
L 41.015625 8.203125 
Q 42.1875 5.859375 43.546875 4.875 
Q 44.921875 3.90625 46.484375 3.90625 
L 47.65625 3.90625 
L 47.65625 1.5625 
L 30.859375 1.5625 
L 30.859375 3.90625 
L 32.421875 3.90625 
Q 34.375 3.90625 34.765625 4.484375 
Q 35.15625 5.078125 35.15625 5.859375 
Q 35.15625 6.640625 34.765625 7.421875 
L 24.21875 30.46875 
L 15.234375 11.71875 
Q 14.453125 9.765625 14.0625 8.59375 
Q 13.28125 7.03125 13.28125 6.640625 
Q 13.28125 5.078125 14.25 4.484375 
Q 15.234375 3.90625 16.796875 3.90625 
L 17.578125 3.90625 
L 17.578125 1.5625 
L 2.734375 1.5625 
L 2.734375 3.90625 
L 4.296875 3.90625 
Q 6.25 3.90625 7.8125 5.078125 
Q 9.375 6.25 10.15625 7.8125 
L 22.65625 34.375 
L 9.375 63.28125 
Q 8.984375 64.453125 8 65.234375 
Q 7.03125 66.015625 5.46875 66.015625 
L 3.90625 66.015625 
L 3.90625 68.359375 
L 19.921875 68.359375 
L 19.921875 66.015625 
L 18.75 66.015625 
Q 16.40625 66.015625 16.015625 64.84375 
Q 15.625 63.671875 16.40625 61.328125 
L 25.78125 40.625 
L 35.15625 60.546875 
Q 36.328125 63.28125 35.9375 64.640625 
Q 35.546875 66.015625 33.203125 66.015625 
L 30.859375 66.015625 
L 30.859375 68.359375 
L 46.09375 68.359375 
L 46.09375 66.015625 
L 43.75 66.015625 
Q 42.96875 66.015625 41.796875 65.234375 
Q 40.625 64.453125 39.453125 62.890625 
z
M 8.203125 3.90625 
z
M 11.71875 3.90625 
z
M 41.015625 66.015625 
z
M 36.328125 66.015625 
z
M 36.328125 3.90625 
z
M 42.96875 3.90625 
z
M 14.453125 66.015625 
z
M 8.203125 66.015625 
z
" id="SimSun-88"/>
    </defs>
    <g transform="translate(148.219095 285.889837)scale(0.1 -0.1)">
     <use xlink:href="#SimSun-88"/>
    </g>
   </g>
   <g id="Line3DCollection_1">
    <path d="M 77.164852 234.332272 
L 200.214463 163.337059 
L 198.760833 28.160595 
" style="fill:none;stroke:#b0b0b0;stroke-width:0.8;"/>
    <path d="M 99.37772 239.178647 
L 221.381503 167.509053 
L 220.993526 31.896299 
" style="fill:none;stroke:#b0b0b0;stroke-width:0.8;"/>
    <path d="M 121.810069 244.072908 
L 242.742489 171.719275 
L 243.440302 35.667974 
" style="fill:none;stroke:#b0b0b0;stroke-width:0.8;"/>
    <path d="M 144.465166 249.015768 
L 264.300099 175.96825 
L 266.104268 39.476144 
" style="fill:none;stroke:#b0b0b0;stroke-width:0.8;"/>
    <path d="M 167.346348 254.007955 
L 286.057061 180.256518 
L 288.988592 43.321339 
" style="fill:none;stroke:#b0b0b0;stroke-width:0.8;"/>
    <path d="M 190.457014 259.05021 
L 308.016153 184.584625 
L 312.096504 47.204104 
" style="fill:none;stroke:#b0b0b0;stroke-width:0.8;"/>
    <path d="M 213.800635 264.143291 
L 330.180205 188.95313 
L 335.431296 51.12499 
" style="fill:none;stroke:#b0b0b0;stroke-width:0.8;"/>
    <path d="M 237.38075 269.287971 
L 352.552099 193.3626 
L 358.996326 55.084563 
" style="fill:none;stroke:#b0b0b0;stroke-width:0.8;"/>
    <path d="M 261.200972 274.485036 
L 375.134774 197.813614 
L 382.795018 59.083397 
" style="fill:none;stroke:#b0b0b0;stroke-width:0.8;"/>
   </g>
   <g id="xtick_1">
    <g id="line2d_2">
     <path d="M 78.224985 233.720613 
L 75.040631 235.557871 
" style="fill:none;stroke:#000000;stroke-linecap:square;stroke-width:0.8;"/>
    </g>
    <g id="text_2">
     <!-- 99.00 -->
     <defs>
      <path d="M 10.9375 47.65625 
Q 10.9375 39.0625 14.25 34.5625 
Q 17.578125 30.078125 22.65625 30.078125 
Q 28.515625 30.078125 32.8125 35.546875 
Q 37.109375 41.015625 37.109375 45.703125 
Q 37.109375 55.078125 33.984375 60.734375 
Q 30.859375 66.40625 23.828125 66.40625 
Q 17.1875 66.40625 14.0625 61.125 
Q 10.9375 55.859375 10.9375 47.65625 
z
M 21.484375 26.5625 
Q 13.671875 26.5625 8.984375 31.4375 
Q 4.296875 36.328125 4.296875 47.265625 
Q 4.296875 56.640625 9.375 62.890625 
Q 14.453125 69.140625 23.828125 69.140625 
Q 33.59375 69.140625 39.0625 61.328125 
Q 44.53125 53.515625 44.53125 38.671875 
Q 44.53125 22.265625 38.078125 11.515625 
Q 31.640625 0.78125 20.3125 0.78125 
Q 15.234375 0.78125 11.515625 3.125 
Q 7.8125 5.46875 7.8125 9.375 
Q 7.8125 10.9375 8.78125 12.5 
Q 9.765625 14.0625 12.109375 14.0625 
Q 14.453125 14.0625 15.234375 12.296875 
Q 16.015625 10.546875 16.015625 8.203125 
Q 16.015625 6.640625 16.40625 5.65625 
Q 16.796875 4.6875 17.1875 4.296875 
Q 17.578125 3.90625 18.546875 3.703125 
Q 19.53125 3.515625 20.703125 3.515625 
Q 27.734375 3.515625 32.03125 11.328125 
Q 36.328125 19.140625 37.109375 37.5 
Q 35.15625 32.8125 31.25 29.6875 
Q 27.34375 26.5625 21.484375 26.5625 
z
" id="SimSun-57"/>
      <path d="M 12.5 0.390625 
Q 10.15625 0.390625 8.390625 1.953125 
Q 6.640625 3.515625 6.640625 6.25 
Q 6.640625 8.984375 8.390625 10.546875 
Q 10.15625 12.109375 12.5 12.109375 
Q 14.84375 12.109375 16.59375 10.34375 
Q 18.359375 8.59375 18.359375 6.25 
Q 18.359375 3.515625 16.59375 1.953125 
Q 14.84375 0.390625 12.5 0.390625 
z
" id="SimSun-46"/>
      <path d="M 25 66.015625 
Q 19.53125 66.015625 15.8125 57.609375 
Q 12.109375 49.21875 12.109375 35.15625 
Q 12.109375 20.3125 15.8125 12.109375 
Q 19.53125 3.90625 25 3.90625 
Q 30.859375 3.90625 34.171875 12.109375 
Q 37.5 20.3125 37.5 35.15625 
Q 37.5 49.21875 34.375 57.609375 
Q 31.25 66.015625 25 66.015625 
z
M 25 0.78125 
Q 16.40625 0.78125 10.546875 9.765625 
Q 4.6875 18.75 4.6875 35.15625 
Q 4.6875 50.390625 10.34375 59.765625 
Q 16.015625 69.140625 25 69.140625 
Q 33.59375 69.140625 39.25 60.15625 
Q 44.921875 51.171875 44.921875 35.15625 
Q 44.921875 19.140625 39.25 9.953125 
Q 33.59375 0.78125 25 0.78125 
z
" id="SimSun-48"/>
     </defs>
     <g transform="translate(57.001883 254.473633)scale(0.1 -0.1)">
      <use xlink:href="#SimSun-57"/>
      <use x="50" xlink:href="#SimSun-57"/>
      <use x="100" xlink:href="#SimSun-46"/>
      <use x="150" xlink:href="#SimSun-48"/>
      <use x="200" xlink:href="#SimSun-48"/>
     </g>
    </g>
   </g>
   <g id="xtick_2">
    <g id="line2d_3">
     <path d="M 100.429212 238.560962 
L 97.270795 240.416334 
" style="fill:none;stroke:#000000;stroke-linecap:square;stroke-width:0.8;"/>
    </g>
    <g id="text_3">
     <!-- 99.25 -->
     <defs>
      <path d="M 36.328125 51.953125 
Q 36.328125 58.984375 33.203125 62.6875 
Q 30.078125 66.40625 23.828125 66.40625 
Q 19.140625 66.40625 15.8125 63.859375 
Q 12.5 61.328125 12.5 57.421875 
Q 12.5 55.078125 14.0625 53.515625 
Q 15.234375 51.953125 15.234375 50.390625 
Q 15.234375 48.4375 14.25 47.453125 
Q 13.28125 46.484375 11.328125 46.484375 
Q 8.984375 46.484375 7.609375 47.84375 
Q 6.25 49.21875 6.25 52.34375 
Q 6.25 60.546875 12.109375 64.84375 
Q 17.96875 69.140625 24.609375 69.140625 
Q 33.984375 69.140625 38.46875 64.453125 
Q 42.96875 59.765625 42.96875 52.734375 
Q 42.96875 48.046875 40.8125 43.359375 
Q 38.671875 38.671875 33.984375 34.375 
Q 22.65625 23.4375 16.59375 16.59375 
Q 10.546875 9.765625 9.375 7.421875 
L 32.421875 7.421875 
Q 35.9375 7.421875 38.28125 10.15625 
Q 40.625 12.890625 41.40625 18.359375 
L 43.75 18.359375 
L 41.40625 1.5625 
L 5.078125 1.5625 
L 5.078125 6.640625 
Q 7.03125 10.15625 11.515625 15.625 
Q 16.015625 21.09375 23.4375 28.515625 
Q 30.078125 35.15625 33.203125 41.015625 
Q 36.328125 46.875 36.328125 51.953125 
z
" id="SimSun-50"/>
      <path d="M 26.953125 44.53125 
Q 34.375 44.53125 39.0625 38.859375 
Q 43.75 33.203125 43.75 23.828125 
Q 43.75 13.28125 38.859375 7.03125 
Q 33.984375 0.78125 23.828125 0.78125 
Q 16.796875 0.78125 11.328125 4.875 
Q 5.859375 8.984375 5.859375 14.84375 
Q 5.859375 17.1875 7.21875 18.9375 
Q 8.59375 20.703125 10.9375 20.703125 
Q 13.28125 20.703125 14.0625 19.140625 
Q 14.84375 17.578125 14.84375 16.40625 
Q 14.84375 14.0625 13.671875 12.890625 
Q 12.5 11.328125 12.5 9.765625 
Q 12.5 6.640625 16.203125 5.078125 
Q 19.921875 3.515625 24.21875 3.515625 
Q 30.46875 3.515625 33.78125 8.59375 
Q 37.109375 13.671875 37.109375 23.046875 
Q 37.109375 30.859375 34.171875 35.734375 
Q 31.25 40.625 25.390625 40.625 
Q 21.09375 40.625 17.96875 39.0625 
Q 14.84375 37.5 12.109375 32.421875 
L 8.59375 32.8125 
L 10.546875 68.359375 
L 42.578125 68.359375 
L 41.40625 62.5 
L 13.28125 62.5 
L 11.71875 36.71875 
Q 15.625 42.1875 19.328125 43.359375 
Q 23.046875 44.53125 26.953125 44.53125 
z
" id="SimSun-53"/>
     </defs>
     <g transform="translate(79.212492 259.391723)scale(0.1 -0.1)">
      <use xlink:href="#SimSun-57"/>
      <use x="50" xlink:href="#SimSun-57"/>
      <use x="100" xlink:href="#SimSun-46"/>
      <use x="150" xlink:href="#SimSun-50"/>
      <use x="200" xlink:href="#SimSun-53"/>
     </g>
    </g>
   </g>
   <g id="xtick_3">
    <g id="line2d_4">
     <path d="M 122.852696 243.449106 
L 119.720886 245.322862 
" style="fill:none;stroke:#000000;stroke-linecap:square;stroke-width:0.8;"/>
    </g>
    <g id="text_4">
     <!-- 99.50 -->
     <g transform="translate(101.642911 264.358487)scale(0.1 -0.1)">
      <use xlink:href="#SimSun-57"/>
      <use x="50" xlink:href="#SimSun-57"/>
      <use x="100" xlink:href="#SimSun-46"/>
      <use x="150" xlink:href="#SimSun-53"/>
      <use x="200" xlink:href="#SimSun-48"/>
     </g>
    </g>
   </g>
   <g id="xtick_4">
    <g id="line2d_5">
     <path d="M 145.498702 248.385759 
L 142.394184 250.278173 
" style="fill:none;stroke:#000000;stroke-linecap:square;stroke-width:0.8;"/>
    </g>
    <g id="text_5">
     <!-- 99.75 -->
     <defs>
      <path d="M 44.140625 65.625 
Q 35.9375 52.34375 31.046875 39.640625 
Q 26.171875 26.953125 26.171875 17.578125 
Q 26.171875 16.015625 26.5625 13.28125 
Q 26.5625 10.15625 26.5625 6.25 
Q 26.5625 3.125 25.578125 1.953125 
Q 24.609375 0.78125 22.265625 0.78125 
Q 20.3125 0.78125 18.9375 2.140625 
Q 17.578125 3.515625 17.578125 7.03125 
Q 17.578125 14.453125 20.890625 25.390625 
Q 24.21875 36.328125 38.671875 62.5 
L 19.140625 62.5 
Q 14.84375 62.5 12.296875 59.765625 
Q 9.765625 57.03125 8.59375 51.5625 
L 6.25 51.953125 
L 8.984375 68.359375 
L 44.140625 68.359375 
z
" id="SimSun-55"/>
     </defs>
     <g transform="translate(124.296419 269.374649)scale(0.1 -0.1)">
      <use xlink:href="#SimSun-57"/>
      <use x="50" xlink:href="#SimSun-57"/>
      <use x="100" xlink:href="#SimSun-46"/>
      <use x="150" xlink:href="#SimSun-55"/>
      <use x="200" xlink:href="#SimSun-53"/>
     </g>
    </g>
   </g>
   <g id="xtick_5">
    <g id="line2d_6">
     <path d="M 168.370557 253.371644 
L 165.294034 255.282997 
" style="fill:none;stroke:#000000;stroke-linecap:square;stroke-width:0.8;"/>
    </g>
    <g id="text_6">
     <!-- 100.00 -->
     <defs>
      <path d="M 28.515625 69.53125 
L 28.515625 10.15625 
Q 28.515625 7.03125 30.46875 5.46875 
Q 32.421875 3.90625 35.9375 3.90625 
L 39.84375 3.90625 
L 39.84375 1.5625 
L 11.328125 1.5625 
L 11.328125 3.90625 
L 14.84375 3.90625 
Q 18.75 3.90625 20.5 5.46875 
Q 22.265625 7.03125 22.265625 10.15625 
L 22.265625 57.421875 
Q 22.265625 58.984375 21.28125 59.953125 
Q 20.3125 60.9375 18.359375 60.9375 
L 11.328125 60.9375 
L 11.328125 63.28125 
L 14.84375 63.28125 
Q 19.53125 63.28125 22.453125 64.84375 
Q 25.390625 66.40625 26.953125 69.53125 
z
" id="SimSun-49"/>
     </defs>
     <g transform="translate(144.676362 274.44095)scale(0.1 -0.1)">
      <use xlink:href="#SimSun-49"/>
      <use x="50" xlink:href="#SimSun-48"/>
      <use x="100" xlink:href="#SimSun-48"/>
      <use x="150" xlink:href="#SimSun-46"/>
      <use x="200" xlink:href="#SimSun-48"/>
      <use x="250" xlink:href="#SimSun-48"/>
     </g>
    </g>
   </g>
   <g id="xtick_6">
    <g id="line2d_7">
     <path d="M 191.471657 258.407504 
L 188.423848 260.33808 
" style="fill:none;stroke:#000000;stroke-linecap:square;stroke-width:0.8;"/>
    </g>
    <g id="text_7">
     <!-- 100.25 -->
     <g transform="translate(167.786151 279.558146)scale(0.1 -0.1)">
      <use xlink:href="#SimSun-49"/>
      <use x="50" xlink:href="#SimSun-48"/>
      <use x="100" xlink:href="#SimSun-48"/>
      <use x="150" xlink:href="#SimSun-46"/>
      <use x="200" xlink:href="#SimSun-50"/>
      <use x="250" xlink:href="#SimSun-53"/>
     </g>
    </g>
   </g>
   <g id="xtick_7">
    <g id="line2d_8">
     <path d="M 214.805467 263.494092 
L 211.787109 265.444184 
" style="fill:none;stroke:#000000;stroke-linecap:square;stroke-width:0.8;"/>
    </g>
    <g id="text_8">
     <!-- 100.50 -->
     <g transform="translate(191.129266 284.727007)scale(0.1 -0.1)">
      <use xlink:href="#SimSun-49"/>
      <use x="50" xlink:href="#SimSun-48"/>
      <use x="100" xlink:href="#SimSun-48"/>
      <use x="150" xlink:href="#SimSun-46"/>
      <use x="200" xlink:href="#SimSun-53"/>
      <use x="250" xlink:href="#SimSun-48"/>
     </g>
    </g>
   </g>
   <g id="xtick_8">
    <g id="line2d_9">
     <path d="M 238.37552 268.63218 
L 235.387368 270.602084 
" style="fill:none;stroke:#000000;stroke-linecap:square;stroke-width:0.8;"/>
    </g>
    <g id="text_9">
     <!-- 100.75 -->
     <g transform="translate(214.709261 289.948321)scale(0.1 -0.1)">
      <use xlink:href="#SimSun-49"/>
      <use x="50" xlink:href="#SimSun-48"/>
      <use x="100" xlink:href="#SimSun-48"/>
      <use x="150" xlink:href="#SimSun-46"/>
      <use x="200" xlink:href="#SimSun-55"/>
      <use x="250" xlink:href="#SimSun-53"/>
     </g>
    </g>
   </g>
   <g id="xtick_9">
    <g id="line2d_10">
     <path d="M 262.185423 273.822553 
L 259.22825 275.812574 
" style="fill:none;stroke:#000000;stroke-linecap:square;stroke-width:0.8;"/>
    </g>
    <g id="text_10">
     <!-- 101.00 -->
     <g transform="translate(238.529758 295.222889)scale(0.1 -0.1)">
      <use xlink:href="#SimSun-49"/>
      <use x="50" xlink:href="#SimSun-48"/>
      <use x="100" xlink:href="#SimSun-49"/>
      <use x="150" xlink:href="#SimSun-46"/>
      <use x="200" xlink:href="#SimSun-48"/>
      <use x="250" xlink:href="#SimSun-48"/>
     </g>
    </g>
   </g>
  </g>
  <g id="axis3d_2">
   <g id="line2d_11">
    <path d="M 388.395181 200.427223 
L 275.196469 277.538555 
" style="fill:none;stroke:#000000;stroke-linecap:square;stroke-width:0.8;"/>
   </g>
   <g id="text_11">
    <!-- Y -->
    <defs>
     <path d="M 37.109375 61.328125 
Q 37.5 63.671875 36.515625 64.84375 
Q 35.546875 66.015625 32.8125 66.015625 
L 32.03125 66.015625 
L 32.03125 68.359375 
L 47.265625 68.359375 
L 47.265625 66.015625 
L 46.09375 66.015625 
Q 44.140625 66.015625 42.578125 64.640625 
Q 41.015625 63.28125 39.84375 60.546875 
L 27.734375 29.6875 
L 27.734375 7.03125 
Q 27.734375 5.46875 28.703125 4.6875 
Q 29.6875 3.90625 31.25 3.90625 
L 34.765625 3.90625 
L 34.765625 1.5625 
L 14.453125 1.5625 
L 14.453125 3.90625 
L 17.96875 3.90625 
Q 19.921875 3.90625 20.703125 4.6875 
Q 21.484375 5.46875 21.484375 7.03125 
L 21.484375 27.34375 
L 8.203125 61.71875 
Q 7.421875 63.671875 6.25 64.84375 
Q 5.078125 66.015625 3.125 66.015625 
L 2.34375 66.015625 
L 2.34375 68.359375 
L 19.53125 68.359375 
L 19.53125 66.015625 
L 17.1875 66.015625 
Q 14.84375 66.015625 14.453125 64.84375 
Q 14.0625 63.671875 14.84375 61.328125 
L 25.390625 32.421875 
L 26.171875 32.421875 
z
M 42.1875 66.015625 
z
M 39.0625 66.015625 
z
M 13.28125 66.015625 
z
M 6.640625 66.015625 
z
" id="SimSun-89"/>
    </defs>
    <g transform="translate(359.365557 264.352314)scale(0.1 -0.1)">
     <use xlink:href="#SimSun-89"/>
    </g>
   </g>
   <g id="Line3DCollection_2">
    <path d="M 65.848547 84.445662 
L 74.220041 225.992925 
L 284.152279 271.437828 
" style="fill:none;stroke:#b0b0b0;stroke-width:0.8;"/>
    <path d="M 90.120683 72.648871 
L 97.151556 212.896756 
L 305.1934 257.104547 
" style="fill:none;stroke:#b0b0b0;stroke-width:0.8;"/>
    <path d="M 113.717289 61.180404 
L 119.476726 200.146871 
L 325.653011 243.167394 
" style="fill:none;stroke:#b0b0b0;stroke-width:0.8;"/>
    <path d="M 136.666178 50.02674 
L 141.219287 187.729714 
L 345.554888 229.61017 
" style="fill:none;stroke:#b0b0b0;stroke-width:0.8;"/>
    <path d="M 158.993659 39.175095 
L 162.40175 175.632427 
L 364.921531 216.41755 
" style="fill:none;stroke:#b0b0b0;stroke-width:0.8;"/>
    <path d="M 180.724635 28.613364 
L 183.045484 163.842809 
L 383.774245 203.575019 
" style="fill:none;stroke:#b0b0b0;stroke-width:0.8;"/>
   </g>
   <g id="xtick_10">
    <g id="line2d_12">
     <path d="M 282.395393 271.057508 
L 287.669974 272.199318 
" style="fill:none;stroke:#000000;stroke-linecap:square;stroke-width:0.8;"/>
    </g>
    <g id="text_12">
     <!-- −0.2 -->
     <defs>
      <path id="SimSun-8722"/>
     </defs>
     <g transform="translate(284.939413 289.96761)scale(0.1 -0.1)">
      <use xlink:href="#SimSun-8722"/>
      <use x="100" xlink:href="#SimSun-48"/>
      <use x="150" xlink:href="#SimSun-46"/>
      <use x="200" xlink:href="#SimSun-50"/>
     </g>
    </g>
   </g>
   <g id="xtick_11">
    <g id="line2d_13">
     <path d="M 303.45341 256.734809 
L 308.677213 257.844839 
" style="fill:none;stroke:#000000;stroke-linecap:square;stroke-width:0.8;"/>
    </g>
    <g id="text_13">
     <!-- 0.0 -->
     <g transform="translate(310.785287 275.481154)scale(0.1 -0.1)">
      <use xlink:href="#SimSun-48"/>
      <use x="50" xlink:href="#SimSun-46"/>
      <use x="100" xlink:href="#SimSun-48"/>
     </g>
    </g>
   </g>
   <g id="xtick_12">
    <g id="line2d_14">
     <path d="M 323.929659 242.807801 
L 329.103457 243.887361 
" style="fill:none;stroke:#000000;stroke-linecap:square;stroke-width:0.8;"/>
    </g>
    <g id="text_14">
     <!-- 0.2 -->
     <g transform="translate(331.055293 261.394887)scale(0.1 -0.1)">
      <use xlink:href="#SimSun-48"/>
      <use x="50" xlink:href="#SimSun-46"/>
      <use x="100" xlink:href="#SimSun-50"/>
     </g>
    </g>
   </g>
   <g id="xtick_13">
    <g id="line2d_15">
     <path d="M 343.84792 229.260312 
L 348.97248 230.310637 
" style="fill:none;stroke:#000000;stroke-linecap:square;stroke-width:0.8;"/>
    </g>
    <g id="text_15">
     <!-- 0.4 -->
     <defs>
      <path d="M 35.9375 8.984375 
Q 35.9375 6.25 37.5 5.078125 
Q 39.0625 3.90625 41.796875 3.90625 
L 45.3125 3.90625 
L 45.3125 1.5625 
L 19.53125 1.5625 
L 19.53125 3.90625 
L 23.828125 3.90625 
Q 26.953125 3.90625 28.3125 5.078125 
Q 29.6875 6.25 29.6875 8.984375 
L 29.6875 21.875 
L 3.515625 21.875 
L 3.515625 23.828125 
L 32.03125 69.140625 
L 35.9375 69.140625 
L 35.9375 24.21875 
L 46.484375 24.21875 
L 46.484375 21.875 
L 35.9375 21.875 
z
M 29.296875 59.375 
L 7.03125 24.21875 
L 29.6875 24.21875 
L 29.6875 59.375 
z
" id="SimSun-52"/>
     </defs>
     <g transform="translate(350.772969 247.692452)scale(0.1 -0.1)">
      <use xlink:href="#SimSun-48"/>
      <use x="50" xlink:href="#SimSun-46"/>
      <use x="100" xlink:href="#SimSun-52"/>
     </g>
    </g>
   </g>
   <g id="xtick_14">
    <g id="line2d_16">
     <path d="M 363.230695 216.077035 
L 368.306776 217.099299 
" style="fill:none;stroke:#000000;stroke-linecap:square;stroke-width:0.8;"/>
    </g>
    <g id="text_16">
     <!-- 0.6 -->
     <defs>
      <path d="M 12.109375 28.125 
Q 12.109375 16.40625 16.203125 9.953125 
Q 20.3125 3.515625 26.171875 3.515625 
Q 32.03125 3.515625 35.15625 7.8125 
Q 38.28125 12.109375 38.28125 23.828125 
Q 38.28125 31.640625 34.953125 35.9375 
Q 31.640625 40.234375 26.953125 40.234375 
Q 22.65625 40.234375 18.9375 37.6875 
Q 15.234375 35.15625 12.109375 28.125 
z
M 27.34375 44.140625 
Q 36.71875 44.140625 40.8125 37.890625 
Q 44.921875 31.640625 44.921875 23.828125 
Q 44.921875 12.109375 39.25 6.4375 
Q 33.59375 0.78125 26.171875 0.78125 
Q 15.625 0.78125 10.15625 8.78125 
Q 4.6875 16.796875 4.6875 32.03125 
Q 4.6875 50 11.328125 59.5625 
Q 17.96875 69.140625 29.296875 69.140625 
Q 34.765625 69.140625 38.078125 66.015625 
Q 41.40625 62.890625 41.40625 60.546875 
Q 41.40625 58.203125 40.421875 57.03125 
Q 39.453125 55.859375 37.109375 55.859375 
Q 35.15625 55.859375 34.171875 56.828125 
Q 33.203125 57.8125 33.203125 59.765625 
Q 33.203125 60.546875 33.59375 61.328125 
Q 33.59375 62.109375 33.59375 62.890625 
Q 33.59375 64.453125 32.421875 65.421875 
Q 31.25 66.40625 28.125 66.40625 
Q 21.484375 66.40625 16.796875 60.34375 
Q 12.109375 54.296875 12.109375 33.984375 
Q 14.453125 39.0625 18.546875 41.59375 
Q 22.65625 44.140625 27.34375 44.140625 
z
" id="SimSun-54"/>
     </defs>
     <g transform="translate(369.960585 234.358372)scale(0.1 -0.1)">
      <use xlink:href="#SimSun-48"/>
      <use x="50" xlink:href="#SimSun-46"/>
      <use x="100" xlink:href="#SimSun-54"/>
     </g>
    </g>
   </g>
   <g id="xtick_15">
    <g id="line2d_17">
     <path d="M 382.099292 203.243479 
L 387.127645 204.23879 
" style="fill:none;stroke:#000000;stroke-linecap:square;stroke-width:0.8;"/>
    </g>
    <g id="text_17">
     <!-- 0.8 -->
     <defs>
      <path d="M 9.765625 17.578125 
Q 9.765625 11.328125 13.859375 7.421875 
Q 17.96875 3.515625 24.21875 3.515625 
Q 31.640625 3.515625 34.953125 7.421875 
Q 38.28125 11.328125 38.28125 17.1875 
Q 38.28125 22.265625 33.59375 26.953125 
Q 28.90625 31.640625 19.53125 35.546875 
Q 14.84375 32.421875 12.296875 27.734375 
Q 9.765625 23.046875 9.765625 17.578125 
z
M 44.140625 18.359375 
Q 44.140625 10.9375 38.671875 5.859375 
Q 33.203125 0.78125 24.21875 0.78125 
Q 16.015625 0.78125 10.15625 5.859375 
Q 4.296875 10.9375 4.296875 17.578125 
Q 4.296875 24.21875 7.609375 28.90625 
Q 10.9375 33.59375 17.1875 37.109375 
Q 11.71875 39.84375 8.78125 43.9375 
Q 5.859375 48.046875 5.859375 53.125 
Q 5.859375 59.765625 10.9375 64.453125 
Q 16.015625 69.140625 25 69.140625 
Q 33.203125 69.140625 38.28125 64.453125 
Q 43.359375 59.765625 43.359375 53.125 
Q 43.359375 48.4375 40.421875 44.328125 
Q 37.5 40.234375 31.25 37.109375 
Q 37.890625 33.203125 41.015625 28.515625 
Q 44.140625 23.828125 44.140625 18.359375 
z
M 37.890625 52.734375 
Q 37.890625 58.203125 34.765625 62.296875 
Q 31.640625 66.40625 25 66.40625 
Q 17.578125 66.40625 14.453125 62.5 
Q 11.328125 58.59375 11.328125 54.296875 
Q 11.328125 50 15.8125 45.890625 
Q 20.3125 41.796875 28.515625 38.671875 
Q 33.203125 41.015625 35.546875 44.53125 
Q 37.890625 48.046875 37.890625 52.734375 
z
" id="SimSun-56"/>
     </defs>
     <g transform="translate(388.639233 221.377989)scale(0.1 -0.1)">
      <use xlink:href="#SimSun-48"/>
      <use x="50" xlink:href="#SimSun-46"/>
      <use x="100" xlink:href="#SimSun-56"/>
     </g>
    </g>
   </g>
  </g>
  <g id="axis3d_3">
   <g id="line2d_18">
    <path d="M 388.395181 200.427223 
L 396.774918 61.432405 
" style="fill:none;stroke:#000000;stroke-linecap:square;stroke-width:0.8;"/>
   </g>
   <g id="text_18">
    <!-- Z -->
    <defs>
     <path d="M 28.125 3.90625 
Q 33.203125 3.90625 36.90625 7.21875 
Q 40.625 10.546875 42.96875 17.1875 
L 45.3125 16.796875 
L 41.015625 1.5625 
L 3.515625 1.5625 
L 37.890625 66.015625 
L 24.21875 66.015625 
Q 19.140625 66.015625 15.03125 63.078125 
Q 10.9375 60.15625 7.8125 54.296875 
L 5.46875 55.078125 
L 10.15625 68.359375 
L 45.703125 68.359375 
L 11.328125 3.90625 
z
" id="SimSun-90"/>
    </defs>
    <g transform="translate(432.668903 131.826911)scale(0.1 -0.1)">
     <use xlink:href="#SimSun-90"/>
    </g>
   </g>
   <g id="Line3DCollection_3">
    <path d="M 388.647852 196.236162 
L 188.046736 156.874092 
L 64.198792 227.284769 
" style="fill:none;stroke:#b0b0b0;stroke-width:0.8;"/>
    <path d="M 390.213426 170.267963 
L 187.661521 131.624668 
L 62.52842 200.771823 
" style="fill:none;stroke:#b0b0b0;stroke-width:0.8;"/>
    <path d="M 391.810017 143.785286 
L 187.268997 105.896179 
L 60.823849 173.716046 
" style="fill:none;stroke:#b0b0b0;stroke-width:0.8;"/>
    <path d="M 393.438556 116.77269 
L 186.868954 79.674858 
L 59.084017 146.100595 
" style="fill:none;stroke:#b0b0b0;stroke-width:0.8;"/>
    <path d="M 395.100011 89.214109 
L 186.461175 52.946408 
L 57.307819 117.907923 
" style="fill:none;stroke:#b0b0b0;stroke-width:0.8;"/>
   </g>
   <g id="xtick_16">
    <g id="line2d_19">
     <path d="M 386.974082 195.907734 
L 391.998876 196.893702 
" style="fill:none;stroke:#000000;stroke-linecap:square;stroke-width:0.8;"/>
    </g>
    <g id="text_19">
     <!-- −0.2 -->
     <g transform="translate(395.378724 201.544275)scale(0.1 -0.1)">
      <use xlink:href="#SimSun-8722"/>
      <use x="100" xlink:href="#SimSun-48"/>
      <use x="150" xlink:href="#SimSun-46"/>
      <use x="200" xlink:href="#SimSun-50"/>
     </g>
    </g>
   </g>
   <g id="xtick_17">
    <g id="line2d_20">
     <path d="M 388.522696 169.945402 
L 393.598439 170.913763 
" style="fill:none;stroke:#000000;stroke-linecap:square;stroke-width:0.8;"/>
    </g>
    <g id="text_20">
     <!-- 0.0 -->
     <g transform="translate(402.129489 175.608979)scale(0.1 -0.1)">
      <use xlink:href="#SimSun-48"/>
      <use x="50" xlink:href="#SimSun-46"/>
      <use x="100" xlink:href="#SimSun-48"/>
     </g>
    </g>
   </g>
   <g id="xtick_18">
    <g id="line2d_21">
     <path d="M 390.101981 143.46889 
L 395.229715 144.41875 
" style="fill:none;stroke:#000000;stroke-linecap:square;stroke-width:0.8;"/>
    </g>
    <g id="text_21">
     <!-- 0.2 -->
     <g transform="translate(403.914872 149.160876)scale(0.1 -0.1)">
      <use xlink:href="#SimSun-48"/>
      <use x="50" xlink:href="#SimSun-46"/>
      <use x="100" xlink:href="#SimSun-50"/>
     </g>
    </g>
   </g>
   <g id="xtick_19">
    <g id="line2d_22">
     <path d="M 391.712855 116.462772 
L 396.893656 117.393192 
" style="fill:none;stroke:#000000;stroke-linecap:square;stroke-width:0.8;"/>
    </g>
    <g id="text_22">
     <!-- 0.4 -->
     <g transform="translate(405.735908 122.184603)scale(0.1 -0.1)">
      <use xlink:href="#SimSun-48"/>
      <use x="50" xlink:href="#SimSun-46"/>
      <use x="100" xlink:href="#SimSun-52"/>
     </g>
    </g>
   </g>
   <g id="xtick_20">
    <g id="line2d_23">
     <path d="M 393.356278 88.910995 
L 398.591254 89.820991 
" style="fill:none;stroke:#000000;stroke-linecap:square;stroke-width:0.8;"/>
    </g>
    <g id="text_23">
     <!-- 0.6 -->
     <g transform="translate(407.593677 94.664181)scale(0.1 -0.1)">
      <use xlink:href="#SimSun-48"/>
      <use x="50" xlink:href="#SimSun-46"/>
      <use x="100" xlink:href="#SimSun-54"/>
     </g>
    </g>
   </g>
  </g>
  <g id="axes_1">
   <g id="Poly3DCollection_1">
    <path clip-path="url(#pe4a7864ac6)" d="M 209.053806 122.421029 
L 192.872006 117.832638 
L 207.60078 90.862369 
L 223.735789 95.450675 
z
" style="fill:#a0faa1;"/>
    <path clip-path="url(#pe4a7864ac6)" d="M 226.595253 126.890467 
L 209.053806 122.421029 
L 223.735789 95.450675 
L 241.245136 99.887039 
z
" style="fill:#90feab;"/>
    <path clip-path="url(#pe4a7864ac6)" d="M 192.872006 117.832638 
L 178.638148 113.291472 
L 193.426872 86.288296 
L 207.60078 90.862369 
z
" style="fill:#b2f396;"/>
    <path clip-path="url(#pe4a7864ac6)" d="M 244.862995 131.078458 
L 226.595253 126.890467 
L 241.245136 99.887039 
L 259.496505 104.010048 
z
" style="fill:#86ffb0;"/>
    <path clip-path="url(#pe4a7864ac6)" d="M 194.297856 149.52726 
L 178.068996 144.938842 
L 192.872006 117.832638 
L 209.053806 122.421029 
z
" style="fill:#4af2cf;"/>
    <path clip-path="url(#pe4a7864ac6)" d="M 211.871504 154.03005 
L 194.297856 149.52726 
L 209.053806 122.421029 
L 226.595253 126.890467 
z
" style="fill:#3dead5;"/>
    <path clip-path="url(#pe4a7864ac6)" d="M 178.638148 113.291472 
L 166.880361 108.963218 
L 181.740169 81.89522 
L 193.426872 86.288296 
z
" style="fill:#c8e688;"/>
    <path clip-path="url(#pe4a7864ac6)" d="M 178.068996 144.938842 
L 163.774764 140.430974 
L 178.638148 113.291472 
L 192.872006 117.832638 
z
" style="fill:#5efac6;"/>
    <path clip-path="url(#pe4a7864ac6)" d="M 230.155551 158.283627 
L 211.871504 154.03005 
L 226.595253 126.890467 
L 244.862995 131.078458 
z
" style="fill:#30e1da;"/>
    <path clip-path="url(#pe4a7864ac6)" d="M 263.194237 134.830362 
L 244.862995 131.078458 
L 259.496505 104.010048 
L 277.82763 107.667214 
z
" style="fill:#80ffb4;"/>
    <path clip-path="url(#pe4a7864ac6)" d="M 179.467376 176.770398 
L 163.191187 172.182011 
L 178.068996 144.938842 
L 194.297856 149.52726 
z
" style="fill:#0ca7ef;"/>
    <path clip-path="url(#pe4a7864ac6)" d="M 197.073328 181.30682 
L 179.467376 176.770398 
L 194.297856 149.52726 
L 211.871504 154.03005 
z
" style="fill:#1996f3;"/>
    <path clip-path="url(#pe4a7864ac6)" d="M 163.774764 140.430974 
L 151.945322 136.168255 
L 166.880361 108.963218 
L 178.638148 113.291472 
z
" style="fill:#74feba;"/>
    <path clip-path="url(#pe4a7864ac6)" d="M 163.191187 172.182011 
L 148.836152 167.707837 
L 163.774764 140.430974 
L 178.068996 144.938842 
z
" style="fill:#08bee9;"/>
    <path clip-path="url(#pe4a7864ac6)" d="M 166.880361 108.963218 
L 158.051478 105.008736 
L 172.991026 77.846147 
L 181.740169 81.89522 
z
" style="fill:#e0d377;"/>
    <path clip-path="url(#pe4a7864ac6)" d="M 215.373611 185.626594 
L 197.073328 181.30682 
L 211.871504 154.03005 
L 230.155551 158.283627 
z
" style="fill:#2489f5;"/>
    <path clip-path="url(#pe4a7864ac6)" d="M 248.486678 162.131182 
L 230.155551 158.283627 
L 244.862995 131.078458 
L 263.194237 134.830362 
z
" style="fill:#2adddd;"/>
    <path clip-path="url(#pe4a7864ac6)" d="M 164.561802 204.151483 
L 148.238012 199.563186 
L 163.191187 172.182011 
L 179.467376 176.770398 
z
" style="fill:#6032fe;"/>
    <path clip-path="url(#pe4a7864ac6)" d="M 182.200159 208.721821 
L 164.561802 204.151483 
L 179.467376 176.770398 
L 197.073328 181.30682 
z
" style="fill:#7019ff;"/>
    <path clip-path="url(#pe4a7864ac6)" d="M 280.913499 138.003711 
L 263.194237 134.830362 
L 277.82763 107.667214 
L 295.563044 110.719267 
z
" style="fill:#80ffb4;"/>
    <path clip-path="url(#pe4a7864ac6)" d="M 148.836152 167.707837 
L 136.934479 163.511373 
L 151.945322 136.168255 
L 163.774764 140.430974 
z
" style="fill:#1fd3e1;"/>
    <path clip-path="url(#pe4a7864ac6)" d="M 148.238012 199.563186 
L 133.821739 195.123105 
L 148.836152 167.707837 
L 163.191187 172.182011 
z
" style="fill:#4e4dfc;"/>
    <path clip-path="url(#pe4a7864ac6)" d="M 151.945322 136.168255 
L 143.036002 132.309376 
L 158.051478 105.008736 
L 166.880361 108.963218 
z
" style="fill:#8cfead;"/>
    <path clip-path="url(#pe4a7864ac6)" d="M 200.516609 213.10841 
L 182.200159 208.721821 
L 197.073328 181.30682 
L 215.373611 185.626594 
z
" style="fill:#7a09ff;"/>
    <path clip-path="url(#pe4a7864ac6)" d="M 233.704386 189.570724 
L 215.373611 185.626594 
L 230.155551 158.283627 
L 248.486678 162.131182 
z
" style="fill:#2981f6;"/>
    <path clip-path="url(#pe4a7864ac6)" d="M 266.189394 165.427021 
L 248.486678 162.131182 
L 263.194237 134.830362 
L 280.913499 138.003711 
z
" style="fill:#2adddd;"/>
    <path clip-path="url(#pe4a7864ac6)" d="M 133.821739 195.123105 
L 121.847253 190.993626 
L 136.934479 163.511373 
L 148.836152 167.707837 
z
" style="fill:#386df9;"/>
    <path clip-path="url(#pe4a7864ac6)" d="M 158.051478 105.008736 
L 152.513668 101.579433 
L 167.538718 74.295678 
L 172.991026 77.846147 
z
" style="fill:#fbb965;"/>
    <path clip-path="url(#pe4a7864ac6)" d="M 136.934479 163.511373 
L 127.944016 159.749123 
L 143.036002 132.309376 
L 151.945322 136.168255 
z
" style="fill:#37e6d8;"/>
    <path clip-path="url(#pe4a7864ac6)" d="M 218.846791 217.150048 
L 200.516609 213.10841 
L 215.373611 185.626594 
L 233.704386 189.570724 
z
" style="fill:#8000ff;"/>
    <path clip-path="url(#pe4a7864ac6)" d="M 297.351145 140.472747 
L 280.913499 138.003711 
L 295.563044 110.719267 
L 312.032618 113.04465 
z
" style="fill:#84ffb2;"/>
    <path clip-path="url(#pe4a7864ac6)" d="M 251.390158 192.990262 
L 233.704386 189.570724 
L 248.486678 162.131182 
L 266.189394 165.427021 
z
" style="fill:#2c7ef7;"/>
    <path clip-path="url(#pe4a7864ac6)" d="M 143.036002 132.309376 
L 137.411888 129.002522 
L 152.513668 101.579433 
L 158.051478 105.008736 
z
" style="fill:#a4f89f;"/>
    <path clip-path="url(#pe4a7864ac6)" d="M 121.847253 190.993626 
L 112.774936 187.329041 
L 127.944016 159.749123 
L 136.934479 163.511373 
z
" style="fill:#208ef4;"/>
    <path clip-path="url(#pe4a7864ac6)" d="M 282.59457 168.041147 
L 266.189394 165.427021 
L 280.913499 138.003711 
L 297.351145 140.472747 
z
" style="fill:#2fe0db;"/>
    <path clip-path="url(#pe4a7864ac6)" d="M 236.515215 220.694505 
L 218.846791 217.150048 
L 233.704386 189.570724 
L 251.390158 192.990262 
z
" style="fill:#8000ff;"/>
    <path clip-path="url(#pe4a7864ac6)" d="M 127.944016 159.749123 
L 122.232789 156.566014 
L 137.411888 129.002522 
L 143.036002 132.309376 
z
" style="fill:#4ef3cd;"/>
    <path clip-path="url(#pe4a7864ac6)" d="M 152.513668 101.579433 
L 150.522957 98.812269 
L 165.636035 71.384969 
L 167.538718 74.295678 
z
" style="fill:#ff9b52;"/>
    <path clip-path="url(#pe4a7864ac6)" d="M 267.762318 195.750932 
L 251.390158 192.990262 
L 266.189394 165.427021 
L 282.59457 168.041147 
z
" style="fill:#2884f6;"/>
    <path clip-path="url(#pe4a7864ac6)" d="M 311.86416 142.133194 
L 297.351145 140.472747 
L 312.032618 113.04465 
L 326.59233 114.54422 
z
" style="fill:#8efeac;"/>
    <path clip-path="url(#pe4a7864ac6)" d="M 112.774936 187.329041 
L 106.975775 184.27099 
L 122.232789 156.566014 
L 127.944016 159.749123 
z
" style="fill:#06aeed;"/>
    <path clip-path="url(#pe4a7864ac6)" d="M 137.411888 129.002522 
L 135.332272 126.380414 
L 150.522957 98.812269 
L 152.513668 101.579433 
z
" style="fill:#beec8e;"/>
    <path clip-path="url(#pe4a7864ac6)" d="M 252.853803 223.60319 
L 236.515215 220.694505 
L 251.390158 192.990262 
L 267.762318 195.750932 
z
" style="fill:#7c06ff;"/>
    <path clip-path="url(#pe4a7864ac6)" d="M 297.060217 169.864105 
L 282.59457 168.041147 
L 297.351145 140.472747 
L 311.86416 142.133194 
z
" style="fill:#38e7d7;"/>
    <path clip-path="url(#pe4a7864ac6)" d="M 122.232789 156.566014 
L 120.063379 154.090489 
L 135.332272 126.380414 
L 137.411888 129.002522 
z
" style="fill:#68fcc1;"/>
    <path clip-path="url(#pe4a7864ac6)" d="M 150.522957 98.812269 
L 152.214245 96.824408 
L 167.414394 69.236309 
L 165.636035 71.384969 
z
" style="fill:#ff7b40;"/>
    <path clip-path="url(#pe4a7864ac6)" d="M 282.179917 197.738052 
L 267.762318 195.750932 
L 282.59457 168.041147 
L 297.060217 169.864105 
z
" style="fill:#1e91f3;"/>
    <path clip-path="url(#pe4a7864ac6)" d="M 106.975775 184.27099 
L 104.715674 181.943594 
L 120.063379 154.090489 
L 122.232789 156.566014 
z
" style="fill:#12c8e6;"/>
    <path clip-path="url(#pe4a7864ac6)" d="M 323.859313 142.907147 
L 311.86416 142.133194 
L 326.59233 114.54422 
L 338.647434 115.146021 
z
" style="fill:#9cfba4;"/>
    <path clip-path="url(#pe4a7864ac6)" d="M 135.332272 126.380414 
L 136.935566 124.555037 
L 152.214245 96.824408 
L 150.522957 98.812269 
z
" style="fill:#d6db7e;"/>
    <path clip-path="url(#pe4a7864ac6)" d="M 267.222665 225.756144 
L 252.853803 223.60319 
L 267.762318 195.750932 
L 282.179917 197.738052 
z
" style="fill:#7413ff;"/>
    <path clip-path="url(#pe4a7864ac6)" d="M 308.994639 170.811983 
L 297.060217 169.864105 
L 311.86416 142.133194 
L 323.859313 142.907147 
z
" style="fill:#46efd1;"/>
    <path clip-path="url(#pe4a7864ac6)" d="M 120.063379 154.090489 
L 121.577748 152.429304 
L 136.935566 124.555037 
L 135.332272 126.380414 
z
" style="fill:#80ffb4;"/>
    <path clip-path="url(#pe4a7864ac6)" d="M 152.214245 96.824408 
L 157.587909 95.707669 
L 172.870576 67.947466 
L 167.414394 69.236309 
z
" style="fill:#ff5c2f;"/>
    <path clip-path="url(#pe4a7864ac6)" d="M 294.052817 198.861645 
L 282.179917 197.738052 
L 297.060217 169.864105 
L 308.994639 170.811983 
z
" style="fill:#10a2f0;"/>
    <path clip-path="url(#pe4a7864ac6)" d="M 104.715674 181.943594 
L 106.140173 180.448328 
L 121.577748 152.429304 
L 120.063379 154.090489 
z
" style="fill:#2ddedc;"/>
    <path clip-path="url(#pe4a7864ac6)" d="M 332.818319 142.747828 
L 323.859313 142.907147 
L 338.647434 115.146021 
L 347.677635 114.809881 
z
" style="fill:#acf59a;"/>
    <path clip-path="url(#pe4a7864ac6)" d="M 136.935566 124.555037 
L 142.225782 123.612206 
L 157.587909 95.707669 
L 152.214245 96.824408 
z
" style="fill:#eec66d;"/>
    <path clip-path="url(#pe4a7864ac6)" d="M 279.033244 227.057266 
L 267.222665 225.756144 
L 282.179917 197.738052 
L 294.052817 198.861645 
z
" style="fill:#6629fe;"/>
    <path clip-path="url(#pe4a7864ac6)" d="M 317.881589 170.831328 
L 308.994639 170.811983 
L 323.859313 142.907147 
L 332.818319 142.747828 
z
" style="fill:#58f8c9;"/>
    <path clip-path="url(#pe4a7864ac6)" d="M 121.577748 152.429304 
L 126.783575 151.662206 
L 142.225782 123.612206 
L 136.935566 124.555037 
z
" style="fill:#99fca6;"/>
    <path clip-path="url(#pe4a7864ac6)" d="M 157.587909 95.707669 
L 166.499527 95.523068 
L 181.856601 67.586056 
L 172.870576 67.947466 
z
" style="fill:#ff3b1e;"/>
    <path clip-path="url(#pe4a7864ac6)" d="M 302.866837 199.06152 
L 294.052817 198.861645 
L 308.994639 170.811983 
L 317.881589 170.831328 
z
" style="fill:#02b7eb;"/>
    <path clip-path="url(#pe4a7864ac6)" d="M 106.140173 180.448328 
L 111.260659 179.858809 
L 126.783575 151.662206 
L 121.577748 152.429304 
z
" style="fill:#42edd3;"/>
    <path clip-path="url(#pe4a7864ac6)" d="M 338.32405 141.64383 
L 332.818319 142.747828 
L 347.677635 114.809881 
L 353.263319 113.53144 
z
" style="fill:#c2ea8c;"/>
    <path clip-path="url(#pe4a7864ac6)" d="M 142.225782 123.612206 
L 151.062093 123.606266 
L 166.499527 95.523068 
L 157.587909 95.707669 
z
" style="fill:#ffb05f;"/>
    <path clip-path="url(#pe4a7864ac6)" d="M 287.773452 227.439557 
L 279.033244 227.057266 
L 294.052817 198.861645 
L 302.866837 199.06152 
z
" style="fill:#5444fd;"/>
    <path clip-path="url(#pe4a7864ac6)" d="M 323.306454 169.903614 
L 317.881589 170.831328 
L 332.818319 142.747828 
L 338.32405 141.64383 
z
" style="fill:#6dfdbf;"/>
    <path clip-path="url(#pe4a7864ac6)" d="M 126.783575 151.662206 
L 135.543669 151.8368 
L 151.062093 123.606266 
L 142.225782 123.612206 
z
" style="fill:#acf59a;"/>
    <path clip-path="url(#pe4a7864ac6)" d="M 166.499527 95.523068 
L 178.654596 96.29588 
L 194.074632 68.184401 
L 181.856601 67.586056 
z
" style="fill:#ff2211;"/>
    <path clip-path="url(#pe4a7864ac6)" d="M 308.209912 198.311956 
L 302.866837 199.06152 
L 317.881589 170.831328 
L 323.306454 169.903614 
z
" style="fill:#17cbe4;"/>
    <path clip-path="url(#pe4a7864ac6)" d="M 111.260659 179.858809 
L 119.943614 180.215832 
L 135.543669 151.8368 
L 126.783575 151.662206 
z
" style="fill:#56f7ca;"/>
    <path clip-path="url(#pe4a7864ac6)" d="M 340.086127 139.622352 
L 338.32405 141.64383 
L 353.263319 113.53144 
L 355.111192 111.345116 
z
" style="fill:#dbd87b;"/>
    <path clip-path="url(#pe4a7864ac6)" d="M 151.062093 123.606266 
L 163.153372 124.555371 
L 178.654596 96.29588 
L 166.499527 95.523068 
z
" style="fill:#ff9d53;"/>
    <path clip-path="url(#pe4a7864ac6)" d="M 293.0338 226.870029 
L 287.773452 227.439557 
L 302.866837 199.06152 
L 308.209912 198.311956 
z
" style="fill:#3e65fa;"/>
    <path clip-path="url(#pe4a7864ac6)" d="M 324.981804 168.048749 
L 323.306454 169.903614 
L 338.32405 141.64383 
L 340.086127 139.622352 
z
" style="fill:#84ffb2;"/>
    <path clip-path="url(#pe4a7864ac6)" d="M 135.543669 151.8368 
L 147.570315 152.964045 
L 163.153372 124.555371 
L 151.062093 123.606266 
z
" style="fill:#bced8f;"/>
    <path clip-path="url(#pe4a7864ac6)" d="M 178.654596 96.29588 
L 193.610174 98.011783 
L 209.078801 69.735392 
L 194.074632 68.184401 
z
" style="fill:#ff1008;"/>
    <path clip-path="url(#pe4a7864ac6)" d="M 309.797596 196.625491 
L 308.209912 198.311956 
L 323.306454 169.903614 
L 324.981804 168.048749 
z
" style="fill:#2fe0db;"/>
    <path clip-path="url(#pe4a7864ac6)" d="M 337.963661 136.750877 
L 340.086127 139.622352 
L 355.111192 111.345116 
L 353.077092 108.325451 
z
" style="fill:#f2c26b;"/>
    <path clip-path="url(#pe4a7864ac6)" d="M 119.943614 180.215832 
L 131.904777 181.523087 
L 147.570315 152.964045 
L 135.543669 151.8368 
z
" style="fill:#66fcc2;"/>
    <path clip-path="url(#pe4a7864ac6)" d="M 163.153372 124.555371 
L 178.059635 126.437908 
L 193.610174 98.011783 
L 178.654596 96.29588 
z
" style="fill:#ff8e4a;"/>
    <path clip-path="url(#pe4a7864ac6)" d="M 294.532867 225.353774 
L 293.0338 226.870029 
L 308.209912 198.311956 
L 309.797596 196.625491 
z
" style="fill:#2884f6;"/>
    <path clip-path="url(#pe4a7864ac6)" d="M 322.770065 165.327077 
L 324.981804 168.048749 
L 340.086127 139.622352 
L 337.963661 136.750877 
z
" style="fill:#9cfba4;"/>
    <path clip-path="url(#pe4a7864ac6)" d="M 147.570315 152.964045 
L 162.426532 155.014959 
L 178.059635 126.437908 
L 163.153372 124.555371 
z
" style="fill:#cbe486;"/>
    <path clip-path="url(#pe4a7864ac6)" d="M 193.610174 98.011783 
L 210.785139 100.614686 
L 226.285661 72.19 
L 209.078801 69.735392 
z
" style="fill:#ff0302;"/>
    <path clip-path="url(#pe4a7864ac6)" d="M 307.495666 194.055253 
L 309.797596 196.625491 
L 324.981804 168.048749 
L 322.770065 165.327077 
z
" style="fill:#48f1d0;"/>
    <path clip-path="url(#pe4a7864ac6)" d="M 131.904777 181.523087 
L 146.710204 183.744142 
L 162.426532 155.014959 
L 147.570315 152.964045 
z
" style="fill:#74feba;"/>
    <path clip-path="url(#pe4a7864ac6)" d="M 178.059635 126.437908 
L 195.202124 129.190647 
L 210.785139 100.614686 
L 193.610174 98.011783 
z
" style="fill:#ff8444;"/>
    <path clip-path="url(#pe4a7864ac6)" d="M 328.400239 131.447891 
L 335.937107 135.330389 
L 351.087215 106.849811 
L 343.63627 102.853715 
z
" style="fill:#ff9850;"/>
    <path clip-path="url(#pe4a7864ac6)" d="M 292.139816 222.936621 
L 294.532867 225.353774 
L 309.797596 196.625491 
L 307.495666 194.055253 
z
" style="fill:#0ea5ef;"/>
    <path clip-path="url(#pe4a7864ac6)" d="M 210.785139 100.614686 
L 229.480117 104.006802 
L 244.994268 75.456995 
L 226.285661 72.19 
z
" style="fill:#ff0000;"/>
    <path clip-path="url(#pe4a7864ac6)" d="M 162.426532 155.014959 
L 179.535954 157.919094 
L 195.202124 129.190647 
L 178.059635 126.437908 
z
" style="fill:#d0e082;"/>
    <path clip-path="url(#pe4a7864ac6)" d="M 313.082871 160.194716 
L 320.706472 163.962348 
L 335.937107 135.330389 
L 328.400239 131.447891 
z
" style="fill:#c0eb8d;"/>
    <path clip-path="url(#pe4a7864ac6)" d="M 195.202124 129.190647 
L 213.88306 132.709176 
L 229.480117 104.006802 
L 210.785139 100.614686 
z
" style="fill:#ff7e41;"/>
    <path clip-path="url(#pe4a7864ac6)" d="M 317.342065 127.036634 
L 328.400239 131.447891 
L 343.63627 102.853715 
L 332.657877 98.359764 
z
" style="fill:#ff763d;"/>
    <path clip-path="url(#pe4a7864ac6)" d="M 146.710204 183.744142 
L 163.785963 186.801253 
L 179.535954 157.919094 
L 162.426532 155.014959 
z
" style="fill:#7dffb6;"/>
    <path clip-path="url(#pe4a7864ac6)" d="M 229.480117 104.006802 
L 248.907098 108.051395 
L 264.415918 79.405319 
L 244.994268 75.456995 
z
" style="fill:#ff0302;"/>
    <path clip-path="url(#pe4a7864ac6)" d="M 297.683513 189.095417 
L 305.394667 192.746899 
L 320.706472 163.962348 
L 313.082871 160.194716 
z
" style="fill:#6dfdbf;"/>
    <path clip-path="url(#pe4a7864ac6)" d="M 179.535954 157.919094 
L 198.202432 161.565341 
L 213.88306 132.709176 
L 195.202124 129.190647 
z
" style="fill:#d4dd80;"/>
    <path clip-path="url(#pe4a7864ac6)" d="M 301.944219 155.867103 
L 313.082871 160.194716 
L 328.400239 131.447891 
L 317.342065 127.036634 
z
" style="fill:#dbd87b;"/>
    <path clip-path="url(#pe4a7864ac6)" d="M 303.208105 122.282947 
L 317.342065 127.036634 
L 332.657877 98.359764 
L 318.594021 93.558151 
z
" style="fill:#ff562c;"/>
    <path clip-path="url(#pe4a7864ac6)" d="M 248.907098 108.051395 
L 268.22752 112.578333 
L 283.712281 83.869308 
L 264.415918 79.405319 
z
" style="fill:#ff0d06;"/>
    <path clip-path="url(#pe4a7864ac6)" d="M 213.88306 132.709176 
L 233.315152 136.851013 
L 248.907098 108.051395 
L 229.480117 104.006802 
z
" style="fill:#ff8143;"/>
    <path clip-path="url(#pe4a7864ac6)" d="M 282.201504 218.151231 
L 290.001041 221.685263 
L 305.394667 192.746899 
L 297.683513 189.095417 
z
" style="fill:#17cbe4;"/>
    <path clip-path="url(#pe4a7864ac6)" d="M 286.596283 117.392276 
L 303.208105 122.282947 
L 318.594021 93.558151 
L 302.039413 88.656589 
z
" style="fill:#ff381c;"/>
    <path clip-path="url(#pe4a7864ac6)" d="M 268.22752 112.578333 
L 286.596283 117.392276 
L 302.039413 88.656589 
L 283.712281 83.869308 
z
" style="fill:#ff1f10;"/>
    <path clip-path="url(#pe4a7864ac6)" d="M 163.785963 186.801253 
L 182.437559 190.576537 
L 198.202432 161.565341 
L 179.535954 157.919094 
z
" style="fill:#7effb5;"/>
    <path clip-path="url(#pe4a7864ac6)" d="M 286.463677 184.852409 
L 297.683513 189.095417 
L 313.082871 160.194716 
L 301.944219 155.867103 
z
" style="fill:#84ffb2;"/>
    <path clip-path="url(#pe4a7864ac6)" d="M 287.739604 151.161926 
L 301.944219 155.867103 
L 317.342065 127.036634 
L 303.208105 122.282947 
z
" style="fill:#f0c46c;"/>
    <path clip-path="url(#pe4a7864ac6)" d="M 233.315152 136.851013 
L 252.659613 141.441511 
L 268.22752 112.578333 
L 248.907098 108.051395 
z
" style="fill:#ff8c49;"/>
    <path clip-path="url(#pe4a7864ac6)" d="M 198.202432 161.565341 
L 217.639409 165.805409 
L 233.315152 136.851013 
L 213.88306 132.709176 
z
" style="fill:#d2de81;"/>
    <path clip-path="url(#pe4a7864ac6)" d="M 271.070191 146.282334 
L 287.739604 151.161926 
L 303.208105 122.282947 
L 286.596283 117.392276 
z
" style="fill:#ffae5e;"/>
    <path clip-path="url(#pe4a7864ac6)" d="M 252.659613 141.441511 
L 271.070191 146.282334 
L 286.596283 117.392276 
L 268.22752 112.578333 
z
" style="fill:#ff9b52;"/>
    <path clip-path="url(#pe4a7864ac6)" d="M 270.899772 213.993803 
L 282.201504 218.151231 
L 297.683513 189.095417 
L 286.463677 184.852409 
z
" style="fill:#2fe0db;"/>
    <path clip-path="url(#pe4a7864ac6)" d="M 272.187851 180.196334 
L 286.463677 184.852409 
L 301.944219 155.867103 
L 287.739604 151.161926 
z
" style="fill:#9bfba5;"/>
    <path clip-path="url(#pe4a7864ac6)" d="M 217.639409 165.805409 
L 237.007889 170.460087 
L 252.659613 141.441511 
L 233.315152 136.851013 
z
" style="fill:#cbe486;"/>
    <path clip-path="url(#pe4a7864ac6)" d="M 182.437559 190.576537 
L 201.879194 194.915835 
L 217.639409 165.805409 
L 198.202432 161.565341 
z
" style="fill:#7dffb6;"/>
    <path clip-path="url(#pe4a7864ac6)" d="M 255.460467 175.32801 
L 272.187851 180.196334 
L 287.739604 151.161926 
L 271.070191 146.282334 
z
" style="fill:#aef498;"/>
    <path clip-path="url(#pe4a7864ac6)" d="M 237.007889 170.460087 
L 255.460467 175.32801 
L 271.070191 146.282334 
L 252.659613 141.441511 
z
" style="fill:#beec8e;"/>
    <path clip-path="url(#pe4a7864ac6)" d="M 256.552172 209.387426 
L 270.899772 213.993803 
L 286.463677 184.852409 
L 272.187851 180.196334 
z
" style="fill:#44eed2;"/>
    <path clip-path="url(#pe4a7864ac6)" d="M 201.879194 194.915835 
L 221.27167 199.635319 
L 237.007889 170.460087 
L 217.639409 165.805409 
z
" style="fill:#74feba;"/>
    <path clip-path="url(#pe4a7864ac6)" d="M 239.766434 204.530565 
L 256.552172 209.387426 
L 272.187851 180.196334 
L 255.460467 175.32801 
z
" style="fill:#58f8c9;"/>
    <path clip-path="url(#pe4a7864ac6)" d="M 221.27167 199.635319 
L 239.766434 204.530565 
L 255.460467 175.32801 
L 237.007889 170.460087 
z
" style="fill:#68fcc1;"/>
   </g>
  </g>
 </g>
 <defs>
  <clipPath id="pe4a7864ac6">
   <rect height="288" width="432" x="7.2" y="7.2"/>
  </clipPath>
 </defs>
</svg>
