<?xml version="1.0" encoding="utf-8" standalone="no"?>
<!DOCTYPE svg PUBLIC "-//W3C//DTD SVG 1.1//EN"
  "http://www.w3.org/Graphics/SVG/1.1/DTD/svg11.dtd">
<!-- Created with matplotlib (https://matplotlib.org/) -->
<svg height="302.4pt" version="1.1" viewBox="0 0 446.4 302.4" width="446.4pt" xmlns="http://www.w3.org/2000/svg" xmlns:xlink="http://www.w3.org/1999/xlink">
 <defs>
  <style type="text/css">
*{stroke-linecap:butt;stroke-linejoin:round;}
  </style>
 </defs>
 <g id="figure_1">
  <g id="patch_1">
   <path d="M 0 302.4 
L 446.4 302.4 
L 446.4 0 
L 0 0 
z
" style="fill:none;"/>
  </g>
  <g id="patch_2">
   <path d="M 7.2 295.2 
L 439.2 295.2 
L 439.2 7.2 
L 7.2 7.2 
z
" style="fill:#ffffff;"/>
  </g>
  <g id="pane3d_1">
   <g id="patch_3">
    <path d="M 64.468276 231.56215 
L 188.108936 160.951075 
L 186.05045 26.024902 
L 55.516013 89.4675 
" style="fill:#f2f2f2;opacity:0.5;stroke:#f2f2f2;stroke-linejoin:miter;"/>
   </g>
  </g>
  <g id="pane3d_2">
   <g id="patch_4">
    <path d="M 188.108936 160.951075 
L 388.395181 200.427223 
L 396.774918 61.432405 
L 186.05045 26.024902 
" style="fill:#e6e6e6;opacity:0.5;stroke:#e6e6e6;stroke-linejoin:miter;"/>
   </g>
  </g>
  <g id="pane3d_3">
   <g id="patch_5">
    <path d="M 64.468276 231.56215 
L 275.196469 277.538555 
L 388.395181 200.427223 
L 188.108936 160.951075 
" style="fill:#ececec;opacity:0.5;stroke:#ececec;stroke-linejoin:miter;"/>
   </g>
  </g>
  <g id="axis3d_1">
   <g id="line2d_1">
    <path d="M 64.468276 231.56215 
L 275.196469 277.538555 
" style="fill:none;stroke:#000000;stroke-linecap:square;stroke-width:0.8;"/>
   </g>
   <g id="text_1">
    <!-- X -->
    <defs>
     <path d="M 27.34375 37.5 
L 41.015625 8.203125 
Q 42.1875 5.859375 43.546875 4.875 
Q 44.921875 3.90625 46.484375 3.90625 
L 47.65625 3.90625 
L 47.65625 1.5625 
L 30.859375 1.5625 
L 30.859375 3.90625 
L 32.421875 3.90625 
Q 34.375 3.90625 34.765625 4.484375 
Q 35.15625 5.078125 35.15625 5.859375 
Q 35.15625 6.640625 34.765625 7.421875 
L 24.21875 30.46875 
L 15.234375 11.71875 
Q 14.453125 9.765625 14.0625 8.59375 
Q 13.28125 7.03125 13.28125 6.640625 
Q 13.28125 5.078125 14.25 4.484375 
Q 15.234375 3.90625 16.796875 3.90625 
L 17.578125 3.90625 
L 17.578125 1.5625 
L 2.734375 1.5625 
L 2.734375 3.90625 
L 4.296875 3.90625 
Q 6.25 3.90625 7.8125 5.078125 
Q 9.375 6.25 10.15625 7.8125 
L 22.65625 34.375 
L 9.375 63.28125 
Q 8.984375 64.453125 8 65.234375 
Q 7.03125 66.015625 5.46875 66.015625 
L 3.90625 66.015625 
L 3.90625 68.359375 
L 19.921875 68.359375 
L 19.921875 66.015625 
L 18.75 66.015625 
Q 16.40625 66.015625 16.015625 64.84375 
Q 15.625 63.671875 16.40625 61.328125 
L 25.78125 40.625 
L 35.15625 60.546875 
Q 36.328125 63.28125 35.9375 64.640625 
Q 35.546875 66.015625 33.203125 66.015625 
L 30.859375 66.015625 
L 30.859375 68.359375 
L 46.09375 68.359375 
L 46.09375 66.015625 
L 43.75 66.015625 
Q 42.96875 66.015625 41.796875 65.234375 
Q 40.625 64.453125 39.453125 62.890625 
z
M 8.203125 3.90625 
z
M 11.71875 3.90625 
z
M 41.015625 66.015625 
z
M 36.328125 66.015625 
z
M 36.328125 3.90625 
z
M 42.96875 3.90625 
z
M 14.453125 66.015625 
z
M 8.203125 66.015625 
z
" id="SimSun-88"/>
    </defs>
    <g transform="translate(148.219095 285.889837)scale(0.1 -0.1)">
     <use xlink:href="#SimSun-88"/>
    </g>
   </g>
   <g id="Line3DCollection_1">
    <path d="M 96.116677 238.467157 
L 218.274935 166.896753 
L 217.729917 31.347923 
" style="fill:none;stroke:#b0b0b0;stroke-width:0.8;"/>
    <path d="M 128.554944 245.544496 
L 249.162246 172.9846 
L 250.188416 36.801843 
" style="fill:none;stroke:#b0b0b0;stroke-width:0.8;"/>
    <path d="M 161.460364 252.723758 
L 280.461786 179.153697 
L 283.102357 42.33229 
" style="fill:none;stroke:#b0b0b0;stroke-width:0.8;"/>
    <path d="M 194.843101 260.007161 
L 312.181864 185.405681 
L 316.481395 47.940886 
" style="fill:none;stroke:#b0b0b0;stroke-width:0.8;"/>
    <path d="M 228.713617 267.396987 
L 344.331011 191.742234 
L 350.335458 53.629299 
" style="fill:none;stroke:#b0b0b0;stroke-width:0.8;"/>
    <path d="M 263.082683 274.895585 
L 376.917994 198.165085 
L 384.674759 59.399245 
" style="fill:none;stroke:#b0b0b0;stroke-width:0.8;"/>
   </g>
   <g id="xtick_1">
    <g id="line2d_2">
     <path d="M 97.169446 237.850358 
L 94.007196 239.703065 
" style="fill:none;stroke:#000000;stroke-linecap:square;stroke-width:0.8;"/>
    </g>
    <g id="text_2">
     <!-- 223.2 -->
     <defs>
      <path d="M 36.328125 51.953125 
Q 36.328125 58.984375 33.203125 62.6875 
Q 30.078125 66.40625 23.828125 66.40625 
Q 19.140625 66.40625 15.8125 63.859375 
Q 12.5 61.328125 12.5 57.421875 
Q 12.5 55.078125 14.0625 53.515625 
Q 15.234375 51.953125 15.234375 50.390625 
Q 15.234375 48.4375 14.25 47.453125 
Q 13.28125 46.484375 11.328125 46.484375 
Q 8.984375 46.484375 7.609375 47.84375 
Q 6.25 49.21875 6.25 52.34375 
Q 6.25 60.546875 12.109375 64.84375 
Q 17.96875 69.140625 24.609375 69.140625 
Q 33.984375 69.140625 38.46875 64.453125 
Q 42.96875 59.765625 42.96875 52.734375 
Q 42.96875 48.046875 40.8125 43.359375 
Q 38.671875 38.671875 33.984375 34.375 
Q 22.65625 23.4375 16.59375 16.59375 
Q 10.546875 9.765625 9.375 7.421875 
L 32.421875 7.421875 
Q 35.9375 7.421875 38.28125 10.15625 
Q 40.625 12.890625 41.40625 18.359375 
L 43.75 18.359375 
L 41.40625 1.5625 
L 5.078125 1.5625 
L 5.078125 6.640625 
Q 7.03125 10.15625 11.515625 15.625 
Q 16.015625 21.09375 23.4375 28.515625 
Q 30.078125 35.15625 33.203125 41.015625 
Q 36.328125 46.875 36.328125 51.953125 
z
" id="SimSun-50"/>
      <path d="M 43.75 19.53125 
Q 43.75 12.109375 38.28125 6.4375 
Q 32.8125 0.78125 23.046875 0.78125 
Q 16.015625 0.78125 10.9375 4.6875 
Q 5.859375 8.59375 5.859375 13.671875 
Q 5.859375 16.015625 7.421875 17.765625 
Q 8.984375 19.53125 10.546875 19.53125 
Q 12.890625 19.53125 13.859375 17.765625 
Q 14.84375 16.015625 14.84375 14.84375 
Q 14.84375 12.890625 14.0625 11.71875 
Q 13.28125 10.15625 13.28125 8.984375 
Q 13.28125 6.640625 16.203125 5.078125 
Q 19.140625 3.515625 22.65625 3.515625 
Q 29.6875 3.515625 33.203125 7.609375 
Q 36.71875 11.71875 36.71875 20.3125 
Q 36.71875 27.34375 33 31.640625 
Q 29.296875 35.9375 19.140625 35.9375 
L 19.140625 38.671875 
Q 26.953125 38.671875 30.65625 42.375 
Q 34.375 46.09375 34.375 52.734375 
Q 34.375 58.203125 31.4375 62.296875 
Q 28.515625 66.40625 22.265625 66.40625 
Q 19.53125 66.40625 16.40625 65.03125 
Q 13.28125 63.671875 13.28125 60.546875 
Q 13.28125 57.421875 14.0625 56.640625 
Q 14.84375 55.859375 14.84375 54.6875 
Q 14.84375 52.734375 14.0625 51.5625 
Q 13.28125 50.390625 11.328125 50.390625 
Q 9.765625 50.390625 8.390625 51.5625 
Q 7.03125 52.734375 7.03125 55.859375 
Q 7.03125 61.71875 12.109375 65.421875 
Q 17.1875 69.140625 23.828125 69.140625 
Q 31.640625 69.140625 36.328125 64.25 
Q 41.015625 59.375 41.015625 53.90625 
Q 41.015625 48.046875 38.078125 43.9375 
Q 35.15625 39.84375 28.90625 37.890625 
Q 37.5 34.765625 40.625 29.6875 
Q 43.75 24.609375 43.75 19.53125 
z
" id="SimSun-51"/>
      <path d="M 12.5 0.390625 
Q 10.15625 0.390625 8.390625 1.953125 
Q 6.640625 3.515625 6.640625 6.25 
Q 6.640625 8.984375 8.390625 10.546875 
Q 10.15625 12.109375 12.5 12.109375 
Q 14.84375 12.109375 16.59375 10.34375 
Q 18.359375 8.59375 18.359375 6.25 
Q 18.359375 3.515625 16.59375 1.953125 
Q 14.84375 0.390625 12.5 0.390625 
z
" id="SimSun-46"/>
     </defs>
     <g transform="translate(75.951758 258.6697)scale(0.1 -0.1)">
      <use xlink:href="#SimSun-50"/>
      <use x="50" xlink:href="#SimSun-50"/>
      <use x="100" xlink:href="#SimSun-51"/>
      <use x="150" xlink:href="#SimSun-46"/>
      <use x="200" xlink:href="#SimSun-50"/>
     </g>
    </g>
   </g>
   <g id="xtick_2">
    <g id="line2d_3">
     <path d="M 129.594879 244.918849 
L 126.47115 246.79815 
" style="fill:none;stroke:#000000;stroke-linecap:square;stroke-width:0.8;"/>
    </g>
    <g id="text_3">
     <!-- 223.4 -->
     <defs>
      <path d="M 35.9375 8.984375 
Q 35.9375 6.25 37.5 5.078125 
Q 39.0625 3.90625 41.796875 3.90625 
L 45.3125 3.90625 
L 45.3125 1.5625 
L 19.53125 1.5625 
L 19.53125 3.90625 
L 23.828125 3.90625 
Q 26.953125 3.90625 28.3125 5.078125 
Q 29.6875 6.25 29.6875 8.984375 
L 29.6875 21.875 
L 3.515625 21.875 
L 3.515625 23.828125 
L 32.03125 69.140625 
L 35.9375 69.140625 
L 35.9375 24.21875 
L 46.484375 24.21875 
L 46.484375 21.875 
L 35.9375 21.875 
z
M 29.296875 59.375 
L 7.03125 24.21875 
L 29.6875 24.21875 
L 29.6875 59.375 
z
" id="SimSun-52"/>
     </defs>
     <g transform="translate(108.387275 265.85189)scale(0.1 -0.1)">
      <use xlink:href="#SimSun-50"/>
      <use x="50" xlink:href="#SimSun-50"/>
      <use x="100" xlink:href="#SimSun-51"/>
      <use x="150" xlink:href="#SimSun-46"/>
      <use x="200" xlink:href="#SimSun-52"/>
     </g>
    </g>
   </g>
   <g id="xtick_3">
    <g id="line2d_4">
     <path d="M 162.486985 252.089072 
L 159.40322 253.995543 
" style="fill:none;stroke:#000000;stroke-linecap:square;stroke-width:0.8;"/>
    </g>
    <g id="text_4">
     <!-- 223.6 -->
     <defs>
      <path d="M 12.109375 28.125 
Q 12.109375 16.40625 16.203125 9.953125 
Q 20.3125 3.515625 26.171875 3.515625 
Q 32.03125 3.515625 35.15625 7.8125 
Q 38.28125 12.109375 38.28125 23.828125 
Q 38.28125 31.640625 34.953125 35.9375 
Q 31.640625 40.234375 26.953125 40.234375 
Q 22.65625 40.234375 18.9375 37.6875 
Q 15.234375 35.15625 12.109375 28.125 
z
M 27.34375 44.140625 
Q 36.71875 44.140625 40.8125 37.890625 
Q 44.921875 31.640625 44.921875 23.828125 
Q 44.921875 12.109375 39.25 6.4375 
Q 33.59375 0.78125 26.171875 0.78125 
Q 15.625 0.78125 10.15625 8.78125 
Q 4.6875 16.796875 4.6875 32.03125 
Q 4.6875 50 11.328125 59.5625 
Q 17.96875 69.140625 29.296875 69.140625 
Q 34.765625 69.140625 38.078125 66.015625 
Q 41.40625 62.890625 41.40625 60.546875 
Q 41.40625 58.203125 40.421875 57.03125 
Q 39.453125 55.859375 37.109375 55.859375 
Q 35.15625 55.859375 34.171875 56.828125 
Q 33.203125 57.8125 33.203125 59.765625 
Q 33.203125 60.546875 33.59375 61.328125 
Q 33.59375 62.109375 33.59375 62.890625 
Q 33.59375 64.453125 32.421875 65.421875 
Q 31.25 66.40625 28.125 66.40625 
Q 21.484375 66.40625 16.796875 60.34375 
Q 12.109375 54.296875 12.109375 33.984375 
Q 14.453125 39.0625 18.546875 41.59375 
Q 22.65625 44.140625 27.34375 44.140625 
z
" id="SimSun-54"/>
     </defs>
     <g transform="translate(141.290661 273.13768)scale(0.1 -0.1)">
      <use xlink:href="#SimSun-50"/>
      <use x="50" xlink:href="#SimSun-50"/>
      <use x="100" xlink:href="#SimSun-51"/>
      <use x="150" xlink:href="#SimSun-46"/>
      <use x="200" xlink:href="#SimSun-54"/>
     </g>
    </g>
   </g>
   <g id="xtick_4">
    <g id="line2d_5">
     <path d="M 195.855912 259.363237 
L 192.813602 261.297473 
" style="fill:none;stroke:#000000;stroke-linecap:square;stroke-width:0.8;"/>
    </g>
    <g id="text_5">
     <!-- 223.8 -->
     <defs>
      <path d="M 9.765625 17.578125 
Q 9.765625 11.328125 13.859375 7.421875 
Q 17.96875 3.515625 24.21875 3.515625 
Q 31.640625 3.515625 34.953125 7.421875 
Q 38.28125 11.328125 38.28125 17.1875 
Q 38.28125 22.265625 33.59375 26.953125 
Q 28.90625 31.640625 19.53125 35.546875 
Q 14.84375 32.421875 12.296875 27.734375 
Q 9.765625 23.046875 9.765625 17.578125 
z
M 44.140625 18.359375 
Q 44.140625 10.9375 38.671875 5.859375 
Q 33.203125 0.78125 24.21875 0.78125 
Q 16.015625 0.78125 10.15625 5.859375 
Q 4.296875 10.9375 4.296875 17.578125 
Q 4.296875 24.21875 7.609375 28.90625 
Q 10.9375 33.59375 17.1875 37.109375 
Q 11.71875 39.84375 8.78125 43.9375 
Q 5.859375 48.046875 5.859375 53.125 
Q 5.859375 59.765625 10.9375 64.453125 
Q 16.015625 69.140625 25 69.140625 
Q 33.203125 69.140625 38.28125 64.453125 
Q 43.359375 59.765625 43.359375 53.125 
Q 43.359375 48.4375 40.421875 44.328125 
Q 37.5 40.234375 31.25 37.109375 
Q 37.890625 33.203125 41.015625 28.515625 
Q 44.140625 23.828125 44.140625 18.359375 
z
M 37.890625 52.734375 
Q 37.890625 58.203125 34.765625 62.296875 
Q 31.640625 66.40625 25 66.40625 
Q 17.578125 66.40625 14.453125 62.5 
Q 11.328125 58.59375 11.328125 54.296875 
Q 11.328125 50 15.8125 45.890625 
Q 20.3125 41.796875 28.515625 38.671875 
Q 33.203125 41.015625 35.546875 44.53125 
Q 37.890625 48.046875 37.890625 52.734375 
z
" id="SimSun-56"/>
     </defs>
     <g transform="translate(174.672113 280.529329)scale(0.1 -0.1)">
      <use xlink:href="#SimSun-50"/>
      <use x="50" xlink:href="#SimSun-50"/>
      <use x="100" xlink:href="#SimSun-51"/>
      <use x="150" xlink:href="#SimSun-46"/>
      <use x="200" xlink:href="#SimSun-56"/>
     </g>
    </g>
   </g>
   <g id="xtick_5">
    <g id="line2d_6">
     <path d="M 229.712104 266.743623 
L 226.712796 268.706233 
" style="fill:none;stroke:#000000;stroke-linecap:square;stroke-width:0.8;"/>
    </g>
    <g id="text_6">
     <!-- 224.0 -->
     <defs>
      <path d="M 25 66.015625 
Q 19.53125 66.015625 15.8125 57.609375 
Q 12.109375 49.21875 12.109375 35.15625 
Q 12.109375 20.3125 15.8125 12.109375 
Q 19.53125 3.90625 25 3.90625 
Q 30.859375 3.90625 34.171875 12.109375 
Q 37.5 20.3125 37.5 35.15625 
Q 37.5 49.21875 34.375 57.609375 
Q 31.25 66.015625 25 66.015625 
z
M 25 0.78125 
Q 16.40625 0.78125 10.546875 9.765625 
Q 4.6875 18.75 4.6875 35.15625 
Q 4.6875 50.390625 10.34375 59.765625 
Q 16.015625 69.140625 25 69.140625 
Q 33.59375 69.140625 39.25 60.15625 
Q 44.921875 51.171875 44.921875 35.15625 
Q 44.921875 19.140625 39.25 9.953125 
Q 33.59375 0.78125 25 0.78125 
z
" id="SimSun-48"/>
     </defs>
     <g transform="translate(208.542127 288.029159)scale(0.1 -0.1)">
      <use xlink:href="#SimSun-50"/>
      <use x="50" xlink:href="#SimSun-50"/>
      <use x="100" xlink:href="#SimSun-52"/>
      <use x="150" xlink:href="#SimSun-46"/>
      <use x="200" xlink:href="#SimSun-48"/>
     </g>
    </g>
   </g>
   <g id="xtick_6">
    <g id="line2d_7">
     <path d="M 264.066311 274.232572 
L 261.111606 276.224186 
" style="fill:none;stroke:#000000;stroke-linecap:square;stroke-width:0.8;"/>
    </g>
    <g id="text_7">
     <!-- 224.2 -->
     <g transform="translate(242.911507 295.639564)scale(0.1 -0.1)">
      <use xlink:href="#SimSun-50"/>
      <use x="50" xlink:href="#SimSun-50"/>
      <use x="100" xlink:href="#SimSun-52"/>
      <use x="150" xlink:href="#SimSun-46"/>
      <use x="200" xlink:href="#SimSun-50"/>
     </g>
    </g>
   </g>
  </g>
  <g id="axis3d_2">
   <g id="line2d_8">
    <path d="M 388.395181 200.427223 
L 275.196469 277.538555 
" style="fill:none;stroke:#000000;stroke-linecap:square;stroke-width:0.8;"/>
   </g>
   <g id="text_8">
    <!-- Y -->
    <defs>
     <path d="M 37.109375 61.328125 
Q 37.5 63.671875 36.515625 64.84375 
Q 35.546875 66.015625 32.8125 66.015625 
L 32.03125 66.015625 
L 32.03125 68.359375 
L 47.265625 68.359375 
L 47.265625 66.015625 
L 46.09375 66.015625 
Q 44.140625 66.015625 42.578125 64.640625 
Q 41.015625 63.28125 39.84375 60.546875 
L 27.734375 29.6875 
L 27.734375 7.03125 
Q 27.734375 5.46875 28.703125 4.6875 
Q 29.6875 3.90625 31.25 3.90625 
L 34.765625 3.90625 
L 34.765625 1.5625 
L 14.453125 1.5625 
L 14.453125 3.90625 
L 17.96875 3.90625 
Q 19.921875 3.90625 20.703125 4.6875 
Q 21.484375 5.46875 21.484375 7.03125 
L 21.484375 27.34375 
L 8.203125 61.71875 
Q 7.421875 63.671875 6.25 64.84375 
Q 5.078125 66.015625 3.125 66.015625 
L 2.34375 66.015625 
L 2.34375 68.359375 
L 19.53125 68.359375 
L 19.53125 66.015625 
L 17.1875 66.015625 
Q 14.84375 66.015625 14.453125 64.84375 
Q 14.0625 63.671875 14.84375 61.328125 
L 25.390625 32.421875 
L 26.171875 32.421875 
z
M 42.1875 66.015625 
z
M 39.0625 66.015625 
z
M 13.28125 66.015625 
z
M 6.640625 66.015625 
z
" id="SimSun-89"/>
    </defs>
    <g transform="translate(359.365557 264.352314)scale(0.1 -0.1)">
     <use xlink:href="#SimSun-89"/>
    </g>
   </g>
   <g id="Line3DCollection_2">
    <path d="M 58.574026 87.981238 
L 67.353779 229.914241 
L 277.846946 275.733041 
" style="fill:none;stroke:#b0b0b0;stroke-width:0.8;"/>
    <path d="M 75.006237 79.994823 
L 82.868024 221.054069 
L 292.09043 266.030333 
" style="fill:none;stroke:#b0b0b0;stroke-width:0.8;"/>
    <path d="M 91.128734 72.158937 
L 98.104648 212.352447 
L 306.067355 256.509207 
" style="fill:none;stroke:#b0b0b0;stroke-width:0.8;"/>
    <path d="M 106.95019 64.469362 
L 113.071035 203.805156 
L 319.785135 247.16461 
" style="fill:none;stroke:#b0b0b0;stroke-width:0.8;"/>
    <path d="M 122.478959 56.92204 
L 127.774313 195.408126 
L 333.25091 237.991681 
" style="fill:none;stroke:#b0b0b0;stroke-width:0.8;"/>
    <path d="M 137.723089 49.513058 
L 142.221359 187.157431 
L 346.471561 228.98573 
" style="fill:none;stroke:#b0b0b0;stroke-width:0.8;"/>
    <path d="M 152.690335 42.238649 
L 156.418813 179.049277 
L 359.453721 220.142239 
" style="fill:none;stroke:#b0b0b0;stroke-width:0.8;"/>
    <path d="M 167.388172 35.095178 
L 170.373088 171.080003 
L 372.203787 211.456853 
" style="fill:none;stroke:#b0b0b0;stroke-width:0.8;"/>
    <path d="M 181.82381 28.079141 
L 184.090378 163.24607 
L 384.727926 202.925369 
" style="fill:none;stroke:#b0b0b0;stroke-width:0.8;"/>
   </g>
   <g id="xtick_7">
    <g id="line2d_9">
     <path d="M 276.085041 275.349521 
L 281.37471 276.500942 
" style="fill:none;stroke:#000000;stroke-linecap:square;stroke-width:0.8;"/>
    </g>
    <g id="text_9">
     <!-- 529.4 -->
     <defs>
      <path d="M 26.953125 44.53125 
Q 34.375 44.53125 39.0625 38.859375 
Q 43.75 33.203125 43.75 23.828125 
Q 43.75 13.28125 38.859375 7.03125 
Q 33.984375 0.78125 23.828125 0.78125 
Q 16.796875 0.78125 11.328125 4.875 
Q 5.859375 8.984375 5.859375 14.84375 
Q 5.859375 17.1875 7.21875 18.9375 
Q 8.59375 20.703125 10.9375 20.703125 
Q 13.28125 20.703125 14.0625 19.140625 
Q 14.84375 17.578125 14.84375 16.40625 
Q 14.84375 14.0625 13.671875 12.890625 
Q 12.5 11.328125 12.5 9.765625 
Q 12.5 6.640625 16.203125 5.078125 
Q 19.921875 3.515625 24.21875 3.515625 
Q 30.46875 3.515625 33.78125 8.59375 
Q 37.109375 13.671875 37.109375 23.046875 
Q 37.109375 30.859375 34.171875 35.734375 
Q 31.25 40.625 25.390625 40.625 
Q 21.09375 40.625 17.96875 39.0625 
Q 14.84375 37.5 12.109375 32.421875 
L 8.59375 32.8125 
L 10.546875 68.359375 
L 42.578125 68.359375 
L 41.40625 62.5 
L 13.28125 62.5 
L 11.71875 36.71875 
Q 15.625 42.1875 19.328125 43.359375 
Q 23.046875 44.53125 26.953125 44.53125 
z
" id="SimSun-53"/>
      <path d="M 10.9375 47.65625 
Q 10.9375 39.0625 14.25 34.5625 
Q 17.578125 30.078125 22.65625 30.078125 
Q 28.515625 30.078125 32.8125 35.546875 
Q 37.109375 41.015625 37.109375 45.703125 
Q 37.109375 55.078125 33.984375 60.734375 
Q 30.859375 66.40625 23.828125 66.40625 
Q 17.1875 66.40625 14.0625 61.125 
Q 10.9375 55.859375 10.9375 47.65625 
z
M 21.484375 26.5625 
Q 13.671875 26.5625 8.984375 31.4375 
Q 4.296875 36.328125 4.296875 47.265625 
Q 4.296875 56.640625 9.375 62.890625 
Q 14.453125 69.140625 23.828125 69.140625 
Q 33.59375 69.140625 39.0625 61.328125 
Q 44.53125 53.515625 44.53125 38.671875 
Q 44.53125 22.265625 38.078125 11.515625 
Q 31.640625 0.78125 20.3125 0.78125 
Q 15.234375 0.78125 11.515625 3.125 
Q 7.8125 5.46875 7.8125 9.375 
Q 7.8125 10.9375 8.78125 12.5 
Q 9.765625 14.0625 12.109375 14.0625 
Q 14.453125 14.0625 15.234375 12.296875 
Q 16.015625 10.546875 16.015625 8.203125 
Q 16.015625 6.640625 16.40625 5.65625 
Q 16.796875 4.6875 17.1875 4.296875 
Q 17.578125 3.90625 18.546875 3.703125 
Q 19.53125 3.515625 20.703125 3.515625 
Q 27.734375 3.515625 32.03125 11.328125 
Q 36.328125 19.140625 37.109375 37.5 
Q 35.15625 32.8125 31.25 29.6875 
Q 27.34375 26.5625 21.484375 26.5625 
z
" id="SimSun-57"/>
     </defs>
     <g transform="translate(278.69264 294.30869)scale(0.1 -0.1)">
      <use xlink:href="#SimSun-53"/>
      <use x="50" xlink:href="#SimSun-50"/>
      <use x="100" xlink:href="#SimSun-57"/>
      <use x="150" xlink:href="#SimSun-46"/>
      <use x="200" xlink:href="#SimSun-52"/>
     </g>
    </g>
   </g>
   <g id="xtick_8">
    <g id="line2d_10">
     <path d="M 290.339893 265.654023 
L 295.595394 266.783791 
" style="fill:none;stroke:#000000;stroke-linecap:square;stroke-width:0.8;"/>
    </g>
    <g id="text_10">
     <!-- 529.6 -->
     <g transform="translate(292.803873 284.502348)scale(0.1 -0.1)">
      <use xlink:href="#SimSun-53"/>
      <use x="50" xlink:href="#SimSun-50"/>
      <use x="100" xlink:href="#SimSun-57"/>
      <use x="150" xlink:href="#SimSun-46"/>
      <use x="200" xlink:href="#SimSun-54"/>
     </g>
    </g>
   </g>
   <g id="xtick_9">
    <g id="line2d_11">
     <path d="M 304.328071 256.139904 
L 309.549751 257.248624 
" style="fill:none;stroke:#000000;stroke-linecap:square;stroke-width:0.8;"/>
    </g>
    <g id="text_11">
     <!-- 529.8 -->
     <g transform="translate(306.651138 274.879447)scale(0.1 -0.1)">
      <use xlink:href="#SimSun-53"/>
      <use x="50" xlink:href="#SimSun-50"/>
      <use x="100" xlink:href="#SimSun-57"/>
      <use x="150" xlink:href="#SimSun-46"/>
      <use x="200" xlink:href="#SimSun-56"/>
     </g>
    </g>
   </g>
   <g id="xtick_10">
    <g id="line2d_12">
     <path d="M 318.056989 246.802122 
L 323.245193 247.890377 
" style="fill:none;stroke:#000000;stroke-linecap:square;stroke-width:0.8;"/>
    </g>
    <g id="text_12">
     <!-- 530.0 -->
     <g transform="translate(320.241771 265.434887)scale(0.1 -0.1)">
      <use xlink:href="#SimSun-53"/>
      <use x="50" xlink:href="#SimSun-51"/>
      <use x="100" xlink:href="#SimSun-48"/>
      <use x="150" xlink:href="#SimSun-46"/>
      <use x="200" xlink:href="#SimSun-48"/>
     </g>
    </g>
   </g>
   <g id="xtick_11">
    <g id="line2d_13">
     <path d="M 331.533789 237.63582 
L 336.688859 238.704171 
" style="fill:none;stroke:#000000;stroke-linecap:square;stroke-width:0.8;"/>
    </g>
    <g id="text_13">
     <!-- 530.2 -->
     <g transform="translate(333.582843 256.163755)scale(0.1 -0.1)">
      <use xlink:href="#SimSun-53"/>
      <use x="50" xlink:href="#SimSun-51"/>
      <use x="100" xlink:href="#SimSun-48"/>
      <use x="150" xlink:href="#SimSun-46"/>
      <use x="200" xlink:href="#SimSun-50"/>
     </g>
    </g>
   </g>
   <g id="xtick_12">
    <g id="line2d_14">
     <path d="M 344.765352 228.636316 
L 349.88763 229.685305 
" style="fill:none;stroke:#000000;stroke-linecap:square;stroke-width:0.8;"/>
    </g>
    <g id="text_14">
     <!-- 530.4 -->
     <g transform="translate(346.681163 247.061319)scale(0.1 -0.1)">
      <use xlink:href="#SimSun-53"/>
      <use x="50" xlink:href="#SimSun-51"/>
      <use x="100" xlink:href="#SimSun-48"/>
      <use x="150" xlink:href="#SimSun-46"/>
      <use x="200" xlink:href="#SimSun-52"/>
     </g>
    </g>
   </g>
   <g id="xtick_13">
    <g id="line2d_15">
     <path d="M 357.758312 219.799099 
L 362.848137 220.829247 
" style="fill:none;stroke:#000000;stroke-linecap:square;stroke-width:0.8;"/>
    </g>
    <g id="text_15">
     <!-- 530.6 -->
     <g transform="translate(359.543298 238.123015)scale(0.1 -0.1)">
      <use xlink:href="#SimSun-53"/>
      <use x="50" xlink:href="#SimSun-51"/>
      <use x="100" xlink:href="#SimSun-48"/>
      <use x="150" xlink:href="#SimSun-46"/>
      <use x="200" xlink:href="#SimSun-54"/>
     </g>
    </g>
   </g>
   <g id="xtick_14">
    <g id="line2d_16">
     <path d="M 370.519065 211.119819 
L 375.576773 212.131629 
" style="fill:none;stroke:#000000;stroke-linecap:square;stroke-width:0.8;"/>
    </g>
    <g id="text_16">
     <!-- 530.8 -->
     <g transform="translate(372.17558 229.344444)scale(0.1 -0.1)">
      <use xlink:href="#SimSun-53"/>
      <use x="50" xlink:href="#SimSun-51"/>
      <use x="100" xlink:href="#SimSun-48"/>
      <use x="150" xlink:href="#SimSun-46"/>
      <use x="200" xlink:href="#SimSun-56"/>
     </g>
    </g>
   </g>
   <g id="xtick_15">
    <g id="line2d_17">
     <path d="M 383.05378 202.594279 
L 388.079705 203.588237 
" style="fill:none;stroke:#000000;stroke-linecap:square;stroke-width:0.8;"/>
    </g>
    <g id="text_17">
     <!-- 531.0 -->
     <defs>
      <path d="M 28.515625 69.53125 
L 28.515625 10.15625 
Q 28.515625 7.03125 30.46875 5.46875 
Q 32.421875 3.90625 35.9375 3.90625 
L 39.84375 3.90625 
L 39.84375 1.5625 
L 11.328125 1.5625 
L 11.328125 3.90625 
L 14.84375 3.90625 
Q 18.75 3.90625 20.5 5.46875 
Q 22.265625 7.03125 22.265625 10.15625 
L 22.265625 57.421875 
Q 22.265625 58.984375 21.28125 59.953125 
Q 20.3125 60.9375 18.359375 60.9375 
L 11.328125 60.9375 
L 11.328125 63.28125 
L 14.84375 63.28125 
Q 19.53125 63.28125 22.453125 64.84375 
Q 25.390625 66.40625 26.953125 69.53125 
z
" id="SimSun-49"/>
     </defs>
     <g transform="translate(384.584114 220.721362)scale(0.1 -0.1)">
      <use xlink:href="#SimSun-53"/>
      <use x="50" xlink:href="#SimSun-51"/>
      <use x="100" xlink:href="#SimSun-49"/>
      <use x="150" xlink:href="#SimSun-46"/>
      <use x="200" xlink:href="#SimSun-48"/>
     </g>
    </g>
   </g>
  </g>
  <g id="axis3d_3">
   <g id="line2d_18">
    <path d="M 388.395181 200.427223 
L 396.774918 61.432405 
" style="fill:none;stroke:#000000;stroke-linecap:square;stroke-width:0.8;"/>
   </g>
   <g id="text_18">
    <!-- Z -->
    <defs>
     <path d="M 28.125 3.90625 
Q 33.203125 3.90625 36.90625 7.21875 
Q 40.625 10.546875 42.96875 17.1875 
L 45.3125 16.796875 
L 41.015625 1.5625 
L 3.515625 1.5625 
L 37.890625 66.015625 
L 24.21875 66.015625 
Q 19.140625 66.015625 15.03125 63.078125 
Q 10.9375 60.15625 7.8125 54.296875 
L 5.46875 55.078125 
L 10.15625 68.359375 
L 45.703125 68.359375 
L 11.328125 3.90625 
z
" id="SimSun-90"/>
    </defs>
    <g transform="translate(432.668903 131.826911)scale(0.1 -0.1)">
     <use xlink:href="#SimSun-90"/>
    </g>
   </g>
   <g id="Line3DCollection_3">
    <path d="M 389.137024 188.122256 
L 187.92634 148.982561 
L 63.67699 219.002484 
" style="fill:none;stroke:#b0b0b0;stroke-width:0.8;"/>
    <path d="M 390.051989 172.945725 
L 187.701228 134.227362 
L 62.700713 203.506546 
" style="fill:none;stroke:#b0b0b0;stroke-width:0.8;"/>
    <path d="M 390.977472 157.594731 
L 187.473639 119.309685 
L 61.71284 187.826548 
" style="fill:none;stroke:#b0b0b0;stroke-width:0.8;"/>
    <path d="M 391.913655 142.066246 
L 187.243529 104.226832 
L 60.713163 171.959191 
" style="fill:none;stroke:#b0b0b0;stroke-width:0.8;"/>
    <path d="M 392.860725 126.357175 
L 187.010857 88.976045 
L 59.70147 155.901097 
" style="fill:none;stroke:#b0b0b0;stroke-width:0.8;"/>
    <path d="M 393.818874 110.464349 
L 186.77558 73.554502 
L 58.677541 139.648806 
" style="fill:none;stroke:#b0b0b0;stroke-width:0.8;"/>
    <path d="M 394.788296 94.384525 
L 186.537654 57.959321 
L 57.641154 123.198772 
" style="fill:none;stroke:#b0b0b0;stroke-width:0.8;"/>
    <path d="M 395.769192 78.114383 
L 186.297034 42.187551 
L 56.59208 106.547366 
" style="fill:none;stroke:#b0b0b0;stroke-width:0.8;"/>
   </g>
   <g id="xtick_16">
    <g id="line2d_19">
     <path d="M 387.457956 187.795642 
L 392.498666 188.776166 
" style="fill:none;stroke:#000000;stroke-linecap:square;stroke-width:0.8;"/>
    </g>
    <g id="text_19">
     <!-- 821.2 -->
     <g transform="translate(395.925768 193.440543)scale(0.1 -0.1)">
      <use xlink:href="#SimSun-56"/>
      <use x="50" xlink:href="#SimSun-50"/>
      <use x="100" xlink:href="#SimSun-49"/>
      <use x="150" xlink:href="#SimSun-46"/>
      <use x="200" xlink:href="#SimSun-50"/>
     </g>
    </g>
   </g>
   <g id="xtick_17">
    <g id="line2d_20">
     <path d="M 388.363008 172.622551 
L 393.433496 173.592753 
" style="fill:none;stroke:#000000;stroke-linecap:square;stroke-width:0.8;"/>
    </g>
    <g id="text_20">
     <!-- 821.4 -->
     <g transform="translate(396.948959 178.283303)scale(0.1 -0.1)">
      <use xlink:href="#SimSun-56"/>
      <use x="50" xlink:href="#SimSun-50"/>
      <use x="100" xlink:href="#SimSun-49"/>
      <use x="150" xlink:href="#SimSun-46"/>
      <use x="200" xlink:href="#SimSun-52"/>
     </g>
    </g>
   </g>
   <g id="xtick_18">
    <g id="line2d_21">
     <path d="M 389.278461 157.275097 
L 394.37908 158.234673 
" style="fill:none;stroke:#000000;stroke-linecap:square;stroke-width:0.8;"/>
    </g>
    <g id="text_21">
     <!-- 821.6 -->
     <g transform="translate(397.983889 162.952164)scale(0.1 -0.1)">
      <use xlink:href="#SimSun-56"/>
      <use x="50" xlink:href="#SimSun-50"/>
      <use x="100" xlink:href="#SimSun-49"/>
      <use x="150" xlink:href="#SimSun-46"/>
      <use x="200" xlink:href="#SimSun-54"/>
     </g>
    </g>
   </g>
   <g id="xtick_19">
    <g id="line2d_22">
     <path d="M 390.204495 141.750256 
L 395.335605 142.698896 
" style="fill:none;stroke:#000000;stroke-linecap:square;stroke-width:0.8;"/>
    </g>
    <g id="text_22">
     <!-- 821.8 -->
     <g transform="translate(399.030762 147.444115)scale(0.1 -0.1)">
      <use xlink:href="#SimSun-56"/>
      <use x="50" xlink:href="#SimSun-50"/>
      <use x="100" xlink:href="#SimSun-49"/>
      <use x="150" xlink:href="#SimSun-46"/>
      <use x="200" xlink:href="#SimSun-56"/>
     </g>
    </g>
   </g>
   <g id="xtick_20">
    <g id="line2d_23">
     <path d="M 391.141294 126.044936 
L 396.303262 126.982319 
" style="fill:none;stroke:#000000;stroke-linecap:square;stroke-width:0.8;"/>
    </g>
    <g id="text_23">
     <!-- 822.0 -->
     <g transform="translate(400.089784 131.756077)scale(0.1 -0.1)">
      <use xlink:href="#SimSun-56"/>
      <use x="50" xlink:href="#SimSun-50"/>
      <use x="100" xlink:href="#SimSun-50"/>
      <use x="150" xlink:href="#SimSun-46"/>
      <use x="200" xlink:href="#SimSun-48"/>
     </g>
    </g>
   </g>
   <g id="xtick_21">
    <g id="line2d_24">
     <path d="M 392.089047 110.155971 
L 397.282246 111.081768 
" style="fill:none;stroke:#000000;stroke-linecap:square;stroke-width:0.8;"/>
    </g>
    <g id="text_24">
     <!-- 822.2 -->
     <g transform="translate(401.16117 115.884899)scale(0.1 -0.1)">
      <use xlink:href="#SimSun-56"/>
      <use x="50" xlink:href="#SimSun-50"/>
      <use x="100" xlink:href="#SimSun-50"/>
      <use x="150" xlink:href="#SimSun-46"/>
      <use x="200" xlink:href="#SimSun-50"/>
     </g>
    </g>
   </g>
   <g id="xtick_22">
    <g id="line2d_25">
     <path d="M 393.047947 94.08012 
L 398.272756 94.993993 
" style="fill:none;stroke:#000000;stroke-linecap:square;stroke-width:0.8;"/>
    </g>
    <g id="text_25">
     <!-- 822.4 -->
     <g transform="translate(402.245136 99.827353)scale(0.1 -0.1)">
      <use xlink:href="#SimSun-56"/>
      <use x="50" xlink:href="#SimSun-50"/>
      <use x="100" xlink:href="#SimSun-50"/>
      <use x="150" xlink:href="#SimSun-46"/>
      <use x="200" xlink:href="#SimSun-52"/>
     </g>
    </g>
   </g>
   <g id="xtick_23">
    <g id="line2d_26">
     <path d="M 394.018193 77.814067 
L 399.274999 78.715668 
" style="fill:none;stroke:#000000;stroke-linecap:square;stroke-width:0.8;"/>
    </g>
    <g id="text_26">
     <!-- 822.6 -->
     <g transform="translate(403.341906 83.580139)scale(0.1 -0.1)">
      <use xlink:href="#SimSun-56"/>
      <use x="50" xlink:href="#SimSun-50"/>
      <use x="100" xlink:href="#SimSun-50"/>
      <use x="150" xlink:href="#SimSun-46"/>
      <use x="200" xlink:href="#SimSun-54"/>
     </g>
    </g>
   </g>
  </g>
  <g id="axes_1">
   <g id="Poly3DCollection_1">
    <path clip-path="url(#p5e412a0a7b)" d="M 186.230098 163.437734 
L 199.954599 148.063556 
L 225.771415 155.815999 
L 211.910386 171.340191 
z
" style="fill:#12c8e6;"/>
    <path clip-path="url(#p5e412a0a7b)" d="M 172.129048 177.56934 
L 186.230098 163.437734 
L 211.910386 171.340191 
L 197.68194 185.613642 
z
" style="fill:#1996f3;"/>
    <path clip-path="url(#p5e412a0a7b)" d="M 199.954599 148.063556 
L 212.775348 132.03699 
L 238.732778 139.636785 
L 225.771415 155.815999 
z
" style="fill:#42edd3;"/>
    <path clip-path="url(#p5e412a0a7b)" d="M 158.193113 189.913535 
L 172.129048 177.56934 
L 197.68194 185.613642 
L 183.632445 198.086234 
z
" style="fill:#3e65fa;"/>
    <path clip-path="url(#p5e412a0a7b)" d="M 212.775348 132.03699 
L 224.19756 115.97352 
L 250.294451 123.42367 
L 238.732778 139.636785 
z
" style="fill:#74feba;"/>
    <path clip-path="url(#p5e412a0a7b)" d="M 144.959961 199.989694 
L 158.193113 189.913535 
L 183.632445 198.086234 
L 170.303808 208.272471 
z
" style="fill:#5c38fd;"/>
    <path clip-path="url(#p5e412a0a7b)" d="M 224.19756 115.97352 
L 233.776075 100.492989 
L 260.005989 107.802078 
L 250.294451 123.42367 
z
" style="fill:#a6f89d;"/>
    <path clip-path="url(#p5e412a0a7b)" d="M 132.944605 207.398767 
L 144.959961 199.989694 
L 170.303808 208.272471 
L 158.214685 215.768996 
z
" style="fill:#7216ff;"/>
    <path clip-path="url(#p5e412a0a7b)" d="M 233.776075 100.492989 
L 241.131504 86.198072 
L 267.482844 93.380044 
L 260.005989 107.802078 
z
" style="fill:#d6db7e;"/>
    <path clip-path="url(#p5e412a0a7b)" d="M 122.620837 211.838719 
L 132.944605 207.398767 
L 158.214685 215.768996 
L 147.8418 220.270188 
z
" style="fill:#7e03ff;"/>
    <path clip-path="url(#p5e412a0a7b)" d="M 241.131504 86.198072 
L 245.964915 73.652529 
L 272.421231 80.726301 
L 267.482844 93.380044 
z
" style="fill:#ffae5e;"/>
    <path clip-path="url(#p5e412a0a7b)" d="M 114.403213 213.117528 
L 122.620837 211.838719 
L 147.8418 220.270188 
L 139.601813 221.581317 
z
" style="fill:#8000ff;"/>
    <path clip-path="url(#p5e412a0a7b)" d="M 245.964915 73.652529 
L 248.070562 63.359758 
L 274.61105 70.348644 
L 272.421231 80.726301 
z
" style="fill:#ff7e41;"/>
    <path clip-path="url(#p5e412a0a7b)" d="M 211.910386 171.340191 
L 225.771415 155.815999 
L 252.09917 163.72187 
L 238.09887 179.399032 
z
" style="fill:#17cbe4;"/>
    <path clip-path="url(#p5e412a0a7b)" d="M 197.68194 185.613642 
L 211.910386 171.340191 
L 238.09887 179.399032 
L 223.740721 193.817203 
z
" style="fill:#169bf2;"/>
    <path clip-path="url(#p5e412a0a7b)" d="M 108.630146 211.163098 
L 114.403213 213.117528 
L 139.601813 221.581317 
L 133.834312 219.628604 
z
" style="fill:#7a09ff;"/>
    <path clip-path="url(#p5e412a0a7b)" d="M 225.771415 155.815999 
L 238.732778 139.636785 
L 265.20423 147.387076 
L 252.09917 163.72187 
z
" style="fill:#46efd1;"/>
    <path clip-path="url(#p5e412a0a7b)" d="M 183.632445 198.086234 
L 197.68194 185.613642 
L 223.740721 193.817203 
L 209.575879 206.420883 
z
" style="fill:#3c68f9;"/>
    <path clip-path="url(#p5e412a0a7b)" d="M 248.070562 63.359758 
L 247.346051 55.742318 
L 273.946251 62.673275 
L 274.61105 70.348644 
z
" style="fill:#ff5029;"/>
    <path clip-path="url(#p5e412a0a7b)" d="M 238.732778 139.636785 
L 250.294451 123.42367 
L 276.908675 131.021509 
L 265.20423 147.387076 
z
" style="fill:#78ffb8;"/>
    <path clip-path="url(#p5e412a0a7b)" d="M 170.303808 208.272471 
L 183.632445 198.086234 
L 209.575879 206.420883 
L 196.150554 216.719604 
z
" style="fill:#5a3bfd;"/>
    <path clip-path="url(#p5e412a0a7b)" d="M 250.294451 123.42367 
L 260.005989 107.802078 
L 286.756655 115.256276 
L 276.908675 131.021509 
z
" style="fill:#abf69b;"/>
    <path clip-path="url(#p5e412a0a7b)" d="M 105.548802 206.02938 
L 108.630146 211.163098 
L 133.834312 219.628604 
L 130.786616 214.465468 
z
" style="fill:#6826fe;"/>
    <path clip-path="url(#p5e412a0a7b)" d="M 247.346051 55.742318 
L 243.799261 51.123264 
L 270.431946 58.025947 
L 273.946251 62.673275 
z
" style="fill:#ff2c16;"/>
    <path clip-path="url(#p5e412a0a7b)" d="M 158.214685 215.768996 
L 170.303808 208.272471 
L 196.150554 216.719604 
L 183.987089 224.30561 
z
" style="fill:#7019ff;"/>
    <path clip-path="url(#p5e412a0a7b)" d="M 260.005989 107.802078 
L 267.482844 93.380044 
L 294.358333 100.704871 
L 286.756655 115.256276 
z
" style="fill:#dbd87b;"/>
    <path clip-path="url(#p5e412a0a7b)" d="M 105.302639 197.897969 
L 105.548802 206.02938 
L 130.786616 214.465468 
L 130.601256 206.274215 
z
" style="fill:#4e4dfc;"/>
    <path clip-path="url(#p5e412a0a7b)" d="M 147.8418 220.270188 
L 158.214685 215.768996 
L 183.987089 224.30561 
L 173.565166 228.869612 
z
" style="fill:#7c06ff;"/>
    <path clip-path="url(#p5e412a0a7b)" d="M 267.482844 93.380044 
L 272.421231 80.726301 
L 299.404939 87.941084 
L 294.358333 100.704871 
z
" style="fill:#ffac5c;"/>
    <path clip-path="url(#p5e412a0a7b)" d="M 241.517817 50.13854 
L 234.208718 50.090322 
L 260.837733 57.006549 
L 268.155549 57.038616 
z
" style="fill:#ff1008;"/>
    <path clip-path="url(#p5e412a0a7b)" d="M 107.922454 187.07454 
L 105.302639 197.897969 
L 130.601256 206.274215 
L 133.306987 195.362521 
z
" style="fill:#2981f6;"/>
    <path clip-path="url(#p5e412a0a7b)" d="M 139.601813 221.581317 
L 147.8418 220.270188 
L 173.565166 228.869612 
L 165.303555 230.214102 
z
" style="fill:#7e03ff;"/>
    <path clip-path="url(#p5e412a0a7b)" d="M 272.421231 80.726301 
L 274.61105 70.348644 
L 301.681888 77.477187 
L 299.404939 87.941084 
z
" style="fill:#ff793e;"/>
    <path clip-path="url(#p5e412a0a7b)" d="M 234.208718 50.090322 
L 224.559566 53.3226 
L 251.150565 60.286331 
L 260.837733 57.006549 
z
" style="fill:#ff0d06;"/>
    <path clip-path="url(#p5e412a0a7b)" d="M 113.32181 173.979672 
L 107.922454 187.07454 
L 133.306987 195.362521 
L 138.814243 182.15424 
z
" style="fill:#01b3ec;"/>
    <path clip-path="url(#p5e412a0a7b)" d="M 238.09887 179.399032 
L 252.09917 163.72187 
L 278.953183 171.785769 
L 264.810786 187.618946 
z
" style="fill:#18cde4;"/>
    <path clip-path="url(#p5e412a0a7b)" d="M 223.740721 193.817203 
L 238.09887 179.399032 
L 264.810786 187.618946 
L 250.320566 202.1848 
z
" style="fill:#11a0f1;"/>
    <path clip-path="url(#p5e412a0a7b)" d="M 133.834312 219.628604 
L 139.601813 221.581317 
L 165.303555 230.214102 
L 159.542996 228.263567 
z
" style="fill:#7610ff;"/>
    <path clip-path="url(#p5e412a0a7b)" d="M 252.09917 163.72187 
L 265.20423 147.387076 
L 292.205124 155.292376 
L 278.953183 171.785769 
z
" style="fill:#48f1d0;"/>
    <path clip-path="url(#p5e412a0a7b)" d="M 209.575879 206.420883 
L 223.740721 193.817203 
L 250.320566 202.1848 
L 236.03855 214.922342 
z
" style="fill:#386df9;"/>
    <path clip-path="url(#p5e412a0a7b)" d="M 274.61105 70.348644 
L 273.946251 62.673275 
L 301.079348 69.743084 
L 301.681888 77.477187 
z
" style="fill:#ff4a26;"/>
    <path clip-path="url(#p5e412a0a7b)" d="M 265.20423 147.387076 
L 276.908675 131.021509 
L 304.055769 138.771471 
L 292.205124 155.292376 
z
" style="fill:#7affb7;"/>
    <path clip-path="url(#p5e412a0a7b)" d="M 224.559566 53.3226 
L 212.948675 59.724741 
L 239.473652 66.765779 
L 251.150565 60.286331 
z
" style="fill:#ff1c0e;"/>
    <path clip-path="url(#p5e412a0a7b)" d="M 121.297553 159.133919 
L 113.32181 173.979672 
L 138.814243 182.15424 
L 146.915722 167.174385 
z
" style="fill:#2ddedc;"/>
    <path clip-path="url(#p5e412a0a7b)" d="M 196.150554 216.719604 
L 209.575879 206.420883 
L 236.03855 214.922342 
L 222.515316 225.336033 
z
" style="fill:#5641fd;"/>
    <path clip-path="url(#p5e412a0a7b)" d="M 276.908675 131.021509 
L 286.756655 115.256276 
L 314.043737 122.859949 
L 304.055769 138.771471 
z
" style="fill:#acf59a;"/>
    <path clip-path="url(#p5e412a0a7b)" d="M 130.786616 214.465468 
L 133.834312 219.628604 
L 159.542996 228.263567 
L 156.530924 223.070858 
z
" style="fill:#642cfe;"/>
    <path clip-path="url(#p5e412a0a7b)" d="M 212.948675 59.724741 
L 199.841117 69.051901 
L 226.27464 76.197151 
L 239.473652 66.765779 
z
" style="fill:#ff381c;"/>
    <path clip-path="url(#p5e412a0a7b)" d="M 131.535905 143.137394 
L 121.297553 159.133919 
L 146.915722 167.174385 
L 157.29262 151.028548 
z
" style="fill:#5efac6;"/>
    <path clip-path="url(#p5e412a0a7b)" d="M 273.946251 62.673275 
L 270.431946 58.025947 
L 297.59955 65.067272 
L 301.079348 69.743084 
z
" style="fill:#ff2613;"/>
    <path clip-path="url(#p5e412a0a7b)" d="M 183.987089 224.30561 
L 196.150554 216.719604 
L 222.515316 225.336033 
L 210.276945 233.01362 
z
" style="fill:#6c1fff;"/>
    <path clip-path="url(#p5e412a0a7b)" d="M 286.756655 115.256276 
L 294.358333 100.704871 
L 321.773769 108.176859 
L 314.043737 122.859949 
z
" style="fill:#dcd67a;"/>
    <path clip-path="url(#p5e412a0a7b)" d="M 199.841117 69.051901 
L 185.76991 80.933032 
L 212.090304 88.205235 
L 226.27464 76.197151 
z
" style="fill:#ff6232;"/>
    <path clip-path="url(#p5e412a0a7b)" d="M 143.624218 126.644593 
L 131.535905 143.137394 
L 157.29262 151.028548 
L 169.526587 134.377483 
z
" style="fill:#90feab;"/>
    <path clip-path="url(#p5e412a0a7b)" d="M 185.76991 80.933032 
L 171.313127 94.885479 
L 197.503493 102.302112 
L 212.090304 88.205235 
z
" style="fill:#ff934d;"/>
    <path clip-path="url(#p5e412a0a7b)" d="M 130.601256 206.274215 
L 130.786616 214.465468 
L 156.530924 223.070858 
L 156.408871 214.818987 
z
" style="fill:#4a53fb;"/>
    <path clip-path="url(#p5e412a0a7b)" d="M 157.068103 110.33563 
L 143.624218 126.644593 
L 169.526587 134.377483 
L 183.117107 117.908051 
z
" style="fill:#c2ea8c;"/>
    <path clip-path="url(#p5e412a0a7b)" d="M 173.565166 228.869612 
L 183.987089 224.30561 
L 210.276945 233.01362 
L 199.806099 237.64206 
z
" style="fill:#780dff;"/>
    <path clip-path="url(#p5e412a0a7b)" d="M 171.313127 94.885479 
L 157.068103 110.33563 
L 183.117107 117.908051 
L 197.503493 102.302112 
z
" style="fill:#f0c46c;"/>
    <path clip-path="url(#p5e412a0a7b)" d="M 294.358333 100.704871 
L 299.404939 87.941084 
L 326.93197 95.301138 
L 321.773769 108.176859 
z
" style="fill:#ffa759;"/>
    <path clip-path="url(#p5e412a0a7b)" d="M 268.155549 57.038616 
L 260.837733 57.006549 
L 288.003462 64.062173 
L 295.328865 64.077427 
z
" style="fill:#ff0905;"/>
    <path clip-path="url(#p5e412a0a7b)" d="M 133.306987 195.362521 
L 130.601256 206.274215 
L 156.408871 214.818987 
L 159.203467 203.817651 
z
" style="fill:#2884f6;"/>
    <path clip-path="url(#p5e412a0a7b)" d="M 165.303555 230.214102 
L 173.565166 228.869612 
L 199.806099 237.64206 
L 191.523659 239.020997 
z
" style="fill:#7a09ff;"/>
    <path clip-path="url(#p5e412a0a7b)" d="M 299.404939 87.941084 
L 301.681888 77.477187 
L 329.299134 84.749616 
L 326.93197 95.301138 
z
" style="fill:#ff763d;"/>
    <path clip-path="url(#p5e412a0a7b)" d="M 260.837733 57.006549 
L 251.150565 60.286331 
L 278.278698 67.390728 
L 288.003462 64.062173 
z
" style="fill:#ff0905;"/>
    <path clip-path="url(#p5e412a0a7b)" d="M 138.814243 182.15424 
L 133.306987 195.362521 
L 159.203467 203.817651 
L 164.8219 190.494024 
z
" style="fill:#02b7eb;"/>
    <path clip-path="url(#p5e412a0a7b)" d="M 264.810786 187.618946 
L 278.953183 171.785769 
L 306.349392 180.012483 
L 292.061986 196.00481 
z
" style="fill:#1dd1e2;"/>
    <path clip-path="url(#p5e412a0a7b)" d="M 250.320566 202.1848 
L 264.810786 187.618946 
L 292.061986 196.00481 
L 277.43726 210.721402 
z
" style="fill:#10a2f0;"/>
    <path clip-path="url(#p5e412a0a7b)" d="M 159.542996 228.263567 
L 165.303555 230.214102 
L 191.523659 239.020997 
L 185.771501 237.073125 
z
" style="fill:#7216ff;"/>
    <path clip-path="url(#p5e412a0a7b)" d="M 278.953183 171.785769 
L 292.205124 155.292376 
L 319.751505 163.357383 
L 306.349392 180.012483 
z
" style="fill:#4df3ce;"/>
    <path clip-path="url(#p5e412a0a7b)" d="M 236.03855 214.922342 
L 250.320566 202.1848 
L 277.43726 210.721402 
L 263.036203 223.595672 
z
" style="fill:#3670f8;"/>
    <path clip-path="url(#p5e412a0a7b)" d="M 301.681888 77.477187 
L 301.079348 69.743084 
L 328.761519 76.955959 
L 329.299134 84.749616 
z
" style="fill:#ff4422;"/>
    <path clip-path="url(#p5e412a0a7b)" d="M 292.205124 155.292376 
L 304.055769 138.771471 
L 331.751899 146.678173 
L 319.751505 163.357383 
z
" style="fill:#7effb5;"/>
    <path clip-path="url(#p5e412a0a7b)" d="M 251.150565 60.286331 
L 239.473652 66.765779 
L 266.535454 73.949317 
L 278.278698 67.390728 
z
" style="fill:#ff160b;"/>
    <path clip-path="url(#p5e412a0a7b)" d="M 146.915722 167.174385 
L 138.814243 182.15424 
L 164.8219 190.494024 
L 173.052596 175.377651 
z
" style="fill:#30e1da;"/>
    <path clip-path="url(#p5e412a0a7b)" d="M 222.515316 225.336033 
L 236.03855 214.922342 
L 263.036203 223.595672 
L 249.413827 234.1269 
z
" style="fill:#5444fd;"/>
    <path clip-path="url(#p5e412a0a7b)" d="M 304.055769 138.771471 
L 314.043737 122.859949 
L 341.883533 130.617639 
L 331.751899 146.678173 
z
" style="fill:#b0f397;"/>
    <path clip-path="url(#p5e412a0a7b)" d="M 156.530924 223.070858 
L 159.542996 228.263567 
L 185.771501 237.073125 
L 182.797126 231.850699 
z
" style="fill:#622ffe;"/>
    <path clip-path="url(#p5e412a0a7b)" d="M 239.473652 66.765779 
L 226.27464 76.197151 
L 253.243953 83.48723 
L 266.535454 73.949317 
z
" style="fill:#ff351b;"/>
    <path clip-path="url(#p5e412a0a7b)" d="M 157.29262 151.028548 
L 146.915722 167.174385 
L 173.052596 175.377651 
L 183.571581 159.079703 
z
" style="fill:#60fac5;"/>
    <path clip-path="url(#p5e412a0a7b)" d="M 301.079348 69.743084 
L 297.59955 65.067272 
L 325.318355 72.251457 
L 328.761519 76.955959 
z
" style="fill:#ff1f10;"/>
    <path clip-path="url(#p5e412a0a7b)" d="M 210.276945 233.01362 
L 222.515316 225.336033 
L 249.413827 234.1269 
L 237.099995 241.89824 
z
" style="fill:#6a22fe;"/>
    <path clip-path="url(#p5e412a0a7b)" d="M 314.043737 122.859949 
L 321.773769 108.176859 
L 349.745587 115.800486 
L 341.883533 130.617639 
z
" style="fill:#e0d377;"/>
    <path clip-path="url(#p5e412a0a7b)" d="M 226.27464 76.197151 
L 212.090304 88.205235 
L 238.94477 95.624999 
L 253.243953 83.48723 
z
" style="fill:#ff5f30;"/>
    <path clip-path="url(#p5e412a0a7b)" d="M 169.526587 134.377483 
L 157.29262 151.028548 
L 183.571581 159.079703 
L 195.954654 142.267315 
z
" style="fill:#94fda8;"/>
    <path clip-path="url(#p5e412a0a7b)" d="M 212.090304 88.205235 
L 197.503493 102.302112 
L 224.225605 109.869326 
L 238.94477 95.624999 
z
" style="fill:#ff8e4a;"/>
    <path clip-path="url(#p5e412a0a7b)" d="M 156.408871 214.818987 
L 156.530924 223.070858 
L 182.797126 231.850699 
L 182.741002 223.537424 
z
" style="fill:#4659fb;"/>
    <path clip-path="url(#p5e412a0a7b)" d="M 183.117107 117.908051 
L 169.526587 134.377483 
L 195.954654 142.267315 
L 209.695022 125.634226 
z
" style="fill:#c4e88a;"/>
    <path clip-path="url(#p5e412a0a7b)" d="M 199.806099 237.64206 
L 210.276945 233.01362 
L 237.099995 241.89824 
L 226.580377 246.592809 
z
" style="fill:#7610ff;"/>
    <path clip-path="url(#p5e412a0a7b)" d="M 197.503493 102.302112 
L 183.117107 117.908051 
L 209.695022 125.634226 
L 224.225605 109.869326 
z
" style="fill:#f4c069;"/>
    <path clip-path="url(#p5e412a0a7b)" d="M 321.773769 108.176859 
L 326.93197 95.301138 
L 355.018899 102.810896 
L 349.745587 115.800486 
z
" style="fill:#ffa558;"/>
    <path clip-path="url(#p5e412a0a7b)" d="M 295.328865 64.077427 
L 288.003462 64.062173 
L 315.722295 71.261453 
L 323.054084 71.259199 
z
" style="fill:#ff0302;"/>
    <path clip-path="url(#p5e412a0a7b)" d="M 159.203467 203.817651 
L 156.408871 214.818987 
L 182.741002 223.537424 
L 185.627536 212.445038 
z
" style="fill:#2489f5;"/>
    <path clip-path="url(#p5e412a0a7b)" d="M 191.523659 239.020997 
L 199.806099 237.64206 
L 226.580377 246.592809 
L 218.277967 248.007323 
z
" style="fill:#780dff;"/>
    <path clip-path="url(#p5e412a0a7b)" d="M 326.93197 95.301138 
L 329.299134 84.749616 
L 357.4795 92.17033 
L 355.018899 102.810896 
z
" style="fill:#ff703a;"/>
    <path clip-path="url(#p5e412a0a7b)" d="M 288.003462 64.062173 
L 278.278698 67.390728 
L 305.960409 74.640098 
L 315.722295 71.261453 
z
" style="fill:#ff0302;"/>
    <path clip-path="url(#p5e412a0a7b)" d="M 164.8219 190.494024 
L 159.203467 203.817651 
L 185.627536 212.445038 
L 191.360561 199.004082 
z
" style="fill:#04b9ea;"/>
    <path clip-path="url(#p5e412a0a7b)" d="M 185.771501 237.073125 
L 191.523659 239.020997 
L 218.277967 248.007323 
L 212.535753 246.062629 
z
" style="fill:#7019ff;"/>
    <path clip-path="url(#p5e412a0a7b)" d="M 329.299134 84.749616 
L 328.761519 76.955959 
L 357.009599 84.316288 
L 357.4795 92.17033 
z
" style="fill:#ff4121;"/>
    <path clip-path="url(#p5e412a0a7b)" d="M 278.278698 67.390728 
L 266.535454 73.949317 
L 294.150545 81.279725 
L 305.960409 74.640098 
z
" style="fill:#ff1309;"/>
    <path clip-path="url(#p5e412a0a7b)" d="M 173.052596 175.377651 
L 164.8219 190.494024 
L 191.360561 199.004082 
L 199.72409 183.748711 
z
" style="fill:#32e3da;"/>
    <path clip-path="url(#p5e412a0a7b)" d="M 182.797126 231.850699 
L 185.771501 237.073125 
L 212.535753 246.062629 
L 209.601255 240.810349 
z
" style="fill:#5e35fe;"/>
    <path clip-path="url(#p5e412a0a7b)" d="M 266.535454 73.949317 
L 253.243953 83.48723 
L 280.765514 90.926588 
L 294.150545 81.279725 
z
" style="fill:#ff2f18;"/>
    <path clip-path="url(#p5e412a0a7b)" d="M 183.571581 159.079703 
L 173.052596 175.377651 
L 199.72409 183.748711 
L 210.388836 167.295776 
z
" style="fill:#64fbc3;"/>
    <path clip-path="url(#p5e412a0a7b)" d="M 328.761519 76.955959 
L 325.318355 72.251457 
L 353.605305 79.582895 
L 357.009599 84.316288 
z
" style="fill:#ff1c0e;"/>
    <path clip-path="url(#p5e412a0a7b)" d="M 253.243953 83.48723 
L 238.94477 95.624999 
L 266.349731 103.196863 
L 280.765514 90.926588 
z
" style="fill:#ff592d;"/>
    <path clip-path="url(#p5e412a0a7b)" d="M 195.954654 142.267315 
L 183.571581 159.079703 
L 210.388836 167.295776 
L 222.924588 150.318916 
z
" style="fill:#96fca7;"/>
    <path clip-path="url(#p5e412a0a7b)" d="M 238.94477 95.624999 
L 224.225605 109.869326 
L 251.495822 117.591753 
L 266.349731 103.196863 
z
" style="fill:#ff8c49;"/>
    <path clip-path="url(#p5e412a0a7b)" d="M 182.741002 223.537424 
L 182.797126 231.850699 
L 209.601255 240.810349 
L 209.613803 232.434875 
z
" style="fill:#445cfb;"/>
    <path clip-path="url(#p5e412a0a7b)" d="M 209.695022 125.634226 
L 195.954654 142.267315 
L 222.924588 150.318916 
L 236.818124 133.518887 
z
" style="fill:#c8e688;"/>
    <path clip-path="url(#p5e412a0a7b)" d="M 224.225605 109.869326 
L 209.695022 125.634226 
L 236.818124 133.518887 
L 251.495822 117.591753 
z
" style="fill:#f6be68;"/>
    <path clip-path="url(#p5e412a0a7b)" d="M 323.054084 71.259199 
L 315.722295 71.261453 
L 344.011298 78.608821 
L 351.348191 78.588332 
z
" style="fill:#ff0000;"/>
    <path clip-path="url(#p5e412a0a7b)" d="M 185.627536 212.445038 
L 182.741002 223.537424 
L 209.613803 232.434875 
L 212.595486 221.25 
z
" style="fill:#218cf4;"/>
    <path clip-path="url(#p5e412a0a7b)" d="M 315.722295 71.261453 
L 305.960409 74.640098 
L 334.212815 82.038923 
L 344.011298 78.608821 
z
" style="fill:#ff0000;"/>
    <path clip-path="url(#p5e412a0a7b)" d="M 191.360561 199.004082 
L 185.627536 212.445038 
L 212.595486 221.25 
L 218.446655 207.689684 
z
" style="fill:#08bee9;"/>
    <path clip-path="url(#p5e412a0a7b)" d="M 305.960409 74.640098 
L 294.150545 81.279725 
L 322.336069 88.761555 
L 334.212815 82.038923 
z
" style="fill:#ff0d06;"/>
    <path clip-path="url(#p5e412a0a7b)" d="M 199.72409 183.748711 
L 191.360561 199.004082 
L 218.446655 207.689684 
L 226.946777 192.292768 
z
" style="fill:#37e6d8;"/>
    <path clip-path="url(#p5e412a0a7b)" d="M 294.150545 81.279725 
L 280.765514 90.926588 
L 308.856461 98.519856 
L 322.336069 88.761555 
z
" style="fill:#ff2c16;"/>
    <path clip-path="url(#p5e412a0a7b)" d="M 210.388836 167.295776 
L 199.72409 183.748711 
L 226.946777 192.292768 
L 237.761093 175.681888 
z
" style="fill:#66fcc2;"/>
    <path clip-path="url(#p5e412a0a7b)" d="M 280.765514 90.926588 
L 266.349731 103.196863 
L 294.322288 110.925551 
L 308.856461 98.519856 
z
" style="fill:#ff562c;"/>
    <path clip-path="url(#p5e412a0a7b)" d="M 222.924588 150.318916 
L 210.388836 167.295776 
L 237.761093 175.681888 
L 250.453225 158.537313 
z
" style="fill:#9bfba5;"/>
    <path clip-path="url(#p5e412a0a7b)" d="M 266.349731 103.196863 
L 251.495822 117.591753 
L 279.331183 125.474219 
L 294.322288 110.925551 
z
" style="fill:#ff8646;"/>
    <path clip-path="url(#p5e412a0a7b)" d="M 236.818124 133.518887 
L 222.924588 150.318916 
L 250.453225 158.537313 
L 264.50336 141.566959 
z
" style="fill:#cbe486;"/>
    <path clip-path="url(#p5e412a0a7b)" d="M 251.495822 117.591753 
L 236.818124 133.518887 
L 264.50336 141.566959 
L 279.331183 125.474219 
z
" style="fill:#fbb965;"/>
   </g>
  </g>
 </g>
 <defs>
  <clipPath id="p5e412a0a7b">
   <rect height="288" width="432" x="7.2" y="7.2"/>
  </clipPath>
 </defs>
</svg>
