<?xml version="1.0" encoding="utf-8" standalone="no"?>
<!DOCTYPE svg PUBLIC "-//W3C//DTD SVG 1.1//EN"
  "http://www.w3.org/Graphics/SVG/1.1/DTD/svg11.dtd">
<!-- Created with matplotlib (https://matplotlib.org/) -->
<svg height="247.2775pt" version="1.1" viewBox="0 0 386.2 247.2775" width="386.2pt" xmlns="http://www.w3.org/2000/svg" xmlns:xlink="http://www.w3.org/1999/xlink">
 <defs>
  <style type="text/css">
*{stroke-linecap:butt;stroke-linejoin:round;}
  </style>
 </defs>
 <g id="figure_1">
  <g id="patch_1">
   <path d="M 0 247.2775 
L 386.2 247.2775 
L 386.2 0 
L 0 0 
z
" style="fill:none;"/>
  </g>
  <g id="axes_1">
   <g id="patch_2">
    <path d="M 44.2 224.64 
L 379 224.64 
L 379 7.2 
L 44.2 7.2 
z
" style="fill:#ffffff;"/>
   </g>
   <g id="matplotlib.axis_1">
    <g id="xtick_1">
     <g id="line2d_1">
      <defs>
       <path d="M 0 0 
L 0 3.5 
" id="m42244ba635" style="stroke:#000000;stroke-width:0.8;"/>
      </defs>
      <g>
       <use style="stroke:#000000;stroke-width:0.8;" x="59.418182" xlink:href="#m42244ba635" y="224.64"/>
      </g>
     </g>
     <g id="text_1">
      <!-- 0.0 -->
      <defs>
       <path d="M 25 66.015625 
Q 19.53125 66.015625 15.8125 57.609375 
Q 12.109375 49.21875 12.109375 35.15625 
Q 12.109375 20.3125 15.8125 12.109375 
Q 19.53125 3.90625 25 3.90625 
Q 30.859375 3.90625 34.171875 12.109375 
Q 37.5 20.3125 37.5 35.15625 
Q 37.5 49.21875 34.375 57.609375 
Q 31.25 66.015625 25 66.015625 
z
M 25 0.78125 
Q 16.40625 0.78125 10.546875 9.765625 
Q 4.6875 18.75 4.6875 35.15625 
Q 4.6875 50.390625 10.34375 59.765625 
Q 16.015625 69.140625 25 69.140625 
Q 33.59375 69.140625 39.25 60.15625 
Q 44.921875 51.171875 44.921875 35.15625 
Q 44.921875 19.140625 39.25 9.953125 
Q 33.59375 0.78125 25 0.78125 
z
" id="SimSun-48"/>
       <path d="M 12.5 0.390625 
Q 10.15625 0.390625 8.390625 1.953125 
Q 6.640625 3.515625 6.640625 6.25 
Q 6.640625 8.984375 8.390625 10.546875 
Q 10.15625 12.109375 12.5 12.109375 
Q 14.84375 12.109375 16.59375 10.34375 
Q 18.359375 8.59375 18.359375 6.25 
Q 18.359375 3.515625 16.59375 1.953125 
Q 14.84375 0.390625 12.5 0.390625 
z
" id="SimSun-46"/>
      </defs>
      <g transform="translate(51.918182 238.788438)scale(0.1 -0.1)">
       <use xlink:href="#SimSun-48"/>
       <use x="50" xlink:href="#SimSun-46"/>
       <use x="100" xlink:href="#SimSun-48"/>
      </g>
     </g>
    </g>
    <g id="xtick_2">
     <g id="line2d_2">
      <g>
       <use style="stroke:#000000;stroke-width:0.8;" x="110.162369" xlink:href="#m42244ba635" y="224.64"/>
      </g>
     </g>
     <g id="text_2">
      <!-- 0.5 -->
      <defs>
       <path d="M 26.953125 44.53125 
Q 34.375 44.53125 39.0625 38.859375 
Q 43.75 33.203125 43.75 23.828125 
Q 43.75 13.28125 38.859375 7.03125 
Q 33.984375 0.78125 23.828125 0.78125 
Q 16.796875 0.78125 11.328125 4.875 
Q 5.859375 8.984375 5.859375 14.84375 
Q 5.859375 17.1875 7.21875 18.9375 
Q 8.59375 20.703125 10.9375 20.703125 
Q 13.28125 20.703125 14.0625 19.140625 
Q 14.84375 17.578125 14.84375 16.40625 
Q 14.84375 14.0625 13.671875 12.890625 
Q 12.5 11.328125 12.5 9.765625 
Q 12.5 6.640625 16.203125 5.078125 
Q 19.921875 3.515625 24.21875 3.515625 
Q 30.46875 3.515625 33.78125 8.59375 
Q 37.109375 13.671875 37.109375 23.046875 
Q 37.109375 30.859375 34.171875 35.734375 
Q 31.25 40.625 25.390625 40.625 
Q 21.09375 40.625 17.96875 39.0625 
Q 14.84375 37.5 12.109375 32.421875 
L 8.59375 32.8125 
L 10.546875 68.359375 
L 42.578125 68.359375 
L 41.40625 62.5 
L 13.28125 62.5 
L 11.71875 36.71875 
Q 15.625 42.1875 19.328125 43.359375 
Q 23.046875 44.53125 26.953125 44.53125 
z
" id="SimSun-53"/>
      </defs>
      <g transform="translate(102.662369 238.788438)scale(0.1 -0.1)">
       <use xlink:href="#SimSun-48"/>
       <use x="50" xlink:href="#SimSun-46"/>
       <use x="100" xlink:href="#SimSun-53"/>
      </g>
     </g>
    </g>
    <g id="xtick_3">
     <g id="line2d_3">
      <g>
       <use style="stroke:#000000;stroke-width:0.8;" x="160.906557" xlink:href="#m42244ba635" y="224.64"/>
      </g>
     </g>
     <g id="text_3">
      <!-- 1.0 -->
      <defs>
       <path d="M 28.515625 69.53125 
L 28.515625 10.15625 
Q 28.515625 7.03125 30.46875 5.46875 
Q 32.421875 3.90625 35.9375 3.90625 
L 39.84375 3.90625 
L 39.84375 1.5625 
L 11.328125 1.5625 
L 11.328125 3.90625 
L 14.84375 3.90625 
Q 18.75 3.90625 20.5 5.46875 
Q 22.265625 7.03125 22.265625 10.15625 
L 22.265625 57.421875 
Q 22.265625 58.984375 21.28125 59.953125 
Q 20.3125 60.9375 18.359375 60.9375 
L 11.328125 60.9375 
L 11.328125 63.28125 
L 14.84375 63.28125 
Q 19.53125 63.28125 22.453125 64.84375 
Q 25.390625 66.40625 26.953125 69.53125 
z
" id="SimSun-49"/>
      </defs>
      <g transform="translate(153.406557 238.788438)scale(0.1 -0.1)">
       <use xlink:href="#SimSun-49"/>
       <use x="50" xlink:href="#SimSun-46"/>
       <use x="100" xlink:href="#SimSun-48"/>
      </g>
     </g>
    </g>
    <g id="xtick_4">
     <g id="line2d_4">
      <g>
       <use style="stroke:#000000;stroke-width:0.8;" x="211.650744" xlink:href="#m42244ba635" y="224.64"/>
      </g>
     </g>
     <g id="text_4">
      <!-- 1.5 -->
      <g transform="translate(204.150744 238.788438)scale(0.1 -0.1)">
       <use xlink:href="#SimSun-49"/>
       <use x="50" xlink:href="#SimSun-46"/>
       <use x="100" xlink:href="#SimSun-53"/>
      </g>
     </g>
    </g>
    <g id="xtick_5">
     <g id="line2d_5">
      <g>
       <use style="stroke:#000000;stroke-width:0.8;" x="262.394932" xlink:href="#m42244ba635" y="224.64"/>
      </g>
     </g>
     <g id="text_5">
      <!-- 2.0 -->
      <defs>
       <path d="M 36.328125 51.953125 
Q 36.328125 58.984375 33.203125 62.6875 
Q 30.078125 66.40625 23.828125 66.40625 
Q 19.140625 66.40625 15.8125 63.859375 
Q 12.5 61.328125 12.5 57.421875 
Q 12.5 55.078125 14.0625 53.515625 
Q 15.234375 51.953125 15.234375 50.390625 
Q 15.234375 48.4375 14.25 47.453125 
Q 13.28125 46.484375 11.328125 46.484375 
Q 8.984375 46.484375 7.609375 47.84375 
Q 6.25 49.21875 6.25 52.34375 
Q 6.25 60.546875 12.109375 64.84375 
Q 17.96875 69.140625 24.609375 69.140625 
Q 33.984375 69.140625 38.46875 64.453125 
Q 42.96875 59.765625 42.96875 52.734375 
Q 42.96875 48.046875 40.8125 43.359375 
Q 38.671875 38.671875 33.984375 34.375 
Q 22.65625 23.4375 16.59375 16.59375 
Q 10.546875 9.765625 9.375 7.421875 
L 32.421875 7.421875 
Q 35.9375 7.421875 38.28125 10.15625 
Q 40.625 12.890625 41.40625 18.359375 
L 43.75 18.359375 
L 41.40625 1.5625 
L 5.078125 1.5625 
L 5.078125 6.640625 
Q 7.03125 10.15625 11.515625 15.625 
Q 16.015625 21.09375 23.4375 28.515625 
Q 30.078125 35.15625 33.203125 41.015625 
Q 36.328125 46.875 36.328125 51.953125 
z
" id="SimSun-50"/>
      </defs>
      <g transform="translate(254.894932 238.788438)scale(0.1 -0.1)">
       <use xlink:href="#SimSun-50"/>
       <use x="50" xlink:href="#SimSun-46"/>
       <use x="100" xlink:href="#SimSun-48"/>
      </g>
     </g>
    </g>
    <g id="xtick_6">
     <g id="line2d_6">
      <g>
       <use style="stroke:#000000;stroke-width:0.8;" x="313.139119" xlink:href="#m42244ba635" y="224.64"/>
      </g>
     </g>
     <g id="text_6">
      <!-- 2.5 -->
      <g transform="translate(305.639119 238.788438)scale(0.1 -0.1)">
       <use xlink:href="#SimSun-50"/>
       <use x="50" xlink:href="#SimSun-46"/>
       <use x="100" xlink:href="#SimSun-53"/>
      </g>
     </g>
    </g>
    <g id="xtick_7">
     <g id="line2d_7">
      <g>
       <use style="stroke:#000000;stroke-width:0.8;" x="363.883307" xlink:href="#m42244ba635" y="224.64"/>
      </g>
     </g>
     <g id="text_7">
      <!-- 3.0 -->
      <defs>
       <path d="M 43.75 19.53125 
Q 43.75 12.109375 38.28125 6.4375 
Q 32.8125 0.78125 23.046875 0.78125 
Q 16.015625 0.78125 10.9375 4.6875 
Q 5.859375 8.59375 5.859375 13.671875 
Q 5.859375 16.015625 7.421875 17.765625 
Q 8.984375 19.53125 10.546875 19.53125 
Q 12.890625 19.53125 13.859375 17.765625 
Q 14.84375 16.015625 14.84375 14.84375 
Q 14.84375 12.890625 14.0625 11.71875 
Q 13.28125 10.15625 13.28125 8.984375 
Q 13.28125 6.640625 16.203125 5.078125 
Q 19.140625 3.515625 22.65625 3.515625 
Q 29.6875 3.515625 33.203125 7.609375 
Q 36.71875 11.71875 36.71875 20.3125 
Q 36.71875 27.34375 33 31.640625 
Q 29.296875 35.9375 19.140625 35.9375 
L 19.140625 38.671875 
Q 26.953125 38.671875 30.65625 42.375 
Q 34.375 46.09375 34.375 52.734375 
Q 34.375 58.203125 31.4375 62.296875 
Q 28.515625 66.40625 22.265625 66.40625 
Q 19.53125 66.40625 16.40625 65.03125 
Q 13.28125 63.671875 13.28125 60.546875 
Q 13.28125 57.421875 14.0625 56.640625 
Q 14.84375 55.859375 14.84375 54.6875 
Q 14.84375 52.734375 14.0625 51.5625 
Q 13.28125 50.390625 11.328125 50.390625 
Q 9.765625 50.390625 8.390625 51.5625 
Q 7.03125 52.734375 7.03125 55.859375 
Q 7.03125 61.71875 12.109375 65.421875 
Q 17.1875 69.140625 23.828125 69.140625 
Q 31.640625 69.140625 36.328125 64.25 
Q 41.015625 59.375 41.015625 53.90625 
Q 41.015625 48.046875 38.078125 43.9375 
Q 35.15625 39.84375 28.90625 37.890625 
Q 37.5 34.765625 40.625 29.6875 
Q 43.75 24.609375 43.75 19.53125 
z
" id="SimSun-51"/>
      </defs>
      <g transform="translate(356.383307 238.788438)scale(0.1 -0.1)">
       <use xlink:href="#SimSun-51"/>
       <use x="50" xlink:href="#SimSun-46"/>
       <use x="100" xlink:href="#SimSun-48"/>
      </g>
     </g>
    </g>
   </g>
   <g id="matplotlib.axis_2">
    <g id="ytick_1">
     <g id="line2d_8">
      <defs>
       <path d="M 0 0 
L -3.5 0 
" id="m6668dc78df" style="stroke:#000000;stroke-width:0.8;"/>
      </defs>
      <g>
       <use style="stroke:#000000;stroke-width:0.8;" x="44.2" xlink:href="#m6668dc78df" y="201.514802"/>
      </g>
     </g>
     <g id="text_8">
      <!-- −0.25 -->
      <defs>
       <path id="SimSun-8722"/>
      </defs>
      <g transform="translate(7.2 205.08902)scale(0.1 -0.1)">
       <use xlink:href="#SimSun-8722"/>
       <use x="100" xlink:href="#SimSun-48"/>
       <use x="150" xlink:href="#SimSun-46"/>
       <use x="200" xlink:href="#SimSun-50"/>
       <use x="250" xlink:href="#SimSun-53"/>
      </g>
     </g>
    </g>
    <g id="ytick_2">
     <g id="line2d_9">
      <g>
       <use style="stroke:#000000;stroke-width:0.8;" x="44.2" xlink:href="#m6668dc78df" y="172.983201"/>
      </g>
     </g>
     <g id="text_9">
      <!-- 0.00 -->
      <g transform="translate(17.2 176.55742)scale(0.1 -0.1)">
       <use xlink:href="#SimSun-48"/>
       <use x="50" xlink:href="#SimSun-46"/>
       <use x="100" xlink:href="#SimSun-48"/>
       <use x="150" xlink:href="#SimSun-48"/>
      </g>
     </g>
    </g>
    <g id="ytick_3">
     <g id="line2d_10">
      <g>
       <use style="stroke:#000000;stroke-width:0.8;" x="44.2" xlink:href="#m6668dc78df" y="144.451601"/>
      </g>
     </g>
     <g id="text_10">
      <!-- 0.25 -->
      <g transform="translate(17.2 148.025819)scale(0.1 -0.1)">
       <use xlink:href="#SimSun-48"/>
       <use x="50" xlink:href="#SimSun-46"/>
       <use x="100" xlink:href="#SimSun-50"/>
       <use x="150" xlink:href="#SimSun-53"/>
      </g>
     </g>
    </g>
    <g id="ytick_4">
     <g id="line2d_11">
      <g>
       <use style="stroke:#000000;stroke-width:0.8;" x="44.2" xlink:href="#m6668dc78df" y="115.92"/>
      </g>
     </g>
     <g id="text_11">
      <!-- 0.50 -->
      <g transform="translate(17.2 119.494219)scale(0.1 -0.1)">
       <use xlink:href="#SimSun-48"/>
       <use x="50" xlink:href="#SimSun-46"/>
       <use x="100" xlink:href="#SimSun-53"/>
       <use x="150" xlink:href="#SimSun-48"/>
      </g>
     </g>
    </g>
    <g id="ytick_5">
     <g id="line2d_12">
      <g>
       <use style="stroke:#000000;stroke-width:0.8;" x="44.2" xlink:href="#m6668dc78df" y="87.388399"/>
      </g>
     </g>
     <g id="text_12">
      <!-- 0.75 -->
      <defs>
       <path d="M 44.140625 65.625 
Q 35.9375 52.34375 31.046875 39.640625 
Q 26.171875 26.953125 26.171875 17.578125 
Q 26.171875 16.015625 26.5625 13.28125 
Q 26.5625 10.15625 26.5625 6.25 
Q 26.5625 3.125 25.578125 1.953125 
Q 24.609375 0.78125 22.265625 0.78125 
Q 20.3125 0.78125 18.9375 2.140625 
Q 17.578125 3.515625 17.578125 7.03125 
Q 17.578125 14.453125 20.890625 25.390625 
Q 24.21875 36.328125 38.671875 62.5 
L 19.140625 62.5 
Q 14.84375 62.5 12.296875 59.765625 
Q 9.765625 57.03125 8.59375 51.5625 
L 6.25 51.953125 
L 8.984375 68.359375 
L 44.140625 68.359375 
z
" id="SimSun-55"/>
      </defs>
      <g transform="translate(17.2 90.962618)scale(0.1 -0.1)">
       <use xlink:href="#SimSun-48"/>
       <use x="50" xlink:href="#SimSun-46"/>
       <use x="100" xlink:href="#SimSun-55"/>
       <use x="150" xlink:href="#SimSun-53"/>
      </g>
     </g>
    </g>
    <g id="ytick_6">
     <g id="line2d_13">
      <g>
       <use style="stroke:#000000;stroke-width:0.8;" x="44.2" xlink:href="#m6668dc78df" y="58.856799"/>
      </g>
     </g>
     <g id="text_13">
      <!-- 1.00 -->
      <g transform="translate(17.2 62.431018)scale(0.1 -0.1)">
       <use xlink:href="#SimSun-49"/>
       <use x="50" xlink:href="#SimSun-46"/>
       <use x="100" xlink:href="#SimSun-48"/>
       <use x="150" xlink:href="#SimSun-48"/>
      </g>
     </g>
    </g>
    <g id="ytick_7">
     <g id="line2d_14">
      <g>
       <use style="stroke:#000000;stroke-width:0.8;" x="44.2" xlink:href="#m6668dc78df" y="30.325198"/>
      </g>
     </g>
     <g id="text_14">
      <!-- 1.25 -->
      <g transform="translate(17.2 33.899417)scale(0.1 -0.1)">
       <use xlink:href="#SimSun-49"/>
       <use x="50" xlink:href="#SimSun-46"/>
       <use x="100" xlink:href="#SimSun-50"/>
       <use x="150" xlink:href="#SimSun-53"/>
      </g>
     </g>
    </g>
   </g>
   <g id="line2d_15">
    <path clip-path="url(#pc3b6b8febf)" d="M 59.418182 172.983201 
L 59.621159 168.017511 
L 60.230089 162.338781 
L 60.433066 161.314839 
L 61.143484 157.188357 
L 61.650926 154.934572 
L 62.158368 152.088049 
L 62.564321 149.945525 
L 62.66581 150.16589 
L 62.767298 150.108605 
L 63.376228 148.482473 
L 63.782182 146.873234 
L 64.188135 145.448227 
L 64.898554 142.390575 
L 65.710461 139.253702 
L 65.913438 139.576339 
L 66.217903 139.288814 
L 66.826833 138.100582 
L 67.63874 136.091898 
L 68.349159 134.294275 
L 68.958089 132.669201 
L 69.668508 130.284123 
L 72.104229 123.30896 
L 72.307205 124.057687 
L 72.611671 123.989856 
L 72.916136 123.833823 
L 73.322089 123.324796 
L 73.626554 123.062138 
L 74.235485 121.911503 
L 75.14888 120.609094 
L 75.250368 120.463598 
L 75.656322 119.367153 
L 78.497996 113.959408 
L 79.208415 112.08127 
L 80.730741 108.755711 
L 83.369438 103.241814 
L 84.790276 100.255064 
L 84.993252 101.159691 
L 85.297717 101.325709 
L 85.602183 101.403526 
L 85.906648 101.215602 
L 86.312601 101.177489 
L 86.820043 100.573364 
L 88.037904 99.554136 
L 88.545345 98.80083 
L 89.255764 97.965267 
L 90.067671 97.15498 
L 91.082555 96.089165 
L 91.589997 95.014943 
L 92.909346 93.030461 
L 96.664415 88.021257 
L 97.476322 86.944891 
L 97.780788 86.101504 
L 98.694183 84.385095 
L 99.709067 82.678772 
L 103.565625 76.47949 
L 104.681997 74.88806 
L 110.162369 66.501818 
L 110.365346 67.520572 
L 110.872788 68.087313 
L 111.786183 68.183283 
L 112.090648 67.973336 
L 113.308509 67.841858 
L 113.612974 67.397627 
L 114.120416 66.986686 
L 114.424881 66.852454 
L 115.642742 66.280511 
L 116.454649 65.873837 
L 116.860602 65.186262 
L 118.687393 63.506238 
L 122.239486 60.792305 
L 122.848416 60.324545 
L 123.152881 59.652348 
L 123.8633 58.707297 
L 125.893067 56.370985 
L 126.603486 55.718726 
L 128.125812 54.134535 
L 129.546649 52.775333 
L 133.098742 49.385962 
L 135.534463 47.014373 
L 135.838928 46.279515 
L 136.650835 45.042102 
L 137.767207 43.544139 
L 141.014835 39.480757 
L 142.537161 37.755695 
L 144.363952 35.655228 
L 151.062184 28.153101 
L 154.918743 23.835954 
L 160.906557 17.083636 
L 161.109533 26.786763 
L 161.718464 37.459466 
L 161.92144 39.279098 
L 162.631859 46.733176 
L 163.139301 50.670115 
L 163.545254 54.768307 
L 164.052696 59.621071 
L 164.255673 59.066658 
L 164.864603 61.634164 
L 165.270557 64.396135 
L 165.67651 66.789644 
L 166.285441 71.383834 
L 167.198836 77.466798 
L 167.401813 76.593271 
L 167.604789 76.532762 
L 167.909255 77.149817 
L 168.010743 77.288229 
L 168.416696 78.856234 
L 168.82265 79.92489 
L 169.228603 82.112021 
L 170.243487 85.977962 
L 170.446464 86.983755 
L 171.055394 90.419244 
L 172.070278 95.234143 
L 173.288138 100.76314 
L 173.592604 102.166319 
L 173.79558 100.440611 
L 173.998557 100.140985 
L 174.201534 100.182152 
L 174.303022 100.086626 
L 175.216418 101.297782 
L 175.622371 102.365182 
L 176.840232 104.904917 
L 177.347673 106.620394 
L 177.956604 108.285074 
L 178.667022 110.041248 
L 179.884883 113.088054 
L 180.392325 115.445364 
L 181.711674 119.957379 
L 185.466743 131.521394 
L 186.27865 134.00831 
L 186.481627 131.970803 
L 186.887581 131.088745 
L 187.090557 130.798375 
L 187.293534 130.873245 
L 187.496511 130.736327 
L 187.800976 130.451564 
L 188.20693 131.065274 
L 189.42479 131.328229 
L 189.729255 132.216693 
L 190.135209 132.874167 
L 190.439674 133.178354 
L 191.150092 133.940419 
L 191.860511 134.557203 
L 192.57093 135.264272 
L 192.976883 136.639422 
L 194.600697 139.643969 
L 195.818558 141.71322 
L 196.224511 142.197737 
L 198.355767 145.427337 
L 198.964697 146.362855 
L 199.269162 147.707251 
L 199.878093 149.352451 
L 202.110837 154.503803 
L 202.51679 155.163417 
L 205.561442 161.301409 
L 206.474837 162.940845 
L 208.301628 166.405845 
L 211.549256 172.785541 
L 211.650744 172.983201 
L 211.853721 170.717441 
L 212.361163 169.013327 
L 213.17307 167.714559 
L 213.274558 167.794249 
L 213.477535 167.872518 
L 213.680512 167.781545 
L 214.289442 167.230033 
L 214.796884 166.765202 
L 214.999861 167.247942 
L 215.608791 167.562537 
L 215.811768 167.474063 
L 216.420698 167.517871 
L 216.826651 167.331985 
L 217.943023 167.163326 
L 218.348977 168.081971 
L 219.668326 169.14688 
L 220.175768 169.387743 
L 220.987675 169.895546 
L 221.190651 169.96023 
L 221.596605 169.988241 
L 223.017442 170.522867 
L 224.336791 171.071946 
L 224.641256 172.073962 
L 225.148698 172.934602 
L 225.554652 173.452505 
L 226.062093 174.050128 
L 226.874 174.954803 
L 227.584419 175.685106 
L 227.990373 175.976589 
L 229.309721 177.212256 
L 230.730559 178.514918 
L 231.136512 178.709045 
L 232.557349 179.752925 
L 237.022838 183.426492 
L 237.327303 184.553827 
L 237.936233 185.764908 
L 239.966001 189.000898 
L 240.371954 189.468165 
L 241.792792 191.307013 
L 243.11214 193.168515 
L 243.518094 193.570466 
L 244.431489 194.534292 
L 246.86721 197.478303 
L 249.708885 201.002683 
L 249.911862 201.062263 
L 251.028234 202.097681 
L 252.652048 203.792489 
L 254.37735 205.724165 
L 257.320513 209.044303 
L 261.88749 214.185716 
L 262.394932 214.756364 
L 262.597908 210.018927 
L 263.10535 205.565326 
L 264.018746 200.997873 
L 264.120234 200.901668 
L 264.526188 199.56869 
L 264.932141 197.841726 
L 265.541071 195.256606 
L 265.744048 195.647938 
L 266.352978 194.706565 
L 266.758932 193.553832 
L 267.164885 192.58533 
L 267.672327 190.931638 
L 268.687211 188.102701 
L 268.890188 188.653591 
L 269.194653 188.708445 
L 269.600606 188.444009 
L 270.00656 188.03804 
L 270.311025 187.786667 
L 270.61549 187.109299 
L 271.122932 186.343589 
L 271.731862 185.559016 
L 271.934839 185.170245 
L 272.442281 184.005823 
L 273.457165 182.100263 
L 274.269072 180.776164 
L 275.080979 179.347923 
L 275.283955 180.324903 
L 275.689909 180.682385 
L 275.892886 180.785797 
L 276.197351 180.706403 
L 276.603304 180.812997 
L 277.110746 180.389755 
L 278.328607 179.804646 
L 278.73456 179.329618 
L 279.749444 178.480811 
L 281.373258 177.424974 
L 281.779211 176.653852 
L 283.70749 174.495418 
L 285.229816 173.02342 
L 286.85363 171.44698 
L 287.767025 170.559827 
L 287.970002 171.692707 
L 288.477444 172.544764 
L 289.390839 173.154303 
L 289.695304 173.115546 
L 290.913165 173.668827 
L 291.21763 173.395785 
L 291.623584 173.2953 
L 292.029537 173.307117 
L 293.044421 173.394316 
L 294.059305 173.469765 
L 294.465258 173.010442 
L 296.089072 172.42118 
L 297.306933 172.071313 
L 297.915863 172.030303 
L 299.235212 171.765763 
L 300.453072 171.515455 
L 300.757537 171.014446 
L 301.366468 170.534226 
L 303.599212 169.21394 
L 304.005165 169.112386 
L 307.049817 167.755286 
L 308.0647 167.416129 
L 310.094468 166.607717 
L 313.139119 165.338182 
L 313.342096 166.585188 
L 313.849538 167.722561 
L 314.762933 168.845669 
L 315.067398 168.978101 
L 316.285259 170.216141 
L 316.488235 170.088897 
L 317.198654 170.369261 
L 319.431398 171.786038 
L 319.735863 171.589331 
L 320.141817 171.558189 
L 320.54777 171.63551 
L 322.070096 172.02881 
L 322.882003 172.333793 
L 324.099864 172.828316 
L 325.825166 173.426709 
L 326.028143 173.142542 
L 326.637073 172.951887 
L 327.144515 172.900258 
L 327.651957 172.916491 
L 328.66684 172.902175 
L 329.275771 172.996396 
L 330.189166 173.107693 
L 332.015957 173.240352 
L 332.42191 173.375649 
L 333.436794 173.607124 
L 335.365073 173.932897 
L 336.988887 174.149996 
L 338.511213 174.382337 
L 338.71419 174.056396 
L 339.32312 173.740422 
L 339.93205 173.546279 
L 340.338004 173.49616 
L 341.352887 173.272978 
L 341.961818 173.241879 
L 342.875213 173.165197 
L 344.702004 172.921898 
L 345.107957 172.973648 
L 346.122841 172.996257 
L 348.05112 172.925185 
L 349.674934 172.808099 
L 351.501725 172.827807 
L 352.821074 172.93741 
L 356.068702 172.998213 
L 359.113353 172.980704 
L 363.477353 172.98325 
L 363.781818 172.983203 
L 363.781818 172.983203 
" style="fill:none;stroke:#1f77b4;stroke-linecap:square;stroke-width:1.5;"/>
   </g>
   <g id="patch_3">
    <path d="M 44.2 224.64 
L 44.2 7.2 
" style="fill:none;stroke:#000000;stroke-linecap:square;stroke-linejoin:miter;stroke-width:0.8;"/>
   </g>
   <g id="patch_4">
    <path d="M 379 224.64 
L 379 7.2 
" style="fill:none;stroke:#000000;stroke-linecap:square;stroke-linejoin:miter;stroke-width:0.8;"/>
   </g>
   <g id="patch_5">
    <path d="M 44.2 224.64 
L 379 224.64 
" style="fill:none;stroke:#000000;stroke-linecap:square;stroke-linejoin:miter;stroke-width:0.8;"/>
   </g>
   <g id="patch_6">
    <path d="M 44.2 7.2 
L 379 7.2 
" style="fill:none;stroke:#000000;stroke-linecap:square;stroke-linejoin:miter;stroke-width:0.8;"/>
   </g>
  </g>
 </g>
 <defs>
  <clipPath id="pc3b6b8febf">
   <rect height="217.44" width="334.8" x="44.2" y="7.2"/>
  </clipPath>
 </defs>
</svg>
