<?xml version="1.0" encoding="utf-8" standalone="no"?>
<!DOCTYPE svg PUBLIC "-//W3C//DTD SVG 1.1//EN"
  "http://www.w3.org/Graphics/SVG/1.1/DTD/svg11.dtd">
<!-- Created with matplotlib (https://matplotlib.org/) -->
<svg height="249.51633pt" version="1.1" viewBox="0 0 381.2 249.51633" width="381.2pt" xmlns="http://www.w3.org/2000/svg" xmlns:xlink="http://www.w3.org/1999/xlink">
 <defs>
  <style type="text/css">
*{stroke-linecap:butt;stroke-linejoin:round;}
  </style>
 </defs>
 <g id="figure_1">
  <g id="patch_1">
   <path d="M 0 249.51633 
L 381.2 249.51633 
L 381.2 0 
L 0 0 
z
" style="fill:none;"/>
  </g>
  <g id="axes_1">
   <g id="patch_2">
    <path d="M 39.2 226.87883 
L 374 226.87883 
L 374 9.43883 
L 39.2 9.43883 
z
" style="fill:#ffffff;"/>
   </g>
   <g id="matplotlib.axis_1">
    <g id="xtick_1">
     <g id="line2d_1">
      <defs>
       <path d="M 0 0 
L 0 3.5 
" id="m310f32bb8e" style="stroke:#000000;stroke-width:0.8;"/>
      </defs>
      <g>
       <use style="stroke:#000000;stroke-width:0.8;" x="54.418182" xlink:href="#m310f32bb8e" y="226.87883"/>
      </g>
     </g>
     <g id="text_1">
      <!-- 0.0 -->
      <defs>
       <path d="M 25 66.015625 
Q 19.53125 66.015625 15.8125 57.609375 
Q 12.109375 49.21875 12.109375 35.15625 
Q 12.109375 20.3125 15.8125 12.109375 
Q 19.53125 3.90625 25 3.90625 
Q 30.859375 3.90625 34.171875 12.109375 
Q 37.5 20.3125 37.5 35.15625 
Q 37.5 49.21875 34.375 57.609375 
Q 31.25 66.015625 25 66.015625 
z
M 25 0.78125 
Q 16.40625 0.78125 10.546875 9.765625 
Q 4.6875 18.75 4.6875 35.15625 
Q 4.6875 50.390625 10.34375 59.765625 
Q 16.015625 69.140625 25 69.140625 
Q 33.59375 69.140625 39.25 60.15625 
Q 44.921875 51.171875 44.921875 35.15625 
Q 44.921875 19.140625 39.25 9.953125 
Q 33.59375 0.78125 25 0.78125 
z
" id="SimSun-48"/>
       <path d="M 12.5 0.390625 
Q 10.15625 0.390625 8.390625 1.953125 
Q 6.640625 3.515625 6.640625 6.25 
Q 6.640625 8.984375 8.390625 10.546875 
Q 10.15625 12.109375 12.5 12.109375 
Q 14.84375 12.109375 16.59375 10.34375 
Q 18.359375 8.59375 18.359375 6.25 
Q 18.359375 3.515625 16.59375 1.953125 
Q 14.84375 0.390625 12.5 0.390625 
z
" id="SimSun-46"/>
      </defs>
      <g transform="translate(46.918182 241.027268)scale(0.1 -0.1)">
       <use xlink:href="#SimSun-48"/>
       <use x="50" xlink:href="#SimSun-46"/>
       <use x="100" xlink:href="#SimSun-48"/>
      </g>
     </g>
    </g>
    <g id="xtick_2">
     <g id="line2d_2">
      <g>
       <use style="stroke:#000000;stroke-width:0.8;" x="105.162369" xlink:href="#m310f32bb8e" y="226.87883"/>
      </g>
     </g>
     <g id="text_2">
      <!-- 0.5 -->
      <defs>
       <path d="M 26.953125 44.53125 
Q 34.375 44.53125 39.0625 38.859375 
Q 43.75 33.203125 43.75 23.828125 
Q 43.75 13.28125 38.859375 7.03125 
Q 33.984375 0.78125 23.828125 0.78125 
Q 16.796875 0.78125 11.328125 4.875 
Q 5.859375 8.984375 5.859375 14.84375 
Q 5.859375 17.1875 7.21875 18.9375 
Q 8.59375 20.703125 10.9375 20.703125 
Q 13.28125 20.703125 14.0625 19.140625 
Q 14.84375 17.578125 14.84375 16.40625 
Q 14.84375 14.0625 13.671875 12.890625 
Q 12.5 11.328125 12.5 9.765625 
Q 12.5 6.640625 16.203125 5.078125 
Q 19.921875 3.515625 24.21875 3.515625 
Q 30.46875 3.515625 33.78125 8.59375 
Q 37.109375 13.671875 37.109375 23.046875 
Q 37.109375 30.859375 34.171875 35.734375 
Q 31.25 40.625 25.390625 40.625 
Q 21.09375 40.625 17.96875 39.0625 
Q 14.84375 37.5 12.109375 32.421875 
L 8.59375 32.8125 
L 10.546875 68.359375 
L 42.578125 68.359375 
L 41.40625 62.5 
L 13.28125 62.5 
L 11.71875 36.71875 
Q 15.625 42.1875 19.328125 43.359375 
Q 23.046875 44.53125 26.953125 44.53125 
z
" id="SimSun-53"/>
      </defs>
      <g transform="translate(97.662369 241.027268)scale(0.1 -0.1)">
       <use xlink:href="#SimSun-48"/>
       <use x="50" xlink:href="#SimSun-46"/>
       <use x="100" xlink:href="#SimSun-53"/>
      </g>
     </g>
    </g>
    <g id="xtick_3">
     <g id="line2d_3">
      <g>
       <use style="stroke:#000000;stroke-width:0.8;" x="155.906557" xlink:href="#m310f32bb8e" y="226.87883"/>
      </g>
     </g>
     <g id="text_3">
      <!-- 1.0 -->
      <defs>
       <path d="M 28.515625 69.53125 
L 28.515625 10.15625 
Q 28.515625 7.03125 30.46875 5.46875 
Q 32.421875 3.90625 35.9375 3.90625 
L 39.84375 3.90625 
L 39.84375 1.5625 
L 11.328125 1.5625 
L 11.328125 3.90625 
L 14.84375 3.90625 
Q 18.75 3.90625 20.5 5.46875 
Q 22.265625 7.03125 22.265625 10.15625 
L 22.265625 57.421875 
Q 22.265625 58.984375 21.28125 59.953125 
Q 20.3125 60.9375 18.359375 60.9375 
L 11.328125 60.9375 
L 11.328125 63.28125 
L 14.84375 63.28125 
Q 19.53125 63.28125 22.453125 64.84375 
Q 25.390625 66.40625 26.953125 69.53125 
z
" id="SimSun-49"/>
      </defs>
      <g transform="translate(148.406557 241.027268)scale(0.1 -0.1)">
       <use xlink:href="#SimSun-49"/>
       <use x="50" xlink:href="#SimSun-46"/>
       <use x="100" xlink:href="#SimSun-48"/>
      </g>
     </g>
    </g>
    <g id="xtick_4">
     <g id="line2d_4">
      <g>
       <use style="stroke:#000000;stroke-width:0.8;" x="206.650744" xlink:href="#m310f32bb8e" y="226.87883"/>
      </g>
     </g>
     <g id="text_4">
      <!-- 1.5 -->
      <g transform="translate(199.150744 241.027268)scale(0.1 -0.1)">
       <use xlink:href="#SimSun-49"/>
       <use x="50" xlink:href="#SimSun-46"/>
       <use x="100" xlink:href="#SimSun-53"/>
      </g>
     </g>
    </g>
    <g id="xtick_5">
     <g id="line2d_5">
      <g>
       <use style="stroke:#000000;stroke-width:0.8;" x="257.394932" xlink:href="#m310f32bb8e" y="226.87883"/>
      </g>
     </g>
     <g id="text_5">
      <!-- 2.0 -->
      <defs>
       <path d="M 36.328125 51.953125 
Q 36.328125 58.984375 33.203125 62.6875 
Q 30.078125 66.40625 23.828125 66.40625 
Q 19.140625 66.40625 15.8125 63.859375 
Q 12.5 61.328125 12.5 57.421875 
Q 12.5 55.078125 14.0625 53.515625 
Q 15.234375 51.953125 15.234375 50.390625 
Q 15.234375 48.4375 14.25 47.453125 
Q 13.28125 46.484375 11.328125 46.484375 
Q 8.984375 46.484375 7.609375 47.84375 
Q 6.25 49.21875 6.25 52.34375 
Q 6.25 60.546875 12.109375 64.84375 
Q 17.96875 69.140625 24.609375 69.140625 
Q 33.984375 69.140625 38.46875 64.453125 
Q 42.96875 59.765625 42.96875 52.734375 
Q 42.96875 48.046875 40.8125 43.359375 
Q 38.671875 38.671875 33.984375 34.375 
Q 22.65625 23.4375 16.59375 16.59375 
Q 10.546875 9.765625 9.375 7.421875 
L 32.421875 7.421875 
Q 35.9375 7.421875 38.28125 10.15625 
Q 40.625 12.890625 41.40625 18.359375 
L 43.75 18.359375 
L 41.40625 1.5625 
L 5.078125 1.5625 
L 5.078125 6.640625 
Q 7.03125 10.15625 11.515625 15.625 
Q 16.015625 21.09375 23.4375 28.515625 
Q 30.078125 35.15625 33.203125 41.015625 
Q 36.328125 46.875 36.328125 51.953125 
z
" id="SimSun-50"/>
      </defs>
      <g transform="translate(249.894932 241.027268)scale(0.1 -0.1)">
       <use xlink:href="#SimSun-50"/>
       <use x="50" xlink:href="#SimSun-46"/>
       <use x="100" xlink:href="#SimSun-48"/>
      </g>
     </g>
    </g>
    <g id="xtick_6">
     <g id="line2d_6">
      <g>
       <use style="stroke:#000000;stroke-width:0.8;" x="308.139119" xlink:href="#m310f32bb8e" y="226.87883"/>
      </g>
     </g>
     <g id="text_6">
      <!-- 2.5 -->
      <g transform="translate(300.639119 241.027268)scale(0.1 -0.1)">
       <use xlink:href="#SimSun-50"/>
       <use x="50" xlink:href="#SimSun-46"/>
       <use x="100" xlink:href="#SimSun-53"/>
      </g>
     </g>
    </g>
    <g id="xtick_7">
     <g id="line2d_7">
      <g>
       <use style="stroke:#000000;stroke-width:0.8;" x="358.883307" xlink:href="#m310f32bb8e" y="226.87883"/>
      </g>
     </g>
     <g id="text_7">
      <!-- 3.0 -->
      <defs>
       <path d="M 43.75 19.53125 
Q 43.75 12.109375 38.28125 6.4375 
Q 32.8125 0.78125 23.046875 0.78125 
Q 16.015625 0.78125 10.9375 4.6875 
Q 5.859375 8.59375 5.859375 13.671875 
Q 5.859375 16.015625 7.421875 17.765625 
Q 8.984375 19.53125 10.546875 19.53125 
Q 12.890625 19.53125 13.859375 17.765625 
Q 14.84375 16.015625 14.84375 14.84375 
Q 14.84375 12.890625 14.0625 11.71875 
Q 13.28125 10.15625 13.28125 8.984375 
Q 13.28125 6.640625 16.203125 5.078125 
Q 19.140625 3.515625 22.65625 3.515625 
Q 29.6875 3.515625 33.203125 7.609375 
Q 36.71875 11.71875 36.71875 20.3125 
Q 36.71875 27.34375 33 31.640625 
Q 29.296875 35.9375 19.140625 35.9375 
L 19.140625 38.671875 
Q 26.953125 38.671875 30.65625 42.375 
Q 34.375 46.09375 34.375 52.734375 
Q 34.375 58.203125 31.4375 62.296875 
Q 28.515625 66.40625 22.265625 66.40625 
Q 19.53125 66.40625 16.40625 65.03125 
Q 13.28125 63.671875 13.28125 60.546875 
Q 13.28125 57.421875 14.0625 56.640625 
Q 14.84375 55.859375 14.84375 54.6875 
Q 14.84375 52.734375 14.0625 51.5625 
Q 13.28125 50.390625 11.328125 50.390625 
Q 9.765625 50.390625 8.390625 51.5625 
Q 7.03125 52.734375 7.03125 55.859375 
Q 7.03125 61.71875 12.109375 65.421875 
Q 17.1875 69.140625 23.828125 69.140625 
Q 31.640625 69.140625 36.328125 64.25 
Q 41.015625 59.375 41.015625 53.90625 
Q 41.015625 48.046875 38.078125 43.9375 
Q 35.15625 39.84375 28.90625 37.890625 
Q 37.5 34.765625 40.625 29.6875 
Q 43.75 24.609375 43.75 19.53125 
z
" id="SimSun-51"/>
      </defs>
      <g transform="translate(351.383307 241.027268)scale(0.1 -0.1)">
       <use xlink:href="#SimSun-51"/>
       <use x="50" xlink:href="#SimSun-46"/>
       <use x="100" xlink:href="#SimSun-48"/>
      </g>
     </g>
    </g>
   </g>
   <g id="matplotlib.axis_2">
    <g id="ytick_1">
     <g id="line2d_8">
      <defs>
       <path d="M 0 0 
L -3.5 0 
" id="ma583e0e68e" style="stroke:#000000;stroke-width:0.8;"/>
      </defs>
      <g>
       <use style="stroke:#000000;stroke-width:0.8;" x="39.2" xlink:href="#ma583e0e68e" y="202.189194"/>
      </g>
     </g>
     <g id="text_8">
      <!-- −1.5 -->
      <defs>
       <path id="SimSun-8722"/>
      </defs>
      <g transform="translate(7.2 205.763413)scale(0.1 -0.1)">
       <use xlink:href="#SimSun-8722"/>
       <use x="100" xlink:href="#SimSun-49"/>
       <use x="150" xlink:href="#SimSun-46"/>
       <use x="200" xlink:href="#SimSun-53"/>
      </g>
     </g>
    </g>
    <g id="ytick_2">
     <g id="line2d_9">
      <g>
       <use style="stroke:#000000;stroke-width:0.8;" x="39.2" xlink:href="#ma583e0e68e" y="170.286698"/>
      </g>
     </g>
     <g id="text_9">
      <!-- −1.0 -->
      <g transform="translate(7.2 173.860917)scale(0.1 -0.1)">
       <use xlink:href="#SimSun-8722"/>
       <use x="100" xlink:href="#SimSun-49"/>
       <use x="150" xlink:href="#SimSun-46"/>
       <use x="200" xlink:href="#SimSun-48"/>
      </g>
     </g>
    </g>
    <g id="ytick_3">
     <g id="line2d_10">
      <g>
       <use style="stroke:#000000;stroke-width:0.8;" x="39.2" xlink:href="#ma583e0e68e" y="138.384202"/>
      </g>
     </g>
     <g id="text_10">
      <!-- −0.5 -->
      <g transform="translate(7.2 141.958421)scale(0.1 -0.1)">
       <use xlink:href="#SimSun-8722"/>
       <use x="100" xlink:href="#SimSun-48"/>
       <use x="150" xlink:href="#SimSun-46"/>
       <use x="200" xlink:href="#SimSun-53"/>
      </g>
     </g>
    </g>
    <g id="ytick_4">
     <g id="line2d_11">
      <g>
       <use style="stroke:#000000;stroke-width:0.8;" x="39.2" xlink:href="#ma583e0e68e" y="106.481706"/>
      </g>
     </g>
     <g id="text_11">
      <!-- 0.0 -->
      <g transform="translate(17.2 110.055925)scale(0.1 -0.1)">
       <use xlink:href="#SimSun-48"/>
       <use x="50" xlink:href="#SimSun-46"/>
       <use x="100" xlink:href="#SimSun-48"/>
      </g>
     </g>
    </g>
    <g id="ytick_5">
     <g id="line2d_12">
      <g>
       <use style="stroke:#000000;stroke-width:0.8;" x="39.2" xlink:href="#ma583e0e68e" y="74.579211"/>
      </g>
     </g>
     <g id="text_12">
      <!-- 0.5 -->
      <g transform="translate(17.2 78.153429)scale(0.1 -0.1)">
       <use xlink:href="#SimSun-48"/>
       <use x="50" xlink:href="#SimSun-46"/>
       <use x="100" xlink:href="#SimSun-53"/>
      </g>
     </g>
    </g>
    <g id="ytick_6">
     <g id="line2d_13">
      <g>
       <use style="stroke:#000000;stroke-width:0.8;" x="39.2" xlink:href="#ma583e0e68e" y="42.676715"/>
      </g>
     </g>
     <g id="text_13">
      <!-- 1.0 -->
      <g transform="translate(17.2 46.250933)scale(0.1 -0.1)">
       <use xlink:href="#SimSun-49"/>
       <use x="50" xlink:href="#SimSun-46"/>
       <use x="100" xlink:href="#SimSun-48"/>
      </g>
     </g>
    </g>
    <g id="ytick_7">
     <g id="line2d_14">
      <g>
       <use style="stroke:#000000;stroke-width:0.8;" x="39.2" xlink:href="#ma583e0e68e" y="10.774219"/>
      </g>
     </g>
     <g id="text_14">
      <!-- 1.5 -->
      <g transform="translate(17.2 14.348437)scale(0.1 -0.1)">
       <use xlink:href="#SimSun-49"/>
       <use x="50" xlink:href="#SimSun-46"/>
       <use x="100" xlink:href="#SimSun-53"/>
      </g>
     </g>
    </g>
   </g>
   <g id="line2d_15">
    <path clip-path="url(#pcfa289a52c)" d="M 54.418182 106.481706 
L 54.621159 105.73783 
L 55.230089 104.887139 
L 55.636042 104.521157 
L 56.041996 104.147097 
L 56.447949 103.922519 
L 57.767298 103.05502 
L 58.782182 102.570351 
L 59.695577 102.023669 
L 60.811949 101.462383 
L 61.217903 101.434181 
L 62.435763 101.044032 
L 63.755112 100.534974 
L 64.769996 100.042858 
L 67.104229 99.040348 
L 67.307205 99.15251 
L 68.119112 99.072916 
L 70.250368 98.614104 
L 70.960787 98.356733 
L 79.790276 95.586801 
L 79.993252 95.722317 
L 80.805159 95.73614 
L 82.936415 95.522548 
L 83.646834 95.346917 
L 85.981066 94.978684 
L 86.792973 94.749091 
L 89.127206 94.245194 
L 95.11502 92.848422 
L 99.377532 91.853417 
L 105.365346 90.683071 
L 106.177253 90.76528 
L 108.308509 90.731201 
L 109.018928 90.615408 
L 111.35316 90.443784 
L 112.165067 90.282577 
L 114.397811 89.988511 
L 120.385626 89.100545 
L 124.851114 88.433997 
L 130.534463 87.611178 
L 131.143393 87.4262 
L 133.376138 86.96629 
L 137.943114 86.155164 
L 155.906557 83.127459 
L 156.109533 89.734742 
L 156.718464 97.227313 
L 156.92144 98.562615 
L 157.631859 103.961997 
L 158.139301 106.890892 
L 158.646743 110.612557 
L 159.052696 113.409739 
L 159.154185 113.09791 
L 159.255673 113.157431 
L 159.864603 115.22976 
L 160.270557 117.313688 
L 160.67651 119.15121 
L 161.285441 122.578857 
L 162.198836 127.179773 
L 162.401813 126.714062 
L 162.604789 126.792045 
L 163.924138 130.325498 
L 164.634557 132.785606 
L 165.344976 134.967488 
L 166.359859 139.240337 
L 168.592604 147.428357 
L 168.79558 146.392761 
L 168.998557 146.310839 
L 169.201534 146.456816 
L 169.303022 146.452159 
L 170.216418 147.795119 
L 170.723859 148.938392 
L 171.535766 150.350563 
L 171.738743 150.703961 
L 172.144697 152.10204 
L 174.884883 158.404008 
L 175.392325 160.276548 
L 176.813162 164.33873 
L 181.27865 176.12526 
L 181.481627 174.881153 
L 181.786092 174.607819 
L 182.090557 174.452452 
L 182.395023 174.652505 
L 182.800976 174.635094 
L 183.308418 175.357613 
L 184.323302 176.095691 
L 184.42479 176.168936 
L 184.729255 176.940756 
L 185.236697 177.786499 
L 185.541162 178.143703 
L 186.961999 179.882407 
L 187.57093 180.637056 
L 188.078372 181.988316 
L 189.296232 184.267788 
L 190.209627 185.820844 
L 191.224511 187.405781 
L 193.964697 191.790196 
L 194.269162 192.866914 
L 195.081069 194.772231 
L 196.29893 197.32853 
L 197.415302 199.569139 
L 198.734651 202.117824 
L 200.358465 205.306887 
L 201.27186 206.890463 
L 204.620977 213.168066 
L 206.650744 216.995194 
L 206.853721 203.696429 
L 207.462651 189.198735 
L 207.665628 186.760374 
L 208.376047 176.730892 
L 208.782 172.566121 
L 209.289442 165.96933 
L 209.796884 159.455066 
L 209.999861 160.287218 
L 210.608791 156.955347 
L 211.014744 153.287192 
L 211.420698 150.126636 
L 212.029628 144.00278 
L 212.943023 135.930548 
L 213.146 137.202316 
L 213.348977 137.35406 
L 213.653442 136.606576 
L 213.75493 136.450091 
L 214.160884 134.42676 
L 214.566837 133.091338 
L 214.972791 130.215089 
L 215.987675 125.231251 
L 216.190651 123.914042 
L 216.698093 120.090653 
L 217.814465 113.095291 
L 218.930838 106.491756 
L 219.336791 104.058332 
L 219.539768 106.504075 
L 219.742745 106.98523 
L 219.844233 106.891429 
L 220.04721 107.162694 
L 220.148698 107.03577 
L 220.453163 106.447935 
L 220.859117 106.249508 
L 221.366559 104.468235 
L 222.279954 102.5682 
L 222.482931 102.152582 
L 222.888884 99.897292 
L 223.903768 96.363098 
L 224.512698 94.61581 
L 225.62907 91.132377 
L 226.136512 88.055882 
L 227.354373 82.657238 
L 228.267768 78.930744 
L 229.38414 74.700132 
L 231.210931 67.618988 
L 232.022838 64.466525 
L 232.225815 67.341806 
L 232.733257 69.074271 
L 232.834745 69.162115 
L 232.936233 69.065116 
L 233.13921 69.218588 
L 233.545164 69.879238 
L 233.951117 69.170555 
L 234.255582 69.093514 
L 234.357071 69.045344 
L 234.661536 69.193409 
L 235.168978 69.21862 
L 235.473443 68.097241 
L 235.777908 67.542137 
L 236.082373 67.118244 
L 236.589815 66.435906 
L 236.89428 66.201316 
L 237.401722 65.789817 
L 238.213629 64.958162 
L 238.315117 64.856261 
L 238.721071 63.098608 
L 240.243396 59.678932 
L 240.852327 58.455473 
L 241.664234 56.970134 
L 242.374652 55.87324 
L 244.708885 51.72087 
L 245.01335 49.971393 
L 245.62228 47.910102 
L 247.855024 41.565779 
L 248.15949 41.006725 
L 248.869908 39.292009 
L 252.117536 31.638455 
L 254.756234 25.525835 
L 257.394932 19.322467 
L 257.597908 29.207076 
L 258.10535 38.499465 
L 259.018746 48.029405 
L 259.120234 48.230135 
L 259.526188 51.011379 
L 259.932141 54.614671 
L 260.541071 60.008495 
L 260.744048 59.191984 
L 261.352978 61.15615 
L 261.758932 63.561314 
L 262.164885 65.582082 
L 262.672327 69.032491 
L 263.687211 74.935037 
L 263.890188 73.785612 
L 264.093164 73.484362 
L 264.296141 73.77384 
L 264.499118 73.796252 
L 264.803583 74.72165 
L 265.209537 75.419579 
L 265.311025 75.59444 
L 265.61549 77.007761 
L 266.122932 78.605405 
L 266.630374 79.953778 
L 266.934839 81.053575 
L 267.442281 83.483127 
L 268.457165 87.459058 
L 269.167583 89.863532 
L 270.080979 93.201786 
L 270.283955 91.163327 
L 270.58842 90.590487 
L 270.892886 90.201676 
L 271.095862 90.366943 
L 271.298839 90.311263 
L 271.603304 90.144925 
L 272.009258 90.959493 
L 273.227118 91.756775 
L 273.531583 92.814398 
L 274.039025 93.889721 
L 274.242002 94.122704 
L 275.053909 95.338532 
L 275.967304 96.630654 
L 276.373258 97.213998 
L 276.779211 98.822934 
L 278.606002 103.112718 
L 281.041723 107.997638 
L 282.767025 111.538049 
L 282.970002 109.174308 
L 283.477444 107.3965 
L 284.289351 106.041568 
L 284.390839 106.124704 
L 284.593816 106.206358 
L 284.796793 106.111451 
L 285.405723 105.536089 
L 285.913165 105.051156 
L 286.116142 105.554772 
L 286.725072 105.882971 
L 286.928049 105.790672 
L 287.536979 105.836374 
L 287.942932 105.64245 
L 289.059305 105.466497 
L 289.465258 106.424868 
L 290.784607 107.535829 
L 291.19056 107.73078 
L 292.509909 108.371712 
L 293.11884 108.542481 
L 295.453072 109.544143 
L 295.757537 110.589491 
L 296.264979 111.487348 
L 296.670933 112.027649 
L 297.178375 112.651115 
L 297.990282 113.594913 
L 298.7007 114.356797 
L 299.106654 114.660885 
L 300.426003 115.949987 
L 301.745351 117.298866 
L 302.151305 117.437416 
L 304.790003 119.500201 
L 306.109352 120.691597 
L 308.139119 122.432954 
L 308.342096 119.83109 
L 308.849538 117.457973 
L 309.762933 115.114621 
L 309.96591 114.958151 
L 310.270375 114.432375 
L 310.676328 113.560293 
L 311.285259 112.255148 
L 311.488235 112.52064 
L 312.097166 112.134469 
L 312.503119 111.583424 
L 312.909073 111.135378 
L 313.416515 110.327614 
L 314.431398 108.979574 
L 314.735863 109.390001 
L 314.93884 109.435001 
L 315.446282 109.322469 
L 316.156701 109.024857 
L 316.765631 108.612889 
L 317.780515 107.948036 
L 318.592422 107.218699 
L 320.825166 105.556331 
L 321.028143 106.149243 
L 321.535585 106.524479 
L 322.550468 106.639253 
L 323.260887 106.615205 
L 323.971306 106.667503 
L 324.275771 106.454176 
L 324.783213 106.282816 
L 325.290654 106.193671 
L 326.305538 106.063169 
L 327.218934 105.820281 
L 327.726375 105.495542 
L 328.639771 105.08823 
L 329.654655 104.748891 
L 330.974003 104.355898 
L 333.308236 103.62616 
L 333.511213 103.562425 
L 333.71419 104.242497 
L 334.32312 104.901773 
L 334.627585 105.058188 
L 335.135027 105.386595 
L 335.54098 105.483563 
L 336.860329 105.93633 
L 337.875213 106.101974 
L 338.68712 106.333213 
L 339.90498 106.571892 
L 340.310934 106.472484 
L 341.528794 106.479803 
L 342.746655 106.568212 
L 343.761539 106.73673 
L 346.298748 106.89151 
L 346.907678 106.69672 
L 349.343399 106.453239 
L 350.053818 106.487292 
L 352.286562 106.394603 
L 353.199958 106.458132 
L 355.432702 106.495302 
L 358.781818 106.481703 
L 358.781818 106.481703 
" style="fill:none;stroke:#1f77b4;stroke-linecap:square;stroke-width:1.5;"/>
   </g>
   <g id="patch_3">
    <path d="M 39.2 226.87883 
L 39.2 9.43883 
" style="fill:none;stroke:#000000;stroke-linecap:square;stroke-linejoin:miter;stroke-width:0.8;"/>
   </g>
   <g id="patch_4">
    <path d="M 374 226.87883 
L 374 9.43883 
" style="fill:none;stroke:#000000;stroke-linecap:square;stroke-linejoin:miter;stroke-width:0.8;"/>
   </g>
   <g id="patch_5">
    <path d="M 39.2 226.87883 
L 374 226.87883 
" style="fill:none;stroke:#000000;stroke-linecap:square;stroke-linejoin:miter;stroke-width:0.8;"/>
   </g>
   <g id="patch_6">
    <path d="M 39.2 9.43883 
L 374 9.43883 
" style="fill:none;stroke:#000000;stroke-linecap:square;stroke-linejoin:miter;stroke-width:0.8;"/>
   </g>
  </g>
 </g>
 <defs>
  <clipPath id="pcfa289a52c">
   <rect height="217.44" width="334.8" x="39.2" y="9.43883"/>
  </clipPath>
 </defs>
</svg>
