<?xml version="1.0" encoding="utf-8" standalone="no"?>
<!DOCTYPE svg PUBLIC "-//W3C//DTD SVG 1.1//EN"
  "http://www.w3.org/Graphics/SVG/1.1/DTD/svg11.dtd">
<svg xmlns:xlink="http://www.w3.org/1999/xlink" width="371.2pt" height="262.715pt" viewBox="0 0 371.2 262.715" xmlns="http://www.w3.org/2000/svg" version="1.1">
 <metadata>
  <rdf:RDF xmlns:dc="http://purl.org/dc/elements/1.1/" xmlns:cc="http://creativecommons.org/ns#" xmlns:rdf="http://www.w3.org/1999/02/22-rdf-syntax-ns#">
   <cc:Work>
    <dc:type rdf:resource="http://purl.org/dc/dcmitype/StillImage"/>
    <dc:date>2023-07-07T18:04:57.495543</dc:date>
    <dc:format>image/svg+xml</dc:format>
    <dc:creator>
     <cc:Agent>
      <dc:title>Matplotlib v3.6.1, https://matplotlib.org/</dc:title>
     </cc:Agent>
    </dc:creator>
   </cc:Work>
  </rdf:RDF>
 </metadata>
 <defs>
  <style type="text/css">*{stroke-linejoin: round; stroke-linecap: butt}</style>
 </defs>
 <g id="figure_1">
  <g id="patch_1">
   <path d="M 0 262.715 
L 371.2 262.715 
L 371.2 0 
L 0 0 
L 0 262.715 
z
" style="fill: none"/>
  </g>
  <g id="axes_1">
   <g id="patch_2">
    <path d="M 29.2 240.39 
L 364 240.39 
L 364 22.95 
L 29.2 22.95 
z
" style="fill: #ffffff"/>
   </g>
   <g id="patch_3">
    <path d="M 44.418182 240.39 
L 47.461818 240.39 
L 47.461818 33.304286 
L 44.418182 33.304286 
z
" clip-path="url(#pcfb7ec87dc)" style="fill: #1f77b4"/>
   </g>
   <g id="patch_4">
    <path d="M 47.461818 240.39 
L 50.505455 240.39 
L 50.505455 205.319032 
L 47.461818 205.319032 
z
" clip-path="url(#pcfb7ec87dc)" style="fill: #1f77b4"/>
   </g>
   <g id="patch_5">
    <path d="M 50.505455 240.39 
L 53.549091 240.39 
L 53.549091 225.359585 
L 50.505455 225.359585 
z
" clip-path="url(#pcfb7ec87dc)" style="fill: #1f77b4"/>
   </g>
   <g id="patch_6">
    <path d="M 53.549091 240.39 
L 56.592727 240.39 
L 56.592727 237.049908 
L 53.549091 237.049908 
z
" clip-path="url(#pcfb7ec87dc)" style="fill: #1f77b4"/>
   </g>
   <g id="patch_7">
    <path d="M 56.592727 240.39 
L 59.636364 240.39 
L 59.636364 240.39 
L 56.592727 240.39 
z
" clip-path="url(#pcfb7ec87dc)" style="fill: #1f77b4"/>
   </g>
   <g id="patch_8">
    <path d="M 59.636364 240.39 
L 62.68 240.39 
L 62.68 240.39 
L 59.636364 240.39 
z
" clip-path="url(#pcfb7ec87dc)" style="fill: #1f77b4"/>
   </g>
   <g id="patch_9">
    <path d="M 62.68 240.39 
L 65.723636 240.39 
L 65.723636 237.049908 
L 62.68 237.049908 
z
" clip-path="url(#pcfb7ec87dc)" style="fill: #1f77b4"/>
   </g>
   <g id="patch_10">
    <path d="M 65.723636 240.39 
L 68.767273 240.39 
L 68.767273 238.719954 
L 65.723636 238.719954 
z
" clip-path="url(#pcfb7ec87dc)" style="fill: #1f77b4"/>
   </g>
   <g id="patch_11">
    <path d="M 68.767273 240.39 
L 71.810909 240.39 
L 71.810909 238.719954 
L 68.767273 238.719954 
z
" clip-path="url(#pcfb7ec87dc)" style="fill: #1f77b4"/>
   </g>
   <g id="patch_12">
    <path d="M 71.810909 240.39 
L 74.854545 240.39 
L 74.854545 238.719954 
L 71.810909 238.719954 
z
" clip-path="url(#pcfb7ec87dc)" style="fill: #1f77b4"/>
   </g>
   <g id="patch_13">
    <path d="M 74.854545 240.39 
L 77.898182 240.39 
L 77.898182 238.719954 
L 74.854545 238.719954 
z
" clip-path="url(#pcfb7ec87dc)" style="fill: #1f77b4"/>
   </g>
   <g id="patch_14">
    <path d="M 77.898182 240.39 
L 80.941818 240.39 
L 80.941818 238.719954 
L 77.898182 238.719954 
z
" clip-path="url(#pcfb7ec87dc)" style="fill: #1f77b4"/>
   </g>
   <g id="patch_15">
    <path d="M 80.941818 240.39 
L 83.985455 240.39 
L 83.985455 238.719954 
L 80.941818 238.719954 
z
" clip-path="url(#pcfb7ec87dc)" style="fill: #1f77b4"/>
   </g>
   <g id="patch_16">
    <path d="M 83.985455 240.39 
L 87.029091 240.39 
L 87.029091 238.719954 
L 83.985455 238.719954 
z
" clip-path="url(#pcfb7ec87dc)" style="fill: #1f77b4"/>
   </g>
   <g id="patch_17">
    <path d="M 87.029091 240.39 
L 90.072727 240.39 
L 90.072727 240.39 
L 87.029091 240.39 
z
" clip-path="url(#pcfb7ec87dc)" style="fill: #1f77b4"/>
   </g>
   <g id="patch_18">
    <path d="M 90.072727 240.39 
L 93.116364 240.39 
L 93.116364 240.39 
L 90.072727 240.39 
z
" clip-path="url(#pcfb7ec87dc)" style="fill: #1f77b4"/>
   </g>
   <g id="patch_19">
    <path d="M 93.116364 240.39 
L 96.16 240.39 
L 96.16 240.39 
L 93.116364 240.39 
z
" clip-path="url(#pcfb7ec87dc)" style="fill: #1f77b4"/>
   </g>
   <g id="patch_20">
    <path d="M 96.16 240.39 
L 99.203636 240.39 
L 99.203636 238.719954 
L 96.16 238.719954 
z
" clip-path="url(#pcfb7ec87dc)" style="fill: #1f77b4"/>
   </g>
   <g id="patch_21">
    <path d="M 99.203636 240.39 
L 102.247273 240.39 
L 102.247273 240.39 
L 99.203636 240.39 
z
" clip-path="url(#pcfb7ec87dc)" style="fill: #1f77b4"/>
   </g>
   <g id="patch_22">
    <path d="M 102.247273 240.39 
L 105.290909 240.39 
L 105.290909 240.39 
L 102.247273 240.39 
z
" clip-path="url(#pcfb7ec87dc)" style="fill: #1f77b4"/>
   </g>
   <g id="patch_23">
    <path d="M 105.290909 240.39 
L 108.334545 240.39 
L 108.334545 240.39 
L 105.290909 240.39 
z
" clip-path="url(#pcfb7ec87dc)" style="fill: #1f77b4"/>
   </g>
   <g id="patch_24">
    <path d="M 108.334545 240.39 
L 111.378182 240.39 
L 111.378182 240.39 
L 108.334545 240.39 
z
" clip-path="url(#pcfb7ec87dc)" style="fill: #1f77b4"/>
   </g>
   <g id="patch_25">
    <path d="M 111.378182 240.39 
L 114.421818 240.39 
L 114.421818 237.049908 
L 111.378182 237.049908 
z
" clip-path="url(#pcfb7ec87dc)" style="fill: #1f77b4"/>
   </g>
   <g id="patch_26">
    <path d="M 114.421818 240.39 
L 117.465455 240.39 
L 117.465455 240.39 
L 114.421818 240.39 
z
" clip-path="url(#pcfb7ec87dc)" style="fill: #1f77b4"/>
   </g>
   <g id="patch_27">
    <path d="M 117.465455 240.39 
L 120.509091 240.39 
L 120.509091 240.39 
L 117.465455 240.39 
z
" clip-path="url(#pcfb7ec87dc)" style="fill: #1f77b4"/>
   </g>
   <g id="patch_28">
    <path d="M 120.509091 240.39 
L 123.552727 240.39 
L 123.552727 240.39 
L 120.509091 240.39 
z
" clip-path="url(#pcfb7ec87dc)" style="fill: #1f77b4"/>
   </g>
   <g id="patch_29">
    <path d="M 123.552727 240.39 
L 126.596364 240.39 
L 126.596364 237.049908 
L 123.552727 237.049908 
z
" clip-path="url(#pcfb7ec87dc)" style="fill: #1f77b4"/>
   </g>
   <g id="patch_30">
    <path d="M 126.596364 240.39 
L 129.64 240.39 
L 129.64 240.39 
L 126.596364 240.39 
z
" clip-path="url(#pcfb7ec87dc)" style="fill: #1f77b4"/>
   </g>
   <g id="patch_31">
    <path d="M 129.64 240.39 
L 132.683636 240.39 
L 132.683636 238.719954 
L 129.64 238.719954 
z
" clip-path="url(#pcfb7ec87dc)" style="fill: #1f77b4"/>
   </g>
   <g id="patch_32">
    <path d="M 132.683636 240.39 
L 135.727273 240.39 
L 135.727273 240.39 
L 132.683636 240.39 
z
" clip-path="url(#pcfb7ec87dc)" style="fill: #1f77b4"/>
   </g>
   <g id="patch_33">
    <path d="M 135.727273 240.39 
L 138.770909 240.39 
L 138.770909 238.719954 
L 135.727273 238.719954 
z
" clip-path="url(#pcfb7ec87dc)" style="fill: #1f77b4"/>
   </g>
   <g id="patch_34">
    <path d="M 138.770909 240.39 
L 141.814545 240.39 
L 141.814545 240.39 
L 138.770909 240.39 
z
" clip-path="url(#pcfb7ec87dc)" style="fill: #1f77b4"/>
   </g>
   <g id="patch_35">
    <path d="M 141.814545 240.39 
L 144.858182 240.39 
L 144.858182 240.39 
L 141.814545 240.39 
z
" clip-path="url(#pcfb7ec87dc)" style="fill: #1f77b4"/>
   </g>
   <g id="patch_36">
    <path d="M 144.858182 240.39 
L 147.901818 240.39 
L 147.901818 240.39 
L 144.858182 240.39 
z
" clip-path="url(#pcfb7ec87dc)" style="fill: #1f77b4"/>
   </g>
   <g id="patch_37">
    <path d="M 147.901818 240.39 
L 150.945455 240.39 
L 150.945455 240.39 
L 147.901818 240.39 
z
" clip-path="url(#pcfb7ec87dc)" style="fill: #1f77b4"/>
   </g>
   <g id="patch_38">
    <path d="M 150.945455 240.39 
L 153.989091 240.39 
L 153.989091 240.39 
L 150.945455 240.39 
z
" clip-path="url(#pcfb7ec87dc)" style="fill: #1f77b4"/>
   </g>
   <g id="patch_39">
    <path d="M 153.989091 240.39 
L 157.032727 240.39 
L 157.032727 240.39 
L 153.989091 240.39 
z
" clip-path="url(#pcfb7ec87dc)" style="fill: #1f77b4"/>
   </g>
   <g id="patch_40">
    <path d="M 157.032727 240.39 
L 160.076364 240.39 
L 160.076364 240.39 
L 157.032727 240.39 
z
" clip-path="url(#pcfb7ec87dc)" style="fill: #1f77b4"/>
   </g>
   <g id="patch_41">
    <path d="M 160.076364 240.39 
L 163.12 240.39 
L 163.12 240.39 
L 160.076364 240.39 
z
" clip-path="url(#pcfb7ec87dc)" style="fill: #1f77b4"/>
   </g>
   <g id="patch_42">
    <path d="M 163.12 240.39 
L 166.163636 240.39 
L 166.163636 240.39 
L 163.12 240.39 
z
" clip-path="url(#pcfb7ec87dc)" style="fill: #1f77b4"/>
   </g>
   <g id="patch_43">
    <path d="M 166.163636 240.39 
L 169.207273 240.39 
L 169.207273 238.719954 
L 166.163636 238.719954 
z
" clip-path="url(#pcfb7ec87dc)" style="fill: #1f77b4"/>
   </g>
   <g id="patch_44">
    <path d="M 169.207273 240.39 
L 172.250909 240.39 
L 172.250909 240.39 
L 169.207273 240.39 
z
" clip-path="url(#pcfb7ec87dc)" style="fill: #1f77b4"/>
   </g>
   <g id="patch_45">
    <path d="M 172.250909 240.39 
L 175.294545 240.39 
L 175.294545 240.39 
L 172.250909 240.39 
z
" clip-path="url(#pcfb7ec87dc)" style="fill: #1f77b4"/>
   </g>
   <g id="patch_46">
    <path d="M 175.294545 240.39 
L 178.338182 240.39 
L 178.338182 240.39 
L 175.294545 240.39 
z
" clip-path="url(#pcfb7ec87dc)" style="fill: #1f77b4"/>
   </g>
   <g id="patch_47">
    <path d="M 178.338182 240.39 
L 181.381818 240.39 
L 181.381818 240.39 
L 178.338182 240.39 
z
" clip-path="url(#pcfb7ec87dc)" style="fill: #1f77b4"/>
   </g>
   <g id="patch_48">
    <path d="M 181.381818 240.39 
L 184.425455 240.39 
L 184.425455 235.379862 
L 181.381818 235.379862 
z
" clip-path="url(#pcfb7ec87dc)" style="fill: #1f77b4"/>
   </g>
   <g id="patch_49">
    <path d="M 184.425455 240.39 
L 187.469091 240.39 
L 187.469091 240.39 
L 184.425455 240.39 
z
" clip-path="url(#pcfb7ec87dc)" style="fill: #1f77b4"/>
   </g>
   <g id="patch_50">
    <path d="M 187.469091 240.39 
L 190.512727 240.39 
L 190.512727 240.39 
L 187.469091 240.39 
z
" clip-path="url(#pcfb7ec87dc)" style="fill: #1f77b4"/>
   </g>
   <g id="patch_51">
    <path d="M 190.512727 240.39 
L 193.556364 240.39 
L 193.556364 240.39 
L 190.512727 240.39 
z
" clip-path="url(#pcfb7ec87dc)" style="fill: #1f77b4"/>
   </g>
   <g id="patch_52">
    <path d="M 193.556364 240.39 
L 196.6 240.39 
L 196.6 238.719954 
L 193.556364 238.719954 
z
" clip-path="url(#pcfb7ec87dc)" style="fill: #1f77b4"/>
   </g>
   <g id="patch_53">
    <path d="M 196.6 240.39 
L 199.643636 240.39 
L 199.643636 240.39 
L 196.6 240.39 
z
" clip-path="url(#pcfb7ec87dc)" style="fill: #1f77b4"/>
   </g>
   <g id="patch_54">
    <path d="M 199.643636 240.39 
L 202.687273 240.39 
L 202.687273 240.39 
L 199.643636 240.39 
z
" clip-path="url(#pcfb7ec87dc)" style="fill: #1f77b4"/>
   </g>
   <g id="patch_55">
    <path d="M 202.687273 240.39 
L 205.730909 240.39 
L 205.730909 237.049908 
L 202.687273 237.049908 
z
" clip-path="url(#pcfb7ec87dc)" style="fill: #1f77b4"/>
   </g>
   <g id="patch_56">
    <path d="M 205.730909 240.39 
L 208.774545 240.39 
L 208.774545 240.39 
L 205.730909 240.39 
z
" clip-path="url(#pcfb7ec87dc)" style="fill: #1f77b4"/>
   </g>
   <g id="patch_57">
    <path d="M 208.774545 240.39 
L 211.818182 240.39 
L 211.818182 240.39 
L 208.774545 240.39 
z
" clip-path="url(#pcfb7ec87dc)" style="fill: #1f77b4"/>
   </g>
   <g id="patch_58">
    <path d="M 211.818182 240.39 
L 214.861818 240.39 
L 214.861818 238.719954 
L 211.818182 238.719954 
z
" clip-path="url(#pcfb7ec87dc)" style="fill: #1f77b4"/>
   </g>
   <g id="patch_59">
    <path d="M 214.861818 240.39 
L 217.905455 240.39 
L 217.905455 240.39 
L 214.861818 240.39 
z
" clip-path="url(#pcfb7ec87dc)" style="fill: #1f77b4"/>
   </g>
   <g id="patch_60">
    <path d="M 217.905455 240.39 
L 220.949091 240.39 
L 220.949091 240.39 
L 217.905455 240.39 
z
" clip-path="url(#pcfb7ec87dc)" style="fill: #1f77b4"/>
   </g>
   <g id="patch_61">
    <path d="M 220.949091 240.39 
L 223.992727 240.39 
L 223.992727 238.719954 
L 220.949091 238.719954 
z
" clip-path="url(#pcfb7ec87dc)" style="fill: #1f77b4"/>
   </g>
   <g id="patch_62">
    <path d="M 223.992727 240.39 
L 227.036364 240.39 
L 227.036364 240.39 
L 223.992727 240.39 
z
" clip-path="url(#pcfb7ec87dc)" style="fill: #1f77b4"/>
   </g>
   <g id="patch_63">
    <path d="M 227.036364 240.39 
L 230.08 240.39 
L 230.08 240.39 
L 227.036364 240.39 
z
" clip-path="url(#pcfb7ec87dc)" style="fill: #1f77b4"/>
   </g>
   <g id="patch_64">
    <path d="M 230.08 240.39 
L 233.123636 240.39 
L 233.123636 238.719954 
L 230.08 238.719954 
z
" clip-path="url(#pcfb7ec87dc)" style="fill: #1f77b4"/>
   </g>
   <g id="patch_65">
    <path d="M 233.123636 240.39 
L 236.167273 240.39 
L 236.167273 238.719954 
L 233.123636 238.719954 
z
" clip-path="url(#pcfb7ec87dc)" style="fill: #1f77b4"/>
   </g>
   <g id="patch_66">
    <path d="M 236.167273 240.39 
L 239.210909 240.39 
L 239.210909 240.39 
L 236.167273 240.39 
z
" clip-path="url(#pcfb7ec87dc)" style="fill: #1f77b4"/>
   </g>
   <g id="patch_67">
    <path d="M 239.210909 240.39 
L 242.254545 240.39 
L 242.254545 240.39 
L 239.210909 240.39 
z
" clip-path="url(#pcfb7ec87dc)" style="fill: #1f77b4"/>
   </g>
   <g id="patch_68">
    <path d="M 242.254545 240.39 
L 245.298182 240.39 
L 245.298182 240.39 
L 242.254545 240.39 
z
" clip-path="url(#pcfb7ec87dc)" style="fill: #1f77b4"/>
   </g>
   <g id="patch_69">
    <path d="M 245.298182 240.39 
L 248.341818 240.39 
L 248.341818 240.39 
L 245.298182 240.39 
z
" clip-path="url(#pcfb7ec87dc)" style="fill: #1f77b4"/>
   </g>
   <g id="patch_70">
    <path d="M 248.341818 240.39 
L 251.385455 240.39 
L 251.385455 238.719954 
L 248.341818 238.719954 
z
" clip-path="url(#pcfb7ec87dc)" style="fill: #1f77b4"/>
   </g>
   <g id="patch_71">
    <path d="M 251.385455 240.39 
L 254.429091 240.39 
L 254.429091 238.719954 
L 251.385455 238.719954 
z
" clip-path="url(#pcfb7ec87dc)" style="fill: #1f77b4"/>
   </g>
   <g id="patch_72">
    <path d="M 254.429091 240.39 
L 257.472727 240.39 
L 257.472727 238.719954 
L 254.429091 238.719954 
z
" clip-path="url(#pcfb7ec87dc)" style="fill: #1f77b4"/>
   </g>
   <g id="patch_73">
    <path d="M 257.472727 240.39 
L 260.516364 240.39 
L 260.516364 240.39 
L 257.472727 240.39 
z
" clip-path="url(#pcfb7ec87dc)" style="fill: #1f77b4"/>
   </g>
   <g id="patch_74">
    <path d="M 260.516364 240.39 
L 263.56 240.39 
L 263.56 240.39 
L 260.516364 240.39 
z
" clip-path="url(#pcfb7ec87dc)" style="fill: #1f77b4"/>
   </g>
   <g id="patch_75">
    <path d="M 263.56 240.39 
L 266.603636 240.39 
L 266.603636 240.39 
L 263.56 240.39 
z
" clip-path="url(#pcfb7ec87dc)" style="fill: #1f77b4"/>
   </g>
   <g id="patch_76">
    <path d="M 266.603636 240.39 
L 269.647273 240.39 
L 269.647273 238.719954 
L 266.603636 238.719954 
z
" clip-path="url(#pcfb7ec87dc)" style="fill: #1f77b4"/>
   </g>
   <g id="patch_77">
    <path d="M 269.647273 240.39 
L 272.690909 240.39 
L 272.690909 240.39 
L 269.647273 240.39 
z
" clip-path="url(#pcfb7ec87dc)" style="fill: #1f77b4"/>
   </g>
   <g id="patch_78">
    <path d="M 272.690909 240.39 
L 275.734545 240.39 
L 275.734545 240.39 
L 272.690909 240.39 
z
" clip-path="url(#pcfb7ec87dc)" style="fill: #1f77b4"/>
   </g>
   <g id="patch_79">
    <path d="M 275.734545 240.39 
L 278.778182 240.39 
L 278.778182 240.39 
L 275.734545 240.39 
z
" clip-path="url(#pcfb7ec87dc)" style="fill: #1f77b4"/>
   </g>
   <g id="patch_80">
    <path d="M 278.778182 240.39 
L 281.821818 240.39 
L 281.821818 240.39 
L 278.778182 240.39 
z
" clip-path="url(#pcfb7ec87dc)" style="fill: #1f77b4"/>
   </g>
   <g id="patch_81">
    <path d="M 281.821818 240.39 
L 284.865455 240.39 
L 284.865455 240.39 
L 281.821818 240.39 
z
" clip-path="url(#pcfb7ec87dc)" style="fill: #1f77b4"/>
   </g>
   <g id="patch_82">
    <path d="M 284.865455 240.39 
L 287.909091 240.39 
L 287.909091 238.719954 
L 284.865455 238.719954 
z
" clip-path="url(#pcfb7ec87dc)" style="fill: #1f77b4"/>
   </g>
   <g id="patch_83">
    <path d="M 287.909091 240.39 
L 290.952727 240.39 
L 290.952727 240.39 
L 287.909091 240.39 
z
" clip-path="url(#pcfb7ec87dc)" style="fill: #1f77b4"/>
   </g>
   <g id="patch_84">
    <path d="M 290.952727 240.39 
L 293.996364 240.39 
L 293.996364 240.39 
L 290.952727 240.39 
z
" clip-path="url(#pcfb7ec87dc)" style="fill: #1f77b4"/>
   </g>
   <g id="patch_85">
    <path d="M 293.996364 240.39 
L 297.04 240.39 
L 297.04 238.719954 
L 293.996364 238.719954 
z
" clip-path="url(#pcfb7ec87dc)" style="fill: #1f77b4"/>
   </g>
   <g id="patch_86">
    <path d="M 297.04 240.39 
L 300.083636 240.39 
L 300.083636 240.39 
L 297.04 240.39 
z
" clip-path="url(#pcfb7ec87dc)" style="fill: #1f77b4"/>
   </g>
   <g id="patch_87">
    <path d="M 300.083636 240.39 
L 303.127273 240.39 
L 303.127273 240.39 
L 300.083636 240.39 
z
" clip-path="url(#pcfb7ec87dc)" style="fill: #1f77b4"/>
   </g>
   <g id="patch_88">
    <path d="M 303.127273 240.39 
L 306.170909 240.39 
L 306.170909 238.719954 
L 303.127273 238.719954 
z
" clip-path="url(#pcfb7ec87dc)" style="fill: #1f77b4"/>
   </g>
   <g id="patch_89">
    <path d="M 306.170909 240.39 
L 309.214545 240.39 
L 309.214545 240.39 
L 306.170909 240.39 
z
" clip-path="url(#pcfb7ec87dc)" style="fill: #1f77b4"/>
   </g>
   <g id="patch_90">
    <path d="M 309.214545 240.39 
L 312.258182 240.39 
L 312.258182 238.719954 
L 309.214545 238.719954 
z
" clip-path="url(#pcfb7ec87dc)" style="fill: #1f77b4"/>
   </g>
   <g id="patch_91">
    <path d="M 312.258182 240.39 
L 315.301818 240.39 
L 315.301818 240.39 
L 312.258182 240.39 
z
" clip-path="url(#pcfb7ec87dc)" style="fill: #1f77b4"/>
   </g>
   <g id="patch_92">
    <path d="M 315.301818 240.39 
L 318.345455 240.39 
L 318.345455 240.39 
L 315.301818 240.39 
z
" clip-path="url(#pcfb7ec87dc)" style="fill: #1f77b4"/>
   </g>
   <g id="patch_93">
    <path d="M 318.345455 240.39 
L 321.389091 240.39 
L 321.389091 240.39 
L 318.345455 240.39 
z
" clip-path="url(#pcfb7ec87dc)" style="fill: #1f77b4"/>
   </g>
   <g id="patch_94">
    <path d="M 321.389091 240.39 
L 324.432727 240.39 
L 324.432727 240.39 
L 321.389091 240.39 
z
" clip-path="url(#pcfb7ec87dc)" style="fill: #1f77b4"/>
   </g>
   <g id="patch_95">
    <path d="M 324.432727 240.39 
L 327.476364 240.39 
L 327.476364 240.39 
L 324.432727 240.39 
z
" clip-path="url(#pcfb7ec87dc)" style="fill: #1f77b4"/>
   </g>
   <g id="patch_96">
    <path d="M 327.476364 240.39 
L 330.52 240.39 
L 330.52 238.719954 
L 327.476364 238.719954 
z
" clip-path="url(#pcfb7ec87dc)" style="fill: #1f77b4"/>
   </g>
   <g id="patch_97">
    <path d="M 330.52 240.39 
L 333.563636 240.39 
L 333.563636 238.719954 
L 330.52 238.719954 
z
" clip-path="url(#pcfb7ec87dc)" style="fill: #1f77b4"/>
   </g>
   <g id="patch_98">
    <path d="M 333.563636 240.39 
L 336.607273 240.39 
L 336.607273 238.719954 
L 333.563636 238.719954 
z
" clip-path="url(#pcfb7ec87dc)" style="fill: #1f77b4"/>
   </g>
   <g id="patch_99">
    <path d="M 336.607273 240.39 
L 339.650909 240.39 
L 339.650909 240.39 
L 336.607273 240.39 
z
" clip-path="url(#pcfb7ec87dc)" style="fill: #1f77b4"/>
   </g>
   <g id="patch_100">
    <path d="M 339.650909 240.39 
L 342.694545 240.39 
L 342.694545 240.39 
L 339.650909 240.39 
z
" clip-path="url(#pcfb7ec87dc)" style="fill: #1f77b4"/>
   </g>
   <g id="patch_101">
    <path d="M 342.694545 240.39 
L 345.738182 240.39 
L 345.738182 240.39 
L 342.694545 240.39 
z
" clip-path="url(#pcfb7ec87dc)" style="fill: #1f77b4"/>
   </g>
   <g id="patch_102">
    <path d="M 345.738182 240.39 
L 348.781818 240.39 
L 348.781818 238.719954 
L 345.738182 238.719954 
z
" clip-path="url(#pcfb7ec87dc)" style="fill: #1f77b4"/>
   </g>
   <g id="matplotlib.axis_1">
    <g id="xtick_1">
     <g id="line2d_1">
      <defs>
       <path id="m30a9f88d4f" d="M 0 0 
L 0 3.5 
" style="stroke: #000000; stroke-width: 0.8"/>
      </defs>
      <g>
       <use xlink:href="#m30a9f88d4f" x="44.415231" y="240.39" style="stroke: #000000; stroke-width: 0.8"/>
      </g>
     </g>
     <g id="text_1">
      <!-- 0 -->
      <g transform="translate(41.915231 254.265) scale(0.1 -0.1)">
       <defs>
        <path id="SimHei-30" d="M 225 2537 
Q 250 3200 412 3587 
Q 575 3975 875 4225 
Q 1175 4475 1612 4475 
Q 2050 4475 2375 4112 
Q 2700 3750 2800 3200 
Q 2900 2650 2862 1937 
Q 2825 1225 2612 775 
Q 2400 325 1975 150 
Q 1550 -25 1125 187 
Q 700 400 525 750 
Q 350 1100 275 1487 
Q 200 1875 225 2537 
z
M 750 2687 
Q 675 2000 800 1462 
Q 925 925 1212 700 
Q 1500 475 1800 612 
Q 2100 750 2237 1162 
Q 2375 1575 2375 2062 
Q 2375 2550 2337 2950 
Q 2300 3350 2112 3675 
Q 1925 4000 1612 4012 
Q 1300 4025 1062 3700 
Q 825 3375 750 2687 
z
" transform="scale(0.015625)"/>
       </defs>
       <use xlink:href="#SimHei-30"/>
      </g>
     </g>
    </g>
    <g id="xtick_2">
     <g id="line2d_2">
      <g>
       <use xlink:href="#m30a9f88d4f" x="87.017805" y="240.39" style="stroke: #000000; stroke-width: 0.8"/>
      </g>
     </g>
     <g id="text_2">
      <!-- 1 -->
      <g transform="translate(84.517805 254.265) scale(0.1 -0.1)">
       <defs>
        <path id="SimHei-31" d="M 1400 3600 
Q 1075 3275 575 2975 
L 575 3450 
Q 1200 3875 1600 4450 
L 1900 4450 
L 1900 150 
L 1400 150 
L 1400 3600 
z
" transform="scale(0.015625)"/>
       </defs>
       <use xlink:href="#SimHei-31"/>
      </g>
     </g>
    </g>
    <g id="xtick_3">
     <g id="line2d_3">
      <g>
       <use xlink:href="#m30a9f88d4f" x="129.620379" y="240.39" style="stroke: #000000; stroke-width: 0.8"/>
      </g>
     </g>
     <g id="text_3">
      <!-- 2 -->
      <g transform="translate(127.120379 254.265) scale(0.1 -0.1)">
       <defs>
        <path id="SimHei-32" d="M 300 250 
Q 325 625 650 925 
Q 975 1225 1475 1862 
Q 1975 2500 2125 2850 
Q 2275 3200 2237 3450 
Q 2200 3700 2000 3862 
Q 1800 4025 1537 4000 
Q 1275 3975 1037 3800 
Q 800 3625 675 3275 
L 200 3350 
Q 400 3925 712 4187 
Q 1025 4450 1450 4475 
Q 1700 4500 1900 4462 
Q 2100 4425 2312 4287 
Q 2525 4150 2662 3875 
Q 2800 3600 2762 3212 
Q 2725 2825 2375 2287 
Q 2025 1750 1025 600 
L 2825 600 
L 2825 150 
L 300 150 
L 300 250 
z
" transform="scale(0.015625)"/>
       </defs>
       <use xlink:href="#SimHei-32"/>
      </g>
     </g>
    </g>
    <g id="xtick_4">
     <g id="line2d_4">
      <g>
       <use xlink:href="#m30a9f88d4f" x="172.222953" y="240.39" style="stroke: #000000; stroke-width: 0.8"/>
      </g>
     </g>
     <g id="text_4">
      <!-- 3 -->
      <g transform="translate(169.722953 254.265) scale(0.1 -0.1)">
       <defs>
        <path id="SimHei-33" d="M 250 1225 
L 700 1300 
Q 800 975 1025 762 
Q 1250 550 1587 562 
Q 1925 575 2125 837 
Q 2325 1100 2300 1437 
Q 2275 1775 2037 1962 
Q 1800 2150 1275 2225 
L 1275 2550 
Q 1800 2600 2037 2825 
Q 2275 3050 2250 3412 
Q 2225 3775 1925 3937 
Q 1625 4100 1287 3975 
Q 950 3850 750 3275 
L 300 3350 
Q 450 3800 712 4100 
Q 975 4400 1425 4450 
Q 1875 4500 2212 4337 
Q 2550 4175 2687 3837 
Q 2825 3500 2725 3100 
Q 2625 2700 2150 2400 
Q 2500 2250 2687 1950 
Q 2875 1650 2812 1162 
Q 2750 675 2375 375 
Q 2000 75 1525 87 
Q 1050 100 700 387 
Q 350 675 250 1225 
z
" transform="scale(0.015625)"/>
       </defs>
       <use xlink:href="#SimHei-33"/>
      </g>
     </g>
    </g>
    <g id="xtick_5">
     <g id="line2d_5">
      <g>
       <use xlink:href="#m30a9f88d4f" x="214.825526" y="240.39" style="stroke: #000000; stroke-width: 0.8"/>
      </g>
     </g>
     <g id="text_5">
      <!-- 4 -->
      <g transform="translate(212.325526 254.265) scale(0.1 -0.1)">
       <defs>
        <path id="SimHei-34" d="M 2000 1100 
L 75 1100 
L 75 1525 
L 2100 4450 
L 2475 4450 
L 2475 1525 
L 3075 1525 
L 3075 1100 
L 2475 1100 
L 2475 150 
L 2000 150 
L 2000 1100 
z
M 2000 1525 
L 2000 3500 
L 600 1525 
L 2000 1525 
z
" transform="scale(0.015625)"/>
       </defs>
       <use xlink:href="#SimHei-34"/>
      </g>
     </g>
    </g>
    <g id="xtick_6">
     <g id="line2d_6">
      <g>
       <use xlink:href="#m30a9f88d4f" x="257.4281" y="240.39" style="stroke: #000000; stroke-width: 0.8"/>
      </g>
     </g>
     <g id="text_6">
      <!-- 5 -->
      <g transform="translate(254.9281 254.265) scale(0.1 -0.1)">
       <defs>
        <path id="SimHei-35" d="M 550 1325 
Q 725 650 1150 575 
Q 1575 500 1837 662 
Q 2100 825 2212 1087 
Q 2325 1350 2312 1675 
Q 2300 2000 2137 2225 
Q 1975 2450 1725 2525 
Q 1475 2600 1162 2525 
Q 850 2450 650 2175 
L 225 2225 
Q 275 2375 700 4375 
L 2675 4375 
L 2675 3925 
L 1075 3925 
Q 950 3250 825 2850 
Q 1200 3025 1525 3012 
Q 1850 3000 2150 2862 
Q 2450 2725 2587 2487 
Q 2725 2250 2787 2012 
Q 2850 1775 2837 1500 
Q 2825 1225 2725 937 
Q 2625 650 2425 462 
Q 2225 275 1937 162 
Q 1650 50 1275 75 
Q 900 100 562 350 
Q 225 600 100 1200 
L 550 1325 
z
" transform="scale(0.015625)"/>
       </defs>
       <use xlink:href="#SimHei-35"/>
      </g>
     </g>
    </g>
    <g id="xtick_7">
     <g id="line2d_7">
      <g>
       <use xlink:href="#m30a9f88d4f" x="300.030674" y="240.39" style="stroke: #000000; stroke-width: 0.8"/>
      </g>
     </g>
     <g id="text_7">
      <!-- 6 -->
      <g transform="translate(297.530674 254.265) scale(0.1 -0.1)">
       <defs>
        <path id="SimHei-36" d="M 250 1612 
Q 275 1975 387 2225 
Q 500 2475 725 2850 
L 1750 4450 
L 2325 4450 
L 1275 2800 
Q 1950 2975 2350 2750 
Q 2750 2525 2887 2237 
Q 3025 1950 3037 1612 
Q 3050 1275 2937 950 
Q 2825 625 2537 362 
Q 2250 100 1737 75 
Q 1225 50 862 262 
Q 500 475 362 862 
Q 225 1250 250 1612 
z
M 1025 787 
Q 1250 550 1625 525 
Q 2000 500 2250 775 
Q 2500 1050 2500 1575 
Q 2500 2100 2187 2300 
Q 1875 2500 1487 2450 
Q 1100 2400 925 2075 
Q 750 1750 775 1387 
Q 800 1025 1025 787 
z
" transform="scale(0.015625)"/>
       </defs>
       <use xlink:href="#SimHei-36"/>
      </g>
     </g>
    </g>
    <g id="xtick_8">
     <g id="line2d_8">
      <g>
       <use xlink:href="#m30a9f88d4f" x="342.633248" y="240.39" style="stroke: #000000; stroke-width: 0.8"/>
      </g>
     </g>
     <g id="text_8">
      <!-- 7 -->
      <g transform="translate(340.133248 254.265) scale(0.1 -0.1)">
       <defs>
        <path id="SimHei-37" d="M 850 150 
Q 1300 2050 2425 3925 
L 275 3925 
L 275 4375 
L 2950 4375 
L 2950 3950 
Q 1775 2050 1400 150 
L 850 150 
z
" transform="scale(0.015625)"/>
       </defs>
       <use xlink:href="#SimHei-37"/>
      </g>
     </g>
    </g>
   </g>
   <g id="matplotlib.axis_2">
    <g id="ytick_1">
     <g id="line2d_9">
      <defs>
       <path id="m004e6cf28e" d="M 0 0 
L -3.5 0 
" style="stroke: #000000; stroke-width: 0.8"/>
      </defs>
      <g>
       <use xlink:href="#m004e6cf28e" x="29.2" y="240.39" style="stroke: #000000; stroke-width: 0.8"/>
      </g>
     </g>
     <g id="text_9">
      <!-- 0 -->
      <g transform="translate(17.2 243.8275) scale(0.1 -0.1)">
       <use xlink:href="#SimHei-30"/>
      </g>
     </g>
    </g>
    <g id="ytick_2">
     <g id="line2d_10">
      <g>
       <use xlink:href="#m004e6cf28e" x="29.2" y="206.989078" style="stroke: #000000; stroke-width: 0.8"/>
      </g>
     </g>
     <g id="text_10">
      <!-- 20 -->
      <g transform="translate(12.2 210.426578) scale(0.1 -0.1)">
       <use xlink:href="#SimHei-32"/>
       <use xlink:href="#SimHei-30" x="50"/>
      </g>
     </g>
    </g>
    <g id="ytick_3">
     <g id="line2d_11">
      <g>
       <use xlink:href="#m004e6cf28e" x="29.2" y="173.588157" style="stroke: #000000; stroke-width: 0.8"/>
      </g>
     </g>
     <g id="text_11">
      <!-- 40 -->
      <g transform="translate(12.2 177.025657) scale(0.1 -0.1)">
       <use xlink:href="#SimHei-34"/>
       <use xlink:href="#SimHei-30" x="50"/>
      </g>
     </g>
    </g>
    <g id="ytick_4">
     <g id="line2d_12">
      <g>
       <use xlink:href="#m004e6cf28e" x="29.2" y="140.187235" style="stroke: #000000; stroke-width: 0.8"/>
      </g>
     </g>
     <g id="text_12">
      <!-- 60 -->
      <g transform="translate(12.2 143.624735) scale(0.1 -0.1)">
       <use xlink:href="#SimHei-36"/>
       <use xlink:href="#SimHei-30" x="50"/>
      </g>
     </g>
    </g>
    <g id="ytick_5">
     <g id="line2d_13">
      <g>
       <use xlink:href="#m004e6cf28e" x="29.2" y="106.786313" style="stroke: #000000; stroke-width: 0.8"/>
      </g>
     </g>
     <g id="text_13">
      <!-- 80 -->
      <g transform="translate(12.2 110.223813) scale(0.1 -0.1)">
       <defs>
        <path id="SimHei-38" d="M 175 1375 
Q 175 1675 325 1962 
Q 475 2250 825 2425 
Q 525 2600 425 2812 
Q 325 3025 312 3300 
Q 300 3575 387 3775 
Q 475 3975 650 4150 
Q 825 4325 1037 4387 
Q 1250 4450 1500 4450 
Q 1750 4450 1950 4400 
Q 2150 4350 2375 4187 
Q 2600 4025 2700 3725 
Q 2800 3425 2687 3025 
Q 2575 2625 2100 2400 
Q 2525 2275 2700 2012 
Q 2875 1750 2875 1375 
Q 2875 1000 2762 775 
Q 2650 550 2512 400 
Q 2375 250 2137 162 
Q 1900 75 1537 75 
Q 1175 75 912 162 
Q 650 250 475 425 
Q 300 600 237 837 
Q 175 1075 175 1375 
z
M 687 1400 
Q 675 1100 787 875 
Q 900 650 1200 587 
Q 1500 525 1825 600 
Q 2150 675 2275 950 
Q 2400 1225 2362 1500 
Q 2325 1775 2050 1962 
Q 1775 2150 1450 2125 
Q 1125 2100 912 1900 
Q 700 1700 687 1400 
z
M 775 3350 
Q 775 3100 950 2875 
Q 1125 2650 1500 2650 
Q 1875 2650 2062 2875 
Q 2250 3100 2237 3412 
Q 2225 3725 2012 3875 
Q 1800 4025 1437 4000 
Q 1075 3975 925 3787 
Q 775 3600 775 3350 
z
" transform="scale(0.015625)"/>
       </defs>
       <use xlink:href="#SimHei-38"/>
       <use xlink:href="#SimHei-30" x="50"/>
      </g>
     </g>
    </g>
    <g id="ytick_6">
     <g id="line2d_14">
      <g>
       <use xlink:href="#m004e6cf28e" x="29.2" y="73.385392" style="stroke: #000000; stroke-width: 0.8"/>
      </g>
     </g>
     <g id="text_14">
      <!-- 100 -->
      <g transform="translate(7.2 76.822892) scale(0.1 -0.1)">
       <use xlink:href="#SimHei-31"/>
       <use xlink:href="#SimHei-30" x="50"/>
       <use xlink:href="#SimHei-30" x="100"/>
      </g>
     </g>
    </g>
    <g id="ytick_7">
     <g id="line2d_15">
      <g>
       <use xlink:href="#m004e6cf28e" x="29.2" y="39.98447" style="stroke: #000000; stroke-width: 0.8"/>
      </g>
     </g>
     <g id="text_15">
      <!-- 120 -->
      <g transform="translate(7.2 43.42197) scale(0.1 -0.1)">
       <use xlink:href="#SimHei-31"/>
       <use xlink:href="#SimHei-32" x="50"/>
       <use xlink:href="#SimHei-30" x="100"/>
      </g>
     </g>
    </g>
   </g>
   <g id="patch_103">
    <path d="M 29.2 240.39 
L 29.2 22.95 
" style="fill: none; stroke: #000000; stroke-width: 0.8; stroke-linejoin: miter; stroke-linecap: square"/>
   </g>
   <g id="patch_104">
    <path d="M 364 240.39 
L 364 22.95 
" style="fill: none; stroke: #000000; stroke-width: 0.8; stroke-linejoin: miter; stroke-linecap: square"/>
   </g>
   <g id="patch_105">
    <path d="M 29.2 240.39 
L 364 240.39 
" style="fill: none; stroke: #000000; stroke-width: 0.8; stroke-linejoin: miter; stroke-linecap: square"/>
   </g>
   <g id="patch_106">
    <path d="M 29.2 22.95 
L 364 22.95 
" style="fill: none; stroke: #000000; stroke-width: 0.8; stroke-linejoin: miter; stroke-linecap: square"/>
   </g>
   <g id="text_16">
    <!-- 点到平面距离统计分布图 -->
    <g transform="translate(130.6 16.95) scale(0.12 -0.12)">
     <defs>
      <path id="SimHei-70b9" d="M 3325 5200 
Q 3300 4925 3300 4375 
L 4900 4375 
Q 5275 4375 5725 4400 
L 5725 3925 
Q 5300 3950 4900 3950 
L 3300 3950 
L 3300 3225 
L 5225 3225 
Q 5200 2700 5200 2150 
Q 5200 1625 5225 1175 
L 1175 1175 
Q 1200 1625 1200 2175 
Q 1200 2725 1175 3225 
L 2775 3225 
L 2775 4500 
Q 2775 4900 2750 5200 
L 3325 5200 
z
M 4700 1600 
L 4700 2800 
L 1725 2800 
L 1725 1600 
L 4700 1600 
z
M 1500 750 
Q 1025 -250 825 -625 
Q 625 -475 325 -375 
Q 650 50 950 925 
Q 1200 800 1500 750 
z
M 5325 850 
Q 5775 150 6075 -350 
Q 5925 -425 5575 -625 
Q 5375 -150 4900 575 
Q 5150 700 5325 850 
z
M 3975 -575 
Q 3775 -100 3400 575 
Q 3575 675 3825 825 
Q 4350 -75 4450 -325 
Q 4200 -450 3975 -575 
z
M 2375 -575 
Q 2350 -300 1975 550 
Q 2200 625 2425 775 
Q 2800 -75 2900 -350 
Q 2625 -450 2375 -575 
z
" transform="scale(0.015625)"/>
      <path id="SimHei-5230" d="M 3675 150 
Q 2275 -50 1537 -175 
Q 800 -300 500 -400 
Q 425 -75 325 225 
Q 775 250 1062 275 
Q 1350 300 1750 350 
L 1750 1325 
L 1400 1325 
Q 900 1325 550 1275 
L 550 1750 
Q 975 1725 1325 1725 
L 1750 1725 
L 1750 2550 
Q 1250 2525 1037 2500 
Q 825 2475 575 2425 
Q 525 2750 425 3000 
Q 825 3100 1137 3500 
Q 1450 3900 1625 4400 
L 1250 4400 
Q 825 4400 450 4375 
L 450 4850 
Q 850 4825 1225 4825 
L 2825 4825 
Q 3275 4825 3625 4850 
L 3625 4375 
Q 3250 4400 2825 4400 
L 1800 4400 
L 2250 4100 
Q 2000 3900 1775 3600 
Q 1550 3300 1250 2950 
Q 2150 3000 2925 3050 
Q 2725 3375 2475 3700 
Q 2725 3825 2925 3975 
Q 3175 3625 3400 3300 
Q 3625 2975 3825 2700 
Q 3600 2525 3325 2375 
Q 3225 2550 3150 2675 
Q 2625 2600 2275 2575 
L 2275 1725 
L 2750 1725 
Q 3175 1725 3475 1750 
L 3475 1275 
Q 3150 1325 2775 1325 
L 2275 1325 
L 2275 400 
Q 2975 500 3750 625 
Q 3700 375 3675 150 
z
M 5875 5175 
Q 5825 4800 5825 4325 
L 5825 225 
Q 5825 -350 5612 -450 
Q 5400 -550 4700 -675 
Q 4625 -350 4475 -75 
Q 5000 -75 5162 -37 
Q 5325 0 5325 375 
L 5325 4325 
Q 5325 4875 5300 5175 
L 5875 5175 
z
M 4600 4375 
Q 4550 4050 4550 3475 
L 4550 1600 
Q 4550 1075 4575 725 
L 4050 725 
Q 4075 1075 4075 1600 
L 4075 3575 
Q 4075 4075 4050 4375 
L 4600 4375 
z
" transform="scale(0.015625)"/>
      <path id="SimHei-5e73" d="M 4525 4825 
Q 4900 4825 5450 4850 
L 5450 4375 
Q 4925 4400 4525 4400 
L 3475 4400 
L 3475 2025 
L 5000 2025 
Q 5550 2025 6025 2050 
L 6025 1575 
Q 5550 1600 5000 1600 
L 3475 1600 
L 3475 450 
Q 3475 -100 3500 -600 
L 2925 -600 
Q 2950 -100 2950 450 
L 2950 1600 
L 1125 1600 
Q 775 1600 375 1575 
L 375 2050 
Q 775 2025 1175 2025 
L 2950 2025 
L 2950 4400 
L 1775 4400 
Q 1400 4400 875 4375 
L 875 4850 
Q 1400 4825 1750 4825 
L 4525 4825 
z
M 3925 2600 
Q 4500 3300 4900 4125 
Q 5150 3950 5400 3825 
Q 4775 2850 4350 2300 
Q 4150 2475 3925 2600 
z
M 1975 2350 
Q 1600 3100 1050 3725 
Q 1250 3875 1450 4050 
Q 2075 3300 2450 2725 
Q 2150 2500 1975 2350 
z
" transform="scale(0.015625)"/>
      <path id="SimHei-9762" d="M 5275 4850 
Q 5650 4850 5950 4875 
L 5950 4400 
Q 5600 4425 5275 4425 
L 3275 4425 
Q 3175 4200 2950 3575 
L 5525 3575 
Q 5500 3100 5500 2600 
L 5500 450 
Q 5500 -100 5525 -525 
L 5025 -525 
L 5025 -175 
L 1350 -175 
L 1350 -525 
L 850 -525 
Q 875 -200 875 425 
L 875 2650 
Q 875 3125 850 3575 
L 2475 3575 
Q 2700 4150 2750 4425 
L 1175 4425 
Q 800 4425 425 4400 
L 425 4875 
Q 825 4850 1175 4850 
L 5275 4850 
z
M 2200 225 
L 2200 3175 
L 1350 3175 
L 1350 225 
L 2200 225 
z
M 5025 225 
L 5025 3175 
L 4175 3175 
L 4175 225 
L 5025 225 
z
M 3750 225 
L 3750 1050 
L 2625 1050 
L 2625 225 
L 3750 225 
z
M 3750 2475 
L 3750 3175 
L 2625 3175 
L 2625 2475 
L 3750 2475 
z
M 3750 1425 
L 3750 2100 
L 2625 2100 
L 2625 1425 
L 3750 1425 
z
" transform="scale(0.015625)"/>
      <path id="SimHei-8ddd" d="M 3550 1275 
L 3550 25 
L 5250 25 
Q 5750 25 6125 50 
L 6125 -425 
Q 5750 -400 5275 -400 
L 3075 -400 
Q 3100 -75 3100 575 
L 3100 4075 
Q 3100 4575 3075 4950 
L 5200 4950 
Q 5550 4950 6000 4975 
L 6000 4525 
Q 5550 4550 5225 4550 
L 3550 4550 
L 3550 3325 
L 5650 3325 
Q 5625 3050 5625 2300 
Q 5625 1575 5650 1275 
L 3550 1275 
z
M 2650 4950 
Q 2625 4400 2625 3900 
Q 2625 3400 2650 3050 
L 2000 3050 
L 2000 2175 
Q 2375 2175 2875 2200 
L 2875 1725 
Q 2375 1750 2000 1750 
L 2000 525 
Q 2625 625 2875 700 
L 2875 250 
Q 1375 -50 1062 -150 
Q 750 -250 425 -375 
Q 350 -75 250 150 
L 625 225 
L 625 1775 
Q 625 2050 600 2325 
L 1100 2325 
Q 1075 2050 1075 1775 
L 1075 300 
L 1575 425 
L 1575 3050 
L 700 3050 
Q 725 3425 725 3900 
Q 725 4400 700 4950 
L 2650 4950 
z
M 5150 1700 
L 5150 2925 
L 3550 2925 
L 3550 1700 
L 5150 1700 
z
M 2200 3425 
L 2200 4575 
L 1150 4575 
L 1150 3425 
L 2200 3425 
z
" transform="scale(0.015625)"/>
      <path id="SimHei-79bb" d="M 3000 2275 
Q 3150 2175 3425 2050 
Q 3275 1900 3150 1725 
L 5825 1725 
L 5825 0 
Q 5825 -475 5612 -537 
Q 5400 -600 4850 -650 
Q 4775 -350 4650 -100 
Q 5225 -125 5300 -87 
Q 5375 -50 5375 175 
L 5375 1350 
L 2950 1350 
Q 2825 1150 2675 962 
Q 2525 775 2350 525 
Q 2650 525 4075 675 
Q 3975 800 3850 950 
Q 3975 1075 4200 1225 
Q 4350 1075 4537 825 
Q 4725 575 4900 300 
Q 4650 200 4475 50 
Q 4350 200 4275 350 
Q 3175 225 2700 150 
Q 2225 75 1850 -25 
Q 1800 275 1675 600 
Q 1875 700 2075 900 
Q 2275 1100 2450 1350 
L 1125 1350 
L 1125 -625 
L 650 -625 
Q 675 -225 675 225 
L 675 1000 
Q 675 1450 650 1725 
L 2625 1725 
Q 2800 2000 2925 2275 
L 1025 2275 
Q 1050 2525 1050 2725 
L 1050 3325 
Q 1050 3550 1025 3800 
L 1525 3800 
Q 1500 3525 1500 3275 
L 1500 2650 
L 5050 2650 
L 5050 3325 
Q 5050 3575 5025 3775 
L 5525 3775 
Q 5500 3575 5500 3325 
L 5500 2750 
Q 5500 2550 5525 2275 
L 3000 2275 
z
M 3300 5275 
Q 3400 5000 3525 4650 
L 4950 4650 
Q 5375 4650 5950 4675 
L 5950 4275 
Q 5375 4300 4775 4300 
L 1525 4300 
Q 1050 4300 475 4275 
L 475 4675 
Q 1025 4650 1050 4650 
L 2975 4650 
Q 2900 4900 2750 5150 
Q 3025 5200 3300 5275 
z
M 2175 4125 
Q 2450 4050 2750 3937 
Q 3050 3825 3350 3725 
Q 3850 4025 4125 4250 
Q 4375 4100 4650 3925 
Q 4200 3800 3825 3550 
Q 4250 3350 4800 3100 
Q 4625 2950 4375 2775 
Q 4025 3000 3787 3112 
Q 3550 3225 3325 3300 
Q 3125 3175 2825 3050 
Q 2525 2925 2150 2775 
Q 2000 2975 1800 3125 
Q 2175 3200 2412 3287 
Q 2650 3375 2950 3475 
Q 2625 3575 2425 3637 
Q 2225 3700 1850 3775 
Q 2050 3950 2175 4125 
z
" transform="scale(0.015625)"/>
      <path id="SimHei-7edf" d="M 5150 4300 
Q 5525 4300 5950 4325 
L 5950 3875 
Q 5550 3900 5175 3900 
L 3775 3900 
Q 3975 3750 4250 3600 
Q 4050 3450 3837 3162 
Q 3625 2875 3225 2375 
Q 3800 2375 5025 2500 
Q 4925 2625 4625 2975 
Q 4850 3100 5025 3250 
Q 5450 2800 5950 2100 
Q 5700 1950 5525 1775 
Q 5375 1975 5275 2125 
Q 4925 2100 4825 2075 
L 4825 200 
Q 4825 -100 5075 -100 
L 5325 -100 
Q 5550 -100 5625 575 
Q 5850 400 6150 325 
Q 5925 -525 5525 -525 
L 4850 -525 
Q 4350 -525 4350 0 
L 4350 2025 
Q 4000 2000 3875 1975 
Q 3900 1050 3637 462 
Q 3375 -125 2625 -700 
Q 2500 -500 2175 -375 
Q 2575 -125 2850 175 
Q 3125 475 3275 850 
Q 3425 1225 3400 1925 
Q 3025 1900 2725 1825 
Q 2650 2200 2525 2475 
Q 2825 2500 3187 2975 
Q 3550 3450 3675 3900 
L 3275 3900 
Q 2950 3900 2475 3875 
L 2475 4325 
Q 2875 4300 3250 4300 
L 5150 4300 
z
M 1875 4825 
Q 1700 4600 1500 4250 
Q 1300 3900 900 3250 
Q 1375 3275 1650 3275 
Q 1850 3625 1975 3975 
Q 2250 3800 2550 3675 
Q 2375 3500 2075 3037 
Q 1775 2575 1225 1725 
Q 1950 1800 2500 1900 
Q 2375 1600 2375 1425 
Q 2150 1400 1587 1325 
Q 1025 1250 600 1125 
Q 525 1375 425 1625 
Q 700 1700 950 2075 
Q 1200 2450 1450 2900 
Q 1225 2875 925 2837 
Q 625 2800 425 2750 
Q 325 3000 200 3225 
Q 500 3300 862 4025 
Q 1225 4750 1275 5075 
Q 1575 4925 1875 4825 
z
M 2550 825 
Q 2525 575 2550 350 
Q 1975 200 1412 37 
Q 850 -125 550 -250 
Q 450 0 275 275 
Q 900 375 1450 500 
Q 2000 625 2550 825 
z
M 4100 5275 
Q 4375 4825 4500 4575 
Q 4325 4500 4025 4350 
Q 3825 4825 3650 5075 
Q 3950 5175 4100 5275 
z
" transform="scale(0.015625)"/>
      <path id="SimHei-8ba1" d="M 3925 3100 
L 3925 4350 
Q 3925 4850 3900 5125 
L 4425 5125 
Q 4400 4800 4400 4550 
L 4400 3100 
L 5425 3100 
Q 5725 3100 6075 3125 
L 6075 2650 
Q 5700 2675 5450 2675 
L 4400 2675 
L 4400 175 
Q 4400 -125 4425 -550 
L 3900 -550 
Q 3925 -125 3925 150 
L 3925 2675 
L 2950 2675 
Q 2575 2675 2200 2650 
L 2200 3125 
Q 2575 3100 2900 3100 
L 3925 3100 
z
M 1775 3150 
Q 1750 2675 1750 2150 
L 1750 625 
Q 2175 1050 2425 1400 
Q 2575 1200 2775 1000 
L 2075 300 
Q 1750 -25 1450 -350 
Q 1275 -125 1125 50 
Q 1300 250 1275 650 
L 1275 2725 
Q 600 2725 275 2700 
L 275 3175 
Q 675 3150 825 3150 
L 1775 3150 
z
M 1150 5050 
Q 1475 4725 2175 4000 
Q 1950 3800 1750 3625 
Q 1425 4100 775 4750 
Q 950 4875 1150 5050 
z
" transform="scale(0.015625)"/>
      <path id="SimHei-5206" d="M 1000 -650 
Q 825 -375 575 -225 
Q 975 -75 1300 137 
Q 1625 350 1875 662 
Q 2125 975 2250 1350 
Q 2375 1725 2425 2275 
Q 1850 2275 1500 2250 
L 1500 2775 
Q 1900 2750 2525 2750 
L 5025 2750 
Q 4975 2375 4950 2100 
L 4750 250 
Q 4700 -200 4350 -350 
Q 4000 -500 3575 -525 
Q 3550 -275 3325 50 
Q 3850 25 4037 87 
Q 4225 150 4275 525 
L 4450 2275 
L 2950 2275 
Q 2875 1625 2737 1187 
Q 2600 750 2350 425 
Q 2100 100 1750 -175 
Q 1400 -450 1000 -650 
z
M 3950 5175 
Q 4125 4650 4662 3975 
Q 5200 3300 6175 2800 
Q 5975 2625 5775 2275 
Q 5325 2600 4987 2887 
Q 4650 3175 4425 3425 
Q 4200 3675 3925 4137 
Q 3650 4600 3475 5000 
Q 3750 5075 3950 5175 
z
M 2700 4825 
Q 2475 4425 2325 4125 
Q 2175 3825 2025 3587 
Q 1875 3350 1575 2950 
Q 1275 2550 850 2125 
Q 625 2350 400 2475 
Q 900 2925 1187 3300 
Q 1475 3675 1737 4112 
Q 2000 4550 2200 5075 
Q 2400 4925 2700 4825 
z
" transform="scale(0.015625)"/>
      <path id="SimHei-5e03" d="M 2375 4225 
Q 2650 4775 2775 5300 
Q 3125 5175 3400 5075 
Q 3275 4975 2950 4225 
L 4800 4225 
Q 5550 4225 6025 4250 
L 6025 3800 
L 2725 3800 
Q 2325 3100 1975 2675 
L 3275 2675 
Q 3275 3225 3250 3575 
L 3775 3575 
Q 3750 3225 3750 2675 
L 5500 2675 
Q 5475 2225 5475 1775 
L 5475 750 
Q 5475 275 5212 150 
Q 4950 25 4450 -25 
Q 4400 325 4225 550 
Q 4800 550 4912 625 
Q 5025 700 5000 1025 
L 5000 2250 
L 3750 2250 
L 3750 550 
Q 3750 25 3775 -600 
L 3250 -600 
Q 3275 25 3275 550 
L 3275 2250 
L 2100 2250 
L 2100 0 
L 1600 0 
Q 1625 525 1625 1025 
L 1625 2225 
Q 1300 1850 650 1275 
Q 475 1475 200 1650 
Q 750 2025 1262 2562 
Q 1775 3100 2150 3800 
L 1550 3800 
Q 925 3800 400 3775 
L 400 4250 
Q 925 4225 1550 4225 
L 2375 4225 
z
" transform="scale(0.015625)"/>
      <path id="SimHei-56fe" d="M 5800 4975 
Q 5775 4350 5775 3600 
L 5775 925 
Q 5775 150 5800 -600 
L 5300 -600 
L 5300 -275 
L 1125 -275 
L 1125 -650 
L 625 -650 
Q 650 125 650 950 
L 650 3600 
Q 650 4325 625 4975 
L 5800 4975 
z
M 5300 150 
L 5300 4575 
L 1125 4575 
L 1125 150 
L 5300 150 
z
M 3225 4250 
Q 3075 4100 2950 3925 
L 4625 3925 
Q 4525 3700 4300 3375 
Q 4075 3050 3600 2600 
Q 4350 2225 5075 2150 
Q 4900 1925 4775 1675 
Q 3850 1950 3225 2350 
Q 2500 1875 1675 1650 
Q 1600 1875 1400 2075 
Q 2200 2200 2875 2600 
Q 2525 2925 2375 3150 
Q 2150 2900 1900 2650 
Q 1725 2850 1525 2950 
Q 1950 3300 2250 3737 
Q 2550 4175 2675 4475 
Q 2925 4350 3225 4250 
z
M 2450 1275 
Q 3550 950 4100 725 
Q 3975 525 3850 300 
Q 2825 725 2275 850 
Q 2375 1050 2450 1275 
z
M 2925 2050 
Q 3775 1700 4075 1600 
Q 3950 1400 3850 1150 
Q 3000 1550 2700 1650 
Q 2825 1825 2925 2050 
z
M 2625 3450 
Q 3000 3025 3275 2850 
Q 3600 3100 3875 3525 
L 2675 3525 
L 2625 3450 
z
" transform="scale(0.015625)"/>
     </defs>
     <use xlink:href="#SimHei-70b9"/>
     <use xlink:href="#SimHei-5230" x="100"/>
     <use xlink:href="#SimHei-5e73" x="200"/>
     <use xlink:href="#SimHei-9762" x="300"/>
     <use xlink:href="#SimHei-8ddd" x="400"/>
     <use xlink:href="#SimHei-79bb" x="500"/>
     <use xlink:href="#SimHei-7edf" x="600"/>
     <use xlink:href="#SimHei-8ba1" x="700"/>
     <use xlink:href="#SimHei-5206" x="800"/>
     <use xlink:href="#SimHei-5e03" x="900"/>
     <use xlink:href="#SimHei-56fe" x="1000"/>
    </g>
   </g>
  </g>
 </g>
 <defs>
  <clipPath id="pcfb7ec87dc">
   <rect x="29.2" y="22.95" width="334.8" height="217.44"/>
  </clipPath>
 </defs>
</svg>
